<svg width="29" height="37" viewBox="0 0 29 37" fill="none" xmlns="http://www.w3.org/2000/svg">
<path d="M17.1365 0.5L20.3631 10.2627C20.05 10.1399 19.6755 10.0019 19.2498 9.86523C17.9353 9.44307 16.1209 9.01758 14.1473 9.01758C12.2615 9.01763 10.5057 9.44493 9.22931 9.86719C8.81747 10.0034 8.45378 10.1402 8.14923 10.2627L11.1658 0.5H17.1365Z" fill="#C8CCD0" stroke="black"/>
<path d="M14.0918 8.81592C21.8636 8.81592 28.1835 15.136 28.1836 22.9077C28.1836 30.6795 21.8636 36.9995 14.0918 36.9995C6.32007 36.9994 0 30.6795 0 22.9077C0.000124602 15.1361 6.32014 8.81604 14.0918 8.81592ZM14.0918 9.59229C6.75005 9.59241 0.776492 15.566 0.776367 22.9077C0.776367 30.2496 6.74998 36.224 14.0918 36.2241C21.4337 36.2241 27.4082 30.2496 27.4082 22.9077C27.4081 15.5659 21.4336 9.59229 14.0918 9.59229Z" fill="black"/>
<path d="M14.0918 8.81592C21.8636 8.81592 28.1835 15.136 28.1836 22.9077C28.1836 30.6795 21.8636 36.9995 14.0918 36.9995C6.32007 36.9994 0 30.6795 0 22.9077C0.000124602 15.1361 6.32014 8.81604 14.0918 8.81592ZM14.0918 9.59229C6.75005 9.59241 0.776492 15.566 0.776367 22.9077C0.776367 30.2496 6.74998 36.224 14.0918 36.2241C21.4337 36.2241 27.4082 30.2496 27.4082 22.9077C27.4081 15.5659 21.4336 9.59229 14.0918 9.59229Z" stroke="black"/>
<path d="M14.0699 12.2582C20.0244 12.2584 24.8473 17.0873 24.8473 23.0366C24.8472 28.9911 20.0245 33.8147 14.0699 33.8149C8.11528 33.8149 3.29173 28.9912 3.29163 23.0366C3.29163 17.0818 8.11522 12.2582 14.0699 12.2582Z" fill="#C8CCD0" stroke="black"/>
</svg>
