<svg width="96" height="106" viewBox="0 0 96 106" fill="none" xmlns="http://www.w3.org/2000/svg">
<path d="M66 56.25C68.9062 56.25 71.1562 54 71.1562 51.0938H60.8438C60.8438 54 63.0938 56.25 66 56.25ZM82.9219 39.4688V26.0625C82.9219 18 77.2031 11.25 69.75 9.46879V7.78129C69.75 5.90629 68.7187 4.21878 66.9375 3.84378C64.3594 3.23441 62.25 5.20316 62.25 7.73441V9.51566C54.7969 11.25 49.0781 18 49.0781 26.0625V39.4688L43.9688 44.7188V47.3438H88.0312V44.7188L82.9219 39.4688Z" fill="#3B3D3F"/>
<path d="M53.5975 54.7675C36.8775 65.025 24.75 77.9775 19.2775 84.4675L5.9125 73.99L0 78.7475L23.0725 102.232C27.0325 92.0575 39.6275 72.175 55 58.04L53.5975 54.7675Z" fill="#3B3D3F"/>
</svg>
