<svg width="40" height="40" viewBox="0 0 40 40" fill="none" xmlns="http://www.w3.org/2000/svg">
<path d="M36.25 11.0099C36.2455 12.0543 35.8713 13.0633 35.1939 13.8581C34.5164 14.653 33.5793 15.1822 32.5489 15.3521C31.5184 15.5219 30.4611 15.3214 29.5644 14.786C28.6676 14.2507 27.9894 13.4151 27.65 12.4274H16.4375L21.43 27.6724H25.2125C25.4561 26.8922 25.9113 26.1949 26.5275 25.6578C27.1437 25.1208 27.8968 24.7652 28.703 24.6304C29.5091 24.4957 30.3369 24.5871 31.0942 24.8946C31.8516 25.2021 32.5088 25.7135 32.9929 26.3721C33.477 27.0307 33.769 27.8106 33.8365 28.6252C33.904 29.4397 33.7442 30.2571 33.375 30.9863C33.0059 31.7156 32.4417 32.3282 31.7453 32.756C31.0488 33.1839 30.2474 33.4102 29.43 33.4099C28.5242 33.4081 27.6408 33.1286 26.8988 32.6091C26.1568 32.0897 25.5918 31.3553 25.28 30.5049H20.815C20.3936 30.5061 19.9827 30.3737 19.6413 30.1266C19.2999 29.8795 19.0456 29.5306 18.915 29.1299L13.445 12.4299H12.345C12.0029 13.4145 11.3238 14.2464 10.4278 14.7788C9.53182 15.3113 8.47648 15.5099 7.4482 15.3398C6.41992 15.1696 5.48486 14.6415 4.80817 13.8488C4.13148 13.056 3.75669 12.0497 3.75 11.0074C3.75392 9.96287 4.12766 8.95344 4.80494 8.15818C5.48223 7.36292 6.41928 6.83323 7.4499 6.66306C8.48053 6.49289 9.53812 6.69323 10.4351 7.22855C11.3321 7.76387 12.0105 8.59957 12.35 9.58744H27.65C27.9895 8.59957 28.6679 7.76387 29.5649 7.22855C30.4619 6.69323 31.5195 6.49289 32.5501 6.66306C33.5807 6.83323 34.5178 7.36292 35.1951 8.15818C35.8723 8.95344 36.2461 9.96287 36.25 11.0074V11.0099ZM9.98 11.0099C9.97985 10.5222 9.79162 10.0533 9.45448 9.70075C9.11735 9.34825 8.65728 9.13932 8.17 9.11744C7.66808 9.11744 7.18671 9.31683 6.8318 9.67174C6.47689 10.0267 6.2775 10.508 6.2775 11.0099C6.2775 11.5119 6.47689 11.9932 6.8318 12.3481C7.18671 12.7031 7.66808 12.9024 8.17 12.9024C8.65728 12.8806 9.11735 12.6716 9.45448 12.3191C9.79162 11.9666 9.97985 11.4977 9.98 11.0099ZM31.32 28.9924C31.32 28.4905 31.1206 28.0092 30.7657 27.6542C30.4108 27.2993 29.9294 27.0999 29.4275 27.0999C28.9256 27.0999 28.4442 27.2993 28.0893 27.6542C27.7344 28.0092 27.535 28.4905 27.535 28.9924C27.535 29.4944 27.7344 29.9757 28.0893 30.3306C28.4442 30.6856 28.9256 30.8849 29.4275 30.8849C29.9294 30.8849 30.4108 30.6856 30.7657 30.3306C31.1206 29.9757 31.32 29.4944 31.32 28.9924ZM33.6425 11.0099C33.6423 10.5222 33.4541 10.0533 33.117 9.70075C32.7799 9.34825 32.3198 9.13932 31.8325 9.11744C31.3306 9.11744 30.8492 9.31683 30.4943 9.67174C30.1394 10.0267 29.94 10.508 29.94 11.0099C29.94 11.5119 30.1394 11.9932 30.4943 12.3481C30.8492 12.7031 31.3306 12.9024 31.8325 12.9024C32.3198 12.8806 32.7799 12.6716 33.117 12.3191C33.4541 11.9666 33.6423 11.4977 33.6425 11.0099Z" fill="black"/>
</svg>
