<svg width="23" height="24" viewBox="0 0 23 24" fill="none" xmlns="http://www.w3.org/2000/svg">
<path d="M1.78925 20.5684H21.2841C21.7424 20.5778 22.1788 20.7627 22.4996 21.0834C22.8203 21.4041 23 21.8351 23 22.284C23 22.7329 22.8203 23.1639 22.4996 23.4846C22.1788 23.8054 21.7424 23.9902 21.2841 23.9996H1.78925C1.55607 24.0044 1.32425 23.9636 1.10739 23.8795C0.890532 23.7954 0.692993 23.6698 0.526352 23.51C0.359711 23.3502 0.22732 23.1595 0.136938 22.949C0.0465554 22.7385 0 22.5124 0 22.284C0 22.0557 0.0465554 21.8296 0.136938 21.6191C0.22732 21.4085 0.359711 21.2178 0.526352 21.058C0.692993 20.8982 0.890532 20.7726 1.10739 20.6886C1.32425 20.6045 1.55607 20.5636 1.78925 20.5684ZM11.3596 2.33826C11.3872 2.36829 11.4025 2.39681 11.4324 2.42759C12.0342 3.08065 12.8707 3.97316 13.8957 5.07136C14.7774 5.99465 15.6399 6.91419 16.3145 7.61379L6.71355 17.3564L6.09869 17.9509C5.46373 18.5698 4.60418 18.9172 3.70822 18.917H0.965854C0.454487 18.917 0.0427873 18.5026 0.0427873 17.981V15.2486C0.0421849 14.7737 0.137674 14.3034 0.323741 13.8648C0.509808 13.4263 0.782766 13.0281 1.12685 12.6934L1.64129 12.1905L11.3596 2.33751V2.33826ZM12.8247 0.882008C13.095 0.603924 13.4202 0.382392 13.7804 0.230796C14.1407 0.0791999 14.5286 0.000686645 14.9207 0C15.7104 0 16.4663 0.317523 17.0168 0.880507L17.8977 1.77377C19.0569 2.94778 19.0569 4.84992 17.8977 6.02092L17.795 6.14103C16.1243 4.40044 14.4674 2.64713 12.8247 0.881257V0.882008Z" fill="#727272"/>
</svg>
