<svg width="14" height="13" viewBox="0 0 14 13" fill="none" xmlns="http://www.w3.org/2000/svg">
<path d="M2.91891 0C1.46389 0 0.605571 2.08155 0.21056 3.74326C0.0706901 4.33165 0.537393 4.86485 1.14218 4.86485H2.91891H4.94235C5.57339 4.86485 6.04538 4.28728 5.85877 3.68446C5.34751 2.03288 4.35683 0 2.91891 0Z" fill="#C9EBC9"/>
<path d="M2.29877 4.86489C2.29877 5.27911 2.63455 5.61489 3.04877 5.61489C3.46298 5.61489 3.79877 5.27911 3.79877 4.86489H3.04877H2.29877ZM3.04877 4.86489H3.79877V4.21625H3.04877H2.29877V4.86489H3.04877Z" fill="#C9EBC9"/>
<path d="M4.86487 9.08106H6.26784C6.76549 9.08106 7.18425 8.71153 7.34916 8.242C7.59503 7.54196 8.02115 6.81079 8.56216 6.81079C9.13453 6.81079 9.55491 7.62918 9.82331 8.36327C9.97662 8.7826 10.3619 9.08106 10.8083 9.08106H12.3243" stroke="#C9EBC9" stroke-width="1.5" stroke-linecap="round"/>
<path d="M4.86487 12H6.26784C6.76549 12 7.18425 11.6305 7.34916 11.1609C7.59503 10.4609 8.02115 9.72974 8.56216 9.72974C9.13453 9.72974 9.55491 10.5481 9.82331 11.2822C9.97662 11.7015 10.3619 12 10.8083 12H12.3243" stroke="#C9EBC9" stroke-width="1.5" stroke-linecap="round"/>
</svg>
