<svg width="27" height="27" viewBox="0 0 27 27" fill="none" xmlns="http://www.w3.org/2000/svg">
<path d="M17.4375 12.9375C16.4812 12.9375 15.75 13.6688 15.75 14.625C15.75 15.5813 16.4812 16.3125 17.4375 16.3125C18.3937 16.3125 19.125 15.5813 19.125 14.625C19.125 13.6688 18.3937 12.9375 17.4375 12.9375ZM9.5625 12.9375C8.60625 12.9375 7.875 13.6688 7.875 14.625C7.875 15.5813 8.60625 16.3125 9.5625 16.3125C10.5187 16.3125 11.25 15.5813 11.25 14.625C11.25 13.6688 10.5187 12.9375 9.5625 12.9375Z" fill="#727272"/>
<path d="M3.375 8.43744C3.375 7.81869 3.88125 7.31244 4.5 7.31244H9L7.36875 3.20619C7.14375 2.64369 7.425 1.96869 7.9875 1.74369C8.55 1.51869 9.225 1.79994 9.45 2.36244L11.4188 7.25619H15.525L17.4937 2.36244C17.7188 1.79994 18.3938 1.51869 18.9563 1.74369C19.5188 1.96869 19.8 2.64369 19.575 3.20619L18 7.31244H22.5C23.1187 7.31244 23.625 7.81869 23.625 8.43744V24.1874C23.625 24.8062 23.1187 25.3124 22.5 25.3124H4.5C3.88125 25.3124 3.375 24.8062 3.375 24.1874V8.43744ZM5.625 9.56244V23.0624H21.375V9.56244H5.625ZM27 19.1249V13.4999C27 12.8812 26.4937 12.3749 25.875 12.3749C25.2563 12.3749 24.75 12.8812 24.75 13.4999V19.1249C24.75 19.7437 25.2563 20.2499 25.875 20.2499C26.4937 20.2499 27 19.7437 27 19.1249ZM1.125 20.2499C1.74375 20.2499 2.25 19.7437 2.25 19.1249V13.4999C2.25 12.8812 1.74375 12.3749 1.125 12.3749C0.50625 12.3749 0 12.8812 0 13.4999V19.1249C0 19.7437 0.50625 20.2499 1.125 20.2499Z" fill="#727272"/>
</svg>
