<svg width="14" height="20" viewBox="0 0 14 20" fill="none" xmlns="http://www.w3.org/2000/svg">
<path fill-rule="evenodd" clip-rule="evenodd" d="M7 0C5.34315 0 4 1.34315 4 3V9.5C4 11.1569 5.34315 12.5 7 12.5C8.65685 12.5 10 11.1569 10 9.5V3C10 1.34315 8.65685 0 7 0ZM8 9.5V3C8 2.44772 7.55228 2 7 2C6.44772 2 6 2.44772 6 3V9.5C6 10.0523 6.44772 10.5 7 10.5C7.55228 10.5 8 10.0523 8 9.5Z" fill="white"/>
<path d="M7 14C4.23858 14 2 11.7614 2 9H0C0 12.5265 2.60771 15.4439 6 15.9291V20H8V15.9291C11.3923 15.4439 14 12.5265 14 9H12C12 11.7614 9.76142 14 7 14Z" fill="white"/>
</svg>
