<svg width="255" height="128" viewBox="0 0 255 128" fill="none" xmlns="http://www.w3.org/2000/svg">
<rect x="0.5" y="0.5" width="254" height="127" rx="9.5" fill="#F7F7F7" stroke="black"/>
<path d="M68.7452 46.9906L156.516 46.5161C158.167 46.5072 159.5 45.1667 159.5 43.5162V27.5C159.5 27.5 159.903 23.3838 161.5 21.5C163.049 19.6733 166.714 18.7747 167.733 18.5546C167.912 18.516 168.092 18.5 168.275 18.5H175.901C176.611 18.5 177.297 18.7515 177.839 19.2098L182.424 23.0897C183.106 23.6664 184.008 23.9084 184.893 23.7945C187.119 23.508 191.529 23.1168 194.5 24C197.152 24.7884 197.443 25.0891 200.5 27C204.5 29.5 204.5 34 204.5 34V67C204.5 68.6569 203.157 70 201.5 70H197.559C197.216 70 196.903 69.8064 196.75 69.5C196.597 69.1936 196.284 69 195.941 69H190C188.343 69 187 70.3431 187 72V75C187 76.6569 185.657 78 184 78H181C179.343 78 178 79.3431 178 81V104C178 105.657 176.657 107 175 107H169C167.343 107 166 108.343 166 110C166 111.657 164.657 113 163 113H70C68.6193 113 67.5 111.881 67.5 110.5V110.25C67.5 109.007 66.4926 108 65.25 108C64.0074 108 63 106.993 63 105.75V76C63 74.3431 61.6569 73 60 73H59C57.3431 73 56 71.6569 56 70V53.5C56 51.8431 57.3431 50.5 59 50.5H65.2453C66.2144 50.5 67 49.7144 67 48.7453C67 47.7799 67.7798 46.9958 68.7452 46.9906Z" fill="#EFEFEF" stroke="black" stroke-width="2"/>
<path fill-rule="evenodd" clip-rule="evenodd" d="M168.5 68.5H165.5V52.5H168.5V68.5ZM166 68H168V53H166V68Z" fill="black"/>
<path fill-rule="evenodd" clip-rule="evenodd" d="M190.5 27C196.842 27 202 31.9335 202 38C202 44.0665 196.842 49 190.5 49C184.158 49 179 44.0665 179 38C179 31.9335 184.158 27 190.5 27ZM190.5 27.5C184.413 27.5 179.5 32.2304 179.5 38C179.5 43.7696 184.413 48.5 190.5 48.5C196.587 48.5 201.5 43.7696 201.5 38C201.5 32.2304 196.587 27.5 190.5 27.5Z" fill="black"/>
<path fill-rule="evenodd" clip-rule="evenodd" d="M176.943 18C177.219 18 177.482 18.114 177.671 18.3145L183.5 24H193.5C198.876 24.0001 205 29.6661 205 35V66.959C205 68.6082 203.669 69.9483 202.02 69.959L198.638 69.9805C197.749 69.9862 196.952 69.606 196.399 69H187V78H166V113H67V72.8252C66.6869 72.936 66.3511 73 66 73H59C57.3431 73 56 71.6569 56 70V53C56 51.3431 57.3431 50 59 50H66C66.351 50 66.6869 50.0631 67 50.1738V47H81V108H154V47C154 47 157.657 47 160 47C159.448 47 159 46.5523 159 46V28.29C159 22.6114 163.263 18 168.52 18H176.943ZM168.52 18.5C163.575 18.5 159.5 22.85 159.5 28.29V46C159.5 46.2761 159.724 46.5 160 46.5C160 46.5 160 46.8047 160 47C160 47.1953 160 47.5 160 47.5H154.5V108.5H80.5V47.5H67.5V50.8809L66.833 50.6455C66.57 50.5525 66.2905 50.5 66 50.5H59C57.6193 50.5 56.5 51.6193 56.5 53V70C56.5 71.3807 57.6193 72.5 59 72.5H66C66.2898 72.5 66.569 72.4469 66.833 72.3535L67.5 72.1182V112.5H165.5V77.5H186.5V68.5H196.62L196.769 68.6631C197.23 69.1694 197.895 69.4852 198.635 69.4805L202.017 69.459C203.391 69.4499 204.5 68.3333 204.5 66.959V35C204.5 32.5159 203.064 29.8885 200.923 27.8633C198.85 25.9026 196.196 24.5844 193.737 24.5039L193.5 24.5H183.297L183.151 24.3584L177.322 18.6729L177.307 18.6572C177.212 18.5568 177.081 18.5 176.943 18.5H168.52Z" fill="black"/>
<path fill-rule="evenodd" clip-rule="evenodd" d="M64.5 74C65.3284 74 66 74.6716 66 75.5V106.5C66 107.328 65.3284 108 64.5 108C63.6716 108 63 107.328 63 106.5V75.5C63 74.6716 63.6716 74 64.5 74ZM64.5 74.5C63.9477 74.5 63.5 74.9477 63.5 75.5V106.5C63.5 107.052 63.9477 107.5 64.5 107.5C65.0523 107.5 65.5 107.052 65.5 106.5V75.5C65.5 74.9477 65.0523 74.5 64.5 74.5Z" fill="black"/>
<path fill-rule="evenodd" clip-rule="evenodd" d="M93.1426 90C93.6159 90 93.9998 90.4229 94 90.9443V106.056C94 106.577 93.616 107 93.1426 107H82.8574C82.384 107 82 106.577 82 106.056V90.9443C82.0002 90.4229 82.3841 90 82.8574 90H93.1426ZM82.8574 90.5C82.7047 90.5 82.5002 90.6524 82.5 90.9443V106.056C82.5 106.348 82.7044 106.5 82.8574 106.5H93.1426C93.2956 106.5 93.5 106.348 93.5 106.056V90.9443C93.4998 90.6524 93.2953 90.5 93.1426 90.5H82.8574Z" fill="black"/>
<path fill-rule="evenodd" clip-rule="evenodd" d="M108.071 90C108.584 90 109 90.4229 109 90.9443V106.056C109 106.577 108.584 107 108.071 107H96.9287C96.4159 107 96 106.577 96 106.056V90.9443C96.0002 90.4229 96.416 90 96.9287 90H108.071ZM96.9287 90.5C96.7002 90.5 96.5002 90.691 96.5 90.9443V106.056C96.5 106.309 96.6998 106.5 96.9287 106.5H108.071C108.3 106.5 108.5 106.309 108.5 106.056V90.9443C108.5 90.691 108.3 90.5 108.071 90.5H96.9287Z" fill="black"/>
<path fill-rule="evenodd" clip-rule="evenodd" d="M123.071 90C123.584 90 124 90.4229 124 90.9443V106.056C124 106.577 123.584 107 123.071 107H111.929C111.416 107 111 106.577 111 106.056V90.9443C111 90.4229 111.416 90 111.929 90H123.071ZM111.929 90.5C111.7 90.5 111.5 90.691 111.5 90.9443V106.056C111.5 106.309 111.7 106.5 111.929 106.5H123.071C123.3 106.5 123.5 106.309 123.5 106.056V90.9443C123.5 90.691 123.3 90.5 123.071 90.5H111.929Z" fill="black"/>
<path fill-rule="evenodd" clip-rule="evenodd" d="M138.071 90C138.584 90 139 90.4229 139 90.9443V106.056C139 106.577 138.584 107 138.071 107H126.929C126.416 107 126 106.577 126 106.056V90.9443C126 90.4229 126.416 90 126.929 90H138.071ZM126.929 90.5C126.7 90.5 126.5 90.691 126.5 90.9443V106.056C126.5 106.309 126.7 106.5 126.929 106.5H138.071C138.3 106.5 138.5 106.309 138.5 106.056V90.9443C138.5 90.691 138.3 90.5 138.071 90.5H126.929Z" fill="black"/>
<path fill-rule="evenodd" clip-rule="evenodd" d="M152.143 90C152.616 90 153 90.4229 153 90.9443V106.056C153 106.577 152.616 107 152.143 107H141.857C141.384 107 141 106.577 141 106.056V90.9443C141 90.4229 141.384 90 141.857 90H152.143ZM141.857 90.5C141.705 90.5 141.5 90.6524 141.5 90.9443V106.056C141.5 106.348 141.704 106.5 141.857 106.5H152.143C152.296 106.5 152.5 106.348 152.5 106.056V90.9443C152.5 90.6524 152.295 90.5 152.143 90.5H141.857Z" fill="black"/>
<path fill-rule="evenodd" clip-rule="evenodd" d="M176 80C177.105 80 178 80.8954 178 82V105C178 106.105 177.105 107 176 107H170C168.895 107 168 106.105 168 105V82C168 80.8954 168.895 80 170 80H176ZM170 80.5C169.172 80.5 168.5 81.1716 168.5 82V105C168.5 105.828 169.172 106.5 170 106.5H176C176.828 106.5 177.5 105.828 177.5 105V82C177.5 81.1716 176.828 80.5 176 80.5H170Z" fill="black"/>
<path fill-rule="evenodd" clip-rule="evenodd" d="M153 89H82V75H153V89ZM82.5 88.5H152.5V75.5H82.5V88.5Z" fill="black"/>
<path fill-rule="evenodd" clip-rule="evenodd" d="M153 74H82V57H153V74ZM82.5 73.5H152.5V57.5H82.5V73.5Z" fill="black"/>
<path fill-rule="evenodd" clip-rule="evenodd" d="M153 56H82V47H153V56ZM82.5 55.5H152.5V47.5H82.5V55.5Z" fill="black"/>
<path d="M16.4297 52.75L43.5703 52.75L30 67.2676L16.4297 52.75Z" fill="#EAB71D" stroke="black"/>
<path d="M16.4297 73.75L43.5703 73.75L30 88.2676L16.4297 73.75Z" fill="#F7DC48" stroke="black"/>
<path d="M16.4297 94.75L43.5703 94.75L30 109.268L16.4297 94.75Z" fill="#D9D9D9" stroke="black"/>
<rect x="232" y="10" width="12" height="104" fill="#EFEFEF"/>
<rect x="232" y="65" width="12" height="49" fill="#53575A"/>
<rect x="232.25" y="10.25" width="11.5" height="103.5" stroke="#53575A" stroke-width="0.5"/>
<rect x="13.5" y="8.5" width="39" height="18" rx="3.5" stroke="black"/>
<rect x="57" y="8" width="40" height="19" rx="4" fill="#4FBF65"/>
<path d="M20.8608 13.2727H22.7955L25.3864 19.5966H25.4886L28.0795 13.2727H30.0142V22H28.4972V16.0043H28.4162L26.0043 21.9744H24.8707L22.4588 15.9915H22.3778V22H20.8608V13.2727ZM31.7358 22V13.2727H37.4119V14.598H33.3168V16.9673H37.1179V18.2926H33.3168V20.6747H37.446V22H31.7358ZM45.4659 13.2727V22H43.8849V14.8111H43.8338L41.7926 16.1151V14.6662L43.9616 13.2727H45.4659Z" fill="black"/>
<path d="M190.824 97.8409V96.1648L195.761 88.3636H197.159V90.75H196.307L192.983 96.017V96.108H199.875V97.8409H190.824ZM196.375 100V97.3295L196.398 96.5795V88.3636H198.386V100H196.375ZM205.736 100.159C204.978 100.159 204.3 100.017 203.702 99.733C203.103 99.4451 202.628 99.0511 202.276 98.5511C201.927 98.0511 201.741 97.4792 201.719 96.8352H203.764C203.802 97.3125 204.009 97.7027 204.384 98.0057C204.759 98.3049 205.209 98.4545 205.736 98.4545C206.149 98.4545 206.516 98.3598 206.838 98.1705C207.16 97.9811 207.414 97.7178 207.599 97.3807C207.785 97.0436 207.876 96.6591 207.872 96.2273C207.876 95.7879 207.783 95.3977 207.594 95.0568C207.404 94.7159 207.145 94.4489 206.815 94.2557C206.486 94.0587 206.107 93.9602 205.679 93.9602C205.33 93.9564 204.988 94.0208 204.651 94.1534C204.313 94.286 204.046 94.4602 203.849 94.6761L201.946 94.3636L202.554 88.3636H209.304V90.125H204.298L203.963 93.2102H204.031C204.247 92.9564 204.552 92.7462 204.946 92.5795C205.34 92.4091 205.772 92.3239 206.241 92.3239C206.946 92.3239 207.575 92.4905 208.128 92.8239C208.681 93.1534 209.116 93.608 209.435 94.1875C209.753 94.767 209.912 95.4299 209.912 96.1761C209.912 96.9451 209.734 97.6307 209.378 98.233C209.026 98.8314 208.535 99.303 207.906 99.6477C207.281 99.9886 206.558 100.159 205.736 100.159ZM218.037 97.8182V97.2045C218.037 96.7538 218.132 96.339 218.321 95.9602C218.514 95.5814 218.795 95.2765 219.162 95.0455C219.529 94.8144 219.974 94.6989 220.497 94.6989C221.035 94.6989 221.486 94.8144 221.849 95.0455C222.213 95.2727 222.488 95.5758 222.673 95.9545C222.863 96.3333 222.957 96.75 222.957 97.2045V97.8182C222.957 98.2689 222.863 98.6837 222.673 99.0625C222.484 99.4413 222.205 99.7462 221.838 99.9773C221.474 100.208 221.027 100.324 220.497 100.324C219.967 100.324 219.518 100.208 219.151 99.9773C218.783 99.7462 218.505 99.4413 218.315 99.0625C218.13 98.6837 218.037 98.2689 218.037 97.8182ZM219.52 97.2045V97.8182C219.52 98.1174 219.592 98.392 219.736 98.642C219.88 98.892 220.134 99.017 220.497 99.017C220.865 99.017 221.116 98.8939 221.253 98.6477C221.393 98.3977 221.463 98.1212 221.463 97.8182V97.2045C221.463 96.9015 221.397 96.625 221.264 96.375C221.132 96.1212 220.876 95.9943 220.497 95.9943C220.141 95.9943 219.889 96.1212 219.741 96.375C219.594 96.625 219.52 96.9015 219.52 97.2045ZM212.122 91.1591V90.5455C212.122 90.0909 212.219 89.6742 212.412 89.2955C212.605 88.9167 212.885 88.6136 213.253 88.3864C213.62 88.1553 214.065 88.0398 214.588 88.0398C215.122 88.0398 215.571 88.1553 215.935 88.3864C216.302 88.6136 216.579 88.9167 216.764 89.2955C216.95 89.6742 217.043 90.0909 217.043 90.5455V91.1591C217.043 91.6136 216.948 92.0303 216.759 92.4091C216.573 92.7841 216.296 93.0852 215.929 93.3125C215.562 93.5398 215.115 93.6534 214.588 93.6534C214.054 93.6534 213.603 93.5398 213.236 93.3125C212.872 93.0852 212.596 92.7822 212.406 92.4034C212.217 92.0246 212.122 91.6098 212.122 91.1591ZM213.616 90.5455V91.1591C213.616 91.4621 213.687 91.7386 213.827 91.9886C213.971 92.2348 214.224 92.358 214.588 92.358C214.952 92.358 215.202 92.2348 215.338 91.9886C215.478 91.7386 215.548 91.4621 215.548 91.1591V90.5455C215.548 90.2424 215.482 89.9659 215.349 89.7159C215.217 89.4621 214.963 89.3352 214.588 89.3352C214.228 89.3352 213.976 89.4621 213.832 89.7159C213.688 89.9697 213.616 90.2462 213.616 90.5455ZM212.77 100L220.77 88.3636H222.19L214.19 100H212.77Z" fill="#53575A"/>
<path d="M189.004 114V103.818H190.849V112.454H195.333V114H189.004ZM205.635 108.909C205.635 110.006 205.43 110.946 205.019 111.728C204.611 112.507 204.055 113.103 203.349 113.518C202.646 113.932 201.849 114.139 200.957 114.139C200.066 114.139 199.267 113.932 198.561 113.518C197.858 113.1 197.301 112.502 196.89 111.723C196.483 110.941 196.279 110.003 196.279 108.909C196.279 107.812 196.483 106.874 196.89 106.095C197.301 105.313 197.858 104.715 198.561 104.3C199.267 103.886 200.066 103.679 200.957 103.679C201.849 103.679 202.646 103.886 203.349 104.3C204.055 104.715 204.611 105.313 205.019 106.095C205.43 106.874 205.635 107.812 205.635 108.909ZM203.781 108.909C203.781 108.137 203.66 107.486 203.418 106.955C203.18 106.422 202.848 106.019 202.424 105.747C202 105.472 201.511 105.335 200.957 105.335C200.404 105.335 199.915 105.472 199.491 105.747C199.066 106.019 198.733 106.422 198.491 106.955C198.253 107.486 198.133 108.137 198.133 108.909C198.133 109.681 198.253 110.334 198.491 110.868C198.733 111.398 199.066 111.801 199.491 112.076C199.915 112.348 200.404 112.484 200.957 112.484C201.511 112.484 202 112.348 202.424 112.076C202.848 111.801 203.18 111.398 203.418 110.868C203.66 110.334 203.781 109.681 203.781 108.909ZM208.14 114H206.171L209.756 103.818H212.033L215.622 114H213.653L210.934 105.906H210.854L208.14 114ZM208.205 110.008H213.574V111.489H208.205V110.008ZM220.414 114H216.963V103.818H220.483C221.494 103.818 222.362 104.022 223.088 104.43C223.817 104.834 224.378 105.416 224.769 106.175C225.16 106.934 225.355 107.842 225.355 108.899C225.355 109.96 225.158 110.871 224.764 111.634C224.373 112.396 223.807 112.981 223.068 113.388C222.333 113.796 221.448 114 220.414 114ZM218.808 112.404H220.324C221.033 112.404 221.625 112.275 222.099 112.016C222.573 111.754 222.929 111.365 223.168 110.848C223.406 110.328 223.526 109.678 223.526 108.899C223.526 108.12 223.406 107.474 223.168 106.96C222.929 106.443 222.576 106.057 222.109 105.802C221.645 105.543 221.068 105.414 220.379 105.414H218.808V112.404Z" fill="#53575A"/>
<path d="M64.8608 22V13.2727H68.1335C68.804 13.2727 69.3665 13.3892 69.821 13.6222C70.2784 13.8551 70.6236 14.1818 70.8565 14.6023C71.0923 15.0199 71.2102 15.5071 71.2102 16.0639C71.2102 16.6236 71.0909 17.1094 70.8523 17.5213C70.6165 17.9304 70.2685 18.2472 69.8082 18.4716C69.348 18.6932 68.7827 18.804 68.1122 18.804H65.7812V17.4915H67.8991C68.2912 17.4915 68.6122 17.4375 68.8622 17.3295C69.1122 17.2187 69.2969 17.0582 69.4162 16.848C69.5384 16.6349 69.5994 16.3736 69.5994 16.0639C69.5994 15.7543 69.5384 15.4901 69.4162 15.2713C69.294 15.0497 69.108 14.8821 68.858 14.7685C68.608 14.652 68.2855 14.5938 67.8906 14.5938H66.4418V22H64.8608ZM69.3693 18.0455L71.5298 22H69.7656L67.6435 18.0455H69.3693ZM78.1669 13.2727H79.7479V18.9744C79.7479 19.5994 79.6001 20.1491 79.3047 20.6236C79.0121 21.098 78.6001 21.4687 78.0689 21.7358C77.5376 22 76.9169 22.1321 76.2067 22.1321C75.4936 22.1321 74.8714 22 74.3402 21.7358C73.8089 21.4687 73.397 21.098 73.1044 20.6236C72.8118 20.1491 72.6655 19.5994 72.6655 18.9744V13.2727H74.2464V18.8423C74.2464 19.206 74.326 19.5298 74.4851 19.8139C74.647 20.098 74.8743 20.321 75.1669 20.483C75.4595 20.642 75.8061 20.7216 76.2067 20.7216C76.6072 20.7216 76.9538 20.642 77.2464 20.483C77.5419 20.321 77.7692 20.098 77.9283 19.8139C78.0874 19.5298 78.1669 19.206 78.1669 18.8423V13.2727ZM88.6381 13.2727V22H87.2319L83.1197 16.0554H83.0472V22H81.4663V13.2727H82.881L86.989 19.2216H87.0657V13.2727H88.6381Z" fill="white"/>
<path d="M244 65L250 61.5359L250 68.4641L244 65Z" fill="#53575A"/>
<path d="M105.642 22L103.256 13.2727H104.33L106.153 20.3807H106.239L108.097 13.2727H109.29L111.148 20.3807H111.233L113.057 13.2727H114.131L111.744 22H110.653L108.727 15.0455H108.659L106.733 22H105.642ZM118.089 22.1193C117.504 22.1193 116.987 22.0156 116.538 21.8082C116.092 21.598 115.744 21.3097 115.494 20.9432C115.244 20.5739 115.121 20.1534 115.124 19.6818C115.121 19.3125 115.193 18.9716 115.341 18.6591C115.489 18.3437 115.69 18.081 115.946 17.8707C116.205 17.6577 116.493 17.5227 116.811 17.4659V17.4148C116.393 17.3068 116.061 17.0724 115.814 16.7116C115.567 16.348 115.445 15.9347 115.447 15.4716C115.445 15.0284 115.557 14.6321 115.784 14.2827C116.011 13.9332 116.324 13.6577 116.722 13.456C117.122 13.2543 117.578 13.1534 118.089 13.1534C118.595 13.1534 119.047 13.2543 119.445 13.456C119.842 13.6577 120.155 13.9332 120.382 14.2827C120.612 14.6321 120.729 15.0284 120.732 15.4716C120.729 15.9347 120.602 16.348 120.352 16.7116C120.105 17.0724 119.777 17.3068 119.368 17.4148V17.4659C119.683 17.5227 119.967 17.6577 120.22 17.8707C120.473 18.081 120.675 18.3437 120.825 18.6591C120.976 18.9716 121.053 19.3125 121.055 19.6818C121.053 20.1534 120.925 20.5739 120.672 20.9432C120.422 21.3097 120.074 21.598 119.628 21.8082C119.185 22.0156 118.672 22.1193 118.089 22.1193ZM118.089 21.1818C118.484 21.1818 118.825 21.1179 119.112 20.9901C119.399 20.8622 119.621 20.6818 119.777 20.4489C119.933 20.2159 120.013 19.9432 120.016 19.6307C120.013 19.3011 119.928 19.0099 119.76 18.7571C119.592 18.5043 119.364 18.3054 119.074 18.1605C118.787 18.0156 118.459 17.9432 118.089 17.9432C117.717 17.9432 117.385 18.0156 117.092 18.1605C116.803 18.3054 116.574 18.5043 116.406 18.7571C116.241 19.0099 116.161 19.3011 116.163 19.6307C116.161 19.9432 116.236 20.2159 116.389 20.4489C116.545 20.6818 116.768 20.8622 117.058 20.9901C117.348 21.1179 117.692 21.1818 118.089 21.1818ZM118.089 17.0398C118.402 17.0398 118.679 16.9773 118.92 16.8523C119.165 16.7273 119.357 16.5526 119.496 16.3281C119.635 16.1037 119.706 15.8409 119.709 15.5398C119.706 15.2443 119.636 14.9872 119.5 14.7685C119.364 14.5469 119.175 14.3764 118.933 14.2571C118.692 14.1349 118.411 14.0739 118.089 14.0739C117.763 14.0739 117.477 14.1349 117.233 14.2571C116.989 14.3764 116.8 14.5469 116.666 14.7685C116.533 14.9872 116.467 15.2443 116.47 15.5398C116.467 15.8409 116.534 16.1037 116.67 16.3281C116.81 16.5526 117.001 16.7273 117.246 16.8523C117.49 16.9773 117.771 17.0398 118.089 17.0398ZM123.2 13.2727L125.791 20.6193H125.893L128.484 13.2727H129.592L126.387 22H125.297L122.092 13.2727H123.2ZM133.747 22.1193C133.184 22.1193 132.683 22.0227 132.243 21.8295C131.805 21.6364 131.457 21.3679 131.199 21.0241C130.943 20.6776 130.804 20.2756 130.781 19.8182H131.855C131.877 20.0994 131.974 20.3423 132.145 20.5469C132.315 20.7486 132.538 20.9048 132.814 21.0156C133.089 21.1264 133.395 21.1818 133.73 21.1818C134.105 21.1818 134.437 21.1165 134.727 20.9858C135.017 20.8551 135.244 20.6733 135.409 20.4403C135.574 20.2074 135.656 19.9375 135.656 19.6307C135.656 19.3097 135.576 19.027 135.417 18.7827C135.258 18.5355 135.025 18.3423 134.718 18.2031C134.412 18.0639 134.037 17.9943 133.593 17.9943H132.895V17.0568H133.593C133.94 17.0568 134.244 16.9943 134.505 16.8693C134.77 16.7443 134.975 16.5682 135.123 16.3409C135.274 16.1136 135.349 15.8466 135.349 15.5398C135.349 15.2443 135.284 14.9872 135.153 14.7685C135.022 14.5497 134.838 14.3793 134.599 14.2571C134.363 14.1349 134.085 14.0739 133.764 14.0739C133.463 14.0739 133.179 14.1293 132.912 14.2401C132.647 14.348 132.431 14.5057 132.264 14.7131C132.096 14.9176 132.005 15.1648 131.991 15.4545H130.968C130.985 14.9972 131.123 14.5966 131.382 14.2528C131.64 13.9062 131.978 13.6364 132.396 13.4432C132.816 13.25 133.278 13.1534 133.781 13.1534C134.321 13.1534 134.784 13.2628 135.17 13.4815C135.556 13.6974 135.853 13.983 136.061 14.3381C136.268 14.6932 136.372 15.0767 136.372 15.4886C136.372 15.9801 136.243 16.3991 135.984 16.7457C135.728 17.0923 135.38 17.3324 134.94 17.4659V17.5341C135.491 17.625 135.922 17.8594 136.231 18.2372C136.541 18.6122 136.696 19.0767 136.696 19.6307C136.696 20.1051 136.566 20.5312 136.308 20.9091C136.052 21.2841 135.703 21.5795 135.26 21.7955C134.816 22.0114 134.312 22.1193 133.747 22.1193ZM141.507 13.2727V22H140.45V14.3807H140.399L138.268 15.7955V14.7216L140.45 13.2727H141.507Z" fill="black"/>
</svg>
