<svg width="147" height="35" viewBox="0 0 147 35" fill="none" xmlns="http://www.w3.org/2000/svg">
<rect x="0.5" y="0.5" width="146" height="34" rx="9.5" fill="#EFEFEF" stroke="black"/>
<path d="M142 17.5L132.25 22.2631L132.25 12.7369L142 17.5Z" fill="#626262"/>
<path d="M15.8608 13.2727H17.7955L20.3864 19.5966H20.4886L23.0795 13.2727H25.0142V22H23.4972V16.0043H23.4162L21.0043 21.9744H19.8707L17.4588 15.9915H17.3778V22H15.8608V13.2727ZM26.7358 22V13.2727H32.4119V14.598H28.3168V16.9673H32.1179V18.2926H28.3168V20.6747H32.446V22H26.7358ZM36.7585 20.3807V19.1236L40.4616 13.2727H41.5099V15.0625H40.8707L38.3778 19.0128V19.081H43.5469V20.3807H36.7585ZM40.9219 22V19.9972L40.9389 19.4347V13.2727H42.4304V22H40.9219Z" fill="black"/>
<rect x="10.5" y="8.5" width="39" height="18" rx="3.5" stroke="black"/>
<rect x="55" y="8" width="71" height="19" rx="4" fill="#999999"/>
<path d="M67.6037 15.6719C67.5639 15.2997 67.3963 15.0099 67.1009 14.8026C66.8082 14.5952 66.4276 14.4915 65.9588 14.4915C65.6293 14.4915 65.3466 14.5412 65.1108 14.6406C64.875 14.7401 64.6946 14.875 64.5696 15.0455C64.4446 15.2159 64.3807 15.4105 64.3778 15.6293C64.3778 15.8111 64.419 15.9687 64.5014 16.1023C64.5866 16.2358 64.7017 16.3494 64.8466 16.4432C64.9915 16.5341 65.152 16.6108 65.3281 16.6733C65.5043 16.7358 65.6818 16.7884 65.8608 16.831L66.679 17.0355C67.0085 17.1122 67.3253 17.2159 67.6293 17.3466C67.9361 17.4773 68.2102 17.642 68.4517 17.8409C68.696 18.0398 68.8892 18.2798 69.0312 18.5611C69.1733 18.8423 69.2443 19.1719 69.2443 19.5497C69.2443 20.0611 69.1136 20.5114 68.8523 20.9006C68.5909 21.2869 68.2131 21.5895 67.7188 21.8082C67.2273 22.0241 66.6321 22.1321 65.9332 22.1321C65.2543 22.1321 64.6648 22.027 64.1648 21.8168C63.6676 21.6065 63.2784 21.2997 62.9972 20.8963C62.7188 20.4929 62.5682 20.0014 62.5455 19.4219H64.1009C64.1236 19.7259 64.2173 19.9787 64.3821 20.1804C64.5469 20.3821 64.7614 20.5327 65.0256 20.6321C65.2926 20.7315 65.5909 20.7812 65.9205 20.7812C66.2642 20.7812 66.5653 20.7301 66.8239 20.6278C67.0852 20.5227 67.2898 20.3778 67.4375 20.1932C67.5852 20.0057 67.6605 19.7869 67.6634 19.5369C67.6605 19.3097 67.5938 19.1222 67.4631 18.9744C67.3324 18.8239 67.1491 18.6989 66.9134 18.5994C66.6804 18.4972 66.4077 18.4062 66.0952 18.3267L65.1023 18.071C64.3835 17.8864 63.8153 17.6065 63.3977 17.2315C62.983 16.8537 62.7756 16.3523 62.7756 15.7273C62.7756 15.2131 62.9148 14.7628 63.1932 14.3764C63.4744 13.9901 63.8565 13.6903 64.3395 13.4773C64.8224 13.2614 65.3693 13.1534 65.9801 13.1534C66.5994 13.1534 67.142 13.2614 67.608 13.4773C68.0767 13.6903 68.4446 13.9872 68.7116 14.3679C68.9787 14.7457 69.1165 15.1804 69.125 15.6719H67.6037ZM70.2702 14.598V13.2727H77.2333V14.598H74.5359V22H72.9677V14.598H70.2702ZM78.6417 22H76.9542L80.0266 13.2727H81.9783L85.055 22H83.3675L81.0366 15.0625H80.9684L78.6417 22ZM78.6971 18.5781H83.2994V19.848H78.6971V18.5781ZM93.3764 13.2727V22H91.9702L87.858 16.0554H87.7855V22H86.2045V13.2727H87.6193L91.7273 19.2216H91.804V13.2727H93.3764ZM98.0565 22H95.0991V13.2727H98.1161C98.9826 13.2727 99.7269 13.4474 100.349 13.7969C100.974 14.1435 101.454 14.642 101.789 15.2926C102.125 15.9432 102.292 16.7216 102.292 17.6278C102.292 18.5369 102.123 19.3182 101.785 19.9716C101.45 20.625 100.966 21.1264 100.332 21.4759C99.7013 21.8253 98.9428 22 98.0565 22ZM96.68 20.6321H97.9798C98.5877 20.6321 99.0948 20.5213 99.5011 20.2997C99.9073 20.0753 100.213 19.7415 100.417 19.2983C100.622 18.8523 100.724 18.2955 100.724 17.6278C100.724 16.9602 100.622 16.4062 100.417 15.9659C100.213 15.5227 99.9102 15.1918 99.5096 14.973C99.1119 14.7514 98.6175 14.6406 98.0266 14.6406H96.68V20.6321ZM103.794 22V13.2727H107.135C107.766 13.2727 108.29 13.3722 108.708 13.571C109.128 13.767 109.442 14.0355 109.65 14.3764C109.86 14.7173 109.965 15.1037 109.965 15.5355C109.965 15.8906 109.897 16.1946 109.76 16.4474C109.624 16.6974 109.441 16.9006 109.211 17.0568C108.98 17.2131 108.723 17.3253 108.439 17.3935V17.4787C108.749 17.4957 109.046 17.5909 109.33 17.7642C109.617 17.9347 109.851 18.1761 110.033 18.4886C110.215 18.8011 110.306 19.179 110.306 19.6222C110.306 20.0739 110.196 20.4801 109.978 20.8409C109.759 21.1989 109.429 21.4815 108.989 21.6889C108.549 21.8963 107.995 22 107.327 22H103.794ZM105.375 20.679H107.076C107.65 20.679 108.063 20.5696 108.316 20.3509C108.571 20.1293 108.699 19.8452 108.699 19.4986C108.699 19.2401 108.635 19.0071 108.507 18.7997C108.38 18.5895 108.198 18.4247 107.962 18.3054C107.726 18.1832 107.445 18.1222 107.118 18.1222H105.375V20.679ZM105.375 16.9844H106.939C107.212 16.9844 107.458 16.9347 107.676 16.8352C107.895 16.733 108.067 16.5895 108.192 16.4048C108.32 16.2173 108.384 15.9957 108.384 15.7401C108.384 15.402 108.265 15.1236 108.026 14.9048C107.79 14.6861 107.439 14.5767 106.973 14.5767H105.375V16.9844ZM111.085 13.2727H112.87L115.005 17.1335H115.09L117.225 13.2727H119.011L115.836 18.7443V22H114.259V18.7443L111.085 13.2727Z" fill="white"/>
</svg>
