<svg width="30" height="30" viewBox="0 0 30 30" fill="none" xmlns="http://www.w3.org/2000/svg">
<path d="M14.9854 26.9924C12.6162 26.9924 10.2971 26.2925 8.31783 24.9729C6.34854 23.6533 4.80892 21.7838 3.89925 19.5844C2.98957 17.395 2.74973 14.9758 3.21956 12.6564C3.6794 10.3271 4.82901 8.1877 6.49841 6.51817C8.17781 4.83865 10.3169 3.69894 12.6361 3.23907C14.9653 2.7792 17.3746 3.00919 19.5638 3.91893C21.753 4.82868 23.6322 6.36816 24.9518 8.3376C26.2713 10.307 26.9711 12.6264 26.9711 15.0058C26.9711 18.1849 25.7115 21.234 23.4623 23.4933C21.2131 25.7527 18.1642 27.0024 14.9754 27.0024L14.9854 26.9924ZM14.9854 0C12.0164 0 9.11739 0.87978 6.65827 2.52931C4.18915 4.17885 2.26982 6.51816 1.14023 9.25739C0.000636588 11.9966 -0.289113 15.0158 0.290679 17.925C0.870471 20.8342 2.29982 23.5033 4.39907 25.6027C6.49832 27.7021 9.16754 29.1317 12.0765 29.7116C14.9855 30.2914 18.0043 29.9915 20.7433 28.8618C23.4823 27.7221 25.8215 25.8027 27.4709 23.3434C29.1203 20.8841 30 17.9749 30 15.0158C30 13.0463 29.61 11.0969 28.8603 9.2774C28.1105 7.45792 27.0009 5.80839 25.6114 4.40879C24.2219 3.00918 22.5627 1.90949 20.7433 1.15971C18.924 0.409918 16.9747 0.0200139 15.0054 0.0200139L14.9854 0Z" fill="#C8CCD0"/>
<path d="M17.0642 13.1261V11.5366H12.9055H11.5262V13.1261H12.9055V22.6335H11.5262V24.223H12.9055H17.0642H18.4436V22.6335H17.0642V13.1261Z" fill="#C8CCD0"/>
<path d="M14.9844 10.377C16.2539 10.377 17.2936 9.34722 17.2936 8.06758C17.2936 6.78795 16.2639 5.7583 14.9844 5.7583C13.7048 5.7583 12.6751 6.78795 12.6751 8.06758C12.6751 9.34722 13.7048 10.377 14.9844 10.377Z" fill="#C8CCD0"/>
</svg>
