<svg width="162" height="18" viewBox="0 0 162 18" fill="none" xmlns="http://www.w3.org/2000/svg">
<path d="M39.2608 6C39.223 5.52652 39.0454 5.1572 38.7282 4.89205C38.4157 4.62689 37.9398 4.49432 37.3006 4.49432C36.8934 4.49432 36.5596 4.54403 36.2992 4.64347C36.0435 4.73816 35.8541 4.86837 35.731 5.03409C35.6079 5.19981 35.544 5.3892 35.5392 5.60227C35.5298 5.77746 35.5605 5.93608 35.6316 6.07812C35.7073 6.21544 35.8257 6.34091 35.9867 6.45455C36.1477 6.56345 36.3536 6.66288 36.6046 6.75284C36.8555 6.8428 37.1538 6.9233 37.4995 6.99432L38.6926 7.25C39.4976 7.42045 40.1865 7.64536 40.7594 7.92472C41.3323 8.20407 41.8011 8.53314 42.1657 8.91193C42.5302 9.28598 42.7978 9.70739 42.9682 10.1761C43.1434 10.6449 43.2334 11.1562 43.2381 11.7102C43.2334 12.6667 42.9943 13.4763 42.5208 14.1392C42.0473 14.8021 41.3702 15.3063 40.4895 15.652C39.6136 15.9976 38.5601 16.1705 37.329 16.1705C36.0648 16.1705 34.9616 15.9834 34.0194 15.6094C33.0819 15.2353 32.3527 14.66 31.8319 13.8835C31.3158 13.1023 31.0553 12.1032 31.0506 10.8864H34.8006C34.8243 11.3314 34.9355 11.7055 35.1344 12.0085C35.3333 12.3116 35.6126 12.5412 35.9725 12.6974C36.3371 12.8537 36.7703 12.9318 37.2722 12.9318C37.6936 12.9318 38.0463 12.8797 38.3304 12.7756C38.6145 12.6714 38.83 12.527 38.9767 12.3423C39.1235 12.1577 39.1993 11.947 39.204 11.7102C39.1993 11.4877 39.1259 11.2936 38.9838 11.1278C38.8465 10.9574 38.6193 10.8059 38.302 10.6733C37.9848 10.536 37.5563 10.4081 37.0165 10.2898L35.5676 9.97727C34.2798 9.69792 33.2641 9.23153 32.5208 8.57812C31.7821 7.91998 31.4152 7.02273 31.4199 5.88636C31.4152 4.96307 31.6614 4.15578 32.1586 3.46449C32.6605 2.76847 33.3541 2.22633 34.2395 1.83807C35.1297 1.44981 36.15 1.25568 37.3006 1.25568C38.4748 1.25568 39.4905 1.45218 40.3475 1.84517C41.2045 2.23816 41.865 2.79214 42.329 3.5071C42.7978 4.21733 43.0345 5.0483 43.0392 6H39.2608ZM44.7402 16V1.45455H48.6891V12.8182H54.5698V16H44.7402ZM69.6905 8.72727C69.6905 10.3466 69.3757 11.7126 68.7459 12.8253C68.1162 13.9332 67.2663 14.7737 66.1962 15.3466C65.1261 15.9148 63.9329 16.1989 62.6167 16.1989C61.2909 16.1989 60.093 15.9124 59.0229 15.3395C57.9576 14.7618 57.11 13.919 56.4803 12.8111C55.8553 11.6984 55.5428 10.3371 55.5428 8.72727C55.5428 7.10795 55.8553 5.74432 56.4803 4.63636C57.11 3.52367 57.9576 2.68324 59.0229 2.11506C60.093 1.54214 61.2909 1.25568 62.6167 1.25568C63.9329 1.25568 65.1261 1.54214 66.1962 2.11506C67.2663 2.68324 68.1162 3.52367 68.7459 4.63636C69.3757 5.74432 69.6905 7.10795 69.6905 8.72727ZM65.628 8.72727C65.628 7.85606 65.512 7.12216 65.28 6.52557C65.0527 5.92424 64.7142 5.4697 64.2644 5.16193C63.8193 4.84943 63.2701 4.69318 62.6167 4.69318C61.9632 4.69318 61.4116 4.84943 60.9618 5.16193C60.5167 5.4697 60.1782 5.92424 59.9462 6.52557C59.7189 7.12216 59.6053 7.85606 59.6053 8.72727C59.6053 9.59848 59.7189 10.3348 59.9462 10.9361C60.1782 11.5327 60.5167 11.9872 60.9618 12.2997C61.4116 12.6075 61.9632 12.7614 62.6167 12.7614C63.2701 12.7614 63.8193 12.6075 64.2644 12.2997C64.7142 11.9872 65.0527 11.5327 65.28 10.9361C65.512 10.3348 65.628 9.59848 65.628 8.72727ZM74.2928 16L70.003 1.45455H74.4064L76.3951 10.4034H76.5087L78.8667 1.45455H82.3326L84.6905 10.4318H84.8042L86.7928 1.45455H91.1962L86.9064 16H83.128L80.6564 7.875H80.5428L78.0712 16H74.2928ZM102.056 16H96.459V1.45455H101.999C103.495 1.45455 104.788 1.74574 105.877 2.32812C106.97 2.90578 107.813 3.73911 108.405 4.82812C109.002 5.91241 109.3 7.21212 109.3 8.72727C109.3 10.2424 109.004 11.5445 108.412 12.6335C107.82 13.7178 106.982 14.5511 105.898 15.1335C104.814 15.7112 103.533 16 102.056 16ZM100.408 12.6477H101.914C102.633 12.6477 103.246 12.5317 103.753 12.2997C104.264 12.0677 104.653 11.6676 104.918 11.0994C105.188 10.5312 105.323 9.74053 105.323 8.72727C105.323 7.71402 105.185 6.9233 104.911 6.35511C104.641 5.78693 104.243 5.38684 103.718 5.15483C103.197 4.92282 102.557 4.80682 101.8 4.80682H100.408V12.6477ZM125.218 8.72727C125.218 10.3466 124.903 11.7126 124.273 12.8253C123.644 13.9332 122.794 14.7737 121.724 15.3466C120.653 15.9148 119.46 16.1989 118.144 16.1989C116.818 16.1989 115.62 15.9124 114.55 15.3395C113.485 14.7618 112.637 13.919 112.008 12.8111C111.383 11.6984 111.07 10.3371 111.07 8.72727C111.07 7.10795 111.383 5.74432 112.008 4.63636C112.637 3.52367 113.485 2.68324 114.55 2.11506C115.62 1.54214 116.818 1.25568 118.144 1.25568C119.46 1.25568 120.653 1.54214 121.724 2.11506C122.794 2.68324 123.644 3.52367 124.273 4.63636C124.903 5.74432 125.218 7.10795 125.218 8.72727ZM121.155 8.72727C121.155 7.85606 121.039 7.12216 120.807 6.52557C120.58 5.92424 120.242 5.4697 119.792 5.16193C119.347 4.84943 118.797 4.69318 118.144 4.69318C117.491 4.69318 116.939 4.84943 116.489 5.16193C116.044 5.4697 115.706 5.92424 115.474 6.52557C115.246 7.12216 115.133 7.85606 115.133 8.72727C115.133 9.59848 115.246 10.3348 115.474 10.9361C115.706 11.5327 116.044 11.9872 116.489 12.2997C116.939 12.6075 117.491 12.7614 118.144 12.7614C118.797 12.7614 119.347 12.6075 119.792 12.2997C120.242 11.9872 120.58 11.5327 120.807 10.9361C121.039 10.3348 121.155 9.59848 121.155 8.72727ZM129.82 16L125.53 1.45455H129.934L131.922 10.4034H132.036L134.394 1.45455H137.86L140.218 10.4318H140.331L142.32 1.45455H146.724L142.434 16H138.655L136.184 7.875H136.07L133.599 16H129.82ZM160.587 1.45455V16H157.292L152.036 8.35795H151.951V16H148.002V1.45455H151.354L156.525 9.06818H156.638V1.45455H160.587Z" fill="#999999"/>
<path d="M18.75 14.5459L18.75 2.4541L28.5244 8.5L18.75 14.5459Z" fill="#C8CCD0" stroke="black" stroke-width="0.5"/>
<path d="M11 14.5615L11 2.43847L21.5 8.5L11 14.5615Z" fill="#C8CCD0" stroke="black" stroke-width="0.5"/>
<path d="M3.75 14.5459L3.75 2.4541L13.5244 8.5L3.75 14.5459Z" fill="#C8CCD0" stroke="black" stroke-width="0.5"/>
</svg>
