<svg width="127" height="18" viewBox="0 0 127 18" fill="none" xmlns="http://www.w3.org/2000/svg">
<path d="M38.0089 6C37.971 5.52652 37.7934 5.1572 37.4762 4.89205C37.1637 4.62689 36.6879 4.49432 36.0487 4.49432C35.6415 4.49432 35.3076 4.54403 35.0472 4.64347C34.7915 4.73816 34.6022 4.86837 34.479 5.03409C34.3559 5.19981 34.292 5.3892 34.2873 5.60227C34.2778 5.77746 34.3086 5.93608 34.3796 6.07812C34.4554 6.21544 34.5737 6.34091 34.7347 6.45455C34.8957 6.56345 35.1017 6.66288 35.3526 6.75284C35.6036 6.8428 35.9019 6.9233 36.2475 6.99432L37.4407 7.25C38.2456 7.42045 38.9345 7.64536 39.5075 7.92472C40.0804 8.20407 40.5491 8.53314 40.9137 8.91193C41.2783 9.28598 41.5458 9.70739 41.7163 10.1761C41.8915 10.6449 41.9814 11.1562 41.9862 11.7102C41.9814 12.6667 41.7423 13.4763 41.2688 14.1392C40.7953 14.8021 40.1183 15.3063 39.2376 15.652C38.3616 15.9976 37.3081 16.1705 36.0771 16.1705C34.8129 16.1705 33.7096 15.9834 32.7674 15.6094C31.8299 15.2353 31.1007 14.66 30.5799 13.8835C30.0638 13.1023 29.8034 12.1032 29.7987 10.8864H33.5487C33.5723 11.3314 33.6836 11.7055 33.8825 12.0085C34.0813 12.3116 34.3607 12.5412 34.7205 12.6974C35.0851 12.8537 35.5183 12.9318 36.0202 12.9318C36.4416 12.9318 36.7944 12.8797 37.0785 12.7756C37.3626 12.6714 37.578 12.527 37.7248 12.3423C37.8716 12.1577 37.9473 11.947 37.9521 11.7102C37.9473 11.4877 37.8739 11.2936 37.7319 11.1278C37.5946 10.9574 37.3673 10.8059 37.0501 10.6733C36.7328 10.536 36.3043 10.4081 35.7646 10.2898L34.3157 9.97727C33.0278 9.69792 32.0122 9.23153 31.2688 8.57812C30.5302 7.91998 30.1632 7.02273 30.168 5.88636C30.1632 4.96307 30.4094 4.15578 30.9066 3.46449C31.4085 2.76847 32.1022 2.22633 32.9876 1.83807C33.8777 1.44981 34.8981 1.25568 36.0487 1.25568C37.2229 1.25568 38.2385 1.45218 39.0955 1.84517C39.9525 2.23816 40.613 2.79214 41.0771 3.5071C41.5458 4.21733 41.7826 5.0483 41.7873 6H38.0089ZM43.4883 16V1.45455H49.7667C50.8462 1.45455 51.7908 1.66761 52.6005 2.09375C53.4102 2.51989 54.0399 3.11884 54.4897 3.89062C54.9395 4.66241 55.1644 5.56439 55.1644 6.59659C55.1644 7.63826 54.9324 8.54025 54.4684 9.30256C54.0091 10.0649 53.3628 10.652 52.5295 11.0639C51.7009 11.4759 50.7326 11.6818 49.6246 11.6818H45.8746V8.61364H48.8292C49.2932 8.61364 49.6886 8.53314 50.0153 8.37216C50.3467 8.20644 50.6 7.97206 50.7752 7.66903C50.9551 7.366 51.0451 7.00852 51.0451 6.59659C51.0451 6.17992 50.9551 5.82481 50.7752 5.53125C50.6 5.23295 50.3467 5.00568 50.0153 4.84943C49.6886 4.68845 49.2932 4.60795 48.8292 4.60795H47.4371V16H43.4883ZM56.6133 16V1.45455H67.0962V4.63636H60.5621V7.13636H66.5565V10.3182H60.5621V12.8182H67.0678V16H56.6133ZM69.0547 16V1.45455H79.5376V4.63636H73.0036V7.13636H78.9979V10.3182H73.0036V12.8182H79.5092V16H69.0547ZM87.0927 16H81.4961V1.45455H87.0359C88.5321 1.45455 89.8247 1.74574 90.9137 2.32812C92.0075 2.90578 92.8503 3.73911 93.4421 4.82812C94.0387 5.91241 94.337 7.21212 94.337 8.72727C94.337 10.2424 94.0411 11.5445 93.4492 12.6335C92.8574 13.7178 92.0193 14.5511 90.935 15.1335C89.8507 15.7112 88.57 16 87.0927 16ZM85.445 12.6477H86.9506C87.6703 12.6477 88.2835 12.5317 88.7901 12.2997C89.3015 12.0677 89.6897 11.6676 89.9549 11.0994C90.2248 10.5312 90.3597 9.74053 90.3597 8.72727C90.3597 7.71402 90.2224 6.9233 89.9478 6.35511C89.6779 5.78693 89.2802 5.38684 88.7546 5.15483C88.2338 4.92282 87.5946 4.80682 86.837 4.80682H85.445V12.6477ZM108.756 1.45455H112.705V10.7727C112.705 11.8807 112.44 12.8395 111.91 13.6491C111.384 14.4541 110.65 15.0767 109.708 15.517C108.766 15.9527 107.672 16.1705 106.427 16.1705C105.172 16.1705 104.074 15.9527 103.131 15.517C102.189 15.0767 101.455 14.4541 100.93 13.6491C100.409 12.8395 100.148 11.8807 100.148 10.7727V1.45455H104.097V10.4318C104.097 10.8816 104.197 11.2841 104.396 11.6392C104.594 11.9896 104.869 12.2642 105.219 12.4631C105.575 12.6619 105.977 12.7614 106.427 12.7614C106.881 12.7614 107.284 12.6619 107.634 12.4631C107.985 12.2642 108.259 11.9896 108.458 11.6392C108.657 11.2841 108.756 10.8816 108.756 10.4318V1.45455ZM114.582 16V1.45455H120.86C121.94 1.45455 122.885 1.66761 123.694 2.09375C124.504 2.51989 125.134 3.11884 125.583 3.89062C126.033 4.66241 126.258 5.56439 126.258 6.59659C126.258 7.63826 126.026 8.54025 125.562 9.30256C125.103 10.0649 124.457 10.652 123.623 11.0639C122.795 11.4759 121.826 11.6818 120.718 11.6818H116.968V8.61364H119.923C120.387 8.61364 120.782 8.53314 121.109 8.37216C121.44 8.20644 121.694 7.97206 121.869 7.66903C122.049 7.366 122.139 7.00852 122.139 6.59659C122.139 6.17992 122.049 5.82481 121.869 5.53125C121.694 5.23295 121.44 5.00568 121.109 4.84943C120.782 4.68845 120.387 4.60795 119.923 4.60795H118.531V16H114.582Z" fill="#4FBF65"/>
<path d="M10.25 2.4541L10.25 14.5459L0.475588 8.5L10.25 2.4541Z" fill="#4FBF65" stroke="black" stroke-width="0.5"/>
<path d="M18 2.43848L18 14.5615L7.5 8.5L18 2.43848Z" fill="#4FBF65" stroke="black" stroke-width="0.5"/>
<path d="M25.25 2.4541L25.25 14.5459L15.4756 8.5L25.25 2.4541Z" fill="#4FBF65" stroke="black" stroke-width="0.5"/>
</svg>
