<svg width="27" height="27" viewBox="0 0 27 27" fill="none" xmlns="http://www.w3.org/2000/svg">
<rect x="1" y="1" width="25" height="25" rx="2" fill="#54565C" stroke="#A6A7A9" stroke-width="2"/>
<mask id="path-2-outside-1_630_884" maskUnits="userSpaceOnUse" x="6" y="4" width="16" height="18" fill="black">
<rect fill="white" x="6" y="4" width="16" height="18"/>
<path d="M13.54 5.00021C15.0999 4.97915 16.4015 6.52212 16.249 7.48752C16.1812 7.89884 15.9134 7.8284 15.0508 9.05588C14.8326 9.36737 14.6904 9.59686 14.5498 9.76877H14.5713V17.3508H18.792C19.6396 17.3508 20.0633 17.7769 20.0635 18.6291V18.9065H20.0762V20.9846H7V18.6291C7.00015 17.777 7.42397 17.3509 8.27148 17.3508H12.5049V9.76877H12.5654C12.404 9.60552 12.2479 9.38334 11.9941 9.05392C11.068 7.85429 10.9052 7.93297 10.8438 7.61545C10.6509 6.65212 11.9375 5.00874 13.54 5.00021Z"/>
</mask>
<path d="M13.54 5.00021C15.0999 4.97915 16.4015 6.52212 16.249 7.48752C16.1812 7.89884 15.9134 7.8284 15.0508 9.05588C14.8326 9.36737 14.6904 9.59686 14.5498 9.76877H14.5713V17.3508H18.792C19.6396 17.3508 20.0633 17.7769 20.0635 18.6291V18.9065H20.0762V20.9846H7V18.6291C7.00015 17.777 7.42397 17.3509 8.27148 17.3508H12.5049V9.76877H12.5654C12.404 9.60552 12.2479 9.38334 11.9941 9.05392C11.068 7.85429 10.9052 7.93297 10.8438 7.61545C10.6509 6.65212 11.9375 5.00874 13.54 5.00021Z" fill="#727272"/>
<path d="M13.54 5.00021L13.5454 6.00023L13.5535 6.00012L13.54 5.00021ZM16.249 7.48752L17.2357 7.65023L17.2368 7.64349L16.249 7.48752ZM15.0508 9.05588L14.2326 8.48089L14.2317 8.48219L15.0508 9.05588ZM14.5498 9.76877L13.7757 9.13572L12.4402 10.7688H14.5498V9.76877ZM14.5713 9.76877H15.5713V8.76877H14.5713V9.76877ZM14.5713 17.3508H13.5713V18.3508H14.5713V17.3508ZM18.792 17.3508L18.792 16.3508H18.792V17.3508ZM20.0635 18.6291H21.0635V18.6289L20.0635 18.6291ZM20.0635 18.9065H19.0635V19.9065H20.0635V18.9065ZM20.0762 18.9065H21.0762V17.9065H20.0762V18.9065ZM20.0762 20.9846V21.9846H21.0762V20.9846H20.0762ZM7 20.9846H6V21.9846H7V20.9846ZM7 18.6291L6 18.6289V18.6291H7ZM8.27148 17.3508V16.3508H8.27135L8.27148 17.3508ZM12.5049 17.3508V18.3508H13.5049V17.3508H12.5049ZM12.5049 9.76877V8.76877H11.5049V9.76877H12.5049ZM12.5654 9.76877V10.7688H14.9605L13.2765 9.06567L12.5654 9.76877ZM11.9941 9.05392L12.7864 8.44372L12.7857 8.44283L11.9941 9.05392ZM10.8438 7.61545L11.8255 7.42538L11.8243 7.41911L10.8438 7.61545ZM13.54 5.00021L13.5535 6.00012C13.9998 5.9941 14.4679 6.21768 14.8278 6.57932C15.0031 6.7555 15.1263 6.9395 15.1962 7.09608C15.27 7.2615 15.2601 7.33877 15.2613 7.33155L16.249 7.48752L17.2368 7.64349C17.385 6.70512 16.848 5.77406 16.2455 5.16857C15.6027 4.52264 14.6402 3.98527 13.5265 4.0003L13.54 5.00021ZM16.249 7.48752L15.2623 7.32481C15.2668 7.29804 15.2868 7.23082 15.3289 7.16928C15.3411 7.15131 15.3462 7.15078 15.2333 7.26619C15.0264 7.47761 14.7048 7.80902 14.2326 8.48089L15.0508 9.05588L15.8689 9.63086C16.2594 9.07526 16.5031 8.82815 16.6626 8.66509C16.7329 8.59326 16.8716 8.4565 16.9801 8.29769C17.1184 8.09532 17.1974 7.88266 17.2357 7.65022L16.249 7.48752ZM15.0508 9.05588L14.2317 8.48219C13.965 8.86294 13.8865 9.00024 13.7757 9.13572L14.5498 9.76877L15.3239 10.4018C15.4943 10.1935 15.7002 9.8718 15.8699 9.62956L15.0508 9.05588ZM14.5498 9.76877V10.7688H14.5713V9.76877V8.76877H14.5498V9.76877ZM14.5713 9.76877H13.5713V17.3508H14.5713H15.5713V9.76877H14.5713ZM14.5713 17.3508V18.3508H18.792V17.3508V16.3508H14.5713V17.3508ZM18.792 17.3508L18.7919 18.3508C19.0603 18.3508 19.0781 18.4174 19.0365 18.3756C18.996 18.3348 19.0634 18.3559 19.0635 18.6293L20.0635 18.6291L21.0635 18.6289C21.0634 18.0502 20.9189 17.4321 20.4546 16.9652C19.9892 16.4973 19.3714 16.3508 18.792 16.3508L18.792 17.3508ZM20.0635 18.6291H19.0635V18.9065H20.0635H21.0635V18.6291H20.0635ZM20.0635 18.9065V19.9065H20.0762V18.9065V17.9065H20.0635V18.9065ZM20.0762 18.9065H19.0762V20.9846H20.0762H21.0762V18.9065H20.0762ZM20.0762 20.9846V19.9846H7V20.9846V21.9846H20.0762V20.9846ZM7 20.9846H8V18.6291H7H6V20.9846H7ZM7 18.6291L8 18.6293C8.00005 18.3561 8.06749 18.3349 8.02698 18.3757C7.98548 18.4174 8.0034 18.3508 8.27162 18.3508L8.27148 17.3508L8.27135 16.3508C7.69206 16.3509 7.0743 16.4974 6.60898 16.9653C6.14464 17.4321 6.0001 18.0501 6 18.6289L7 18.6291ZM8.27148 17.3508V18.3508H12.5049V17.3508V16.3508H8.27148V17.3508ZM12.5049 17.3508H13.5049V9.76877H12.5049H11.5049V17.3508H12.5049ZM12.5049 9.76877V10.7688H12.5654V9.76877V8.76877H12.5049V9.76877ZM12.5654 9.76877L13.2765 9.06567C13.1729 8.9609 13.0843 8.83046 12.7864 8.44372L11.9941 9.05392L11.2019 9.66413C11.4115 9.93622 11.6351 10.2501 11.8543 10.4719L12.5654 9.76877ZM11.9941 9.05392L12.7857 8.44283C12.2931 7.80476 11.9943 7.49592 11.814 7.30922C11.7117 7.20323 11.7247 7.21194 11.7442 7.2403C11.7964 7.31653 11.8197 7.39531 11.8255 7.42538L10.8438 7.61545L9.86198 7.80551C9.89854 7.99434 9.96524 8.18236 10.0942 8.37063C10.1904 8.51102 10.3136 8.63458 10.3754 8.69856C10.5234 8.85182 10.7691 9.10346 11.2026 9.66502L11.9941 9.05392ZM10.8438 7.61545L11.8243 7.41911C11.8269 7.43192 11.8123 7.3552 11.8838 7.18035C11.9511 7.01591 12.0731 6.82094 12.249 6.63285C12.6102 6.24664 13.086 6.00264 13.5454 6.0002L13.54 5.00021L13.5347 4.00023C12.3916 4.00631 11.4228 4.58827 10.7883 5.2667C10.4663 5.61094 10.2026 6.00797 10.0328 6.42287C9.86729 6.82736 9.7642 7.31731 9.86321 7.81178L10.8438 7.61545Z" fill="#A6A7A9" mask="url(#path-2-outside-1_630_884)"/>
</svg>
