<svg width="27" height="27" viewBox="0 0 27 27" fill="none" xmlns="http://www.w3.org/2000/svg">
<rect x="1" y="1" width="25" height="25" rx="2" fill="#54565C" stroke="#A6A7A9" stroke-width="2"/>
<path d="M20.5285 10.8809C20.6222 11.1357 20.5431 11.4199 20.341 11.6016L19.0724 12.7559C19.1046 12.999 19.1222 13.248 19.1222 13.5C19.1222 13.752 19.1046 14.001 19.0724 14.2441L20.341 15.3984C20.5431 15.5801 20.6222 15.8643 20.5285 16.1191C20.3995 16.4678 20.2443 16.8018 20.0656 17.124L19.9279 17.3613C19.7345 17.6836 19.5177 17.9883 19.2804 18.2754C19.1076 18.4863 18.8204 18.5566 18.5626 18.4746L16.9308 17.9561C16.5382 18.2578 16.1046 18.5098 15.6417 18.7002L15.2755 20.373C15.2169 20.6396 15.0118 20.8506 14.7423 20.8945C14.338 20.9619 13.922 20.9971 13.4972 20.9971C13.0724 20.9971 12.6564 20.9619 12.2521 20.8945C11.9826 20.8506 11.7775 20.6396 11.7189 20.373L11.3527 18.7002C10.8898 18.5098 10.4562 18.2578 10.0636 17.9561L8.4347 18.4775C8.17689 18.5596 7.88978 18.4863 7.71693 18.2783C7.47962 17.9912 7.26282 17.6865 7.06947 17.3643L6.93177 17.127C6.75306 16.8047 6.59779 16.4707 6.46888 16.1221C6.37513 15.8672 6.45423 15.583 6.65638 15.4014L7.92493 14.2471C7.89271 14.001 7.87513 13.752 7.87513 13.5C7.87513 13.248 7.89271 12.999 7.92493 12.7559L6.65638 11.6016C6.45423 11.4199 6.37513 11.1357 6.46888 10.8809C6.59779 10.5322 6.75306 10.1982 6.93177 9.87598L7.06947 9.63867C7.26282 9.31641 7.47962 9.01172 7.71693 8.72461C7.88978 8.51367 8.17689 8.44336 8.4347 8.52539L10.0665 9.04395C10.4591 8.74219 10.8927 8.49023 11.3556 8.2998L11.7218 6.62695C11.7804 6.36035 11.9855 6.14941 12.255 6.10547C12.6593 6.03516 13.0753 6 13.5001 6C13.9249 6 14.341 6.03516 14.7452 6.10254C15.0148 6.14648 15.2199 6.35742 15.2785 6.62402L15.6447 8.29688C16.1076 8.4873 16.5411 8.73926 16.9337 9.04102L18.5656 8.52246C18.8234 8.44043 19.1105 8.51367 19.2833 8.72168C19.5206 9.00879 19.7374 9.31348 19.9308 9.63574L20.0685 9.87305C20.2472 10.1953 20.4025 10.5293 20.5314 10.8779L20.5285 10.8809ZM13.5001 15.8438C14.1217 15.8438 14.7179 15.5968 15.1574 15.1573C15.597 14.7177 15.8439 14.1216 15.8439 13.5C15.8439 12.8784 15.597 12.2823 15.1574 11.8427C14.7179 11.4032 14.1217 11.1562 13.5001 11.1562C12.8785 11.1562 12.2824 11.4032 11.8428 11.8427C11.4033 12.2823 11.1564 12.8784 11.1564 13.5C11.1564 14.1216 11.4033 14.7177 11.8428 15.1573C12.2824 15.5968 12.8785 15.8438 13.5001 15.8438Z" fill="#727272" stroke="#A6A7A9"/>
</svg>
