<svg width="27" height="27" viewBox="0 0 27 27" fill="none" xmlns="http://www.w3.org/2000/svg">
<rect x="1" y="1" width="25" height="25" rx="2" fill="#E6EAED" stroke="#A6A7A9" stroke-width="2"/>
<path d="M10.4054 6C8.65321 6 7.64274 8.58739 7.20281 10.5528C7.07071 11.143 7.53739 11.6757 8.14218 11.6757H10.4054H12.9694C13.6004 11.6757 14.0726 11.0983 13.894 10.493C13.3166 8.53538 12.1399 6 10.4054 6Z" fill="#34BF31"/>
<path d="M9.80688 11.6757C9.80688 12.0899 10.1427 12.4257 10.5569 12.4257C10.9711 12.4257 11.3069 12.0899 11.3069 11.6757H10.5569H9.80688ZM10.5569 11.6757H11.3069V10.9189H10.5569H9.80688V11.6757H10.5569Z" fill="#34BF31"/>
<path d="M12.6757 16.5946H14.457C14.9547 16.5946 15.374 16.226 15.5277 15.7527C15.8055 14.8974 16.3226 13.9459 16.9892 13.9459C17.6879 13.9459 18.1925 14.9913 18.5029 15.8755C18.6508 16.2968 19.0375 16.5946 19.484 16.5946H21.3784" stroke="#34BF31" stroke-width="1.5" stroke-linecap="round"/>
<path d="M12.6757 20H14.457C14.9547 20 15.374 19.6314 15.5277 19.1581C15.8055 18.3028 16.3226 17.3513 16.9892 17.3513C17.6879 17.3513 18.1925 18.3967 18.5029 19.2809C18.6508 19.7022 19.0375 20 19.484 20H21.3784" stroke="#34BF31" stroke-width="1.5" stroke-linecap="round"/>
</svg>
