<svg width="55" height="74" viewBox="0 0 55 74" fill="none" xmlns="http://www.w3.org/2000/svg">
<mask id="path-1-inside-1_778_4033" fill="white">
<path d="M54.5 39.6015C54.5 46.2477 47.0335 49.3017 37.278 49.3017V29.8943C47.0335 29.8943 54.5 32.9001 54.5 39.5945"/>
</mask>
<path d="M54.5 39.6015C54.5 46.2477 47.0335 49.3017 37.278 49.3017V29.8943C47.0335 29.8943 54.5 32.9001 54.5 39.5945" fill="white"/>
<path d="M37.278 49.3017V49.8017H36.778V49.3017H37.278ZM37.278 29.8943H36.778V29.3943H37.278V29.8943ZM54.5 39.6015H55C55 43.1579 52.9834 45.7316 49.7768 47.3881C46.5913 49.0338 42.1959 49.8017 37.278 49.8017V49.3017V48.8017C42.1156 48.8017 46.3311 48.0426 49.3178 46.4997C52.2833 44.9677 54 42.6913 54 39.6015H54.5ZM37.278 49.3017H36.778V29.8943H37.278H37.778V49.3017H37.278ZM37.278 29.8943V29.3943C42.1948 29.3943 46.5904 30.1499 49.7761 31.7894C52.9843 33.4405 55 36.0148 55 39.5945H54.5H54C54 36.4797 52.2824 34.2039 49.3185 32.6786C46.3321 31.1416 42.1167 30.3943 37.278 30.3943V29.8943Z" fill="black" mask="url(#path-1-inside-1_778_4033)"/>
<mask id="path-3-inside-2_778_4033" fill="white">
<path d="M39.0771 42.0769C40.2423 39.4639 41.9658 38.1402 44.0272 35.8996C46.5023 33.2039 50.239 22.4971 50.239 22.4971L43.8825 43.0491C43.8825 43.0491 42.6966 44.9381 40.5663 44.2556C38.4291 43.573 39.084 42.0701 39.084 42.0701"/>
</mask>
<path d="M39.0771 42.0769C40.2423 39.4639 41.9658 38.1402 44.0272 35.8996C46.5023 33.2039 50.239 22.4971 50.239 22.4971L43.8825 43.0491C43.8825 43.0491 42.6966 44.9381 40.5663 44.2556C38.4291 43.573 39.084 42.0701 39.084 42.0701" fill="white"/>
<path d="M44.0272 35.8996L44.3955 36.2377L44.3952 36.2381L44.0272 35.8996ZM50.239 22.4971L49.7669 22.3323L50.7167 22.6448L50.239 22.4971ZM43.8825 43.0491L44.3601 43.1968L44.3408 43.2594L44.3059 43.3149L43.8825 43.0491ZM40.5663 44.2556L40.7184 43.7793L40.7188 43.7794L40.5663 44.2556ZM39.0771 42.0769L38.6205 41.8732C39.8298 39.1612 41.657 37.7374 43.6593 35.5611L44.0272 35.8996L44.3952 36.2381C42.2746 38.5431 40.6547 39.7666 39.5338 42.2805L39.0771 42.0769ZM44.0272 35.8996L43.6589 35.5614C44.227 34.9427 44.8987 33.8229 45.5957 32.4428C46.286 31.0758 46.9797 29.4977 47.5991 27.9967C48.218 26.4969 48.7602 25.0801 49.1478 24.0378C49.3416 23.5169 49.4966 23.0899 49.603 22.7934C49.6563 22.6452 49.6973 22.5296 49.7251 22.4512C49.7389 22.412 49.7495 22.3822 49.7565 22.3621C49.76 22.3521 49.7626 22.3446 49.7644 22.3396C49.7653 22.3371 49.7659 22.3352 49.7663 22.334C49.7666 22.3334 49.7667 22.333 49.7668 22.3327C49.7669 22.3325 49.7669 22.3324 49.7669 22.3324C49.7669 22.3323 49.7669 22.3323 50.239 22.4971C50.7111 22.6618 50.7111 22.6619 50.711 22.662C50.711 22.6621 50.7109 22.6623 50.7109 22.6624C50.7107 22.6628 50.7106 22.6633 50.7103 22.664C50.7098 22.6654 50.7091 22.6674 50.7082 22.6701C50.7063 22.6754 50.7036 22.6833 50.7 22.6936C50.6927 22.7143 50.6819 22.7448 50.6678 22.7847C50.6396 22.8645 50.598 22.9816 50.5442 23.1314C50.4366 23.4309 50.2804 23.8615 50.0851 24.3864C49.6948 25.436 49.1481 26.8643 48.5235 28.3782C47.8993 29.8909 47.1947 31.4949 46.4883 32.8936C45.7885 34.2792 45.065 35.5086 44.3955 36.2377L44.0272 35.8996ZM50.239 22.4971L50.7167 22.6448L44.3601 43.1968L43.8825 43.0491L43.4048 42.9013L49.7613 22.3493L50.239 22.4971ZM43.8825 43.0491C44.3059 43.3149 44.3058 43.3151 44.3057 43.3153C44.3056 43.3154 44.3055 43.3156 44.3054 43.3158C44.3052 43.3161 44.3049 43.3165 44.3047 43.3169C44.3042 43.3176 44.3036 43.3185 44.303 43.3195C44.3017 43.3215 44.3001 43.324 44.2983 43.3269C44.2945 43.3327 44.2895 43.3402 44.2833 43.3494C44.271 43.3678 44.2538 43.3926 44.2318 43.4229C44.1878 43.4834 44.1242 43.566 44.0415 43.6613C43.8769 43.851 43.6312 44.097 43.3065 44.3203C42.6476 44.7733 41.6591 45.1307 40.4137 44.7317L40.5663 44.2556L40.7188 43.7794C41.6038 44.063 42.2734 43.8171 42.74 43.4963C42.9781 43.3325 43.162 43.149 43.2863 43.0058C43.348 42.9347 43.3937 42.875 43.4229 42.8349C43.4375 42.8148 43.4478 42.7998 43.4539 42.7908C43.4569 42.7863 43.4589 42.7834 43.4597 42.7821C43.4601 42.7814 43.4603 42.7812 43.4602 42.7813C43.4601 42.7814 43.46 42.7816 43.4598 42.782C43.4597 42.7821 43.4596 42.7823 43.4594 42.7825C43.4594 42.7826 43.4592 42.7828 43.4592 42.7829C43.4591 42.783 43.459 42.7832 43.8825 43.0491ZM40.5663 44.2556L40.4142 44.7319C39.2138 44.3485 38.686 43.6858 38.5358 43.0163C38.4656 42.7032 38.4867 42.4234 38.5234 42.2248C38.5419 42.1246 38.5649 42.042 38.5843 41.982C38.5941 41.952 38.603 41.9272 38.6102 41.9085C38.6138 41.8991 38.6169 41.8912 38.6195 41.8848C38.6209 41.8817 38.622 41.8788 38.623 41.8764C38.6236 41.8752 38.624 41.8741 38.6245 41.8731C38.6247 41.8726 38.6249 41.8721 38.6251 41.8717C38.6252 41.8714 38.6253 41.8711 38.6254 41.871C38.6255 41.8707 38.6256 41.8704 39.084 42.0701C39.5424 42.2699 39.5425 42.2696 39.5426 42.2693C39.5427 42.2692 39.5428 42.2689 39.5429 42.2687C39.543 42.2684 39.5432 42.268 39.5433 42.2677C39.5436 42.267 39.5438 42.2665 39.544 42.266C39.5445 42.265 39.5447 42.2644 39.5448 42.2641C39.5451 42.2634 39.5449 42.264 39.5442 42.2658C39.5428 42.2695 39.5397 42.2777 39.5357 42.29C39.5277 42.3149 39.5162 42.3551 39.5067 42.4065C39.4874 42.511 39.4784 42.6495 39.5116 42.7975C39.5682 43.0501 39.7815 43.4801 40.7184 43.7793L40.5663 44.2556Z" fill="black" mask="url(#path-3-inside-2_778_4033)"/>
<mask id="path-5-inside-3_778_4033" fill="white">
<path d="M45.358 37.6782L49.6738 23.6553C49.6738 23.6553 49.1361 30.639 48.6535 32.2385C48.1709 33.838 46.7162 36.506 45.358 37.6711"/>
</mask>
<path d="M45.358 37.6782L49.6738 23.6553C49.6738 23.6553 49.1361 30.639 48.6535 32.2385C48.1709 33.838 46.7162 36.506 45.358 37.6711" fill="white"/>
<path d="M49.6738 23.6553L49.1959 23.5082L50.1724 23.6937L49.6738 23.6553ZM45.358 37.6782L44.8801 37.5311L49.1959 23.5082L49.6738 23.6553L50.1517 23.8024L45.8359 37.8253L45.358 37.6782ZM49.6738 23.6553C50.1724 23.6937 50.1723 23.6937 50.1723 23.6938C50.1723 23.6938 50.1723 23.6939 50.1723 23.694C50.1723 23.6943 50.1723 23.6946 50.1722 23.695C50.1722 23.6959 50.1721 23.6972 50.1719 23.6989C50.1717 23.7024 50.1713 23.7075 50.1708 23.7142C50.1697 23.7276 50.1682 23.7474 50.1661 23.7733C50.162 23.8252 50.156 23.9013 50.1482 23.9987C50.1325 24.1934 50.1095 24.4732 50.0805 24.814C50.0224 25.4952 49.9398 26.4208 49.8421 27.3969C49.7445 28.3723 49.6314 29.4015 49.512 30.2892C49.3944 31.1639 49.2661 31.939 49.1322 32.3829L48.6535 32.2385L48.1748 32.0941C48.2821 31.7382 48.402 31.0406 48.521 30.156C48.6382 29.2843 48.75 28.2677 48.8471 27.2973C48.9442 26.3275 49.0262 25.4071 49.0841 24.729C49.113 24.39 49.1358 24.1117 49.1514 23.9183C49.1592 23.8216 49.1652 23.7461 49.1692 23.6949C49.1712 23.6692 49.1728 23.6497 49.1738 23.6366C49.1743 23.63 49.1747 23.625 49.1749 23.6218C49.1751 23.6201 49.1752 23.6189 49.1752 23.6181C49.1752 23.6177 49.1753 23.6174 49.1753 23.6172C49.1753 23.6171 49.1753 23.617 49.1753 23.6169C49.1753 23.6169 49.1753 23.6169 49.6738 23.6553ZM48.6535 32.2385L49.1322 32.3829C48.8763 33.2307 48.373 34.3344 47.7654 35.3706C47.1608 36.4017 46.4244 37.4151 45.6835 38.0506L45.358 37.6711L45.0324 37.2916C45.6498 36.762 46.3198 35.8588 46.9028 34.8648C47.4827 33.8758 47.948 32.8457 48.1748 32.0941L48.6535 32.2385Z" fill="black" mask="url(#path-5-inside-3_778_4033)"/>
<mask id="path-7-inside-4_778_4033" fill="white">
<path d="M45.7234 31.9698C44.9168 32.48 39.5186 32.0869 39.1738 31.8594C38.8291 31.6319 38.9325 30.9354 38.9808 30.5011C39.0291 30.0668 43.8758 8.50847 43.9723 8.17065C44.0688 7.83283 45.7993 4.92329 47.8262 4.93019C49.598 4.93019 50.3288 5.50247 50.2323 5.84719C50.1358 6.18501 49.6601 21.9592 49.6601 22.3521C49.6601 22.7451 46.4887 31.494 45.7234 31.9766"/>
</mask>
<path d="M45.7234 31.9698C44.9168 32.48 39.5186 32.0869 39.1738 31.8594C38.8291 31.6319 38.9325 30.9354 38.9808 30.5011C39.0291 30.0668 43.8758 8.50847 43.9723 8.17065C44.0688 7.83283 45.7993 4.92329 47.8262 4.93019C49.598 4.93019 50.3288 5.50247 50.2323 5.84719C50.1358 6.18501 49.6601 21.9592 49.6601 22.3521C49.6601 22.7451 46.4887 31.494 45.7234 31.9766" fill="white"/>
<path d="M47.8262 4.93019V5.43019L47.8245 5.43019L47.8262 4.93019ZM50.2323 5.84719L50.7138 5.982L50.7131 5.98455L50.2323 5.84719ZM45.7234 31.9698L45.9907 32.3924C45.7988 32.5138 45.5392 32.5753 45.3069 32.6141C45.0551 32.6561 44.7556 32.683 44.4333 32.6992C43.7872 32.7316 43.0092 32.7226 42.2544 32.6908C41.4983 32.659 40.7551 32.6037 40.1758 32.5415C39.887 32.5105 39.6329 32.4772 39.4359 32.4431C39.338 32.4262 39.247 32.4078 39.1695 32.3877C39.1131 32.373 38.997 32.3418 38.8984 32.2767L39.1738 31.8594L39.4493 31.4421C39.3938 31.4055 39.3602 31.404 39.4211 31.4198C39.4611 31.4302 39.5221 31.4432 39.6064 31.4577C39.7737 31.4867 40.0043 31.5174 40.2826 31.5473C40.8376 31.6068 41.559 31.6606 42.2965 31.6917C43.0351 31.7228 43.7795 31.7307 44.3832 31.7004C44.6857 31.6853 44.9431 31.661 45.1422 31.6277C45.2417 31.6111 45.3196 31.5935 45.3775 31.5761C45.4392 31.5577 45.4596 31.5451 45.4562 31.5473L45.7234 31.9698ZM39.1738 31.8594L38.8984 32.2767C38.5062 32.0179 38.4424 31.5537 38.4304 31.2796C38.4171 30.9741 38.462 30.6428 38.4839 30.4459L38.9808 30.5011L39.4777 30.5563C39.4514 30.7937 39.4204 31.0278 39.4295 31.236C39.4399 31.4757 39.4967 31.4735 39.4493 31.4421L39.1738 31.8594ZM38.9808 30.5011L38.4839 30.4459C38.4903 30.3878 38.5198 30.2444 38.5544 30.0797C38.593 29.8961 38.6478 29.6407 38.7166 29.3245C38.8541 28.6918 39.048 27.812 39.2793 26.768C39.7421 24.68 40.3556 21.9335 40.9705 19.1903C42.1966 13.721 43.438 8.2207 43.4915 8.03329L43.9723 8.17065L44.453 8.30801C44.454 8.30471 44.4495 8.32201 44.4362 8.37836C44.4245 8.42781 44.4083 8.49696 44.388 8.58494C44.3474 8.76073 44.2905 9.00924 44.2196 9.32041C44.0778 9.94262 43.8805 10.8138 43.6461 11.8514C43.1775 13.9264 42.5612 16.6662 41.9463 19.409C41.3315 22.1519 40.7182 24.8976 40.2557 26.9844C40.0244 28.028 39.8309 28.9062 39.6938 29.537C39.6252 29.8525 39.5709 30.1051 39.5331 30.2852C39.4913 30.4841 39.4773 30.5601 39.4777 30.5563L38.9808 30.5011ZM43.9723 8.17065L43.4915 8.03329C43.5203 7.93246 43.583 7.80652 43.6427 7.69625C43.7103 7.57119 43.8007 7.41846 43.9105 7.24893C44.13 6.91025 44.4349 6.49283 44.8052 6.08503C45.5204 5.29736 46.5881 4.42597 47.8279 4.43019L47.8262 4.93019L47.8245 5.43019C47.0374 5.42751 46.2264 6.00745 45.5455 6.75727C45.2177 7.11823 44.9452 7.49109 44.7497 7.79275C44.6521 7.94339 44.5756 8.07333 44.5222 8.17202C44.4609 8.28551 44.4484 8.32439 44.453 8.30801L43.9723 8.17065ZM47.8262 4.93019V4.43019C48.7589 4.43019 49.4642 4.57981 49.9443 4.80774C50.1825 4.92081 50.3902 5.0651 50.535 5.24399C50.6785 5.42142 50.7966 5.68627 50.7138 5.982L50.2323 5.84719L49.7508 5.71237C49.7163 5.83575 49.7792 5.89979 49.7575 5.87296C49.737 5.8476 49.6694 5.78419 49.5155 5.7111C49.2113 5.56671 48.6653 5.43019 47.8262 5.43019V4.93019ZM50.2323 5.84719L50.7131 5.98455C50.7255 5.94096 50.7252 5.9147 50.72 5.96984C50.7169 6.00276 50.7132 6.05129 50.7089 6.11657C50.7004 6.24636 50.6905 6.42989 50.6794 6.66118C50.6573 7.12308 50.6309 7.76653 50.6018 8.53231C50.5437 10.0634 50.4752 12.078 50.4097 14.0952C50.3443 16.1122 50.2818 18.1309 50.2357 19.6699C50.2127 20.4394 50.1937 21.0888 50.1805 21.558C50.1739 21.7926 50.1688 21.9819 50.1653 22.1185C50.1635 22.1868 50.1622 22.2416 50.1613 22.2821C50.1609 22.3023 50.1606 22.3186 50.1604 22.331C50.1603 22.3372 50.1602 22.3422 50.1601 22.346C50.1601 22.3479 50.1601 22.3493 50.1601 22.3504C50.1601 22.3511 50.1601 22.3512 50.1601 22.3517C50.1601 22.3521 50.1601 22.3519 50.1601 22.3521H49.6601H49.1601C49.1601 22.145 49.2795 18.09 49.4103 14.0628C49.4758 12.045 49.5443 10.0282 49.6025 8.49437C49.6317 7.72768 49.6582 7.08028 49.6806 6.61333C49.6918 6.3802 49.702 6.18981 49.7111 6.05123C49.7156 5.98232 49.72 5.92305 49.7244 5.87644C49.7267 5.85205 49.7331 5.77452 49.7516 5.70983L50.2323 5.84719ZM49.6601 22.3521H50.1601C50.1601 22.4229 50.1459 22.4897 50.1399 22.5178C50.1311 22.5585 50.1196 22.604 50.1066 22.6513C50.0806 22.7467 50.0439 22.8684 49.9989 23.0101C49.9086 23.2944 49.7799 23.6754 49.6245 24.1192C49.3134 25.0074 48.8912 26.158 48.4451 27.3111C47.9994 28.4631 47.5274 29.6241 47.1169 30.5307C46.9121 30.9829 46.7187 31.3804 46.5488 31.6845C46.4641 31.8361 46.3803 31.9731 46.2996 32.0853C46.229 32.1834 46.1249 32.3145 45.9901 32.3995L45.7234 31.9766L45.4567 31.5536C45.4176 31.5783 45.428 31.5845 45.4879 31.5012C45.5377 31.432 45.6006 31.3313 45.6759 31.1966C45.8258 30.9284 46.0058 30.5601 46.2059 30.1182C46.6053 29.2363 47.0696 28.0951 47.5124 26.9503C47.9548 25.8068 48.3733 24.6663 48.6807 23.7886C48.8346 23.3493 48.9597 22.9786 49.0458 22.7074C49.089 22.5712 49.1211 22.4643 49.1419 22.388C49.1524 22.3496 49.1588 22.3236 49.1621 22.3081C49.1681 22.28 49.1601 22.306 49.1601 22.3521H49.6601Z" fill="black" mask="url(#path-7-inside-4_778_4033)"/>
<mask id="path-9-inside-5_778_4033" fill="white">
<path d="M38.9811 48.578C38.9673 48.3367 41.4009 47.0958 41.4009 47.0958L44.1586 45.3722C44.1586 45.3722 47.5645 43.3866 48.0678 43.5796C48.5779 43.7727 49.2053 45.7305 49.3501 47.5782C49.4949 49.4259 50.6187 61.6771 50.2257 62.987C49.8396 64.297 47.7093 72.6599 44.0139 73.3218C43.3865 73.4321 39.3602 55.0311 38.9742 48.578"/>
</mask>
<path d="M38.9811 48.578C38.9673 48.3367 41.4009 47.0958 41.4009 47.0958L44.1586 45.3722C44.1586 45.3722 47.5645 43.3866 48.0678 43.5796C48.5779 43.7727 49.2053 45.7305 49.3501 47.5782C49.4949 49.4259 50.6187 61.6771 50.2257 62.987C49.8396 64.297 47.7093 72.6599 44.0139 73.3218C43.3865 73.4321 39.3602 55.0311 38.9742 48.578" fill="white"/>
<path d="M41.4009 47.0958L41.6659 47.5198L41.6474 47.5313L41.628 47.5412L41.4009 47.0958ZM44.1586 45.3722L43.8936 44.9482L43.9001 44.9441L43.9068 44.9402L44.1586 45.3722ZM48.0678 43.5796L47.8908 44.0473L47.8887 44.0465L48.0678 43.5796ZM50.2257 62.987L49.7461 62.8457L49.7468 62.8434L50.2257 62.987ZM44.0139 73.3218L44.1021 73.814L44.1005 73.8142L44.0139 73.3218ZM38.9811 48.578L38.4819 48.6065C38.4701 48.4002 38.58 48.2556 38.6086 48.2181C38.6547 48.1577 38.7082 48.1069 38.752 48.0686C38.8421 47.9898 38.9576 47.9072 39.0767 47.8281C39.3188 47.6672 39.6349 47.4822 39.9411 47.3103C40.2496 47.1372 40.5576 46.9724 40.7877 46.8511C40.903 46.7904 40.9991 46.7403 41.0666 46.7054C41.1004 46.688 41.1269 46.6743 41.1452 46.6649C41.1543 46.6603 41.1614 46.6567 41.1662 46.6542C41.1686 46.653 41.1704 46.652 41.1717 46.6514C41.1723 46.6511 41.1728 46.6508 41.1731 46.6506C41.1733 46.6505 41.1734 46.6505 41.1735 46.6504C41.1736 46.6504 41.1736 46.6504 41.1737 46.6504C41.1737 46.6503 41.1737 46.6503 41.4009 47.0958C41.628 47.5412 41.628 47.5412 41.628 47.5412C41.628 47.5412 41.628 47.5412 41.628 47.5412C41.6279 47.5412 41.6278 47.5413 41.6277 47.5414C41.6274 47.5415 41.627 47.5417 41.6265 47.542C41.6254 47.5425 41.6238 47.5433 41.6216 47.5445C41.6172 47.5467 41.6106 47.5501 41.6019 47.5546C41.5845 47.5635 41.5588 47.5767 41.526 47.5937C41.4605 47.6276 41.3666 47.6764 41.2539 47.7358C41.0282 47.8547 40.7286 48.0151 40.4304 48.1824C40.13 48.351 39.8403 48.5214 39.63 48.6611C39.5229 48.7322 39.4505 48.7862 39.4102 48.8214C39.3887 48.8402 39.3913 48.8408 39.4033 48.8251C39.4096 48.8168 39.4269 48.7933 39.4435 48.756C39.4592 48.7207 39.4858 48.6474 39.4802 48.5495L38.9811 48.578ZM41.4009 47.0958L41.1359 46.6718L43.8936 44.9482L44.1586 45.3722L44.4236 45.7962L41.6659 47.5198L41.4009 47.0958ZM44.1586 45.3722C43.9068 44.9402 43.9068 44.9402 43.9068 44.9402C43.9069 44.9402 43.9069 44.9401 43.907 44.9401C43.9071 44.94 43.9073 44.9399 43.9076 44.9398C43.908 44.9395 43.9087 44.9391 43.9096 44.9386C43.9114 44.9376 43.9139 44.9361 43.9173 44.9341C43.924 44.9302 43.9339 44.9245 43.9467 44.9171C43.9723 44.9023 44.0097 44.8807 44.0574 44.8534C44.1527 44.7988 44.2892 44.7211 44.4544 44.6287C44.7845 44.4439 45.2312 44.1988 45.695 43.9593C46.1565 43.7209 46.645 43.4827 47.0559 43.3153C47.26 43.2321 47.4587 43.1606 47.6324 43.1166C47.7191 43.0946 47.812 43.0762 47.9036 43.0693C47.9867 43.0631 48.1151 43.0623 48.2468 43.1128L48.0678 43.5796L47.8887 44.0465C47.9575 44.0728 48.0003 44.0649 47.9783 44.0665C47.9647 44.0676 47.9328 44.0721 47.8782 44.0859C47.7693 44.1135 47.6194 44.1655 47.4334 44.2413C47.0641 44.3918 46.6068 44.6139 46.1539 44.8478C45.7033 45.0805 45.2671 45.3197 44.9428 45.5013C44.7809 45.5919 44.6474 45.6679 44.5545 45.7211C44.508 45.7477 44.4718 45.7686 44.4472 45.7828C44.435 45.7899 44.4257 45.7953 44.4195 45.7989C44.4163 45.8007 44.414 45.802 44.4125 45.8029C44.4118 45.8034 44.4112 45.8037 44.4108 45.8039C44.4107 45.804 44.4105 45.8041 44.4105 45.8041C44.4104 45.8041 44.4104 45.8041 44.4104 45.8041C44.4104 45.8041 44.4104 45.8041 44.1586 45.3722ZM48.0678 43.5796L48.2447 43.112C48.4164 43.1769 48.5465 43.2955 48.6395 43.4015C48.7367 43.5125 48.8232 43.6446 48.9003 43.7836C49.0546 44.0618 49.197 44.4158 49.3221 44.8058C49.5729 45.5881 49.7732 46.5777 49.8486 47.5391L49.3501 47.5782L48.8516 47.6172C48.7822 46.7311 48.5964 45.8178 48.3698 45.1111C48.2562 44.7565 48.1371 44.4693 48.0257 44.2685C47.97 44.1679 47.9226 44.1009 47.8874 44.0606C47.8478 44.0154 47.8467 44.0306 47.8908 44.0473L48.0678 43.5796ZM49.3501 47.5782L49.8486 47.5391C49.92 48.4508 50.2384 51.9918 50.4883 55.4482C50.6133 57.1787 50.722 58.8973 50.7747 60.2674C50.801 60.9519 50.8136 61.5551 50.8068 62.0318C50.8004 62.4822 50.7772 62.8886 50.7046 63.1307L50.2257 62.987L49.7468 62.8434C49.7724 62.758 49.8001 62.495 49.8069 62.0175C49.8133 61.5663 49.8014 60.983 49.7754 60.3058C49.7234 58.9527 49.6157 57.2473 49.4909 55.5203C49.2409 52.0617 48.925 48.5532 48.8516 47.6172L49.3501 47.5782ZM50.2257 62.987L50.7053 63.1284C50.5173 63.7664 49.8773 66.2256 48.8174 68.6012C48.2875 69.7889 47.642 70.9811 46.8781 71.9263C46.1198 72.8645 45.1974 73.6178 44.1021 73.814L44.0139 73.3218L43.9258 72.8296C44.6781 72.6949 45.4078 72.1546 46.1003 71.2977C46.7872 70.4477 47.3913 69.3432 47.9042 68.1937C48.9298 65.8949 49.548 63.5177 49.7461 62.8457L50.2257 62.987ZM44.0139 73.3218L44.1005 73.8142C43.9291 73.8444 43.7924 73.785 43.7157 73.7367C43.641 73.6896 43.5894 73.6333 43.5585 73.5957C43.4962 73.5195 43.4471 73.4302 43.4095 73.3536C43.3307 73.1933 43.2467 72.9733 43.1594 72.7151C42.9828 72.1929 42.769 71.4443 42.5322 70.5356C42.0578 68.7149 41.4818 66.2151 40.9142 63.514C39.7815 58.1231 38.6706 51.876 38.4751 48.6079L38.9742 48.578L39.4733 48.5481C39.6638 51.7331 40.7591 57.913 41.8929 63.3083C42.4585 66.0003 43.0309 68.4834 43.4999 70.2835C43.7349 71.1853 43.9416 71.9066 44.1067 72.3947C44.1903 72.6418 44.2576 72.8121 44.3069 72.9124C44.3333 72.9661 44.3425 72.9746 44.3322 72.962C44.3274 72.9562 44.3002 72.923 44.2484 72.8904C44.1945 72.8565 44.0791 72.8027 43.9273 72.8293L44.0139 73.3218Z" fill="black" mask="url(#path-9-inside-5_778_4033)"/>
<path d="M11.6614 0.75L11.719 23.5791V23.5908L11.718 23.6025L11.6594 24.2471L11.6584 24.2529C11.6261 24.5343 11.5729 24.7911 11.4075 25.0186C11.2435 25.244 10.9923 25.4106 10.634 25.5723L10.6018 25.5869L10.5667 25.5918C6.50588 26.1688 4.0702 27.8872 2.63794 30.2988C1.19605 32.7268 0.750244 35.8912 0.750244 39.3955C0.750389 43.1068 2.49266 45.6024 5.33911 47.333C8.20302 49.0742 12.1806 50.0357 16.6145 50.6396C18.7222 50.9267 22.3433 50.7965 25.4885 50.5908C27.0564 50.4883 28.4988 50.3676 29.5647 50.2725C30.0976 50.2249 30.5365 50.1836 30.8499 50.1543C31.006 50.1397 31.1316 50.1282 31.2219 50.1201C31.2788 50.115 31.3306 50.1116 31.3665 50.1094L36.3313 49.1045V30.1523C36.2718 30.1524 36.203 30.1529 36.1262 30.1523C35.8431 30.1503 35.4508 30.1432 35.0149 30.1221C34.1515 30.0802 33.0861 29.9833 32.3625 29.7539C31.5616 29.4999 31.1734 28.8901 30.9885 28.1172C30.8078 27.3612 30.8088 26.4024 30.8088 25.3789C30.8088 24.0874 30.5335 17.8764 30.2571 11.9766C30.119 9.02941 29.9808 6.16343 29.8772 4.03418C29.8254 2.96953 29.7824 2.08888 29.7522 1.47461C29.7371 1.16783 29.7251 0.927448 29.717 0.763672C29.7168 0.759213 29.7163 0.754345 29.7161 0.75H11.6614Z" fill="white" stroke="black" stroke-width="0.5"/>
<path d="M30.7926 21.3935L29.9545 0.5H11.1363C11.1363 0.5 11.6951 18.7594 11.6951 21.3935C11.6951 24.0277 10.8795 25.2759 9.06098 26.0033C5.76831 27.3203 4.81016 28.2785 3.79271 29.2959C2.57282 30.5158 1.81708 32.5886 1.81708 32.5886C1.81708 32.5886 0.500011 36.1444 0.500011 38.5154L0.500004 38.6066C0.499783 40.9276 0.499634 42.5077 1.81708 44.4422C3.04869 46.2507 3.80961 46.666 5.7048 47.7002L5.76831 47.7349C8.62368 49.2934 11.695 49.8495 14.3292 50.369C17.3675 50.9683 19.1349 51.0079 22.2316 51.0276C25.5847 51.0489 27.4744 50.8518 30.7926 50.369C33.3879 49.9915 37.3779 49.052 37.3779 49.052H39.3535L41.3291 60.2471L43.9633 72.7592L45.9389 71.4421C45.9389 71.4421 47.7934 69.1736 48.573 67.4909C49.3601 65.7922 49.6241 64.7345 49.8901 62.8812C50.3301 59.8158 50.0186 57.4144 49.8901 54.3202C49.7621 51.2368 49.2316 47.0764 49.2316 47.0764C49.2316 47.0764 51.5769 45.7892 52.5242 44.4422C53.7443 42.7076 54.004 41.2884 53.8413 39.174C53.7166 37.5522 53.4006 36.593 52.5242 35.2227C51.442 33.5306 48.573 31.9301 48.573 31.9301L49.2316 27.9789V22.7106C49.2316 22.7106 49.1683 20.5585 49.2316 18.7594C49.3314 15.9205 49.8901 10.857 49.8901 10.857C49.8901 10.857 50.5486 5.58868 49.8901 5.58868C49.2316 5.58868 48.251 5.32769 47.256 5.58868C45.6631 6.00647 43.9633 8.22282 43.9633 8.22282L39.3535 30.613H36.0609L32.7682 29.9545L30.7926 27.9789V21.3935Z" stroke="black" stroke-linejoin="round"/>
</svg>
