<svg width="66" height="85" viewBox="0 0 66 85" fill="none" xmlns="http://www.w3.org/2000/svg">
<path d="M53.2413 51.5143H18.6181C17.5357 51.5143 16.6583 52.3917 16.6583 53.4741V82.2179C16.6583 83.3002 17.5357 84.1777 18.6181 84.1777H53.2413C54.3236 84.1777 55.2011 83.3002 55.2011 82.2179V53.4741C55.2011 52.3917 54.3236 51.5143 53.2413 51.5143Z" fill="white"/>
<path d="M8.16576 40.4088C7.08339 40.4088 6.20596 39.5313 6.20596 38.449V31.5897C6.20596 30.5073 7.08339 29.6299 8.16576 29.6299H61.7337H63.0402C64.1226 29.6299 65 30.5073 65 31.5897V38.449C65 39.5313 64.1226 40.4088 63.0402 40.4088H50.6282V51.5143H20.9044V40.4088L8.16576 40.4088Z" fill="white"/>
<path d="M1.84902 0.909613C0.840033 1.4315 0.467775 2.68797 1.02963 3.67526L15.8002 29.6299H61.7337V27.6701C61.7337 26.9485 61.1488 26.3635 60.4272 26.3635H18.8398L4.56262 1.6529C4.02814 0.72784 2.86098 0.386186 1.91204 0.877018L1.84902 0.909613Z" fill="white"/>
<path d="M50.6282 40.4088V51.5143H20.9044V40.4088M50.6282 40.4088H20.9044M50.6282 40.4088H63.0402C64.1226 40.4088 65 39.5313 65 38.449V31.5897C65 30.5073 64.1226 29.6299 63.0402 29.6299H61.7337M20.9044 40.4088L8.16576 40.4088C7.08339 40.4088 6.20596 39.5313 6.20596 38.449V31.5897C6.20596 30.5073 7.08339 29.6299 8.16576 29.6299H61.7337M61.7337 29.6299V27.6701C61.7337 26.9485 61.1488 26.3635 60.4272 26.3635H18.8398L4.56262 1.6529C4.02814 0.72784 2.86098 0.386186 1.91204 0.877018L1.84902 0.909613C0.840033 1.4315 0.467775 2.68797 1.02963 3.67526L15.8002 29.6299H61.7337ZM18.6181 51.5143H53.2413C54.3236 51.5143 55.2011 52.3917 55.2011 53.4741V82.2179C55.2011 83.3002 54.3236 84.1777 53.2413 84.1777H18.6181C17.5357 84.1777 16.6583 83.3002 16.6583 82.2179V53.4741C16.6583 52.3917 17.5357 51.5143 18.6181 51.5143Z" stroke="black"/>
<rect x="18.8679" y="54.0508" width="34.1232" height="28.2438" rx="1.75" fill="white" stroke="black" stroke-width="0.5"/>
</svg>
