<svg width="157" height="112" viewBox="0 0 157 112" fill="none" xmlns="http://www.w3.org/2000/svg">
<mask id="path-1-inside-1_778_3996" fill="white">
<path d="M0.523438 56.6996C0.523438 67.5682 12.7337 72.5626 28.6872 72.5626V40.825C12.7337 40.825 0.523438 45.7404 0.523438 56.688"/>
</mask>
<path d="M0.523438 56.6996C0.523438 67.5682 12.7337 72.5626 28.6872 72.5626V40.825C12.7337 40.825 0.523438 45.7404 0.523438 56.688" fill="white"/>
<path d="M28.6872 72.5626V73.0626H29.1872V72.5626H28.6872ZM28.6872 40.825H29.1872V40.325H28.6872V40.825ZM0.523438 56.6996H0.0234375C0.0234375 62.3672 3.22593 66.4816 8.39328 69.151C13.5394 71.8096 20.6703 73.0626 28.6872 73.0626V72.5626V72.0626C20.7506 72.0626 13.7996 70.8184 8.85226 68.2626C3.9261 65.7177 1.02344 61.9006 1.02344 56.6996H0.523438ZM28.6872 72.5626H29.1872V40.825H28.6872H28.1872V72.5626H28.6872ZM28.6872 40.825V40.325C20.6714 40.325 13.5404 41.5579 8.39397 44.2066C3.22504 46.8668 0.0234375 50.9818 0.0234375 56.688H0.523438H1.02344C1.02344 51.4467 3.92699 47.6302 8.85157 45.0957C13.7987 42.5497 20.7495 41.325 28.6872 41.325V40.825Z" fill="black" mask="url(#path-1-inside-1_778_3996)"/>
<mask id="path-3-inside-2_778_3996" fill="white">
<path d="M25.7447 60.7473C23.8393 56.4743 21.0206 54.3096 17.6496 50.6454C13.602 46.237 7.49121 28.7278 7.49121 28.7278L17.8863 62.3372C17.8863 62.3372 19.8255 65.4264 23.3094 64.3102C26.8045 63.194 25.7334 60.7363 25.7334 60.7363"/>
</mask>
<path d="M25.7447 60.7473C23.8393 56.4743 21.0206 54.3096 17.6496 50.6454C13.602 46.237 7.49121 28.7278 7.49121 28.7278L17.8863 62.3372C17.8863 62.3372 19.8255 65.4264 23.3094 64.3102C26.8045 63.194 25.7334 60.7363 25.7334 60.7363" fill="white"/>
<path d="M17.6496 50.6454L17.2812 50.9835L17.2816 50.9839L17.6496 50.6454ZM7.49121 28.7278L7.96329 28.563L7.01354 28.8755L7.49121 28.7278ZM17.8863 62.3372L17.4086 62.4849L17.428 62.5475L17.4628 62.603L17.8863 62.3372ZM23.3094 64.3102L23.1572 63.8339L23.1568 63.8341L23.3094 64.3102ZM25.7447 60.7473L26.2013 60.5437C24.2517 56.1716 21.3294 53.9067 18.0175 50.3069L17.6496 50.6454L17.2816 50.9839C20.7118 54.7125 23.4268 56.777 25.288 60.9509L25.7447 60.7473ZM17.6496 50.6454L18.0179 50.3072C17.0566 49.2603 15.9418 47.3943 14.8011 45.1356C13.667 42.8901 12.5291 40.301 11.5147 37.8427C10.5008 35.3856 9.61267 33.0649 8.9779 31.3582C8.66058 30.505 8.40672 29.8056 8.23227 29.3198C8.14506 29.0769 8.0777 28.8874 8.0322 28.7588C8.00945 28.6944 7.99217 28.6454 7.9806 28.6124C7.97482 28.596 7.97046 28.5835 7.96756 28.5753C7.96612 28.5711 7.96503 28.568 7.96432 28.566C7.96396 28.565 7.9637 28.5642 7.96352 28.5637C7.96344 28.5635 7.96338 28.5633 7.96334 28.5632C7.9633 28.5631 7.96329 28.563 7.49121 28.7278C7.01914 28.8925 7.01917 28.8926 7.01923 28.8928C7.01928 28.8929 7.01936 28.8932 7.01946 28.8935C7.01966 28.894 7.01995 28.8949 7.02033 28.896C7.0211 28.8982 7.02224 28.9014 7.02375 28.9057C7.02676 28.9143 7.03123 28.9271 7.03713 28.9439C7.04893 28.9775 7.06645 29.0272 7.08945 29.0922C7.13544 29.2223 7.20333 29.4132 7.2911 29.6577C7.46666 30.1466 7.72182 30.8496 8.04063 31.7068C8.67812 33.4208 9.57065 35.753 10.5904 38.2242C11.6096 40.6942 12.7583 43.3091 13.9084 45.5864C15.0519 47.8505 16.2187 49.8263 17.2813 50.9835L17.6496 50.6454ZM7.49121 28.7278L7.01354 28.8755L17.4086 62.4849L17.8863 62.3372L18.364 62.1894L7.96889 28.58L7.49121 28.7278ZM17.8863 62.3372C17.4628 62.603 17.463 62.6032 17.4631 62.6035C17.4632 62.6035 17.4633 62.6038 17.4634 62.604C17.4637 62.6043 17.4639 62.6047 17.4642 62.6052C17.4648 62.6061 17.4655 62.6072 17.4663 62.6085C17.468 62.6111 17.4701 62.6144 17.4727 62.6184C17.4779 62.6265 17.4851 62.6374 17.4942 62.6509C17.5124 62.6779 17.5384 62.7155 17.572 62.7618C17.6393 62.8542 17.7375 62.982 17.8662 63.1302C18.1226 63.4256 18.5047 63.8081 19.0081 64.1543C20.0246 64.8532 21.5398 65.4022 23.4619 64.7864L23.3094 64.3102L23.1568 63.8341C21.5951 64.3344 20.3988 63.8969 19.5747 63.3303C19.1578 63.0436 18.8374 62.7236 18.6214 62.4747C18.5138 62.3507 18.4333 62.2458 18.3809 62.1737C18.3547 62.1377 18.3356 62.11 18.3237 62.0923C18.3177 62.0835 18.3136 62.0772 18.3113 62.0736C18.3101 62.0718 18.3094 62.0707 18.3092 62.0703C18.309 62.0701 18.309 62.0701 18.3091 62.0703C18.3092 62.0704 18.3093 62.0705 18.3094 62.0707C18.3094 62.0708 18.3095 62.0709 18.3096 62.071C18.3097 62.0712 18.3098 62.0714 17.8863 62.3372ZM23.3094 64.3102L23.4615 64.7865C25.3407 64.1864 26.1041 63.1765 26.3199 62.2141C26.423 61.7546 26.3923 61.3418 26.3378 61.0469C26.3104 60.8986 26.2764 60.777 26.2483 60.6901C26.2342 60.6465 26.2214 60.6113 26.2115 60.5855C26.2066 60.5726 26.2024 60.5619 26.199 60.5538C26.1973 60.5497 26.1959 60.5462 26.1946 60.5433C26.194 60.5419 26.1935 60.5406 26.193 60.5394C26.1928 60.5389 26.1925 60.5384 26.1923 60.5379C26.1922 60.5376 26.1921 60.5373 26.192 60.5372C26.1919 60.5369 26.1917 60.5365 25.7334 60.7363C25.275 60.936 25.2749 60.9357 25.2748 60.9355C25.2747 60.9354 25.2746 60.9351 25.2745 60.9349C25.2744 60.9346 25.2743 60.9343 25.2741 60.934C25.2739 60.9335 25.2738 60.9331 25.2736 60.9329C25.2734 60.9324 25.2735 60.9324 25.2737 60.933C25.2742 60.9342 25.2755 60.9375 25.2776 60.9428C25.2817 60.9535 25.2885 60.9723 25.2969 60.9981C25.3137 61.0499 25.3361 61.1291 25.3545 61.2286C25.3916 61.4294 25.4102 61.7009 25.3442 61.9953C25.2218 62.5408 24.7731 63.3179 23.1572 63.8339L23.3094 64.3102Z" fill="black" mask="url(#path-3-inside-2_778_3996)"/>
<mask id="path-5-inside-3_778_3996" fill="white">
<path d="M15.4734 53.554L8.41553 30.6218C8.41553 30.6218 9.29494 42.0426 10.0842 44.6583C10.8734 47.274 13.2523 51.6371 15.4734 53.5425"/>
</mask>
<path d="M15.4734 53.554L8.41553 30.6218C8.41553 30.6218 9.29494 42.0426 10.0842 44.6583C10.8734 47.274 13.2523 51.6371 15.4734 53.5425" fill="white"/>
<path d="M8.41553 30.6218L8.89341 30.4747L7.917 30.6602L8.41553 30.6218ZM15.4734 53.554L15.9513 53.4069L8.89341 30.4747L8.41553 30.6218L7.93765 30.7689L14.9955 53.7011L15.4734 53.554ZM8.41553 30.6218C7.917 30.6602 7.91701 30.6603 7.91702 30.6604C7.91702 30.6605 7.91703 30.6606 7.91705 30.6608C7.91708 30.6611 7.91712 30.6617 7.91717 30.6624C7.91728 30.6638 7.91744 30.6659 7.91766 30.6687C7.91809 30.6743 7.91873 30.6826 7.91958 30.6935C7.92128 30.7153 7.92381 30.7477 7.92714 30.79C7.93379 30.8745 7.94365 30.9988 7.95647 31.1578C7.98211 31.4759 8.01961 31.933 8.06707 32.4897C8.16198 33.6028 8.2968 35.1147 8.45637 36.709C8.61588 38.3026 8.80044 39.9817 8.99494 41.4282C9.1877 42.8617 9.39488 44.1047 9.60547 44.8027L10.0842 44.6583L10.5628 44.5138C10.3788 43.904 10.1801 42.7385 9.98602 41.2949C9.79367 39.8644 9.6104 38.1979 9.4514 36.6094C9.29246 35.0215 9.1581 33.5147 9.06346 32.4047C9.01614 31.8498 8.97877 31.3942 8.95324 31.0775C8.94047 30.9191 8.93067 30.7955 8.92405 30.7115C8.92075 30.6695 8.91824 30.6374 8.91657 30.6159C8.91573 30.6051 8.9151 30.597 8.91468 30.5915C8.91447 30.5888 8.91431 30.5868 8.9142 30.5854C8.91415 30.5847 8.91411 30.5842 8.91409 30.5839C8.91408 30.5837 8.91407 30.5836 8.91406 30.5835C8.91405 30.5835 8.91405 30.5834 8.41553 30.6218ZM10.0842 44.6583L9.60547 44.8027C10.0146 46.1586 10.8257 47.9401 11.8105 49.6196C12.7924 51.2941 13.9755 52.9163 15.1478 53.9219L15.4734 53.5425L15.7989 53.163C14.7501 52.2632 13.6333 50.7512 12.6731 49.1138C11.7159 47.4815 10.9429 45.7736 10.5628 44.5138L10.0842 44.6583Z" fill="black" mask="url(#path-5-inside-3_778_3996)"/>
<mask id="path-7-inside-4_778_3996" fill="white">
<path d="M14.8756 44.2189C16.1947 45.0532 25.0226 44.4104 25.5863 44.0384C26.1501 43.6663 25.981 42.5273 25.902 41.817C25.8231 41.1067 17.8971 5.85172 17.7393 5.29926C17.5814 4.74681 14.7515 -0.0112545 11.4368 2.00042e-05C8.53928 2.00042e-05 7.34418 0.935893 7.50202 1.49962C7.65987 2.05207 8.43781 27.8481 8.43781 28.4908C8.43781 29.1334 13.6241 43.4407 14.8756 44.2299"/>
</mask>
<path d="M14.8756 44.2189C16.1947 45.0532 25.0226 44.4104 25.5863 44.0384C26.1501 43.6663 25.981 42.5273 25.902 41.817C25.8231 41.1067 17.8971 5.85172 17.7393 5.29926C17.5814 4.74681 14.7515 -0.0112545 11.4368 2.00042e-05C8.53928 2.00042e-05 7.34418 0.935893 7.50202 1.49962C7.65987 2.05207 8.43781 27.8481 8.43781 28.4908C8.43781 29.1334 13.6241 43.4407 14.8756 44.2299" fill="white"/>
<path d="M11.4368 2.00042e-05V0.500023L11.4385 0.500017L11.4368 2.00042e-05ZM7.50202 1.49962L7.02054 1.63444L7.02126 1.63698L7.50202 1.49962ZM14.8756 44.2189L14.6083 44.6415C14.8643 44.8034 15.2335 44.8965 15.6091 44.9591C16.0041 45.0251 16.4804 45.0683 17.0013 45.0944C18.0445 45.1467 19.306 45.1324 20.5353 45.0806C21.7657 45.0287 22.9742 44.9389 23.9138 44.838C24.3829 44.7877 24.7909 44.734 25.1036 44.6798C25.2594 44.6529 25.3988 44.6246 25.5135 44.5948C25.6072 44.5704 25.7495 44.5297 25.8618 44.4557L25.5863 44.0384L25.3109 43.6211C25.3527 43.5935 25.36 43.6014 25.2619 43.6269C25.1847 43.647 25.0753 43.6699 24.9331 43.6945C24.65 43.7435 24.2656 43.7945 23.8071 43.8437C22.8917 43.942 21.705 44.0304 20.4932 44.0815C19.2801 44.1326 18.0521 44.1458 17.0514 44.0956C16.5503 44.0705 16.1161 44.0299 15.7737 43.9728C15.4119 43.9124 15.2166 43.843 15.1428 43.7964L14.8756 44.2189ZM25.5863 44.0384L25.8618 44.4557C26.3635 44.1245 26.4656 43.5136 26.4847 43.0763C26.5052 42.6076 26.4362 42.0967 26.399 41.7618L25.902 41.817L25.4051 41.8723C25.4468 42.2476 25.5019 42.6614 25.4857 43.0327C25.4681 43.4356 25.3729 43.5801 25.3109 43.6211L25.5863 44.0384ZM25.902 41.817L26.399 41.7618C26.3906 41.6864 26.3473 41.4735 26.2884 41.1932C26.2256 40.8941 26.1361 40.4773 26.0237 39.9604C25.7989 38.9264 25.482 37.488 25.1037 35.781C24.3469 32.3667 23.3437 27.8756 22.3382 23.3896C20.3308 14.4347 18.3043 5.45663 18.22 5.1619L17.7393 5.29926L17.2585 5.43662C17.2579 5.43461 17.2601 5.44253 17.2667 5.46926C17.2724 5.49276 17.2801 5.52487 17.2898 5.56577C17.3091 5.64744 17.3356 5.76115 17.3689 5.90522C17.4355 6.19318 17.5286 6.59996 17.6446 7.10893C17.8765 8.12675 18.1993 9.55163 18.5825 11.2485C19.3489 14.6421 20.3569 19.1227 21.3624 23.6083C22.3679 28.094 23.3709 32.5843 24.1274 35.9974C24.5056 37.704 24.8222 39.1408 25.0465 40.1729C25.1587 40.689 25.2477 41.1031 25.3098 41.3987C25.3408 41.5466 25.3649 41.6636 25.3816 41.7484C25.4006 41.8441 25.4055 41.876 25.4051 41.8723L25.902 41.817ZM17.7393 5.29926L18.22 5.1619C18.1836 5.03424 18.097 4.85595 17.9989 4.6746C17.8928 4.47846 17.7494 4.23594 17.5737 3.9647C17.2224 3.42261 16.7341 2.75413 16.142 2.10212C14.9833 0.826035 13.3188 -0.506384 11.4351 -0.499977L11.4368 2.00042e-05L11.4385 0.500017C12.8695 0.49515 14.2774 1.53613 15.4017 2.77437C15.9512 3.37953 16.4072 4.00344 16.7345 4.50852C16.898 4.76086 17.0275 4.9806 17.1193 5.15037C17.1653 5.2354 17.2005 5.30533 17.2252 5.35879C17.2525 5.41765 17.2596 5.44032 17.2585 5.43662L17.7393 5.29926ZM11.4368 2.00042e-05V-0.49998C9.94125 -0.49998 8.83844 -0.259464 8.10921 0.0867416C7.74648 0.258951 7.45129 0.469222 7.25406 0.713002C7.05802 0.955315 6.92241 1.28395 7.02054 1.63443L7.50202 1.49962L7.98351 1.3648C8.00272 1.43343 7.9573 1.43368 8.0315 1.34197C8.10451 1.25172 8.25959 1.12233 8.53809 0.990103C9.09135 0.727441 10.0349 0.50002 11.4368 0.50002V2.00042e-05ZM7.50202 1.49962L7.02126 1.63698C7.01073 1.6001 7.01324 1.59013 7.02078 1.67053C7.02624 1.72871 7.03255 1.81149 7.03961 1.91939C7.05369 2.13444 7.06998 2.43675 7.08812 2.81557C7.12438 3.57254 7.16764 4.62605 7.21519 5.87864C7.31027 8.38337 7.42227 11.6787 7.52937 14.9776C7.74383 21.5836 7.93781 28.1801 7.93781 28.4908H8.43781H8.93781C8.93781 28.1587 8.74281 21.5359 8.52884 14.9451C8.42173 11.6457 8.30965 8.3482 8.21447 5.84071C8.16689 4.5872 8.12348 3.52974 8.08698 2.76773C8.06875 2.38706 8.05213 2.07789 8.03748 1.85405C8.03017 1.74252 8.02315 1.64901 8.01641 1.57712C8.01175 1.52747 8.00319 1.43366 7.98279 1.36226L7.50202 1.49962ZM8.43781 28.4908H7.93781C7.93781 28.5693 7.95399 28.6491 7.96384 28.695C7.97639 28.7536 7.99365 28.8218 8.014 28.8964C8.0549 29.0462 8.11355 29.2406 8.18655 29.4705C8.33289 29.9313 8.54215 30.5511 8.79582 31.2754C9.30344 32.7247 9.9927 34.6031 10.7211 36.4858C11.449 38.3673 12.2184 40.2597 12.8862 41.7344C13.2196 42.4707 13.5316 43.1114 13.8032 43.5974C13.9387 43.8398 14.069 44.0524 14.1912 44.2223C14.3032 44.3779 14.4437 44.5487 14.6088 44.6529L14.8756 44.2299L15.1423 43.807C15.151 43.8125 15.1043 43.779 15.0028 43.6381C14.9116 43.5113 14.8021 43.335 14.6761 43.1095C14.4245 42.6594 14.1259 42.0479 13.7972 41.3219C13.1406 39.8719 12.3788 37.9993 11.6537 36.125C10.9291 34.2519 10.2435 32.3836 9.73961 30.9449C9.48752 30.2251 9.28182 29.6155 9.13965 29.1679C9.06839 28.9435 9.0144 28.7638 8.97871 28.6331C8.96077 28.5674 8.94876 28.5187 8.94161 28.4854C8.93175 28.4394 8.93781 28.4524 8.93781 28.4908H8.43781Z" fill="black" mask="url(#path-7-inside-4_778_3996)"/>
<mask id="path-9-inside-5_778_3996" fill="white">
<path d="M25.902 71.3795C25.9245 70.9849 21.9448 68.9555 21.9448 68.9555L17.435 66.1369C17.435 66.1369 11.8652 62.8898 11.0422 63.2054C10.2079 63.5211 9.18189 66.7229 8.94513 69.7444C8.70836 72.766 6.87061 92.8009 7.51326 94.9431C8.14464 97.0853 11.6285 110.762 17.6716 111.844C18.6976 112.024 25.2819 81.9324 25.9133 71.3795"/>
</mask>
<path d="M25.902 71.3795C25.9245 70.9849 21.9448 68.9555 21.9448 68.9555L17.435 66.1369C17.435 66.1369 11.8652 62.8898 11.0422 63.2054C10.2079 63.5211 9.18189 66.7229 8.94513 69.7444C8.70836 72.766 6.87061 92.8009 7.51326 94.9431C8.14464 97.0853 11.6285 110.762 17.6716 111.844C18.6976 112.024 25.2819 81.9324 25.9133 71.3795" fill="white"/>
<path d="M21.9448 68.9555L21.6798 69.3795L21.6983 69.3911L21.7177 69.401L21.9448 68.9555ZM17.435 66.1369L17.7 65.7129L17.6935 65.7088L17.6868 65.7049L17.435 66.1369ZM11.0422 63.2054L11.2191 63.6731L11.2212 63.6723L11.0422 63.2054ZM7.51326 94.9431L7.99287 94.8017L7.99218 94.7994L7.51326 94.9431ZM17.6716 111.844L17.5835 112.336L17.585 112.336L17.6716 111.844ZM25.902 71.3795L26.4012 71.408C26.4135 71.1921 26.2981 71.0354 26.2586 70.9837C26.2017 70.9092 26.132 70.842 26.0675 70.7856C25.936 70.6706 25.7608 70.5446 25.5699 70.4178C25.184 70.1614 24.6755 69.8634 24.1765 69.5835C23.6753 69.3022 23.1744 69.034 22.7994 68.8364C22.6117 68.7375 22.4552 68.6561 22.3455 68.5994C22.2906 68.571 22.2474 68.5488 22.2178 68.5336C22.2031 68.526 22.1917 68.5202 22.184 68.5162C22.1801 68.5142 22.1771 68.5127 22.1751 68.5117C22.1741 68.5112 22.1734 68.5108 22.1728 68.5105C22.1726 68.5104 22.1724 68.5103 22.1722 68.5102C22.1721 68.5102 22.1721 68.5102 22.172 68.5101C22.172 68.5101 22.172 68.5101 21.9448 68.9555C21.7177 69.401 21.7177 69.401 21.7177 69.401C21.7177 69.401 21.7178 69.401 21.7178 69.401C21.7179 69.4011 21.7181 69.4011 21.7183 69.4013C21.7187 69.4015 21.7194 69.4018 21.7203 69.4023C21.7221 69.4032 21.7249 69.4046 21.7285 69.4065C21.7359 69.4102 21.7468 69.4159 21.7612 69.4232C21.7899 69.438 21.8322 69.4597 21.8861 69.4876C21.9939 69.5434 22.1481 69.6236 22.3332 69.7211C22.7037 69.9164 23.1963 70.1801 23.6872 70.4556C24.1803 70.7323 24.6626 71.0156 25.0165 71.2507C25.1955 71.3696 25.3276 71.467 25.4093 71.5384C25.4515 71.5753 25.4651 71.5922 25.4639 71.5907C25.463 71.5896 25.4499 71.5726 25.4359 71.5413C25.4228 71.512 25.3975 71.4441 25.4028 71.3509L25.902 71.3795ZM21.9448 68.9555L22.2098 68.5315L17.7 65.7129L17.435 66.1369L17.17 66.5609L21.6798 69.3795L21.9448 68.9555ZM17.435 66.1369C17.6868 65.7049 17.6868 65.7049 17.6867 65.7049C17.6867 65.7049 17.6866 65.7048 17.6865 65.7047C17.6863 65.7046 17.686 65.7045 17.6856 65.7042C17.6849 65.7038 17.6838 65.7032 17.6824 65.7024C17.6796 65.7007 17.6755 65.6984 17.6701 65.6952C17.6593 65.6889 17.6433 65.6797 17.6226 65.6677C17.581 65.6436 17.5202 65.6086 17.4426 65.5641C17.2875 65.4753 17.0653 65.3488 16.7961 65.1982C16.2582 64.8971 15.531 64.4981 14.7767 64.1085C14.0247 63.7202 13.2357 63.3358 12.577 63.0673C12.249 62.9336 11.9396 62.8229 11.676 62.7561C11.5445 62.7227 11.412 62.6971 11.287 62.6877C11.1704 62.679 11.0148 62.6804 10.8631 62.7386L11.0422 63.2054L11.2212 63.6723C11.1725 63.691 11.1568 63.6808 11.2123 63.685C11.2593 63.6885 11.3308 63.7002 11.4303 63.7254C11.6289 63.7758 11.8896 63.867 12.1996 63.9933C12.8167 64.2449 13.5744 64.6131 14.3178 64.997C15.0588 65.3798 15.7755 65.7729 16.3077 66.0708C16.5735 66.2196 16.7928 66.3444 16.9455 66.4318C17.0219 66.4756 17.0815 66.51 17.122 66.5334C17.1422 66.545 17.1576 66.554 17.1679 66.56C17.1731 66.563 17.177 66.5652 17.1795 66.5667C17.1808 66.5675 17.1817 66.568 17.1824 66.5684C17.1827 66.5685 17.1829 66.5687 17.183 66.5688C17.1831 66.5688 17.1831 66.5688 17.1832 66.5688C17.1832 66.5689 17.1832 66.5689 17.435 66.1369ZM11.0422 63.2054L10.8652 62.7378C10.6531 62.8181 10.4812 62.9695 10.3462 63.1236C10.2068 63.2826 10.0778 63.4779 9.95855 63.693C9.71988 64.1235 9.49432 64.6811 9.29345 65.3076C8.89096 66.563 8.56799 68.157 8.44665 69.7054L8.94513 69.7444L9.4436 69.7835C9.55903 68.3104 9.86743 66.7927 10.2457 65.6129C10.4352 65.0218 10.6374 64.5309 10.8331 64.1779C10.9311 64.0012 11.0209 63.8709 11.0983 63.7827C11.18 63.6894 11.2227 63.6717 11.2191 63.6731L11.0422 63.2054ZM8.94513 69.7444L8.44665 69.7054C8.32922 71.2041 7.80934 76.9844 7.40072 82.6375C7.19624 85.4663 7.01889 88.2726 6.93295 90.5078C6.89 91.6248 6.86965 92.6049 6.88062 93.3764C6.89122 94.1216 6.9305 94.7406 7.03435 95.0868L7.51326 94.9431L7.99218 94.7994C7.93536 94.61 7.8915 94.1344 7.88052 93.3621C7.86991 92.6161 7.88954 91.6559 7.93221 90.5462C8.0175 88.328 8.19389 85.535 8.39811 82.7096C8.80689 77.0543 9.32427 71.3064 9.4436 69.7835L8.94513 69.7444ZM7.51326 94.9431L7.03366 95.0845C7.34434 96.1385 8.38401 100.134 10.1064 103.995C10.9676 105.925 12.01 107.847 13.2348 109.362C14.454 110.871 15.9012 112.035 17.5835 112.336L17.6716 111.844L17.7597 111.352C16.4204 111.112 15.166 110.161 14.0126 108.733C12.8648 107.313 11.8637 105.479 11.0196 103.587C9.33149 99.8034 8.31356 95.8898 7.99286 94.8018L7.51326 94.9431ZM17.6716 111.844L17.585 112.336C17.7626 112.368 17.9061 112.306 17.9901 112.253C18.0721 112.202 18.1314 112.138 18.1705 112.09C18.2494 111.994 18.317 111.874 18.375 111.756C18.4945 111.513 18.6264 111.169 18.768 110.75C19.0533 109.907 19.4007 108.691 19.7873 107.207C20.5614 104.237 21.5021 100.154 22.4297 95.7395C24.2825 86.9222 26.0942 76.7274 26.4124 71.4093L25.9133 71.3795L25.4142 71.3496C25.101 76.5845 23.3048 86.7121 21.4511 95.5339C20.5254 99.9391 19.5883 104.005 18.8196 106.955C18.4347 108.432 18.0945 109.62 17.8208 110.43C17.6829 110.837 17.5676 111.131 17.4776 111.315C17.4557 111.359 17.4372 111.393 17.4221 111.418C17.4146 111.431 17.4085 111.44 17.4039 111.447C17.3993 111.454 17.3969 111.457 17.3969 111.457C17.397 111.457 17.398 111.456 17.3998 111.453C17.4017 111.451 17.4048 111.448 17.4091 111.444C17.4172 111.437 17.4331 111.422 17.4573 111.407C17.504 111.378 17.6126 111.326 17.7582 111.351L17.6716 111.844Z" fill="black" mask="url(#path-9-inside-5_778_3996)"/>
<rect x="27.8025" y="43.6467" width="10.9116" height="27.2791" fill="white" stroke="black" stroke-width="0.5"/>
<rect x="38.7139" y="46.3743" width="117.3" height="21.8233" fill="white" stroke="black" stroke-width="0.5"/>
<path d="M17.7526 5.24361L25.9926 41.2001H28.2399V43.4474H38.7272V46.4438H155.586V68.1675H38.7272L38.7272 71.1639H28.2399V72.6621H25.2435C25.2435 72.6621 24.2219 86.0526 22.2471 94.3858C20.6897 100.958 17.0035 110.866 17.0035 110.866C17.0035 110.866 14.0086 108.844 12.5089 107.12C9.04729 103.142 9.07379 99.5521 8.01434 94.3858C6.01277 84.6254 9.51253 68.9166 9.51253 68.9166L5.76706 66.6693C5.76706 66.6693 0.753971 61.7377 0.523401 57.6802C0.350125 54.6309 1.14309 52.7736 2.77068 50.1892C4.76711 47.0192 10.2616 44.1965 10.2616 44.1965L8.76343 38.2037V28.4655C8.76343 28.4655 7.26525 2.99633 8.01434 1.49814C8.76342 -4.88162e-05 10.2728 0.631428 11.7598 0.749045C14.6761 0.979712 17.7526 5.24361 17.7526 5.24361Z" stroke="black"/>
</svg>
