<svg width="132" height="82" viewBox="0 0 132 82" fill="none" xmlns="http://www.w3.org/2000/svg">
<path d="M11.6947 24.9207L88.7711 24.5157C90.4217 24.507 91.7553 23.1664 91.7553 21.5157V8.21429C91.7553 8.21429 92.1103 4.68612 93.5187 3.07143C94.8716 1.52031 98.0559 0.749922 98.9886 0.552276C99.1628 0.515379 99.3392 0.5 99.5172 0.5H105.944C106.739 0.5 107.501 0.815393 108.063 1.37693L111.419 4.72743C112.053 5.3597 112.933 5.67518 113.826 5.62542C115.915 5.50911 119.866 5.41854 122.435 6.16129C124.774 6.83703 125.769 7.08139 128.097 9.20968C131.432 12.2581 131.432 13.7857 131.432 13.7857V41.6429C131.432 43.2997 130.088 44.6429 128.432 44.6429H125.301C125.005 44.6429 124.734 44.4774 124.598 44.2143C124.463 43.9511 124.192 43.7857 123.896 43.7857H119.002C117.345 43.7857 116.002 45.1289 116.002 46.7857V48.5C116.002 50.1569 114.659 51.5 113.002 51.5H111.067C109.41 51.5 108.067 52.8432 108.067 54.5V73.3571C108.067 75.014 106.723 76.3571 105.067 76.3571H100.058C98.6376 76.3571 97.4863 77.5084 97.4863 78.9286C97.4863 80.3487 96.335 81.5 94.9149 81.5H12.7823C11.5989 81.5 10.6395 80.5406 10.6395 79.3571V79.1981C10.6395 78.1025 9.75129 77.2143 8.65567 77.2143C7.56004 77.2143 6.67186 76.3261 6.67186 75.2305V50.2143C6.67186 48.5574 5.32871 47.2143 3.67186 47.2143H3.5C1.84315 47.2143 0.5 45.8711 0.5 44.2143V30.9286C0.5 29.2717 1.84314 27.9286 3.5 27.9286H8.69469C9.52529 27.9286 10.1986 27.2552 10.1986 26.4246C10.1986 25.5971 10.8672 24.9251 11.6947 24.9207Z" fill="white" stroke="black"/>
<path fill-rule="evenodd" clip-rule="evenodd" d="M99.3577 43.5579H96.7215V29.9158H99.3577V43.5579ZM97.1608 43.1316H98.9183V30.3421H97.1608V43.1316Z" fill="black"/>
<path fill-rule="evenodd" clip-rule="evenodd" d="M118.69 8.17368C124.263 8.17368 128.795 12.3802 128.795 17.5526C128.795 22.7251 124.263 26.9316 118.69 26.9316C113.117 26.9316 108.584 22.7251 108.584 17.5526C108.584 12.3802 113.117 8.17368 118.69 8.17368ZM118.69 8.6C113.341 8.6 109.024 12.6333 109.024 17.5526C109.024 22.472 113.341 26.5053 118.69 26.5053C124.039 26.5053 128.356 22.472 128.356 17.5526C128.356 12.6333 124.039 8.6 118.69 8.6Z" fill="black"/>
<path fill-rule="evenodd" clip-rule="evenodd" d="M106.777 0.5C107.019 0.5 107.25 0.597162 107.416 0.768113L112.539 5.61579H121.326C126.05 5.61591 131.432 10.4469 131.432 14.9947V42.244C131.432 43.6502 130.262 44.7927 128.812 44.8019L125.841 44.8202C125.06 44.825 124.36 44.5009 123.874 43.9842H115.614V51.6579H97.1608V81.5H10.1661V47.2457C9.89091 47.3402 9.59589 47.3947 9.28735 47.3947H3.1362C1.68027 47.3947 0.5 46.2495 0.5 44.8368V30.3421C0.5 28.9294 1.68027 27.7842 3.1362 27.7842H9.28735C9.59579 27.7842 9.89099 27.838 10.1661 27.9324V25.2263H22.4684V77.2368H86.616V25.2263C86.616 25.2263 89.8294 25.2263 91.8884 25.2263C91.4031 25.2263 91.0097 24.8446 91.0097 24.3737V9.27361C91.0097 4.43179 94.7555 0.5 99.3748 0.5H106.777ZM99.3748 0.926316C95.0298 0.926316 91.4491 4.63528 91.4491 9.27361V24.3737C91.4491 24.6091 91.6458 24.8 91.8884 24.8C91.8884 24.8 91.8884 25.0598 91.8884 25.2263C91.8884 25.3928 91.8884 25.6526 91.8884 25.6526H87.0554V77.6632H22.029V25.6526H10.6055V28.5353L10.0193 28.3346C9.78824 28.2553 9.54265 28.2105 9.28735 28.2105H3.1362C1.92293 28.2105 0.939368 29.1649 0.939367 30.3421V44.8368C0.939367 46.0141 1.92293 46.9684 3.1362 46.9684H9.28735C9.54198 46.9684 9.78739 46.9232 10.0193 46.8435L10.6055 46.6429V81.0737H96.7215V51.2316H115.175V43.5579H124.068L124.198 43.6969C124.604 44.1286 125.188 44.3979 125.838 44.3939L128.81 44.3756C130.017 44.3678 130.992 43.4157 130.992 42.244V14.9947C130.992 12.8767 129.731 10.6365 127.849 8.90975C126.027 7.23804 123.695 6.1141 121.535 6.04544L121.326 6.04211H112.36L112.232 5.92137L107.11 1.07369L107.096 1.06037C107.013 0.974745 106.898 0.926316 106.777 0.926316H99.3748Z" fill="black"/>
<path fill-rule="evenodd" clip-rule="evenodd" d="M7.96925 48.2474C8.69721 48.2474 9.28735 48.82 9.28735 49.5263V75.9579C9.28735 76.6642 8.69721 77.2368 7.96925 77.2368C7.24128 77.2368 6.65114 76.6642 6.65114 75.9579V49.5263C6.65114 48.82 7.24128 48.2474 7.96925 48.2474ZM7.96925 48.6737C7.48393 48.6737 7.09051 49.0554 7.09051 49.5263V75.9579C7.09051 76.4288 7.48393 76.8105 7.96925 76.8105C8.45456 76.8105 8.84798 76.4288 8.84798 75.9579V49.5263C8.84798 49.0554 8.45456 48.6737 7.96925 48.6737Z" fill="black"/>
<path fill-rule="evenodd" clip-rule="evenodd" d="M33.1385 61.8895C33.5544 61.8895 33.8918 62.25 33.8919 62.6946V75.579C33.8919 76.0238 33.5545 76.3842 33.1385 76.3842H24.1006C23.6846 76.3842 23.3471 76.0238 23.3471 75.579V62.6946C23.3473 62.25 23.6847 61.8895 24.1006 61.8895H33.1385ZM24.1006 62.3158C23.9664 62.3158 23.7866 62.4457 23.7865 62.6946V75.579C23.7865 75.8279 23.9661 75.9579 24.1006 75.9579H33.1385C33.2729 75.9579 33.4526 75.8279 33.4526 75.579V62.6946C33.4524 62.4457 33.2727 62.3158 33.1385 62.3158H24.1006Z" fill="black"/>
<path fill-rule="evenodd" clip-rule="evenodd" d="M46.2569 61.8895C46.7074 61.8895 47.0728 62.2501 47.0729 62.6946V75.579C47.0729 76.0237 46.7075 76.3842 46.2569 76.3842H36.4655C36.0149 76.3842 35.6494 76.0237 35.6494 75.579V62.6946C35.6496 62.2501 36.015 61.8895 36.4655 61.8895H46.2569ZM36.4655 62.3158C36.2647 62.3158 36.0889 62.4786 36.0888 62.6946V75.579C36.0888 75.795 36.2644 75.9579 36.4655 75.9579H46.2569C46.458 75.9579 46.6336 75.795 46.6336 75.579V62.6946C46.6334 62.4786 46.4577 62.3158 46.2569 62.3158H36.4655Z" fill="black"/>
<path fill-rule="evenodd" clip-rule="evenodd" d="M59.4379 61.8895C59.8884 61.8895 60.2538 62.2501 60.254 62.6946V75.579C60.254 76.0237 59.8885 76.3842 59.4379 76.3842H49.6465C49.1959 76.3842 48.8304 76.0237 48.8304 75.579V62.6946C48.8306 62.2501 49.196 61.8895 49.6465 61.8895H59.4379ZM49.6465 62.3158C49.4457 62.3158 49.2699 62.4786 49.2698 62.6946V75.579C49.2698 75.795 49.4454 75.9579 49.6465 75.9579H59.4379C59.639 75.9579 59.8146 75.795 59.8146 75.579V62.6946C59.8144 62.4786 59.6387 62.3158 59.4379 62.3158H49.6465Z" fill="black"/>
<path fill-rule="evenodd" clip-rule="evenodd" d="M72.6189 61.8895C73.0694 61.8895 73.4348 62.2501 73.435 62.6946V75.579C73.435 76.0237 73.0695 76.3842 72.6189 76.3842H62.8275C62.3769 76.3842 62.0114 76.0237 62.0114 75.579V62.6946C62.0116 62.2501 62.377 61.8895 62.8275 61.8895H72.6189ZM62.8275 62.3158C62.6267 62.3158 62.451 62.4786 62.4508 62.6946V75.579C62.4508 75.795 62.6264 75.9579 62.8275 75.9579H72.6189C72.82 75.9579 72.9956 75.795 72.9956 75.579V62.6946C72.9955 62.4786 72.8197 62.3158 72.6189 62.3158H62.8275Z" fill="black"/>
<path fill-rule="evenodd" clip-rule="evenodd" d="M84.9838 61.8895C85.3997 61.8895 85.7371 62.25 85.7373 62.6946V75.579C85.7373 76.0238 85.3998 76.3842 84.9838 76.3842H75.9459C75.5299 76.3842 75.1925 76.0238 75.1925 75.579V62.6946C75.1926 62.25 75.53 61.8895 75.9459 61.8895H84.9838ZM75.9459 62.3158C75.8117 62.3158 75.632 62.4457 75.6318 62.6946V75.579C75.6318 75.8279 75.8115 75.9579 75.9459 75.9579H84.9838C85.1183 75.9579 85.2979 75.8279 85.2979 75.579V62.6946C85.2978 62.4457 85.118 62.3158 84.9838 62.3158H75.9459Z" fill="black"/>
<path fill-rule="evenodd" clip-rule="evenodd" d="M105.948 53.3632C106.919 53.3632 107.706 54.1266 107.706 55.0684V74.6789C107.706 75.6207 106.919 76.3842 105.948 76.3842H100.676C99.7052 76.3842 98.9183 75.6207 98.9183 74.6789V55.0684C98.9183 54.1266 99.7052 53.3632 100.676 53.3632H105.948ZM100.676 53.7895C99.9478 53.7895 99.3577 54.3621 99.3577 55.0684V74.6789C99.3577 75.3853 99.9478 75.9579 100.676 75.9579H105.948C106.676 75.9579 107.266 75.3853 107.266 74.6789V55.0684C107.266 54.3621 106.676 53.7895 105.948 53.7895H100.676Z" fill="black"/>
<path fill-rule="evenodd" clip-rule="evenodd" d="M85.7373 61.0368H23.3471V49.1H85.7373V61.0368ZM23.7865 60.6105H85.2979V49.5263H23.7865V60.6105Z" fill="black"/>
<path fill-rule="evenodd" clip-rule="evenodd" d="M85.7373 48.2474H23.3471V33.7526H85.7373V48.2474ZM23.7865 47.8211H85.2979V34.1789H23.7865V47.8211Z" fill="black"/>
<path fill-rule="evenodd" clip-rule="evenodd" d="M85.7373 32.9H23.3471V25.2263H85.7373V32.9ZM23.7865 32.4737H85.2979V25.6526H23.7865V32.4737Z" fill="black"/>
</svg>
