<svg width="249" height="154" viewBox="0 0 249 154" fill="none" xmlns="http://www.w3.org/2000/svg">
<path d="M237.474 0V0.5H239C239.421 0.5 239.835 0.527129 240.241 0.580078L240.305 0.0869141C242.09 0.319573 243.726 1.02181 245.087 2.06738L244.783 2.46289C245.441 2.96867 246.031 3.55866 246.537 4.2168L246.932 3.91211C247.977 5.27263 248.679 6.90915 248.912 8.69434L248.42 8.75879C248.473 9.16479 248.5 9.57909 248.5 10V11.4893H249V17.4443H248.5V20.4219H249V26.3779H248.5V29.3555H249V35.3115H248.5V38.2891H249V44.2441H248.5V47.2227H249V53.1777H248.5V56.1553H249V62.1113H248.5V65.0889H249V71.0449H248.5V74.0225H249V79.9775H248.5V82.9551H249V88.9111H248.5V91.8887H249V97.8447H248.5V100.822H249V106.777H248.5V109.756H249V115.711H248.5V118.688H249V124.645H248.5V127.622H249V133.578H248.5V136.556H249V142.511H248.5V144C248.5 144.421 248.473 144.835 248.42 145.241L248.912 145.305C248.679 147.09 247.977 148.726 246.932 150.087L246.537 149.783C246.031 150.441 245.441 151.031 244.783 151.537L245.087 151.932C243.726 152.977 242.09 153.679 240.305 153.912L240.241 153.42C239.835 153.473 239.421 153.5 239 153.5H237.474V154H231.367V153.5H228.313V154H222.207V153.5H219.153V154H213.047V153.5H209.993V154H203.887V153.5H200.833V154H194.727V153.5H191.674V154H185.566V153.5H182.514V154H176.406V153.5H173.354V154H167.247V153.5H164.193V154H158.087V153.5H155.033V154H148.927V153.5H145.873V154H139.767V153.5H136.713V154H130.606V153.5H127.554V154H121.446V153.5H118.394V154H112.287V153.5H109.233V154H103.127V153.5H100.073V154H93.9668V153.5H90.9131V154H84.8066V153.5H81.7529V154H75.6465V153.5H72.5938V154H66.4863V153.5H63.4336V154H57.3271V153.5H54.2734V154H48.167V153.5H45.1133V154H39.0068V153.5H35.9531V154H29.8467V153.5H26.793V154H20.6865V153.5H17.6338V154H11.5264V153.5H10C9.57909 153.5 9.16479 153.473 8.75879 153.42L8.69434 153.912C6.90915 153.679 5.27263 152.977 3.91211 151.932L4.2168 151.537C3.55866 151.031 2.96867 150.441 2.46289 149.783L2.06738 150.087C1.02181 148.726 0.319573 147.09 0.0869141 145.305L0.580078 145.241C0.527129 144.835 0.5 144.421 0.5 144V142.511H0V136.556H0.5V133.578H0V127.622H0.5V124.645H0V118.688H0.5V115.711H0V109.756H0.5V106.777H0V100.822H0.5V97.8447H0V91.8887H0.5V88.9111H0V82.9551H0.5V79.9775H0V74.0225H0.5V71.0449H0V65.0889H0.5V62.1113H0V56.1553H0.5V53.1777H0V47.2227H0.5V44.2441H0V38.2891H0.5V35.3115H0V29.3555H0.5V26.3779H0V20.4219H0.5V17.4443H0V11.4893H0.5V10C0.5 9.57909 0.527129 9.16479 0.580078 8.75879L0.0869141 8.69434C0.319735 6.90931 1.02174 5.27257 2.06738 3.91211L2.46289 4.2168C2.96867 3.55866 3.55866 2.96867 4.2168 2.46289L3.91211 2.06738C5.27257 1.02174 6.90931 0.319735 8.69434 0.0869141L8.75879 0.580078C9.16479 0.527129 9.57909 0.5 10 0.5H11.5264V0H17.6328V0.5H20.6865V0H26.793V0.5H29.8467V0H35.9531V0.5H39.0068V0H45.1133V0.5H48.167V0H54.2734V0.5H57.3262V0H63.4336V0.5H66.4863V0H72.5938V0.5H75.6465V0H81.7529V0.5H84.8066V0H90.9131V0.5H93.9668V0H100.073V0.5H103.127V0H109.233V0.5H112.287V0H118.394V0.5H121.446V0H127.554V0.5H130.606V0H136.713V0.5H139.767V0H145.873V0.5H148.927V0H155.033V0.5H158.087V0H164.193V0.5H167.247V0H173.354V0.5H176.406V0H182.514V0.5H185.566V0H191.673V0.5H194.727V0H200.833V0.5H203.887V0H209.993V0.5H213.047V0H219.153V0.5H222.207V0H228.313V0.5H231.366V0H237.474Z" fill="white" fill-opacity="0.5" stroke="#53575A" stroke-dasharray="3 6"/>
<path d="M81.0674 24.0337L83.2061 26.3276V139.47H21.4961V26.3315L23.7754 24.0337H81.0674Z" fill="#EFEFEF" stroke="black" stroke-width="0.5"/>
<path d="M143.378 24.0337L145.415 26.3228V139.47H86.5333V26.3276L88.7052 24.0337H143.378Z" fill="#EFEFEF" stroke="black" stroke-width="0.5"/>
<path d="M66.2397 41V57.4658H41.2905V41H66.2397Z" fill="white" stroke="black" stroke-width="0.5"/>
<path d="M80.3785 94.7266V99.8818H24.3239V94.7266H80.3785Z" fill="white" stroke="black" stroke-width="0.5"/>
<path d="M142.588 94.7266V99.8818H89.3615V94.7266H142.588Z" fill="white" stroke="black" stroke-width="0.5"/>
<path d="M128.449 41V57.4658H103.5V41H128.449Z" fill="white" stroke="black" stroke-width="0.5"/>
<path d="M20.9642 139.491V25.23L21.9295 23.7837H145.484L146.45 25.23V139.491H20.9642Z" stroke="black"/>
<path d="M227.253 137.72C227.253 138.824 226.358 139.72 225.253 139.72L170.637 139.72C169.533 139.72 168.637 138.824 168.637 137.72L168.637 27.3447C168.637 26.8367 168.831 26.3477 169.178 25.977L170.329 24.7485C170.707 24.3451 171.236 24.1162 171.789 24.1162L224.203 24.1162C224.777 24.1162 225.324 24.3632 225.704 24.7944L226.754 25.9872C227.076 26.3525 227.253 26.8224 227.253 27.3091L227.253 137.72Z" fill="#EFEFEF" stroke="black"/>
<path d="M201.868 39.4071L194.368 39.4071L194.368 38.1343L201.868 38.1343L201.868 39.4071ZM198.754 42.5207L197.481 42.5207L197.481 35.0207L198.754 35.0207L198.754 42.5207Z" fill="black"/>
<path d="M197.05 120.89L198.3 120.89L198.3 125.981L197.05 125.981L197.05 120.89Z" fill="black"/>
<path d="M176.779 139.72L176.779 24.1161" stroke="#53575A" stroke-width="0.5"/>
<path d="M219.112 139.72L219.112 24.1161" stroke="#53575A" stroke-width="0.5"/>
<rect x="183.291" y="24.1162" width="9.76932" height="29.308" transform="rotate(-90 183.291 24.1162)" stroke="black"/>
<circle cx="157.852" cy="85.122" r="36.5727" fill="white" stroke="black"/>
<circle cx="158.063" cy="84.8183" r="31.8824" fill="white" stroke="black" stroke-width="0.3"/>
<path d="M144.044 89.7288L163.68 61.6657L155.681 84.5056L172.218 84.7353L155.052 110.983L161.212 90.0608L144.044 89.7288Z" fill="#EFEFEF" stroke="black" stroke-width="0.5" stroke-linejoin="round"/>
</svg>
