<svg width="1180" height="38" viewBox="0 0 1180 38" fill="none" xmlns="http://www.w3.org/2000/svg">
<rect width="1180" height="38" fill="#D9D9D9"/>
<path d="M525.373 26V12.9091H533.887V14.897H527.745V18.451H533.446V20.4389H527.745V24.0121H533.939V26H525.373ZM547.065 12.9091V26H544.955L538.787 17.0831H538.678V26H536.307V12.9091H538.429L544.591 21.8324H544.706V12.9091H547.065ZM549.649 26V12.9091H558.163V14.897H552.02V18.451H557.722V20.4389H552.02V24.0121H558.214V26H549.649ZM560.582 26V12.9091H565.491C566.497 12.9091 567.341 13.0838 568.023 13.4332C568.709 13.7827 569.226 14.2727 569.576 14.9034C569.93 15.5298 570.106 16.2607 570.106 17.0959C570.106 17.9354 569.927 18.6641 569.569 19.282C569.216 19.8956 568.694 20.3707 568.003 20.7074C567.313 21.0398 566.465 21.206 565.459 21.206H561.963V19.2372H565.14C565.728 19.2372 566.209 19.1562 566.584 18.9943C566.959 18.8281 567.236 18.5874 567.415 18.272C567.599 17.9524 567.69 17.5604 567.69 17.0959C567.69 16.6314 567.599 16.2351 567.415 15.907C567.232 15.5746 566.953 15.3232 566.578 15.1527C566.203 14.978 565.719 14.8906 565.127 14.8906H562.954V26H560.582ZM567.345 20.0682L570.586 26H567.939L564.756 20.0682H567.345ZM581.059 17.0895C580.953 16.7443 580.806 16.4354 580.618 16.1626C580.435 15.8857 580.213 15.6491 579.953 15.4531C579.698 15.2571 579.404 15.1101 579.071 15.0121C578.739 14.9098 578.377 14.8587 577.985 14.8587C577.281 14.8587 576.655 15.0355 576.105 15.3892C575.556 15.7429 575.123 16.2628 574.808 16.9489C574.497 17.6307 574.341 18.4616 574.341 19.4418C574.341 20.4304 574.497 21.2678 574.808 21.9538C575.119 22.6399 575.551 23.1619 576.105 23.5199C576.659 23.8736 577.303 24.0504 578.036 24.0504C578.7 24.0504 579.276 23.9226 579.762 23.6669C580.252 23.4112 580.629 23.049 580.893 22.5803C581.157 22.1072 581.289 21.5533 581.289 20.9183L581.826 21.0014H578.272V19.1477H583.584V20.7202C583.584 21.8409 583.345 22.8104 582.868 23.6286C582.391 24.4467 581.735 25.0774 580.899 25.5206C580.064 25.9595 579.105 26.179 578.023 26.179C576.817 26.179 575.758 25.9084 574.846 25.3672C573.938 24.8217 573.229 24.0483 572.718 23.0469C572.21 22.0412 571.957 20.848 571.957 19.4673C571.957 18.4105 572.106 17.4666 572.404 16.6357C572.707 15.8047 573.129 15.0994 573.67 14.5199C574.211 13.9361 574.846 13.4929 575.575 13.1903C576.303 12.8835 577.096 12.7301 577.953 12.7301C578.677 12.7301 579.352 12.8366 579.979 13.0497C580.605 13.2585 581.161 13.5568 581.647 13.9446C582.137 14.3324 582.54 14.7926 582.855 15.3253C583.171 15.858 583.377 16.446 583.475 17.0895H581.059ZM584.49 12.9091H587.168L590.371 18.7003H590.499L593.701 12.9091H596.379L591.617 21.1165V26H589.252V21.1165L584.49 12.9091ZM604.895 12.9091V26H602.524V12.9091H604.895ZM618.221 12.9091V26H616.112L609.943 17.0831H609.835V26H607.463V12.9091H609.585L615.747 21.8324H615.862V12.9091H618.221ZM625.241 26H620.805V12.9091H625.33C626.63 12.9091 627.747 13.1712 628.68 13.6953C629.617 14.2152 630.338 14.9631 630.84 15.9389C631.343 16.9148 631.595 18.0824 631.595 19.4418C631.595 20.8054 631.341 21.9773 630.834 22.9574C630.331 23.9375 629.605 24.6896 628.654 25.2138C627.708 25.7379 626.57 26 625.241 26ZM623.176 23.9482H625.126C626.038 23.9482 626.798 23.782 627.408 23.4496C628.017 23.1129 628.475 22.6122 628.782 21.9474C629.089 21.2784 629.242 20.4432 629.242 19.4418C629.242 18.4403 629.089 17.6094 628.782 16.9489C628.475 16.2841 628.021 15.7876 627.421 15.4595C626.824 15.1271 626.083 14.9609 625.196 14.9609H623.176V23.9482ZM633.848 26V12.9091H642.362V14.897H636.219V18.451H641.921V20.4389H636.219V24.0121H642.413V26H633.848ZM646.763 12.9091L649.646 17.7031H649.748L652.644 12.9091H655.347L651.314 19.4545L655.411 26H652.663L649.748 21.2379H649.646L646.731 26H643.995L648.131 19.4545L644.046 12.9091H646.763Z" fill="black"/>
</svg>
