<svg width="174" height="6" viewBox="0 0 174 6" fill="none" xmlns="http://www.w3.org/2000/svg">
<path opacity="0.5" d="M-4.07696e-05 2.66675C-4.07696e-05 4.13951 1.19387 5.33341 2.66663 5.33341C4.13939 5.33341 5.33329 4.13951 5.33329 2.66675C5.33329 1.19399 4.13939 8.13007e-05 2.66663 8.13007e-05C1.19387 8.13007e-05 -4.07696e-05 1.19399 -4.07696e-05 2.66675ZM167.85 2.66675C167.85 4.13951 169.044 5.33341 170.517 5.33341C171.989 5.33341 173.183 4.13951 173.183 2.66675C173.183 1.19399 171.989 8.13007e-05 170.517 8.13007e-05C169.044 8.13007e-05 167.85 1.19399 167.85 2.66675ZM2.66663 2.66675V3.16675H170.517V2.66675V2.16675H2.66663V2.66675Z" fill="black"/>
</svg>
