<svg width="228" height="141" viewBox="0 0 228 141" fill="none" xmlns="http://www.w3.org/2000/svg">
<path opacity="0.5" d="M-4.07696e-05 2.66675C-4.07696e-05 4.13951 1.19387 5.33341 2.66663 5.33341C4.13939 5.33341 5.33329 4.13951 5.33329 2.66675C5.33329 1.19399 4.13939 8.13007e-05 2.66663 8.13007e-05C1.19387 8.13007e-05 -4.07696e-05 1.19399 -4.07696e-05 2.66675ZM222 137.667C222 139.14 223.194 140.333 224.667 140.333C226.139 140.333 227.333 139.14 227.333 137.667C227.333 136.194 226.139 135 224.667 135C223.194 135 222 136.194 222 137.667ZM2.66663 2.66675V3.16675H214.667V2.66675V2.16675H2.66663V2.66675ZM224.667 12.6667H224.167V137.667H224.667H225.167V12.6667H224.667ZM214.667 2.66675V3.16675C219.913 3.16675 224.167 7.42004 224.167 12.6667H224.667H225.167C225.167 6.86776 220.466 2.16675 214.667 2.16675V2.66675Z" fill="black"/>
</svg>
