<svg width="123" height="72" viewBox="0 0 123 72" fill="none" xmlns="http://www.w3.org/2000/svg">
<path d="M0.613037 56.5L12.113 0.5H109.113L121.613 56.5H0.613037Z" fill="white" stroke="black"/>
<path d="M35.6732 2.5H13.4874L11.2172 15.2907M35.6732 2.5L31.2361 52.5M35.6732 2.5H60.8172M31.2361 52.5H4.61304L7.91512 33.8953M31.2361 52.5H60.8172M60.8172 2.5V52.5M60.8172 2.5H86.257M60.8172 52.5H91.2858M86.257 2.5H107.26L109.908 15.2907M86.257 2.5L91.2858 52.5M91.2858 52.5H117.613L113.761 33.8953M11.2172 15.2907H109.908M11.2172 15.2907L7.91512 33.8953M109.908 15.2907L113.761 33.8953M7.91512 33.8953H113.761" stroke="black" stroke-width="0.5"/>
<rect x="48.113" y="57" width="27" height="10" stroke="black"/>
<rect x="24.113" y="67" width="74" height="4" stroke="black"/>
</svg>
