<svg width="147" height="35" viewBox="0 0 147 35" fill="none" xmlns="http://www.w3.org/2000/svg">
<rect x="0.5" y="0.5" width="146" height="34" rx="9.5" fill="#EFEFEF" stroke="black"/>
<path d="M142 17.5L132.25 22.2631L132.25 12.7369L142 17.5Z" fill="#626262"/>
<path d="M15.8608 13.2727H17.7955L20.3864 19.5966H20.4886L23.0795 13.2727H25.0142V22H23.4972V16.0043H23.4162L21.0043 21.9744H19.8707L17.4588 15.9915H17.3778V22H15.8608V13.2727ZM26.7358 22V13.2727H32.4119V14.598H28.3168V16.9673H32.1179V18.2926H28.3168V20.6747H32.446V22H26.7358ZM36.9162 22V20.858L39.946 17.8878C40.2358 17.5952 40.4773 17.3352 40.6705 17.108C40.8636 16.8807 41.0085 16.6605 41.1051 16.4474C41.2017 16.2344 41.25 16.0071 41.25 15.7656C41.25 15.4901 41.1875 15.2543 41.0625 15.0582C40.9375 14.8594 40.7656 14.706 40.5469 14.598C40.3281 14.4901 40.0795 14.4361 39.8011 14.4361C39.5142 14.4361 39.2628 14.4957 39.0469 14.6151C38.831 14.7315 38.6634 14.8977 38.544 15.1136C38.4276 15.3295 38.3693 15.5866 38.3693 15.8849H36.8651C36.8651 15.331 36.9915 14.8494 37.2443 14.4403C37.4972 14.0312 37.8452 13.7145 38.2884 13.4901C38.7344 13.2656 39.2457 13.1534 39.8224 13.1534C40.4077 13.1534 40.9219 13.2628 41.3651 13.4815C41.8082 13.7003 42.152 14 42.3963 14.3807C42.6435 14.7614 42.767 15.196 42.767 15.6847C42.767 16.0114 42.7045 16.3324 42.5795 16.6477C42.4545 16.9631 42.2344 17.3125 41.919 17.696C41.6065 18.0795 41.1676 18.544 40.6023 19.0895L39.098 20.6193V20.679H42.8991V22H36.9162Z" fill="black"/>
<rect x="10.5" y="8.5" width="39" height="18" rx="3.5" stroke="black"/>
<rect x="55" y="8" width="40" height="19" rx="4" fill="#4FBF65"/>
<path d="M62.8608 22V13.2727H66.1335C66.804 13.2727 67.3665 13.3892 67.821 13.6222C68.2784 13.8551 68.6236 14.1818 68.8565 14.6023C69.0923 15.0199 69.2102 15.5071 69.2102 16.0639C69.2102 16.6236 69.0909 17.1094 68.8523 17.5213C68.6165 17.9304 68.2685 18.2472 67.8082 18.4716C67.348 18.6932 66.7827 18.804 66.1122 18.804H63.7812V17.4915H65.8991C66.2912 17.4915 66.6122 17.4375 66.8622 17.3295C67.1122 17.2187 67.2969 17.0582 67.4162 16.848C67.5384 16.6349 67.5994 16.3736 67.5994 16.0639C67.5994 15.7543 67.5384 15.4901 67.4162 15.2713C67.294 15.0497 67.108 14.8821 66.858 14.7685C66.608 14.652 66.2855 14.5938 65.8906 14.5938H64.4418V22H62.8608ZM67.3693 18.0455L69.5298 22H67.7656L65.6435 18.0455H67.3693ZM76.1669 13.2727H77.7479V18.9744C77.7479 19.5994 77.6001 20.1491 77.3047 20.6236C77.0121 21.098 76.6001 21.4687 76.0689 21.7358C75.5376 22 74.9169 22.1321 74.2067 22.1321C73.4936 22.1321 72.8714 22 72.3402 21.7358C71.8089 21.4687 71.397 21.098 71.1044 20.6236C70.8118 20.1491 70.6655 19.5994 70.6655 18.9744V13.2727H72.2464V18.8423C72.2464 19.206 72.326 19.5298 72.4851 19.8139C72.647 20.098 72.8743 20.321 73.1669 20.483C73.4595 20.642 73.8061 20.7216 74.2067 20.7216C74.6072 20.7216 74.9538 20.642 75.2464 20.483C75.5419 20.321 75.7692 20.098 75.9283 19.8139C76.0874 19.5298 76.1669 19.206 76.1669 18.8423V13.2727ZM86.6381 13.2727V22H85.2319L81.1197 16.0554H81.0472V22H79.4663V13.2727H80.881L84.989 19.2216H85.0657V13.2727H86.6381Z" fill="white"/>
</svg>
