<svg width="770" height="220" viewBox="0 0 770 220" fill="none" xmlns="http://www.w3.org/2000/svg">
<rect width="770" height="32" fill="#D9D9D9"/>
<path d="M281.726 22V10.3636H289.294V12.1307H283.834V15.2898H288.902V17.0568H283.834V20.233H289.339V22H281.726ZM301.007 10.3636V22H299.132L293.649 14.0739H293.553V22H291.445V10.3636H293.331L298.808 18.2955H298.911V10.3636H301.007ZM303.304 22V10.3636H310.872V12.1307H305.412V15.2898H310.48V17.0568H305.412V20.233H310.918V22H303.304ZM313.023 22V10.3636H317.386C318.28 10.3636 319.03 10.5189 319.636 10.8295C320.246 11.1402 320.706 11.5758 321.017 12.1364C321.331 12.6932 321.489 13.3428 321.489 14.0852C321.489 14.8314 321.33 15.4792 321.011 16.0284C320.697 16.5739 320.233 16.9962 319.619 17.2955C319.006 17.5909 318.252 17.7386 317.358 17.7386H314.25V15.9886H317.074C317.597 15.9886 318.025 15.9167 318.358 15.7727C318.691 15.625 318.938 15.411 319.097 15.1307C319.259 14.8466 319.341 14.4981 319.341 14.0852C319.341 13.6723 319.259 13.3201 319.097 13.0284C318.934 12.733 318.686 12.5095 318.352 12.358C318.019 12.2027 317.589 12.125 317.062 12.125H315.131V22H313.023ZM319.034 16.7273L321.915 22H319.562L316.733 16.7273H319.034ZM331.224 14.0795C331.13 13.7727 330.999 13.4981 330.832 13.2557C330.67 13.0095 330.473 12.7992 330.241 12.625C330.014 12.4508 329.753 12.3201 329.457 12.233C329.162 12.142 328.84 12.0966 328.491 12.0966C327.866 12.0966 327.31 12.2538 326.821 12.5682C326.332 12.8826 325.948 13.3447 325.668 13.9545C325.391 14.5606 325.253 15.2992 325.253 16.1705C325.253 17.0492 325.391 17.7936 325.668 18.4034C325.944 19.0133 326.329 19.4773 326.821 19.7955C327.313 20.1098 327.885 20.267 328.537 20.267C329.128 20.267 329.639 20.1534 330.071 19.9261C330.507 19.6989 330.842 19.3769 331.077 18.9602C331.312 18.5398 331.429 18.0473 331.429 17.483L331.906 17.5568H328.747V15.9091H333.469V17.3068C333.469 18.303 333.257 19.1648 332.832 19.892C332.408 20.6193 331.825 21.1799 331.082 21.5739C330.34 21.964 329.488 22.1591 328.526 22.1591C327.454 22.1591 326.512 21.9186 325.702 21.4375C324.895 20.9527 324.264 20.2652 323.81 19.375C323.359 18.4811 323.134 17.4205 323.134 16.1932C323.134 15.2538 323.266 14.4148 323.531 13.6761C323.8 12.9375 324.175 12.3106 324.656 11.7955C325.137 11.2765 325.702 10.8826 326.349 10.6136C326.997 10.3409 327.702 10.2045 328.463 10.2045C329.107 10.2045 329.707 10.2992 330.264 10.4886C330.821 10.6742 331.315 10.9394 331.747 11.2841C332.183 11.6288 332.541 12.0379 332.821 12.5114C333.101 12.9848 333.285 13.5076 333.372 14.0795H331.224ZM334.274 10.3636H336.655L339.501 15.5114H339.615L342.462 10.3636H344.842L340.609 17.6591V22H338.507V17.6591L334.274 10.3636ZM360.264 14.2898H358.139C358.079 13.9413 357.967 13.6326 357.804 13.3636C357.641 13.0909 357.438 12.8598 357.196 12.6705C356.954 12.4811 356.677 12.339 356.366 12.2443C356.06 12.1458 355.728 12.0966 355.372 12.0966C354.74 12.0966 354.179 12.2557 353.69 12.5739C353.202 12.8883 352.819 13.3504 352.543 13.9602C352.266 14.5663 352.128 15.3068 352.128 16.1818C352.128 17.072 352.266 17.822 352.543 18.4318C352.823 19.0379 353.205 19.4962 353.69 19.8068C354.179 20.1136 354.738 20.267 355.366 20.267C355.715 20.267 356.041 20.2216 356.344 20.1307C356.651 20.036 356.925 19.8977 357.168 19.7159C357.414 19.5341 357.62 19.3106 357.787 19.0455C357.957 18.7803 358.075 18.4773 358.139 18.1364L360.264 18.1477C360.185 18.7008 360.012 19.2197 359.747 19.7045C359.486 20.1894 359.143 20.6174 358.719 20.9886C358.295 21.3561 357.798 21.6439 357.23 21.8523C356.662 22.0568 356.031 22.1591 355.338 22.1591C354.315 22.1591 353.402 21.9223 352.599 21.4489C351.796 20.9754 351.164 20.2917 350.702 19.3977C350.24 18.5038 350.009 17.4318 350.009 16.1818C350.009 14.928 350.241 13.8561 350.707 12.9659C351.173 12.072 351.808 11.3883 352.611 10.9148C353.414 10.4413 354.323 10.2045 355.338 10.2045C355.986 10.2045 356.588 10.2955 357.145 10.4773C357.702 10.6591 358.198 10.9261 358.634 11.2784C359.069 11.6269 359.427 12.0549 359.707 12.5625C359.991 13.0663 360.177 13.642 360.264 14.2898ZM372.592 16.1818C372.592 17.4356 372.357 18.5095 371.888 19.4034C371.422 20.2936 370.786 20.9754 369.979 21.4489C369.176 21.9223 368.265 22.1591 367.246 22.1591C366.227 22.1591 365.314 21.9223 364.507 21.4489C363.704 20.9716 363.068 20.2879 362.598 19.3977C362.132 18.5038 361.899 17.4318 361.899 16.1818C361.899 14.928 362.132 13.8561 362.598 12.9659C363.068 12.072 363.704 11.3883 364.507 10.9148C365.314 10.4413 366.227 10.2045 367.246 10.2045C368.265 10.2045 369.176 10.4413 369.979 10.9148C370.786 11.3883 371.422 12.072 371.888 12.9659C372.357 13.8561 372.592 14.928 372.592 16.1818ZM370.473 16.1818C370.473 15.2992 370.335 14.5549 370.058 13.9489C369.786 13.339 369.407 12.8788 368.922 12.5682C368.437 12.2538 367.878 12.0966 367.246 12.0966C366.613 12.0966 366.054 12.2538 365.57 12.5682C365.085 12.8788 364.704 13.339 364.428 13.9489C364.155 14.5549 364.018 15.2992 364.018 16.1818C364.018 17.0644 364.155 17.8106 364.428 18.4205C364.704 19.0265 365.085 19.4867 365.57 19.8011C366.054 20.1117 366.613 20.267 367.246 20.267C367.878 20.267 368.437 20.1117 368.922 19.8011C369.407 19.4867 369.786 19.0265 370.058 18.4205C370.335 17.8106 370.473 17.0644 370.473 16.1818ZM384.148 10.3636V22H382.273L376.79 14.0739H376.693V22H374.585V10.3636H376.472L381.949 18.2955H382.051V10.3636H384.148ZM392.768 13.5625C392.715 13.0663 392.492 12.6799 392.098 12.4034C391.708 12.1269 391.2 11.9886 390.575 11.9886C390.136 11.9886 389.759 12.0549 389.445 12.1875C389.13 12.3201 388.89 12.5 388.723 12.7273C388.556 12.9545 388.471 13.214 388.467 13.5057C388.467 13.7481 388.522 13.9583 388.632 14.1364C388.746 14.3144 388.899 14.4659 389.092 14.5909C389.286 14.7121 389.5 14.8144 389.734 14.8977C389.969 14.9811 390.206 15.0511 390.445 15.108L391.536 15.3807C391.975 15.483 392.397 15.6212 392.803 15.7955C393.212 15.9697 393.577 16.1894 393.899 16.4545C394.225 16.7197 394.482 17.0398 394.672 17.4148C394.861 17.7898 394.956 18.2292 394.956 18.733C394.956 19.4148 394.782 20.0152 394.433 20.5341C394.085 21.0492 393.581 21.4527 392.922 21.7443C392.267 22.0322 391.473 22.1761 390.541 22.1761C389.636 22.1761 388.85 22.036 388.183 21.7557C387.52 21.4754 387.001 21.0663 386.626 20.5284C386.255 19.9905 386.054 19.3352 386.024 18.5625H388.098C388.128 18.9678 388.253 19.3049 388.473 19.5739C388.693 19.8428 388.979 20.0436 389.331 20.1761C389.687 20.3087 390.085 20.375 390.524 20.375C390.982 20.375 391.384 20.3068 391.729 20.1705C392.077 20.0303 392.35 19.8371 392.547 19.5909C392.744 19.3409 392.844 19.0492 392.848 18.7159C392.844 18.4129 392.755 18.1629 392.581 17.9659C392.407 17.7652 392.162 17.5985 391.848 17.4659C391.537 17.3295 391.174 17.2083 390.757 17.1023L389.433 16.7614C388.475 16.5152 387.717 16.142 387.161 15.642C386.607 15.1383 386.331 14.4697 386.331 13.6364C386.331 12.9508 386.517 12.3504 386.888 11.8352C387.263 11.3201 387.772 10.9205 388.416 10.6364C389.06 10.3485 389.789 10.2045 390.604 10.2045C391.429 10.2045 392.153 10.3485 392.774 10.6364C393.399 10.9205 393.89 11.3163 394.246 11.8239C394.602 12.3277 394.786 12.9072 394.797 13.5625H392.768ZM404.17 10.3636H406.278V17.9659C406.278 18.7992 406.081 19.5322 405.688 20.1648C405.297 20.7973 404.748 21.2917 404.04 21.6477C403.331 22 402.504 22.1761 401.557 22.1761C400.606 22.1761 399.777 22 399.068 21.6477C398.36 21.2917 397.811 20.7973 397.42 20.1648C397.03 19.5322 396.835 18.7992 396.835 17.9659V10.3636H398.943V17.7898C398.943 18.2746 399.049 18.7064 399.261 19.0852C399.477 19.464 399.78 19.7614 400.17 19.9773C400.561 20.1894 401.023 20.2955 401.557 20.2955C402.091 20.2955 402.553 20.1894 402.943 19.9773C403.337 19.7614 403.64 19.464 403.852 19.0852C404.064 18.7064 404.17 18.2746 404.17 17.7898V10.3636ZM408.57 10.3636H411.149L414.604 18.7955H414.74L418.195 10.3636H420.774V22H418.751V14.0057H418.643L415.428 21.9659H413.916L410.7 13.9886H410.592V22H408.57V10.3636ZM423.07 22V10.3636H427.433C428.327 10.3636 429.077 10.5303 429.683 10.8636C430.293 11.197 430.753 11.6553 431.064 12.2386C431.378 12.8182 431.536 13.4773 431.536 14.2159C431.536 14.9621 431.378 15.625 431.064 16.2045C430.75 16.7841 430.286 17.2405 429.672 17.5739C429.058 17.9034 428.303 18.0682 427.405 18.0682H424.513V16.3352H427.121C427.643 16.3352 428.071 16.2443 428.405 16.0625C428.738 15.8807 428.984 15.6307 429.143 15.3125C429.306 14.9943 429.388 14.6288 429.388 14.2159C429.388 13.803 429.306 13.4394 429.143 13.125C428.984 12.8106 428.736 12.5663 428.399 12.392C428.066 12.214 427.636 12.125 427.109 12.125H425.178V22H423.07ZM432.855 12.1307V10.3636H442.139V12.1307H438.543V22H436.452V12.1307H432.855ZM446.037 10.3636V22H443.929V10.3636H446.037ZM458.717 16.1818C458.717 17.4356 458.482 18.5095 458.013 19.4034C457.547 20.2936 456.911 20.9754 456.104 21.4489C455.301 21.9223 454.39 22.1591 453.371 22.1591C452.352 22.1591 451.439 21.9223 450.632 21.4489C449.829 20.9716 449.193 20.2879 448.723 19.3977C448.257 18.5038 448.024 17.4318 448.024 16.1818C448.024 14.928 448.257 13.8561 448.723 12.9659C449.193 12.072 449.829 11.3883 450.632 10.9148C451.439 10.4413 452.352 10.2045 453.371 10.2045C454.39 10.2045 455.301 10.4413 456.104 10.9148C456.911 11.3883 457.547 12.072 458.013 12.9659C458.482 13.8561 458.717 14.928 458.717 16.1818ZM456.598 16.1818C456.598 15.2992 456.46 14.5549 456.183 13.9489C455.911 13.339 455.532 12.8788 455.047 12.5682C454.562 12.2538 454.003 12.0966 453.371 12.0966C452.738 12.0966 452.179 12.2538 451.695 12.5682C451.21 12.8788 450.829 13.339 450.553 13.9489C450.28 14.5549 450.143 15.2992 450.143 16.1818C450.143 17.0644 450.28 17.8106 450.553 18.4205C450.829 19.0265 451.21 19.4867 451.695 19.8011C452.179 20.1117 452.738 20.267 453.371 20.267C454.003 20.267 454.562 20.1117 455.047 19.8011C455.532 19.4867 455.911 19.0265 456.183 18.4205C456.46 17.8106 456.598 17.0644 456.598 16.1818ZM470.273 10.3636V22H468.398L462.915 14.0739H462.818V22H460.71V10.3636H462.597L468.074 18.2955H468.176V10.3636H470.273Z" fill="black"/>
<rect y="32" width="770" height="188" fill="#F7F7F7"/>
<path d="M78.2635 196.08C78.1688 195.773 78.0381 195.498 77.8714 195.256C77.7086 195.009 77.5116 194.799 77.2805 194.625C77.0533 194.451 76.7919 194.32 76.4964 194.233C76.201 194.142 75.879 194.097 75.5305 194.097C74.9055 194.097 74.3487 194.254 73.8601 194.568C73.3714 194.883 72.987 195.345 72.7067 195.955C72.4302 196.561 72.2919 197.299 72.2919 198.17C72.2919 199.049 72.4302 199.794 72.7067 200.403C72.9832 201.013 73.3677 201.477 73.8601 201.795C74.3525 202.11 74.9245 202.267 75.576 202.267C76.1669 202.267 76.6783 202.153 77.1101 201.926C77.5457 201.699 77.8809 201.377 78.1158 200.96C78.3506 200.54 78.468 200.047 78.468 199.483L78.9453 199.557H75.7862V197.909H80.5078V199.307C80.5078 200.303 80.2957 201.165 79.8714 201.892C79.4472 202.619 78.8639 203.18 78.1214 203.574C77.379 203.964 76.5268 204.159 75.5646 204.159C74.4927 204.159 73.5514 203.919 72.7408 203.438C71.9339 202.953 71.3033 202.265 70.8487 201.375C70.398 200.481 70.1726 199.42 70.1726 198.193C70.1726 197.254 70.3052 196.415 70.5703 195.676C70.8393 194.938 71.2143 194.311 71.6953 193.795C72.1764 193.277 72.7408 192.883 73.3885 192.614C74.0362 192.341 74.7408 192.205 75.5021 192.205C76.1461 192.205 76.7464 192.299 77.3033 192.489C77.8601 192.674 78.3544 192.939 78.7862 193.284C79.2218 193.629 79.5798 194.038 79.8601 194.511C80.1404 194.985 80.3241 195.508 80.4112 196.08H78.2635ZM82.5462 204V192.364H86.9098C87.8037 192.364 88.5537 192.519 89.1598 192.83C89.7697 193.14 90.2299 193.576 90.5405 194.136C90.8549 194.693 91.0121 195.343 91.0121 196.085C91.0121 196.831 90.853 197.479 90.5348 198.028C90.2204 198.574 89.7564 198.996 89.1428 199.295C88.5291 199.591 87.7753 199.739 86.8814 199.739H83.7734V197.989H86.5973C87.12 197.989 87.5481 197.917 87.8814 197.773C88.2147 197.625 88.4609 197.411 88.62 197.131C88.7829 196.847 88.8643 196.498 88.8643 196.085C88.8643 195.672 88.7829 195.32 88.62 195.028C88.4571 194.733 88.209 194.509 87.8757 194.358C87.5424 194.203 87.1125 194.125 86.5859 194.125H84.6541V204H82.5462ZM88.5575 198.727L91.4382 204H89.0859L86.2564 198.727H88.5575ZM92.9524 204V192.364H100.521V194.131H95.0604V197.29H100.129V199.057H95.0604V202.233H100.566V204H92.9524ZM102.671 204V192.364H110.239V194.131H104.779V197.29H109.847V199.057H104.779V202.233H110.285V204H102.671ZM121.952 192.364V204H120.077L114.594 196.074H114.498V204H112.39V192.364H114.276L119.754 200.295H119.856V192.364H121.952ZM128.218 204V192.364H135.786V194.131H130.326V197.29H135.394V199.057H130.326V202.233H135.832V204H128.218ZM147.499 192.364V204H145.624L140.141 196.074H140.045V204H137.937V192.364H139.823L145.3 200.295H145.403V192.364H147.499ZM149.796 204V192.364H157.364V194.131H151.904V197.29H156.972V199.057H151.904V202.233H157.41V204H149.796ZM159.515 204V192.364H163.879C164.772 192.364 165.522 192.519 166.129 192.83C166.738 193.14 167.199 193.576 167.509 194.136C167.824 194.693 167.981 195.343 167.981 196.085C167.981 196.831 167.822 197.479 167.504 198.028C167.189 198.574 166.725 198.996 166.112 199.295C165.498 199.591 164.744 199.739 163.85 199.739H160.742V197.989H163.566C164.089 197.989 164.517 197.917 164.85 197.773C165.183 197.625 165.43 197.411 165.589 197.131C165.752 196.847 165.833 196.498 165.833 196.085C165.833 195.672 165.752 195.32 165.589 195.028C165.426 194.733 165.178 194.509 164.844 194.358C164.511 194.203 164.081 194.125 163.555 194.125H161.623V204H159.515ZM165.526 198.727L168.407 204H166.055L163.225 198.727H165.526ZM177.717 196.08C177.622 195.773 177.491 195.498 177.325 195.256C177.162 195.009 176.965 194.799 176.734 194.625C176.506 194.451 176.245 194.32 175.95 194.233C175.654 194.142 175.332 194.097 174.984 194.097C174.359 194.097 173.802 194.254 173.313 194.568C172.825 194.883 172.44 195.345 172.16 195.955C171.883 196.561 171.745 197.299 171.745 198.17C171.745 199.049 171.883 199.794 172.16 200.403C172.436 201.013 172.821 201.477 173.313 201.795C173.806 202.11 174.378 202.267 175.029 202.267C175.62 202.267 176.131 202.153 176.563 201.926C176.999 201.699 177.334 201.377 177.569 200.96C177.804 200.54 177.921 200.047 177.921 199.483L178.398 199.557H175.239V197.909H179.961V199.307C179.961 200.303 179.749 201.165 179.325 201.892C178.9 202.619 178.317 203.18 177.575 203.574C176.832 203.964 175.98 204.159 175.018 204.159C173.946 204.159 173.004 203.919 172.194 203.438C171.387 202.953 170.756 202.265 170.302 201.375C169.851 200.481 169.626 199.42 169.626 198.193C169.626 197.254 169.758 196.415 170.023 195.676C170.292 194.938 170.667 194.311 171.148 193.795C171.629 193.277 172.194 192.883 172.842 192.614C173.489 192.341 174.194 192.205 174.955 192.205C175.599 192.205 176.2 192.299 176.756 192.489C177.313 192.674 177.808 192.939 178.239 193.284C178.675 193.629 179.033 194.038 179.313 194.511C179.594 194.985 179.777 195.508 179.864 196.08H177.717ZM180.766 192.364H183.147L185.994 197.511H186.107L188.954 192.364H191.335L187.102 199.659V204H184.999V199.659L180.766 192.364Z" fill="black"/>
<path d="M113.691 180.483C113.171 180.483 112.715 180.415 112.324 180.279C111.933 180.147 111.603 179.964 111.335 179.732C111.066 179.5 110.857 179.24 110.708 178.952L111.434 178.475C111.543 178.667 111.689 178.856 111.871 179.041C112.057 179.227 112.297 179.381 112.592 179.504C112.891 179.626 113.257 179.688 113.691 179.688C114.367 179.688 114.912 179.519 115.327 179.181C115.744 178.843 115.953 178.317 115.953 177.605V175.884H115.874C115.771 176.116 115.623 176.348 115.431 176.58C115.239 176.809 114.987 177 114.675 177.152C114.367 177.305 113.984 177.381 113.527 177.381C112.917 177.381 112.375 177.23 111.901 176.928C111.431 176.627 111.059 176.196 110.788 175.636C110.519 175.072 110.385 174.401 110.385 173.622C110.385 172.85 110.516 172.171 110.778 171.584C111.043 170.997 111.412 170.54 111.886 170.212C112.36 169.884 112.912 169.72 113.542 169.72C114.009 169.72 114.397 169.803 114.705 169.968C115.014 170.131 115.26 170.333 115.446 170.575C115.635 170.817 115.782 171.052 115.889 171.281H115.978V169.824H116.843V177.659C116.843 178.306 116.706 178.838 116.43 179.255C116.155 179.673 115.781 179.981 115.307 180.18C114.833 180.382 114.294 180.483 113.691 180.483ZM113.631 176.571C114.122 176.571 114.541 176.453 114.889 176.218C115.237 175.979 115.504 175.638 115.69 175.193C115.875 174.749 115.968 174.221 115.968 173.607C115.968 173.011 115.877 172.482 115.695 172.022C115.512 171.558 115.247 171.193 114.899 170.928C114.554 170.659 114.132 170.525 113.631 170.525C113.121 170.525 112.69 170.663 112.339 170.938C111.987 171.213 111.722 171.584 111.543 172.051C111.364 172.515 111.275 173.034 111.275 173.607C111.275 174.191 111.366 174.706 111.548 175.154C111.731 175.598 111.997 175.946 112.349 176.198C112.7 176.446 113.128 176.571 113.631 176.571ZM122.492 166.801L119.211 178.992H118.381L121.662 166.801H122.492ZM124.831 174.577L124.821 173.419H125.02L128.6 169.824H129.718L126.183 173.364L126.104 173.379L124.831 174.577ZM124.026 177.46V167.279H124.911V177.46H124.026ZM128.784 177.46L125.681 173.538L126.318 172.926L129.917 177.46H128.784ZM133.335 177.46L130.546 167.279H131.491L133.797 176.034H133.877L136.184 167.279H137.258L139.564 176.034H139.644L141.951 167.279H142.9L140.111 177.46H139.117L136.756 168.825H136.691L134.329 177.46H133.335ZM145.282 172.688V177.46H144.397V167.279H145.282V171.022H145.361C145.54 170.628 145.817 170.313 146.192 170.078C146.569 169.842 147.047 169.725 147.623 169.725C148.14 169.725 148.595 169.831 148.986 170.043C149.377 170.255 149.682 170.568 149.9 170.982C150.119 171.397 150.229 171.907 150.229 172.514V177.46H149.339V172.568C149.339 171.939 149.163 171.443 148.812 171.082C148.464 170.717 147.993 170.535 147.4 170.535C146.992 170.535 146.629 170.621 146.311 170.794C145.993 170.966 145.741 171.214 145.555 171.539C145.373 171.861 145.282 172.244 145.282 172.688Z" fill="black"/>
<path d="M175.561 161.285L173.497 159.221C183.71 148.675 190.073 134.378 190.325 118.596H193.241C192.99 135.182 186.299 150.206 175.561 161.285ZM172.123 74.6501L174.188 72.5859C163.113 61.8474 148.084 55.1566 131.498 54.9053V57.8221C147.281 58.0734 161.573 64.4366 172.123 74.6501ZM193.241 116.653C192.99 100.067 186.299 85.0386 175.561 73.9635L173.497 76.0278C183.71 86.5733 190.073 100.87 190.325 116.653H193.241Z" fill="#ABADB0"/>
<path d="M85.4885 161.285C74.75 150.21 68.0592 135.182 67.8079 118.596H70.7247C70.976 134.378 77.3392 148.671 87.5527 159.221L85.4885 161.285Z" fill="#4AB135"/>
<path d="M87.5527 76.0278L85.4885 73.9635C74.75 85.0386 68.0592 100.067 67.8079 116.653H70.7247C70.976 100.87 77.3392 86.5778 87.5527 76.0278ZM129.551 54.9053C112.965 55.1566 97.9367 61.8474 86.8617 72.5859L88.9259 74.6501C99.4714 64.4366 113.769 58.0734 129.551 57.8221V54.9053Z" fill="#ABADB0"/>
<path d="M203.455 116.653C203.199 97.2447 195.369 79.6673 182.781 66.7434L175.561 73.9637C186.299 85.0388 192.99 100.067 193.242 116.653H203.455Z" fill="#C8CCD0"/>
<path d="M174.183 72.5904L181.404 65.3701C168.48 52.7827 150.902 44.9521 131.494 44.6963V54.9098C148.08 55.1611 163.104 61.8519 174.183 72.5904Z" fill="#C8CCD0"/>
<path d="M182.781 168.506L175.561 161.285C186.299 150.21 192.99 135.186 193.242 118.596H203.455C203.199 138 195.369 155.582 182.781 168.506Z" fill="#C8CCD0"/>
<path d="M78.293 168.551C65.6604 155.59 57.8016 137.963 57.5449 118.5H67.7951C68.0473 135.133 74.7622 150.199 85.5393 161.31L78.293 168.551Z" fill="#C8CCD0"/>
<path d="M129.551 44.6963C110.143 44.9521 92.5653 52.7827 79.6414 65.3701L86.8617 72.5904C97.9368 61.8519 112.965 55.1611 129.551 54.9098V44.6963Z" fill="#C8CCD0"/>
<path d="M85.5393 73.9934L78.293 66.7527C65.6604 79.7131 57.8016 97.3401 57.5449 116.803H67.7951C68.0473 100.171 74.7622 85.1043 85.5393 73.9934Z" fill="#C8CCD0"/>
<path d="M79.6041 65.4078L78.2999 66.7119L85.5378 73.9498L86.842 72.6456L79.6041 65.4078Z" fill="#EFEA3A"/>
<path d="M67.7247 116.803H57.5449V118.5H67.7247V116.803Z" fill="#E71F19"/>
<path d="M181.413 65.3778L174.197 72.5935L175.552 73.9484L182.768 66.7328L181.413 65.3778Z" fill="#4FBF65"/>
<path fill-rule="evenodd" clip-rule="evenodd" d="M116.424 81.0271C96.2836 88.5354 86.0419 110.952 93.5484 131.097C101.057 151.237 123.473 161.479 143.618 153.972C163.763 146.466 174 124.048 166.494 103.903C163.807 96.6959 159.217 90.7605 153.501 86.4469L156.804 61.4868C156.929 60.5326 155.749 59.9937 155.11 60.7129L138.453 79.4929C131.362 77.9104 123.744 78.2982 116.424 81.0271Z" fill="#4AB135"/>
<mask id="mask0_872_4451" style="mask-type:luminance" maskUnits="userSpaceOnUse" x="91" y="60" width="78" height="97">
<path d="M116.424 81.0276C96.2836 88.5359 86.0419 110.952 93.5484 131.097C101.057 151.238 123.473 161.479 143.618 153.973C163.759 146.465 174 124.048 166.494 103.903C163.807 96.6964 159.217 90.7609 153.501 86.4473L156.804 61.4873C156.929 60.5331 155.75 59.9941 155.11 60.7134L138.453 79.4933C131.362 77.9109 123.744 78.2987 116.424 81.0276Z" fill="white"/>
</mask>
<g mask="url(#mask0_872_4451)">
<path d="M116.741 81.8677C123.889 79.2031 131.333 78.8253 138.259 80.3714L138.65 78.6207C131.392 77.0019 123.598 77.398 116.112 80.1889L116.739 81.8718L116.741 81.8677ZM154.439 60.1203L137.782 78.9002L139.123 80.0901L155.78 61.3102L154.439 60.1203ZM157.692 61.6065C157.935 59.7787 155.661 58.7399 154.439 60.1203L155.78 61.3102C155.78 61.3102 155.805 61.2872 155.807 61.2831C155.807 61.2831 155.813 61.2809 155.819 61.2787C155.823 61.2805 155.845 61.2758 155.869 61.2869C155.894 61.2981 155.906 61.3137 155.908 61.3197C155.908 61.3197 155.913 61.3216 155.913 61.3316C155.913 61.3316 155.915 61.3476 155.91 61.3698L157.688 61.6047L157.692 61.6065ZM154.389 86.5665L157.692 61.6065L155.914 61.3717L152.612 86.3317L154.389 86.5665ZM152.962 87.1628C158.542 91.3748 163.031 97.1752 165.655 104.216L167.338 103.588C164.591 96.2208 159.89 90.1407 154.046 85.7292L152.966 87.1647L152.962 87.1628ZM165.651 104.214C172.987 123.891 162.98 145.793 143.303 153.128L143.93 154.811C164.535 147.13 175.013 124.195 167.332 103.591L165.649 104.218L165.651 104.214ZM143.303 153.128C123.626 160.464 101.724 150.457 94.3887 130.78L92.7058 131.408C100.387 152.012 123.322 162.491 143.926 154.809L143.299 153.126L143.303 153.128ZM94.3928 130.782C87.0574 111.105 97.0641 89.2031 116.741 81.8677L116.114 80.1848C95.509 87.8661 85.0306 110.801 92.7118 131.405L94.3946 130.778L94.3928 130.782ZM138.453 79.4931L138.259 80.3714L138.773 80.4879L139.123 80.0901L138.453 79.4931ZM153.501 86.4471L152.612 86.3317L152.541 86.8523L152.96 87.1669L153.499 86.4512L153.501 86.4471Z" fill="#53575A"/>
</g>
<path d="M99.4852 103.546C91.7804 120.41 99.2053 140.327 116.069 148.032C132.933 155.737 152.85 148.312 160.555 131.448C168.259 114.584 160.835 94.6671 143.971 86.9623C127.107 79.2575 107.19 86.6823 99.4852 103.546Z" fill="#E6E9EC"/>
<mask id="mask1_872_4451" style="mask-type:luminance" maskUnits="userSpaceOnUse" x="96" y="83" width="68" height="69">
<path d="M107.779 142.687C121.685 154.949 142.899 153.617 155.162 139.71C167.424 125.804 166.091 104.59 152.185 92.3274C138.278 80.0651 117.064 81.3979 104.802 95.3044C92.5396 109.211 93.8724 130.425 107.779 142.687Z" fill="white"/>
</mask>
<g mask="url(#mask1_872_4451)">
<path d="M141.436 148.112C124.53 154.414 105.71 145.815 99.4075 128.909L97.7246 129.537C104.375 147.376 124.224 156.445 142.063 149.794L141.436 148.112ZM160.638 106.083C166.941 122.989 158.342 141.809 141.436 148.112L142.063 149.794C159.903 143.144 168.972 123.295 162.321 105.456L160.638 106.083ZM118.606 86.8789C135.511 80.5765 154.332 89.1753 160.634 106.081L162.317 105.454C155.667 87.6143 135.818 78.5456 117.978 85.196L118.606 86.8789ZM99.4034 128.908C93.101 112.002 101.7 93.1813 118.606 86.8789L117.978 85.196C100.139 91.8465 91.0701 111.695 97.7205 129.535L99.4034 128.908Z" fill="#53575A"/>
</g>
<path d="M117.1 110.439V127.893H113.938V113.515H113.836L109.753 116.123V113.225L114.091 110.439H117.1ZM127.924 128.132C127.088 128.126 126.273 127.981 125.478 127.697C124.682 127.407 123.966 126.939 123.33 126.291C122.694 125.637 122.188 124.771 121.813 123.691C121.438 122.606 121.253 121.262 121.259 119.66C121.259 118.166 121.418 116.833 121.736 115.663C122.054 114.492 122.512 113.504 123.108 112.697C123.705 111.885 124.424 111.265 125.265 110.839C126.111 110.413 127.057 110.2 128.103 110.2C129.199 110.2 130.171 110.416 131.017 110.848C131.87 111.279 132.557 111.87 133.08 112.62C133.603 113.365 133.926 114.206 134.051 115.143H130.941C130.782 114.473 130.455 113.939 129.961 113.541C129.472 113.137 128.853 112.936 128.103 112.936C126.892 112.936 125.961 113.461 125.307 114.512C124.659 115.564 124.333 117.007 124.327 118.842H124.446C124.725 118.342 125.086 117.913 125.529 117.555C125.972 117.197 126.472 116.921 127.029 116.728C127.591 116.529 128.185 116.43 128.81 116.43C129.833 116.43 130.75 116.674 131.563 117.163C132.381 117.652 133.029 118.325 133.506 119.183C133.983 120.035 134.219 121.012 134.213 122.115C134.219 123.262 133.958 124.294 133.429 125.208C132.901 126.117 132.165 126.833 131.222 127.356C130.279 127.879 129.179 128.137 127.924 128.132ZM127.907 125.575C128.526 125.575 129.08 125.424 129.569 125.123C130.057 124.822 130.444 124.416 130.728 123.904C131.012 123.393 131.151 122.819 131.145 122.183C131.151 121.558 131.015 120.992 130.736 120.487C130.463 119.981 130.086 119.581 129.603 119.285C129.12 118.99 128.569 118.842 127.949 118.842C127.489 118.842 127.06 118.93 126.662 119.106C126.265 119.282 125.918 119.527 125.623 119.839C125.327 120.146 125.094 120.504 124.924 120.913C124.759 121.316 124.674 121.748 124.668 122.208C124.674 122.816 124.816 123.376 125.094 123.887C125.373 124.399 125.756 124.808 126.245 125.115C126.733 125.421 127.287 125.575 127.907 125.575ZM143.546 128.225C142.142 128.225 140.938 127.87 139.932 127.16C138.932 126.444 138.162 125.413 137.623 124.066C137.088 122.714 136.821 121.086 136.821 119.183C136.827 117.279 137.097 115.66 137.631 114.325C138.171 112.984 138.941 111.961 139.941 111.257C140.946 110.552 142.148 110.2 143.546 110.2C144.944 110.2 146.145 110.552 147.151 111.257C148.157 111.961 148.926 112.984 149.461 114.325C150 115.666 150.27 117.285 150.27 119.183C150.27 121.092 150 122.723 149.461 124.075C148.926 125.421 148.157 126.45 147.151 127.16C146.151 127.87 144.949 128.225 143.546 128.225ZM143.546 125.558C144.637 125.558 145.498 125.021 146.128 123.947C146.765 122.867 147.083 121.279 147.083 119.183C147.083 117.796 146.938 116.632 146.648 115.689C146.358 114.745 145.949 114.035 145.421 113.558C144.892 113.075 144.267 112.833 143.546 112.833C142.461 112.833 141.603 113.373 140.972 114.453C140.341 115.527 140.023 117.103 140.017 119.183C140.012 120.575 140.151 121.745 140.435 122.694C140.725 123.643 141.134 124.359 141.662 124.842C142.191 125.319 142.819 125.558 143.546 125.558Z" fill="black"/>
<path d="M345.762 204V192.364H347.87V202.233H352.995V204H345.762ZM354.824 204V192.364H362.279V194.131H356.932V197.29H361.767V199.057H356.932V204H354.824ZM374.597 198.182C374.597 199.436 374.362 200.509 373.892 201.403C373.426 202.294 372.79 202.975 371.983 203.449C371.18 203.922 370.269 204.159 369.25 204.159C368.231 204.159 367.318 203.922 366.512 203.449C365.709 202.972 365.072 202.288 364.603 201.398C364.137 200.504 363.904 199.432 363.904 198.182C363.904 196.928 364.137 195.856 364.603 194.966C365.072 194.072 365.709 193.388 366.512 192.915C367.318 192.441 368.231 192.205 369.25 192.205C370.269 192.205 371.18 192.441 371.983 192.915C372.79 193.388 373.426 194.072 373.892 194.966C374.362 195.856 374.597 196.928 374.597 198.182ZM372.478 198.182C372.478 197.299 372.339 196.555 372.063 195.949C371.79 195.339 371.411 194.879 370.926 194.568C370.442 194.254 369.883 194.097 369.25 194.097C368.618 194.097 368.059 194.254 367.574 194.568C367.089 194.879 366.709 195.339 366.432 195.949C366.159 196.555 366.023 197.299 366.023 198.182C366.023 199.064 366.159 199.811 366.432 200.42C366.709 201.027 367.089 201.487 367.574 201.801C368.059 202.112 368.618 202.267 369.25 202.267C369.883 202.267 370.442 202.112 370.926 201.801C371.411 201.487 371.79 201.027 372.063 200.42C372.339 199.811 372.478 199.064 372.478 198.182ZM377.01 198.182C377.01 196.761 377.198 195.456 377.573 194.267C377.952 193.074 378.514 191.972 379.26 190.96H381.198C380.91 191.335 380.641 191.795 380.391 192.341C380.141 192.883 379.923 193.477 379.738 194.125C379.556 194.769 379.412 195.437 379.306 196.131C379.203 196.824 379.152 197.508 379.152 198.182C379.152 199.08 379.241 199.989 379.419 200.909C379.601 201.83 379.845 202.684 380.152 203.472C380.463 204.256 380.811 204.898 381.198 205.398H379.26C378.514 204.386 377.952 203.286 377.573 202.097C377.198 200.903 377.01 199.598 377.01 198.182ZM386.83 204H382.887V192.364H386.909C388.065 192.364 389.057 192.597 389.887 193.062C390.72 193.525 391.36 194.189 391.807 195.057C392.254 195.924 392.478 196.962 392.478 198.17C392.478 199.383 392.252 200.424 391.801 201.295C391.354 202.167 390.709 202.835 389.864 203.301C389.023 203.767 388.012 204 386.83 204ZM384.995 202.176H386.728C387.538 202.176 388.214 202.028 388.756 201.733C389.298 201.434 389.705 200.989 389.978 200.398C390.25 199.803 390.387 199.061 390.387 198.17C390.387 197.28 390.25 196.542 389.978 195.955C389.705 195.364 389.301 194.922 388.767 194.631C388.237 194.335 387.578 194.188 386.79 194.188H384.995V202.176ZM394.389 204V195.273H396.446V204H394.389ZM395.424 194.034C395.098 194.034 394.818 193.926 394.583 193.71C394.348 193.491 394.23 193.227 394.23 192.92C394.23 192.61 394.348 192.347 394.583 192.131C394.818 191.911 395.098 191.801 395.424 191.801C395.753 191.801 396.033 191.911 396.264 192.131C396.499 192.347 396.617 192.61 396.617 192.92C396.617 193.227 396.499 193.491 396.264 193.71C396.033 193.926 395.753 194.034 395.424 194.034ZM402.425 204.17C401.55 204.17 400.794 203.989 400.158 203.625C399.525 203.258 399.039 202.739 398.698 202.068C398.357 201.394 398.186 200.6 398.186 199.688C398.186 198.79 398.357 198.002 398.698 197.324C399.042 196.642 399.523 196.112 400.141 195.733C400.758 195.35 401.484 195.159 402.317 195.159C402.855 195.159 403.363 195.246 403.84 195.42C404.321 195.591 404.745 195.856 405.113 196.216C405.484 196.576 405.775 197.034 405.988 197.591C406.2 198.144 406.306 198.803 406.306 199.568V200.199H399.152V198.812H404.334C404.33 198.419 404.245 198.068 404.078 197.761C403.912 197.451 403.679 197.206 403.38 197.028C403.084 196.85 402.739 196.761 402.345 196.761C401.925 196.761 401.556 196.864 401.238 197.068C400.919 197.269 400.671 197.534 400.493 197.864C400.319 198.189 400.23 198.547 400.226 198.938V200.148C400.226 200.655 400.319 201.091 400.505 201.455C400.69 201.814 400.95 202.091 401.283 202.284C401.616 202.473 402.006 202.568 402.453 202.568C402.753 202.568 403.023 202.527 403.266 202.443C403.508 202.356 403.719 202.229 403.897 202.062C404.075 201.896 404.209 201.689 404.3 201.443L406.22 201.659C406.099 202.167 405.868 202.61 405.527 202.989C405.19 203.364 404.758 203.655 404.232 203.864C403.705 204.068 403.103 204.17 402.425 204.17ZM414.943 197.58L413.068 197.784C413.015 197.595 412.923 197.417 412.79 197.25C412.661 197.083 412.487 196.949 412.267 196.847C412.048 196.744 411.779 196.693 411.461 196.693C411.032 196.693 410.673 196.786 410.381 196.972C410.093 197.157 409.951 197.398 409.955 197.693C409.951 197.947 410.044 198.153 410.233 198.312C410.426 198.472 410.745 198.602 411.188 198.705L412.676 199.023C413.502 199.201 414.116 199.483 414.517 199.869C414.923 200.256 415.127 200.761 415.131 201.386C415.127 201.936 414.966 202.42 414.648 202.841C414.334 203.258 413.896 203.583 413.336 203.818C412.775 204.053 412.131 204.17 411.404 204.17C410.336 204.17 409.476 203.947 408.824 203.5C408.173 203.049 407.784 202.422 407.659 201.619L409.665 201.426C409.756 201.82 409.949 202.117 410.245 202.318C410.54 202.519 410.925 202.619 411.398 202.619C411.887 202.619 412.279 202.519 412.574 202.318C412.873 202.117 413.023 201.869 413.023 201.574C413.023 201.324 412.926 201.117 412.733 200.955C412.544 200.792 412.248 200.667 411.847 200.58L410.358 200.267C409.521 200.093 408.902 199.799 408.5 199.386C408.099 198.97 407.9 198.443 407.904 197.807C407.9 197.269 408.046 196.803 408.341 196.409C408.64 196.011 409.055 195.705 409.586 195.489C410.12 195.269 410.735 195.159 411.432 195.159C412.455 195.159 413.26 195.377 413.847 195.812C414.438 196.248 414.803 196.837 414.943 197.58ZM420.691 204.17C419.816 204.17 419.06 203.989 418.424 203.625C417.791 203.258 417.304 202.739 416.963 202.068C416.622 201.394 416.452 200.6 416.452 199.688C416.452 198.79 416.622 198.002 416.963 197.324C417.308 196.642 417.789 196.112 418.407 195.733C419.024 195.35 419.749 195.159 420.583 195.159C421.121 195.159 421.628 195.246 422.105 195.42C422.586 195.591 423.011 195.856 423.378 196.216C423.749 196.576 424.041 197.034 424.253 197.591C424.465 198.144 424.571 198.803 424.571 199.568V200.199H417.418V198.812H422.6C422.596 198.419 422.511 198.068 422.344 197.761C422.177 197.451 421.944 197.206 421.645 197.028C421.35 196.85 421.005 196.761 420.611 196.761C420.191 196.761 419.821 196.864 419.503 197.068C419.185 197.269 418.937 197.534 418.759 197.864C418.585 198.189 418.496 198.547 418.492 198.938V200.148C418.492 200.655 418.585 201.091 418.77 201.455C418.956 201.814 419.215 202.091 419.549 202.284C419.882 202.473 420.272 202.568 420.719 202.568C421.018 202.568 421.289 202.527 421.532 202.443C421.774 202.356 421.984 202.229 422.162 202.062C422.34 201.896 422.475 201.689 422.566 201.443L424.486 201.659C424.365 202.167 424.134 202.61 423.793 202.989C423.456 203.364 423.024 203.655 422.497 203.864C421.971 204.068 421.369 204.17 420.691 204.17ZM428.368 192.364V204H426.311V192.364H428.368ZM434.154 199.256C434.154 200.672 433.964 201.977 433.586 203.17C433.211 204.36 432.65 205.46 431.904 206.472H429.966C430.258 206.097 430.527 205.638 430.773 205.097C431.023 204.555 431.239 203.96 431.421 203.312C431.606 202.665 431.75 201.994 431.853 201.301C431.959 200.608 432.012 199.926 432.012 199.256C432.012 198.358 431.921 197.449 431.739 196.528C431.561 195.608 431.317 194.754 431.006 193.966C430.699 193.178 430.353 192.534 429.966 192.034H431.904C432.65 193.045 433.211 194.148 433.586 195.341C433.964 196.53 434.154 197.835 434.154 199.256Z" fill="black"/>
<path d="M369.534 184.046C369.014 184.046 368.558 183.978 368.167 183.842C367.776 183.71 367.446 183.527 367.178 183.295C366.909 183.063 366.7 182.803 366.551 182.515L367.277 182.037C367.386 182.23 367.532 182.419 367.714 182.604C367.9 182.79 368.14 182.944 368.435 183.067C368.734 183.189 369.1 183.25 369.534 183.25C370.21 183.25 370.755 183.081 371.17 182.743C371.587 182.405 371.796 181.88 371.796 181.167V179.447H371.717C371.614 179.679 371.466 179.911 371.274 180.143C371.082 180.372 370.83 180.562 370.518 180.715C370.21 180.867 369.827 180.944 369.37 180.944C368.76 180.944 368.218 180.793 367.744 180.491C367.274 180.19 366.902 179.759 366.631 179.199C366.362 178.635 366.228 177.964 366.228 177.185C366.228 176.413 366.359 175.733 366.621 175.147C366.886 174.56 367.255 174.103 367.729 173.775C368.203 173.446 368.755 173.282 369.385 173.282C369.852 173.282 370.24 173.365 370.548 173.531C370.857 173.693 371.103 173.896 371.289 174.138C371.478 174.379 371.625 174.615 371.732 174.844H371.821V173.387H372.686V181.222C372.686 181.868 372.549 182.4 372.273 182.818C371.998 183.236 371.624 183.544 371.15 183.743C370.676 183.945 370.137 184.046 369.534 184.046ZM369.474 180.133C369.965 180.133 370.384 180.016 370.732 179.78C371.08 179.542 371.347 179.2 371.533 178.756C371.718 178.312 371.811 177.783 371.811 177.17C371.811 176.574 371.72 176.045 371.538 175.584C371.355 175.12 371.09 174.756 370.742 174.491C370.397 174.222 369.975 174.088 369.474 174.088C368.964 174.088 368.533 174.225 368.182 174.5C367.83 174.776 367.565 175.147 367.386 175.614C367.207 176.078 367.118 176.597 367.118 177.17C367.118 177.754 367.209 178.269 367.391 178.716C367.574 179.161 367.84 179.509 368.192 179.76C368.543 180.009 368.971 180.133 369.474 180.133ZM378.335 170.364L375.054 182.554H374.224L377.505 170.364H378.335ZM380.674 178.14L380.664 176.981H380.863L384.443 173.387H385.561L382.026 176.927L381.947 176.942L380.674 178.14ZM379.869 181.023V170.841H380.754V181.023H379.869ZM384.627 181.023L381.524 177.101L382.161 176.489L385.76 181.023H384.627ZM389.178 181.023L386.389 170.841H387.334L389.64 179.596H389.72L392.027 170.841H393.101L395.407 179.596H395.487L397.794 170.841H398.743L395.954 181.023H394.96L392.599 172.388H392.534L390.172 181.023H389.178ZM401.125 176.25V181.023H400.24V170.841H401.125V174.585H401.204C401.383 174.191 401.66 173.876 402.035 173.64C402.412 173.405 402.89 173.287 403.466 173.287C403.983 173.287 404.438 173.393 404.829 173.606C405.22 173.818 405.525 174.131 405.743 174.545C405.962 174.96 406.072 175.47 406.072 176.076V181.023H405.182V176.131C405.182 175.501 405.006 175.006 404.655 174.645C404.307 174.28 403.836 174.098 403.243 174.098C402.835 174.098 402.472 174.184 402.154 174.356C401.836 174.529 401.584 174.777 401.398 175.102C401.216 175.424 401.125 175.806 401.125 176.25Z" fill="black"/>
<path d="M430.28 164.862L428.228 162.81C438.378 152.331 444.702 138.123 444.951 122.439H447.85C447.6 138.921 440.951 153.851 430.28 164.862ZM426.864 78.767L428.915 76.7156C417.909 66.0441 402.974 59.395 386.492 59.1453V62.0439C402.176 62.2937 416.38 68.6172 426.864 78.767ZM447.85 120.508C447.6 104.025 440.951 89.0907 430.28 78.0847L428.228 80.136C438.378 90.6158 444.702 104.824 444.951 120.508H447.85Z" fill="#ABADB0"/>
<path d="M340.769 164.862C330.098 153.856 323.449 138.921 323.199 122.439H326.098C326.347 138.123 332.671 152.326 342.821 162.81L340.769 164.862Z" fill="#4AB135"/>
<path d="M342.821 80.136L340.769 78.0847C330.098 89.0907 323.449 104.025 323.199 120.508H326.098C326.347 104.824 332.671 90.6202 342.821 80.136ZM384.557 59.1453C368.075 59.395 353.14 66.0441 342.134 76.7156L344.185 78.767C354.665 68.6172 368.873 62.2937 384.557 62.0439V59.1453Z" fill="#ABADB0"/>
<path d="M458 120.507C457.746 101.22 449.964 83.7525 437.455 70.9092L430.28 78.0845C440.951 89.0905 447.601 104.025 447.85 120.507H458Z" fill="#C8CCD0"/>
<path d="M428.911 76.7201L436.086 69.5448C423.243 57.036 405.775 49.2542 386.488 49V59.1498C402.97 59.3995 417.9 66.0486 428.911 76.7201Z" fill="#C8CCD0"/>
<path d="M437.455 172.037L430.28 164.862C440.951 153.856 447.601 138.925 447.85 122.439H458C457.746 141.722 449.964 159.194 437.455 172.037Z" fill="#C8CCD0"/>
<path d="M333.594 172.037C321.085 159.194 313.303 141.726 313.049 122.439H323.199C323.449 138.921 330.098 153.851 340.769 164.862L333.594 172.037Z" fill="#C8CCD0"/>
<path d="M384.557 49C365.27 49.2542 347.802 57.036 334.959 69.5448L342.134 76.7201C353.14 66.0486 368.075 59.3995 384.557 59.1498V49Z" fill="#C8CCD0"/>
<path d="M340.769 78.0845L333.594 70.9092C321.085 83.7525 313.303 101.22 313.049 120.507H323.199C323.449 104.025 330.098 89.0949 340.769 78.0845Z" fill="#C8CCD0"/>
<path d="M334.922 69.5819L333.626 70.8779L340.818 78.0707L342.114 76.7747L334.922 69.5819Z" fill="#EFEA3A"/>
<path d="M323.172 122.189H313V124.022H323.172V122.189Z" fill="#4AB135"/>
<path d="M436.096 69.5522L428.925 76.7229L430.271 78.0694L437.442 70.8987L436.096 69.5522Z" fill="#E71F19"/>
<path fill-rule="evenodd" clip-rule="evenodd" d="M370.07 155.488C389.708 163.892 412.443 154.783 420.85 135.143C429.254 115.505 420.145 92.7704 400.506 84.3627C380.866 75.9551 358.133 85.0677 349.725 104.708C346.718 111.735 345.952 119.152 347.108 126.173L327.622 141.869C326.878 142.469 327.357 143.666 328.31 143.586L353.168 141.492C357.186 147.492 362.932 152.434 370.07 155.488Z" fill="#4AB135"/>
<mask id="mask2_872_4451" style="mask-type:luminance" maskUnits="userSpaceOnUse" x="327" y="81" width="97" height="78">
<path d="M370.07 155.488C389.708 163.892 412.443 154.783 420.85 135.143C429.254 115.505 420.145 92.7703 400.506 84.3627C380.867 75.9592 358.133 85.0676 349.725 104.707C346.718 111.735 345.952 119.152 347.108 126.173L327.622 141.868C326.878 142.469 327.357 143.666 328.31 143.586L353.168 141.492C357.186 147.491 362.932 152.434 370.07 155.488Z" fill="white"/>
</mask>
<g mask="url(#mask2_872_4451)">
<path d="M370.418 154.666C363.449 151.684 357.833 146.853 353.91 140.993L352.429 141.985C356.541 148.124 362.42 153.182 369.72 156.305L370.422 154.665L370.418 154.666ZM328.387 144.473L353.245 142.378L353.095 140.603L328.238 142.698L328.387 144.473ZM327.065 141.174C325.637 142.322 326.561 144.628 328.387 144.473L328.238 142.698C328.238 142.698 328.204 142.697 328.2 142.699C328.2 142.699 328.194 142.696 328.188 142.694C328.186 142.69 328.167 142.678 328.157 142.653C328.147 142.628 328.149 142.608 328.152 142.603C328.152 142.603 328.15 142.599 328.156 142.591C328.156 142.591 328.166 142.578 328.185 142.565L327.067 141.178L327.065 141.174ZM346.551 125.479L327.065 141.174L328.183 142.561L347.669 126.866L346.551 125.479ZM347.986 126.028C346.859 119.173 347.605 111.922 350.543 105.057L348.902 104.355C345.828 111.539 345.043 119.136 346.223 126.316L347.985 126.024L347.986 126.028ZM350.544 105.061C358.754 85.8755 380.967 76.976 400.153 85.186L400.855 83.5451C380.765 74.9481 357.505 84.2672 348.908 104.358L350.548 105.06L350.544 105.061ZM400.153 85.186C419.339 93.3959 428.239 115.609 420.029 134.795L421.67 135.497C430.267 115.407 420.947 92.1463 400.857 83.5492L400.155 85.1901L400.153 85.186ZM420.027 134.791C411.817 153.977 389.604 162.876 370.418 154.666L369.716 156.307C389.806 164.904 413.067 155.585 421.664 135.495L420.023 134.792L420.027 134.791ZM353.168 141.492L353.91 140.993L353.62 140.556L353.095 140.603L353.168 141.492ZM347.108 126.173L347.669 126.866L348.076 126.54L347.99 126.026L347.112 126.172L347.108 126.173Z" fill="#53575A"/>
</g>
<path d="M397.694 150.896C414.797 144.044 423.107 124.624 416.255 107.521C409.403 90.4175 389.983 82.1074 372.879 88.9597C355.776 95.812 347.466 115.232 354.318 132.335C361.17 149.439 380.59 157.749 397.694 150.896Z" fill="#E6E9EC"/>
<mask id="mask3_872_4451" style="mask-type:luminance" maskUnits="userSpaceOnUse" x="351" y="86" width="68" height="68">
<path d="M418.556 117.049C416.956 98.6938 400.778 85.1113 382.423 86.7117C364.068 88.3122 350.485 104.49 352.086 122.845C353.686 141.2 369.864 154.783 388.219 153.182C406.574 151.582 420.157 135.404 418.556 117.049Z" fill="white"/>
</mask>
<g mask="url(#mask3_872_4451)">
<path d="M398.058 90.0755C414.542 97.1293 422.189 116.217 415.135 132.701L416.776 133.403C424.219 116.009 416.154 95.8779 398.76 88.4346L398.058 90.0755ZM355.432 107.153C362.486 90.669 381.574 83.0217 398.058 90.0755L398.76 88.4346C381.365 80.9913 361.235 89.0566 353.791 106.451L355.432 107.153ZM372.511 149.783C356.027 142.729 348.38 123.641 355.434 107.157L353.793 106.455C346.35 123.849 354.415 143.98 371.809 151.424L372.511 149.783ZM415.137 132.705C408.083 149.189 388.995 156.836 372.511 149.783L371.809 151.424C389.204 158.867 409.334 150.802 416.778 133.407L415.137 132.705Z" fill="#53575A"/>
</g>
<path d="M378.158 129.954C377.323 129.948 376.507 129.803 375.712 129.519C374.917 129.229 374.201 128.761 373.564 128.113C372.928 127.459 372.422 126.593 372.047 125.513C371.672 124.428 371.488 123.084 371.493 121.482C371.493 119.988 371.652 118.655 371.971 117.485C372.289 116.315 372.746 115.326 373.343 114.519C373.939 113.707 374.658 113.087 375.499 112.661C376.346 112.235 377.292 112.022 378.337 112.022C379.434 112.022 380.405 112.238 381.252 112.67C382.104 113.101 382.792 113.692 383.314 114.442C383.837 115.187 384.161 116.028 384.286 116.965H381.175C381.016 116.295 380.689 115.761 380.195 115.363C379.706 114.959 379.087 114.758 378.337 114.758C377.127 114.758 376.195 115.283 375.542 116.334C374.894 117.386 374.567 118.829 374.561 120.664H374.681C374.959 120.164 375.32 119.735 375.763 119.377C376.206 119.019 376.706 118.743 377.263 118.55C377.826 118.351 378.419 118.252 379.044 118.252C380.067 118.252 380.985 118.496 381.797 118.985C382.615 119.474 383.263 120.147 383.74 121.005C384.218 121.857 384.453 122.834 384.448 123.937C384.453 125.084 384.192 126.116 383.664 127.03C383.135 127.94 382.4 128.655 381.456 129.178C380.513 129.701 379.414 129.959 378.158 129.954ZM378.141 127.397C378.76 127.397 379.314 127.246 379.803 126.945C380.292 126.644 380.678 126.238 380.962 125.726C381.246 125.215 381.385 124.641 381.38 124.005C381.385 123.38 381.249 122.815 380.971 122.309C380.698 121.803 380.32 121.403 379.837 121.107C379.354 120.812 378.803 120.664 378.184 120.664C377.723 120.664 377.294 120.752 376.897 120.928C376.499 121.104 376.152 121.349 375.857 121.661C375.561 121.968 375.328 122.326 375.158 122.735C374.993 123.138 374.908 123.57 374.902 124.03C374.908 124.638 375.05 125.198 375.328 125.709C375.607 126.221 375.99 126.63 376.479 126.937C376.968 127.243 377.522 127.397 378.141 127.397ZM393.78 130.047C392.377 130.047 391.172 129.692 390.167 128.982C389.167 128.266 388.397 127.235 387.857 125.888C387.323 124.536 387.056 122.908 387.056 121.005C387.061 119.101 387.331 117.482 387.865 116.147C388.405 114.806 389.175 113.783 390.175 113.079C391.181 112.374 392.382 112.022 393.78 112.022C395.178 112.022 396.38 112.374 397.385 113.079C398.391 113.783 399.161 114.806 399.695 116.147C400.235 117.488 400.505 119.107 400.505 121.005C400.505 122.914 400.235 124.545 399.695 125.897C399.161 127.243 398.391 128.272 397.385 128.982C396.385 129.692 395.184 130.047 393.78 130.047ZM393.78 127.38C394.871 127.38 395.732 126.843 396.363 125.769C396.999 124.69 397.317 123.101 397.317 121.005C397.317 119.618 397.172 118.454 396.882 117.511C396.593 116.567 396.184 115.857 395.655 115.38C395.127 114.897 394.502 114.655 393.78 114.655C392.695 114.655 391.837 115.195 391.206 116.275C390.576 117.349 390.257 118.925 390.252 121.005C390.246 122.397 390.385 123.567 390.669 124.516C390.959 125.465 391.368 126.181 391.897 126.664C392.425 127.141 393.053 127.38 393.78 127.38Z" fill="black"/>
<path d="M598.281 203V191.364H600.389V201.233H605.514V203H598.281ZM616.906 191.364V203H615.031L609.548 195.074H609.451V203H607.343V191.364H609.23L614.707 199.295H614.809V191.364H616.906ZM626.998 195.08C626.904 194.773 626.773 194.498 626.606 194.256C626.443 194.009 626.246 193.799 626.015 193.625C625.788 193.451 625.527 193.32 625.231 193.233C624.936 193.142 624.614 193.097 624.265 193.097C623.64 193.097 623.083 193.254 622.595 193.568C622.106 193.883 621.722 194.345 621.441 194.955C621.165 195.561 621.027 196.299 621.027 197.17C621.027 198.049 621.165 198.794 621.441 199.403C621.718 200.013 622.102 200.477 622.595 200.795C623.087 201.11 623.659 201.267 624.311 201.267C624.902 201.267 625.413 201.153 625.845 200.926C626.28 200.699 626.616 200.377 626.851 199.96C627.085 199.54 627.203 199.047 627.203 198.483L627.68 198.557H624.521V196.909H629.243V198.307C629.243 199.303 629.03 200.165 628.606 200.892C628.182 201.619 627.599 202.18 626.856 202.574C626.114 202.964 625.261 203.159 624.299 203.159C623.227 203.159 622.286 202.919 621.476 202.438C620.669 201.953 620.038 201.265 619.583 200.375C619.133 199.481 618.907 198.42 618.907 197.193C618.907 196.254 619.04 195.415 619.305 194.676C619.574 193.938 619.949 193.311 620.43 192.795C620.911 192.277 621.476 191.883 622.123 191.614C622.771 191.341 623.476 191.205 624.237 191.205C624.881 191.205 625.481 191.299 626.038 191.489C626.595 191.674 627.089 191.939 627.521 192.284C627.957 192.629 628.315 193.038 628.595 193.511C628.875 193.985 629.059 194.508 629.146 195.08H626.998ZM631.701 198.256C631.701 196.835 631.889 195.53 632.264 194.341C632.643 193.148 633.205 192.045 633.951 191.034H635.889C635.601 191.409 635.332 191.869 635.082 192.415C634.832 192.956 634.614 193.551 634.429 194.199C634.247 194.843 634.103 195.511 633.997 196.205C633.895 196.898 633.843 197.581 633.843 198.256C633.843 199.153 633.932 200.062 634.11 200.983C634.292 201.903 634.537 202.756 634.843 203.54C635.154 204.328 635.503 204.972 635.889 205.472H633.951C633.205 204.46 632.643 203.36 632.264 202.17C631.889 200.977 631.701 199.672 631.701 198.256ZM645.373 195.08C645.279 194.773 645.148 194.498 644.981 194.256C644.818 194.009 644.621 193.799 644.39 193.625C644.163 193.451 643.902 193.32 643.606 193.233C643.311 193.142 642.989 193.097 642.64 193.097C642.015 193.097 641.458 193.254 640.97 193.568C640.481 193.883 640.097 194.345 639.816 194.955C639.54 195.561 639.402 196.299 639.402 197.17C639.402 198.049 639.54 198.794 639.816 199.403C640.093 200.013 640.477 200.477 640.97 200.795C641.462 201.11 642.034 201.267 642.686 201.267C643.277 201.267 643.788 201.153 644.22 200.926C644.655 200.699 644.991 200.377 645.226 199.96C645.46 199.54 645.578 199.047 645.578 198.483L646.055 198.557H642.896V196.909H647.618V198.307C647.618 199.303 647.405 200.165 646.981 200.892C646.557 201.619 645.974 202.18 645.231 202.574C644.489 202.964 643.636 203.159 642.674 203.159C641.602 203.159 640.661 202.919 639.851 202.438C639.044 201.953 638.413 201.265 637.958 200.375C637.508 199.481 637.282 198.42 637.282 197.193C637.282 196.254 637.415 195.415 637.68 194.676C637.949 193.938 638.324 193.311 638.805 192.795C639.286 192.277 639.851 191.883 640.498 191.614C641.146 191.341 641.851 191.205 642.612 191.205C643.256 191.205 643.856 191.299 644.413 191.489C644.97 191.674 645.464 191.939 645.896 192.284C646.332 192.629 646.69 193.038 646.97 193.511C647.25 193.985 647.434 194.508 647.521 195.08H645.373ZM652.076 203.176C651.523 203.176 651.025 203.078 650.582 202.881C650.143 202.68 649.794 202.384 649.537 201.994C649.283 201.604 649.156 201.123 649.156 200.551C649.156 200.059 649.247 199.652 649.429 199.33C649.61 199.008 649.859 198.75 650.173 198.557C650.487 198.364 650.842 198.218 651.235 198.119C651.633 198.017 652.044 197.943 652.468 197.898C652.98 197.845 653.395 197.797 653.713 197.756C654.031 197.71 654.262 197.642 654.406 197.551C654.554 197.456 654.627 197.311 654.627 197.114V197.08C654.627 196.652 654.501 196.32 654.247 196.085C653.993 195.85 653.627 195.733 653.15 195.733C652.646 195.733 652.247 195.843 651.951 196.062C651.66 196.282 651.463 196.542 651.36 196.841L649.44 196.568C649.592 196.038 649.842 195.595 650.19 195.239C650.538 194.879 650.965 194.61 651.468 194.432C651.972 194.25 652.529 194.159 653.139 194.159C653.559 194.159 653.978 194.208 654.395 194.307C654.811 194.405 655.192 194.568 655.537 194.795C655.881 195.019 656.158 195.324 656.366 195.71C656.578 196.097 656.684 196.58 656.684 197.159V203H654.707V201.801H654.639C654.514 202.044 654.338 202.271 654.11 202.483C653.887 202.691 653.605 202.86 653.264 202.989C652.927 203.114 652.531 203.176 652.076 203.176ZM652.61 201.665C653.023 201.665 653.381 201.583 653.684 201.42C653.987 201.254 654.22 201.034 654.383 200.761C654.55 200.489 654.633 200.191 654.633 199.869V198.841C654.569 198.894 654.459 198.943 654.304 198.989C654.152 199.034 653.982 199.074 653.792 199.108C653.603 199.142 653.415 199.172 653.23 199.199C653.044 199.225 652.883 199.248 652.747 199.267C652.44 199.309 652.165 199.377 651.923 199.472C651.681 199.566 651.489 199.699 651.349 199.869C651.209 200.036 651.139 200.252 651.139 200.517C651.139 200.896 651.277 201.182 651.554 201.375C651.83 201.568 652.182 201.665 652.61 201.665ZM665.65 196.58L663.775 196.784C663.722 196.595 663.629 196.417 663.497 196.25C663.368 196.083 663.194 195.949 662.974 195.847C662.754 195.744 662.485 195.693 662.167 195.693C661.739 195.693 661.379 195.786 661.088 195.972C660.8 196.157 660.658 196.398 660.662 196.693C660.658 196.947 660.751 197.153 660.94 197.312C661.133 197.472 661.451 197.602 661.895 197.705L663.383 198.023C664.209 198.201 664.823 198.483 665.224 198.869C665.629 199.256 665.834 199.761 665.838 200.386C665.834 200.936 665.673 201.42 665.355 201.841C665.04 202.258 664.603 202.583 664.042 202.818C663.482 203.053 662.838 203.17 662.11 203.17C661.042 203.17 660.182 202.947 659.531 202.5C658.879 202.049 658.491 201.422 658.366 200.619L660.372 200.426C660.463 200.82 660.656 201.117 660.951 201.318C661.247 201.519 661.631 201.619 662.105 201.619C662.593 201.619 662.985 201.519 663.281 201.318C663.58 201.117 663.73 200.869 663.73 200.574C663.73 200.324 663.633 200.117 663.44 199.955C663.251 199.792 662.955 199.667 662.554 199.58L661.065 199.267C660.228 199.093 659.609 198.799 659.207 198.386C658.806 197.97 658.607 197.443 658.61 196.807C658.607 196.269 658.752 195.803 659.048 195.409C659.347 195.011 659.762 194.705 660.292 194.489C660.826 194.269 661.442 194.159 662.139 194.159C663.162 194.159 663.967 194.377 664.554 194.812C665.145 195.248 665.51 195.837 665.65 196.58ZM671.204 198.256C671.204 199.672 671.015 200.977 670.636 202.17C670.261 203.36 669.7 204.46 668.954 205.472H667.017C667.308 205.097 667.577 204.638 667.824 204.097C668.074 203.555 668.289 202.96 668.471 202.312C668.657 201.665 668.801 200.994 668.903 200.301C669.009 199.608 669.062 198.926 669.062 198.256C669.062 197.358 668.971 196.449 668.789 195.528C668.611 194.608 668.367 193.754 668.056 192.966C667.75 192.178 667.403 191.534 667.017 191.034H668.954C669.7 192.045 670.261 193.148 670.636 194.341C671.015 195.53 671.204 196.835 671.204 198.256Z" fill="black"/>
<path d="M615.534 181.046C615.014 181.046 614.558 180.978 614.167 180.842C613.776 180.71 613.446 180.527 613.178 180.295C612.909 180.063 612.7 179.803 612.551 179.515L613.277 179.037C613.386 179.23 613.532 179.419 613.714 179.604C613.9 179.79 614.14 179.944 614.435 180.067C614.734 180.189 615.1 180.25 615.534 180.25C616.21 180.25 616.755 180.081 617.17 179.743C617.587 179.405 617.796 178.88 617.796 178.167V176.447H617.717C617.614 176.679 617.466 176.911 617.274 177.143C617.082 177.372 616.83 177.562 616.518 177.715C616.21 177.867 615.827 177.944 615.37 177.944C614.76 177.944 614.218 177.793 613.744 177.491C613.274 177.19 612.902 176.759 612.631 176.199C612.362 175.635 612.228 174.964 612.228 174.185C612.228 173.413 612.359 172.733 612.621 172.147C612.886 171.56 613.255 171.103 613.729 170.775C614.203 170.446 614.755 170.282 615.385 170.282C615.852 170.282 616.24 170.365 616.548 170.531C616.857 170.693 617.103 170.896 617.289 171.138C617.478 171.379 617.625 171.615 617.732 171.844H617.821V170.387H618.686V178.222C618.686 178.868 618.549 179.4 618.273 179.818C617.998 180.236 617.624 180.544 617.15 180.743C616.676 180.945 616.137 181.046 615.534 181.046ZM615.474 177.133C615.965 177.133 616.384 177.016 616.732 176.78C617.08 176.542 617.347 176.2 617.533 175.756C617.718 175.312 617.811 174.783 617.811 174.17C617.811 173.574 617.72 173.045 617.538 172.584C617.355 172.12 617.09 171.756 616.742 171.491C616.397 171.222 615.975 171.088 615.474 171.088C614.964 171.088 614.533 171.225 614.182 171.5C613.83 171.776 613.565 172.147 613.386 172.614C613.207 173.078 613.118 173.597 613.118 174.17C613.118 174.754 613.209 175.269 613.391 175.716C613.574 176.161 613.84 176.509 614.192 176.76C614.543 177.009 614.971 177.133 615.474 177.133ZM624.335 167.364L621.054 179.554H620.224L623.505 167.364H624.335ZM626.674 175.14L626.664 173.981H626.863L630.443 170.387H631.561L628.026 173.927L627.947 173.942L626.674 175.14ZM625.869 178.023V167.841H626.754V178.023H625.869ZM630.627 178.023L627.524 174.101L628.161 173.489L631.76 178.023H630.627ZM635.178 178.023L632.389 167.841H633.334L635.64 176.596H635.72L638.027 167.841H639.101L641.407 176.596H641.487L643.794 167.841H644.743L641.954 178.023H640.96L638.599 169.388H638.534L636.172 178.023H635.178ZM647.125 173.25V178.023H646.24V167.841H647.125V171.585H647.204C647.383 171.191 647.66 170.876 648.035 170.64C648.412 170.405 648.89 170.287 649.466 170.287C649.983 170.287 650.438 170.393 650.829 170.606C651.22 170.818 651.525 171.131 651.743 171.545C651.962 171.96 652.072 172.47 652.072 173.076V178.023H651.182V173.131C651.182 172.501 651.006 172.006 650.655 171.645C650.307 171.28 649.836 171.098 649.243 171.098C648.835 171.098 648.472 171.184 648.154 171.356C647.836 171.529 647.584 171.777 647.398 172.102C647.216 172.424 647.125 172.806 647.125 173.25Z" fill="black"/>
<path d="M676.28 161.862L674.228 159.81C684.378 149.33 690.702 135.123 690.951 119.439H693.85C693.6 135.921 686.951 150.851 676.28 161.862ZM672.864 75.767L674.915 73.7156C663.909 63.0441 648.974 56.395 632.492 56.1453V59.0439C648.176 59.2937 662.38 65.6172 672.864 75.767ZM693.85 117.508C693.6 101.025 686.951 86.0907 676.28 75.0847L674.228 77.136C684.378 87.6158 690.702 101.824 690.951 117.508H693.85Z" fill="#ABADB0"/>
<path d="M586.769 161.862C576.098 150.856 569.449 135.921 569.199 119.439H572.098C572.347 135.123 578.671 149.326 588.821 159.81L586.769 161.862Z" fill="#4AB135"/>
<path d="M588.821 77.136L586.769 75.0847C576.098 86.0907 569.449 101.025 569.199 117.508H572.098C572.347 101.824 578.671 87.6202 588.821 77.136ZM630.557 56.1453C614.075 56.395 599.14 63.0441 588.134 73.7156L590.185 75.767C600.665 65.6172 614.873 59.2937 630.557 59.0439V56.1453Z" fill="#ABADB0"/>
<path d="M704 117.508C703.746 98.2205 695.964 80.7527 683.455 67.9094L676.28 75.0847C686.951 86.0907 693.601 101.026 693.85 117.508H704Z" fill="#C8CCD0"/>
<path d="M674.911 73.7201L682.086 66.5448C669.243 54.036 651.775 46.2542 632.488 46V56.1498C648.97 56.3995 663.9 63.0486 674.911 73.7201Z" fill="#C8CCD0"/>
<path d="M683.455 169.037L676.28 161.862C686.951 150.856 693.601 135.925 693.85 119.439H704C703.746 138.722 695.964 156.194 683.455 169.037Z" fill="#C8CCD0"/>
<path d="M579.594 169.037C567.085 156.194 559.303 138.726 559.049 119.439H569.199C569.449 135.921 576.098 150.851 586.769 161.862L579.594 169.037Z" fill="#C8CCD0"/>
<path d="M630.557 46C611.27 46.2542 593.802 54.036 580.959 66.5448L588.134 73.7201C599.14 63.0486 614.075 56.3995 630.557 56.1498V46Z" fill="#C8CCD0"/>
<path d="M586.769 75.0847L579.594 67.9094C567.085 80.7527 559.303 98.2205 559.049 117.508H569.199C569.449 101.026 576.098 86.0952 586.769 75.0847Z" fill="#C8CCD0"/>
<path d="M580.922 66.5817L579.626 67.8777L586.818 75.0704L588.114 73.7744L580.922 66.5817Z" fill="#EFEA3A"/>
<path d="M569.172 119.189H559V121.022H569.172V119.189Z" fill="#4AB135"/>
<path d="M682.096 66.5522L674.925 73.7229L676.271 75.0694L683.442 67.8987L682.096 66.5522Z" fill="#E71F19"/>
<path fill-rule="evenodd" clip-rule="evenodd" d="M616.07 152.488C635.708 160.892 658.443 151.783 666.85 132.143C675.254 112.505 666.145 89.7704 646.506 81.3627C626.866 72.9551 604.133 82.0677 595.725 101.708C592.718 108.735 591.952 116.152 593.108 123.173L573.622 138.869C572.878 139.469 573.357 140.666 574.31 140.586L599.168 138.492C603.186 144.492 608.932 149.434 616.07 152.488Z" fill="#4AB135"/>
<mask id="mask4_872_4451" style="mask-type:luminance" maskUnits="userSpaceOnUse" x="573" y="78" width="97" height="78">
<path d="M616.07 152.488C635.708 160.892 658.443 151.783 666.85 132.143C675.254 112.505 666.145 89.7703 646.506 81.3627C626.867 72.9592 604.133 82.0676 595.725 101.707C592.718 108.735 591.952 116.152 593.108 123.173L573.622 138.868C572.878 139.469 573.357 140.666 574.31 140.586L599.168 138.492C603.186 144.491 608.932 149.434 616.07 152.488Z" fill="white"/>
</mask>
<g mask="url(#mask4_872_4451)">
<path d="M616.418 151.666C609.449 148.684 603.833 143.853 599.91 137.993L598.429 138.985C602.541 145.124 608.42 150.182 615.72 153.305L616.422 151.665L616.418 151.666ZM574.387 141.473L599.245 139.378L599.095 137.603L574.238 139.698L574.387 141.473ZM573.065 138.174C571.637 139.322 572.561 141.628 574.387 141.473L574.238 139.698C574.238 139.698 574.204 139.697 574.2 139.699C574.2 139.699 574.194 139.696 574.188 139.694C574.186 139.69 574.167 139.678 574.157 139.653C574.147 139.628 574.149 139.608 574.152 139.603C574.152 139.603 574.15 139.599 574.157 139.591C574.157 139.591 574.166 139.578 574.185 139.565L573.067 138.178L573.065 138.174ZM592.551 122.479L573.065 138.174L574.183 139.561L593.669 123.866L592.551 122.479ZM593.986 123.028C592.859 116.173 593.605 108.922 596.543 102.057L594.902 101.355C591.828 108.539 591.043 116.136 592.223 123.316L593.985 123.024L593.986 123.028ZM596.544 102.061C604.754 82.8755 626.967 73.976 646.153 82.186L646.855 80.5451C626.765 71.9481 603.505 81.2672 594.908 101.358L596.548 102.06L596.544 102.061ZM646.153 82.186C665.339 90.3959 674.239 112.609 666.029 131.795L667.67 132.497C676.267 112.407 666.947 89.1463 646.857 80.5492L646.155 82.1901L646.153 82.186ZM666.027 131.791C657.817 150.977 635.604 159.876 616.418 151.666L615.716 153.307C635.806 161.904 659.067 152.585 667.664 132.495L666.023 131.792L666.027 131.791ZM599.168 138.492L599.91 137.993L599.62 137.556L599.095 137.603L599.168 138.492ZM593.108 123.173L593.669 123.866L594.076 123.54L593.99 123.026L593.112 123.172L593.108 123.173Z" fill="#53575A"/>
</g>
<path d="M643.694 147.896C660.797 141.044 669.107 121.624 662.255 104.521C655.403 87.4175 635.983 79.1074 618.879 85.9597C601.776 92.812 593.466 112.232 600.318 129.335C607.17 146.439 626.59 154.749 643.694 147.896Z" fill="#E6E9EC"/>
<mask id="mask5_872_4451" style="mask-type:luminance" maskUnits="userSpaceOnUse" x="597" y="83" width="68" height="68">
<path d="M664.556 114.049C662.956 95.6938 646.778 82.1113 628.423 83.7117C610.068 85.3122 596.485 101.49 598.086 119.845C599.686 138.2 615.864 151.783 634.219 150.182C652.574 148.582 666.157 132.404 664.556 114.049Z" fill="white"/>
</mask>
<g mask="url(#mask5_872_4451)">
<path d="M644.058 87.0752C660.542 94.129 668.189 113.217 661.135 129.701L662.776 130.403C670.219 113.009 662.154 92.8777 644.76 85.4344L644.058 87.0752ZM601.432 104.153C608.486 87.6688 627.574 80.0215 644.058 87.0752L644.76 85.4344C627.366 77.9911 607.235 86.0563 599.791 103.451L601.432 104.153ZM618.511 146.782C602.027 139.729 594.38 120.641 601.434 104.157L599.793 103.455C592.35 120.849 600.415 140.98 617.809 148.423L618.511 146.782ZM661.137 129.705C654.083 146.189 634.995 153.836 618.511 146.782L617.809 148.423C635.204 155.867 655.334 147.801 662.778 130.407L661.137 129.705Z" fill="#53575A"/>
</g>
<path d="M623.658 127.797C622.823 127.791 622.007 127.646 621.212 127.362C620.417 127.072 619.701 126.604 619.064 125.956C618.428 125.302 617.922 124.436 617.547 123.356C617.172 122.271 616.988 120.927 616.993 119.325C616.993 117.831 617.152 116.498 617.471 115.328C617.789 114.158 618.246 113.169 618.843 112.362C619.439 111.55 620.158 110.93 620.999 110.504C621.846 110.078 622.792 109.865 623.837 109.865C624.934 109.865 625.905 110.081 626.752 110.513C627.604 110.944 628.292 111.535 628.814 112.285C629.337 113.03 629.661 113.871 629.786 114.808H626.675C626.516 114.138 626.189 113.604 625.695 113.206C625.206 112.802 624.587 112.601 623.837 112.601C622.627 112.601 621.695 113.126 621.042 114.177C620.394 115.229 620.067 116.672 620.061 118.507H620.181C620.459 118.007 620.82 117.578 621.263 117.22C621.706 116.862 622.206 116.587 622.763 116.393C623.326 116.194 623.919 116.095 624.544 116.095C625.567 116.095 626.485 116.339 627.297 116.828C628.115 117.317 628.763 117.99 629.24 118.848C629.718 119.7 629.953 120.677 629.948 121.78C629.953 122.927 629.692 123.959 629.164 124.873C628.635 125.783 627.9 126.498 626.956 127.021C626.013 127.544 624.914 127.802 623.658 127.797ZM623.641 125.24C624.26 125.24 624.814 125.089 625.303 124.788C625.792 124.487 626.178 124.081 626.462 123.569C626.746 123.058 626.885 122.484 626.88 121.848C626.885 121.223 626.749 120.658 626.471 120.152C626.198 119.646 625.82 119.246 625.337 118.95C624.854 118.655 624.303 118.507 623.684 118.507C623.223 118.507 622.794 118.595 622.397 118.771C621.999 118.947 621.652 119.192 621.357 119.504C621.061 119.811 620.828 120.169 620.658 120.578C620.493 120.981 620.408 121.413 620.402 121.873C620.408 122.481 620.55 123.041 620.828 123.552C621.107 124.064 621.49 124.473 621.979 124.78C622.468 125.087 623.022 125.24 623.641 125.24ZM639.28 127.89C637.877 127.89 636.672 127.535 635.667 126.825C634.667 126.109 633.897 125.078 633.357 123.731C632.823 122.379 632.556 120.751 632.556 118.848C632.561 116.944 632.831 115.325 633.365 113.99C633.905 112.649 634.675 111.626 635.675 110.922C636.681 110.217 637.882 109.865 639.28 109.865C640.678 109.865 641.88 110.217 642.885 110.922C643.891 111.626 644.661 112.649 645.195 113.99C645.735 115.331 646.005 116.95 646.005 118.848C646.005 120.757 645.735 122.388 645.195 123.74C644.661 125.087 643.891 126.115 642.885 126.825C641.885 127.535 640.684 127.89 639.28 127.89ZM639.28 125.223C640.371 125.223 641.232 124.686 641.863 123.612C642.499 122.533 642.817 120.944 642.817 118.848C642.817 117.462 642.672 116.297 642.382 115.354C642.093 114.41 641.684 113.7 641.155 113.223C640.627 112.74 640.002 112.498 639.28 112.498C638.195 112.498 637.337 113.038 636.706 114.118C636.076 115.192 635.757 116.768 635.752 118.848C635.746 120.24 635.885 121.41 636.169 122.359C636.459 123.308 636.868 124.024 637.397 124.507C637.925 124.984 638.553 125.223 639.28 125.223Z" fill="black"/>
</svg>
