<svg width="238" height="119" viewBox="0 0 238 119" fill="none" xmlns="http://www.w3.org/2000/svg">
<path d="M237.612 32.7061L237.612 86.2246C237.612 87.7218 236.386 88.9482 234.888 88.9482L221.75 88.9482L221.75 101.092C221.75 110.81 213.878 118.681 204.16 118.681L17.8396 118.681C8.12144 118.681 0.250003 110.81 0.249782 101.092L0.249786 17.8398C0.249786 8.12151 8.12131 0.250015 17.8396 0.24999L204.16 0.249999C213.878 0.249999 221.75 8.1215 221.75 17.8398L221.75 29.9824L234.888 29.9824C236.386 29.9824 237.612 31.2088 237.612 32.7061ZM206.402 29.7324C206.402 21.3883 199.63 14.6163 191.286 14.6162L30.7293 14.6162C22.3851 14.6162 15.6123 21.3883 15.6121 29.7324L15.6121 89.1982C15.6121 97.5425 22.385 104.314 30.7293 104.314L191.286 104.314C199.63 104.314 206.402 97.5425 206.402 89.1982L206.402 29.7324Z" fill="#D9D9D9" stroke="black" stroke-width="0.5"/>
<path d="M236.862 32.7061L236.862 86.2246C236.862 87.3076 235.971 88.1982 234.888 88.1982L221 88.1982L221 103.931C221 111.663 214.732 117.931 207 117.931L14.9998 117.931C7.2679 117.931 0.999781 111.663 0.999782 103.931L0.999786 15C0.999788 7.26808 7.2679 1.00011 14.9998 0.99999L207 0.999999C214.732 1.00005 221 7.26804 221 15L221 30.7324L234.888 30.7324C235.971 30.7324 236.862 31.623 236.862 32.7061Z" stroke="black" stroke-width="2"/>
<path d="M152.408 95.2471L152.408 22.2471L114.408 22.2471L114.408 95.2471L152.408 95.2471Z" fill="#7CDA8E"/>
<path d="M30.2728 22L63 22L63 95L32.0909 95C26.6364 95 23 92.3929 23 88.0476L23 28.9524C23 25.4762 26.6364 22 30.2728 22Z" fill="#7CDA8E"/>
<path d="M192.091 22.2471L161 22.2471L161 95.2471L190.364 95.2471C195.545 95.2471 199 92.6399 199 88.2947L199 29.1995C199 25.7233 195.545 22.2471 192.091 22.2471Z" fill="#B9EEC7"/>
<path d="M106.408 95.2471L106.408 22.2471L70.4077 22.2471L70.4077 95.2471L106.408 95.2471Z" fill="#7CDA8E"/>
</svg>
