<svg width="14" height="16" viewBox="0 0 14 16" fill="none" xmlns="http://www.w3.org/2000/svg">
<path d="M1.27188 12.351H11.7919C12.6398 12.351 13.0637 12.7772 13.0637 13.6297V14.625C13.0637 15.4775 12.6398 15.9038 11.7919 15.9038H1.27188C0.423999 15.9038 6.10352e-05 15.4775 6.10352e-05 14.625V13.6297C6.10352e-05 12.7772 0.423999 12.351 1.27188 12.351Z" fill="#727272"/>
<path d="M6.10352e-05 13.9066H13.0765V15.9846H6.10352e-05V13.9066Z" fill="#727272"/>
<path d="M5.505 4.76819H7.57171V15.9254H5.505V4.76819Z" fill="#727272"/>
<path d="M9.24876 2.48741C9.18093 2.89874 8.91385 2.82841 8.05113 4.05602C7.62719 4.6613 7.49153 4.95754 7.09303 5.12165C6.72063 5.24161 6.31683 5.21495 5.96323 5.04706C5.57533 4.87229 5.43119 4.6208 4.99453 4.05389C4.06822 2.85398 3.90501 2.93284 3.84354 2.61528C3.65064 1.65195 4.9373 0.00874349 6.53979 0.000218454C8.09989 -0.0210942 9.40138 1.52194 9.24876 2.48741Z" fill="#727272"/>
</svg>
