<svg width="15" height="15" viewBox="0 0 15 15" fill="none" xmlns="http://www.w3.org/2000/svg">
<path d="M14.0988 4.88086C14.1925 5.13574 14.1134 5.41992 13.9113 5.60156L12.6427 6.75586C12.6749 6.99902 12.6925 7.24805 12.6925 7.5C12.6925 7.75195 12.6749 8.00098 12.6427 8.24414L13.9113 9.39844C14.1134 9.58008 14.1925 9.86426 14.0988 10.1191C13.9699 10.4678 13.8146 10.8018 13.6359 11.124L13.4982 11.3613C13.3048 11.6836 13.088 11.9883 12.8507 12.2754C12.6779 12.4863 12.3908 12.5566 12.1329 12.4746L10.5011 11.9561C10.1085 12.2578 9.67494 12.5098 9.21204 12.7002L8.84583 14.373C8.78724 14.6396 8.58216 14.8506 8.31263 14.8945C7.90833 14.9619 7.49232 14.9971 7.06751 14.9971C6.64271 14.9971 6.22669 14.9619 5.8224 14.8945C5.55286 14.8506 5.34779 14.6396 5.28919 14.373L4.92298 12.7002C4.46009 12.5098 4.0265 12.2578 3.63392 11.9561L2.00501 12.4775C1.7472 12.5596 1.46009 12.4863 1.28724 12.2783C1.04993 11.9912 0.833137 11.6865 0.639778 11.3643L0.502083 11.127C0.323372 10.8047 0.168098 10.4707 0.0391921 10.1221C-0.0545579 9.86719 0.0245437 9.58301 0.226692 9.40137L1.49525 8.24707C1.46302 8.00098 1.44544 7.75195 1.44544 7.5C1.44544 7.24805 1.46302 6.99902 1.49525 6.75586L0.226692 5.60156C0.0245437 5.41992 -0.0545579 5.13574 0.0391921 4.88086C0.168098 4.53223 0.323372 4.19824 0.502083 3.87598L0.639778 3.63867C0.833137 3.31641 1.04993 3.01172 1.28724 2.72461C1.46009 2.51367 1.7472 2.44336 2.00501 2.52539L3.63685 3.04395C4.02943 2.74219 4.46302 2.49023 4.92591 2.2998L5.29212 0.626953C5.35072 0.360352 5.55579 0.149414 5.82533 0.105469C6.22962 0.0351562 6.64564 0 7.07044 0C7.49525 0 7.91126 0.0351563 8.31556 0.102539C8.58509 0.146484 8.79017 0.357422 8.84876 0.624023L9.21497 2.29688C9.67787 2.4873 10.1115 2.73926 10.504 3.04102L12.1359 2.52246C12.3937 2.44043 12.6808 2.51367 12.8536 2.72168C13.091 3.00879 13.3077 3.31348 13.5011 3.63574L13.6388 3.87305C13.8175 4.19531 13.9728 4.5293 14.1017 4.87793L14.0988 4.88086ZM7.07044 9.84375C7.69204 9.84375 8.28819 9.59682 8.72772 9.15728C9.16726 8.71774 9.41419 8.1216 9.41419 7.5C9.41419 6.8784 9.16726 6.28226 8.72772 5.84272C8.28819 5.40318 7.69204 5.15625 7.07044 5.15625C6.44884 5.15625 5.8527 5.40318 5.41316 5.84272C4.97362 6.28226 4.72669 6.8784 4.72669 7.5C4.72669 8.1216 4.97362 8.71774 5.41316 9.15728C5.8527 9.59682 6.44884 9.84375 7.07044 9.84375Z" fill="#727272"/>
</svg>
