<?xml version="1.0" standalone="no"?><!DOCTYPE svg PUBLIC "-//W3C//DTD SVG 1.1//EN" "http://www.w3.org/Graphics/SVG/1.1/DTD/svg11.dtd"><svg t="1772221385650" class="icon" viewBox="0 0 1024 1024" version="1.1" xmlns="http://www.w3.org/2000/svg" p-id="4851" xmlns:xlink="http://www.w3.org/1999/xlink" width="200" height="200"><path d="M437.940706 815.525647v-481.882353a37.044706 37.044706 0 1 0-74.209882 0v481.882353a37.044706 37.044706 0 1 0 74.149647 0zM363.670588 74.089412h296.598588a37.044706 37.044706 0 1 0 0-74.149647H363.730824a37.044706 37.044706 0 1 0 0 74.089411z m481.882353 185.344a37.044706 37.044706 0 0 0-37.044706 37.044706v555.971764c0 40.96-33.129412 74.209882-74.089411 74.209883H289.581176a74.089412 74.089412 0 0 1-74.149647-74.149647v-555.971765a37.044706 37.044706 0 1 0-74.089411 0v630.061176c0 40.96 33.129412 74.149647 74.089411 74.149647h593.076706c40.96 0 74.089412-33.129412 74.089412-74.089411V296.538353a37.044706 37.044706 0 0 0-36.984471-37.044706z m111.254588-148.299294H67.192471a37.044706 37.044706 0 0 0 0 74.149647h889.675294a37.044706 37.044706 0 1 0 0-74.089412zM660.329412 815.585882v-481.882353a37.044706 37.044706 0 1 0-74.149647 0v481.882353a37.044706 37.044706 0 1 0 74.089411 0z" fill="#727272" p-id="4852"></path></svg>