<svg width="29" height="29" viewBox="0 0 29 29" fill="none" xmlns="http://www.w3.org/2000/svg">
<path d="M14.5034 8.06299C14.881 8.06299 15.0698 8.25179 15.0698 8.62939V21.4557C15.0698 21.8333 14.881 22.0221 14.5034 22.0221C14.1258 22.0221 13.937 21.8333 13.937 21.4557V8.62939C13.937 8.25179 14.1258 8.06299 14.5034 8.06299Z" fill="black"/>
<path d="M4.64453 22.6337C4.98061 22.6337 5.30913 22.7333 5.58857 22.92C5.868 23.1067 6.0858 23.3721 6.21441 23.6826C6.34302 23.9931 6.37667 24.3348 6.3111 24.6644C6.24554 24.994 6.0837 25.2968 5.84606 25.5344C5.60842 25.772 5.30565 25.9339 4.97603 25.9994C4.64642 26.065 4.30476 26.0314 3.99427 25.9027C3.68378 25.7741 3.4184 25.5563 3.23168 25.2769C3.04497 24.9975 2.94531 24.6689 2.94531 24.3329C2.94584 23.8824 3.12503 23.4505 3.44358 23.1319C3.76213 22.8134 4.19403 22.6342 4.64453 22.6337ZM4.64453 21.5008C4.08441 21.5008 3.53687 21.6669 3.07114 21.9781C2.60542 22.2893 2.24243 22.7316 2.02808 23.2491C1.81373 23.7666 1.75764 24.336 1.86692 24.8854C1.97619 25.4347 2.24592 25.9394 2.64198 26.3354C3.03805 26.7315 3.54267 27.0012 4.09203 27.1105C4.64139 27.2198 5.21082 27.1637 5.7283 26.9493C6.24579 26.735 6.68809 26.372 6.99928 25.9063C7.31047 25.4405 7.47656 24.893 7.47656 24.3329C7.47656 23.5818 7.17819 22.8614 6.64708 22.3303C6.11597 21.7992 5.39563 21.5008 4.64453 21.5008ZM14.5034 22.6337C14.8395 22.6337 15.168 22.7333 15.4474 22.92C15.7269 23.1067 15.9447 23.3721 16.0733 23.6826C16.2019 23.9931 16.2355 24.3348 16.17 24.6644C16.1044 24.994 15.9426 25.2968 15.7049 25.5344C15.4673 25.772 15.1645 25.9339 14.8349 25.9994C14.5053 26.065 14.1636 26.0314 13.8531 25.9027C13.5426 25.7741 13.2773 25.5563 13.0906 25.2769C12.9038 24.9975 12.8042 24.6689 12.8042 24.3329C12.8047 23.8824 12.9839 23.4505 13.3025 23.1319C13.621 22.8134 14.0529 22.6342 14.5034 22.6337ZM14.5034 21.5008C13.9433 21.5008 13.3957 21.6669 12.93 21.9781C12.4643 22.2893 12.1013 22.7316 11.8869 23.2491C11.6726 23.7666 11.6165 24.336 11.7258 24.8854C11.8351 25.4347 12.1048 25.9394 12.5009 26.3354C12.8969 26.7315 13.4015 27.0012 13.9509 27.1105C14.5003 27.2198 15.0697 27.1637 15.5872 26.9493C16.1047 26.735 16.547 26.372 16.8581 25.9063C17.1693 25.4405 17.3354 24.893 17.3354 24.3329C17.3354 23.5818 17.0371 22.8614 16.5059 22.3303C15.9748 21.7992 15.2545 21.5008 14.5034 21.5008ZM24.3555 22.6337C24.6915 22.6337 25.0201 22.7333 25.2995 22.92C25.5789 23.1067 25.7967 23.3721 25.9253 23.6826C26.054 23.9931 26.0876 24.3348 26.022 24.6644C25.9565 24.994 25.7946 25.2968 25.557 25.5344C25.3194 25.772 25.0166 25.9339 24.687 25.9994C24.3574 26.065 24.0157 26.0314 23.7052 25.9027C23.3947 25.7741 23.1293 25.5563 22.9426 25.2769C22.7559 24.9975 22.6563 24.6689 22.6563 24.3329C22.6568 23.8824 22.836 23.4505 23.1545 23.1319C23.4731 22.8134 23.905 22.6342 24.3555 22.6337ZM24.3555 21.5008C23.7953 21.5008 23.2478 21.6669 22.7821 21.9781C22.3164 22.2893 21.9534 22.7316 21.739 23.2491C21.5247 23.7666 21.4686 24.336 21.5779 24.8854C21.6871 25.4347 21.9569 25.9394 22.3529 26.3354C22.749 26.7315 23.2536 27.0012 23.803 27.1105C24.3523 27.2198 24.9218 27.1637 25.4392 26.9493C25.9567 26.735 26.399 26.372 26.7102 25.9063C27.0214 25.4405 27.1875 24.893 27.1875 24.3329C27.1875 23.5818 26.8891 22.8614 26.358 22.3303C25.8269 21.7992 25.1066 21.5008 24.3555 21.5008ZM18.3266 4.44238C18.4763 4.44429 18.6192 4.50458 18.725 4.61039C18.8309 4.7162 18.8911 4.85916 18.893 5.00879V7.38769C18.8911 7.53732 18.8309 7.68028 18.725 7.7861C18.6192 7.89191 18.4763 7.95219 18.3266 7.9541H10.6802C10.5306 7.95212 10.3876 7.89181 10.2818 7.78602C10.176 7.68022 10.1157 7.5373 10.1138 7.38769V5.00879C10.1157 4.85918 10.176 4.71626 10.2818 4.61047C10.3876 4.50467 10.5306 4.44436 10.6802 4.44238H18.3266ZM18.3266 3.30957H10.6802C10.2299 3.31092 9.79849 3.49037 9.48011 3.80875C9.16174 4.12712 8.98228 4.55854 8.98094 5.00879V7.38769C8.98228 7.83794 9.16174 8.26936 9.48011 8.58774C9.79849 8.90611 10.2299 9.08557 10.6802 9.08691H18.3266C18.7769 9.08557 19.2083 8.90611 19.5267 8.58774C19.8451 8.26936 20.0245 7.83794 20.0259 7.38769V5.00879C20.0245 4.55854 19.8451 4.12712 19.5267 3.80875C19.2083 3.49037 18.7769 3.31092 18.3266 3.30957Z" fill="black"/>
<path d="M24.6624 22.0221C24.5122 22.0221 24.3682 21.9625 24.2619 21.8562C24.1557 21.75 24.096 21.606 24.096 21.4557C24.096 15.7778 19.2782 13.2363 14.5037 13.2363C9.72915 13.2363 4.91101 15.7778 4.91101 21.4557C4.91101 21.606 4.85134 21.75 4.74511 21.8562C4.63889 21.9625 4.49482 22.0221 4.3446 22.0221C4.19438 22.0221 4.05032 21.9625 3.94409 21.8562C3.83787 21.75 3.7782 21.606 3.7782 21.4557C3.7782 18.6124 4.87929 16.2136 6.96282 14.5195C7.92911 13.7333 9.07835 13.1259 10.378 12.7138C11.6552 12.3088 13.0432 12.1035 14.5037 12.1035C15.9641 12.1035 17.3518 12.3088 18.6291 12.7138C19.9287 13.1259 21.0777 13.7333 22.0442 14.5195C24.1289 16.2136 25.2289 18.6124 25.2289 21.4557C25.2289 21.606 25.1692 21.75 25.063 21.8562C24.9567 21.9625 24.8127 22.0221 24.6624 22.0221Z" fill="black"/>
</svg>
