<svg width="27" height="26" viewBox="0 0 27 26" fill="none" xmlns="http://www.w3.org/2000/svg">
<path d="M24.4688 12.1875C24.9328 12.1875 25.3125 12.5531 25.3125 13C25.3125 13.4469 24.9328 13.8125 24.4688 13.8125H23.2031V16.6562H24.4688C24.9328 16.6562 25.3125 17.0219 25.3125 17.4688C25.3125 17.9156 24.9328 18.2812 24.4688 18.2812H23.2031V20.7188C23.2031 21.6125 22.4438 22.3438 21.5156 22.3438H18.9844V23.5625C18.9844 24.0094 18.6047 24.375 18.1406 24.375C17.6766 24.375 17.2969 24.0094 17.2969 23.5625V22.3438H14.3438V23.5625C14.3438 24.0094 13.9641 24.375 13.5 24.375C13.0359 24.375 12.6562 24.0094 12.6562 23.5625V22.3438H9.70312V23.5625C9.70312 24.0094 9.32344 24.375 8.85938 24.375C8.39531 24.375 8.01562 24.0094 8.01562 23.5625V22.3438H5.48438C4.55625 22.3438 3.79688 21.6125 3.79688 20.7188V18.2812H2.53125C2.06719 18.2812 1.6875 17.9156 1.6875 17.4688C1.6875 17.0219 2.06719 16.6562 2.53125 16.6562H3.79688V13.8125H2.53125C2.06719 13.8125 1.6875 13.4469 1.6875 13C1.6875 12.5531 2.06719 12.1875 2.53125 12.1875H3.79688V9.34375H2.53125C2.06719 9.34375 1.6875 8.97813 1.6875 8.53125C1.6875 8.08437 2.06719 7.71875 2.53125 7.71875H3.79688V5.28125C3.79688 4.3875 4.55625 3.65625 5.48438 3.65625H8.01562V2.4375C8.01562 1.99062 8.39531 1.625 8.85938 1.625C9.32344 1.625 9.70312 1.99062 9.70312 2.4375V3.65625H12.6562V2.4375C12.6562 1.99062 13.0359 1.625 13.5 1.625C13.9641 1.625 14.3438 1.99062 14.3438 2.4375V3.65625H17.2969V2.4375C17.2969 1.99062 17.6766 1.625 18.1406 1.625C18.6047 1.625 18.9844 1.99062 18.9844 2.4375V3.65625H21.5156C22.4438 3.65625 23.2031 4.3875 23.2031 5.28125V7.71875H24.4688C24.9328 7.71875 25.3125 8.08437 25.3125 8.53125C25.3125 8.97813 24.9328 9.34375 24.4688 9.34375H23.2031V12.1875H24.4688ZM21.5156 5.6875C21.5156 5.44375 21.3469 5.28125 21.0938 5.28125H5.90625C5.65313 5.28125 5.48438 5.44375 5.48438 5.6875V20.3125C5.48438 20.5562 5.65313 20.7188 5.90625 20.7188H21.0938C21.3469 20.7188 21.5156 20.5562 21.5156 20.3125V5.6875ZM17.2969 18.2812H9.70312C8.775 18.2812 8.01562 17.55 8.01562 16.6562V9.34375C8.01562 8.45 8.775 7.71875 9.70312 7.71875H17.2969C18.225 7.71875 18.9844 8.45 18.9844 9.34375V16.6562C18.9844 17.55 18.225 18.2812 17.2969 18.2812ZM17.2969 9.75C17.2969 9.50625 17.1281 9.34375 16.875 9.34375H10.125C9.87187 9.34375 9.70312 9.50625 9.70312 9.75V16.25C9.70312 16.4937 9.87187 16.6562 10.125 16.6562H16.875C17.1281 16.6562 17.2969 16.4937 17.2969 16.25V9.75Z" fill="#727272"/>
</svg>
