<svg width="26" height="26" viewBox="0 0 26 26" fill="none" xmlns="http://www.w3.org/2000/svg">
<path d="M5.96378 9.09886C5.76881 9.84013 5.77228 10.6196 5.97384 11.3592C6.17541 12.0987 6.56797 12.7721 7.11211 13.3119C8.79778 14.9976 11.5559 14.9976 13.2405 13.3119C14.9251 11.6263 14.9262 8.86919 13.2405 7.18352C12.7007 6.63938 12.0272 6.24682 11.2877 6.04525C10.5482 5.84369 9.76872 5.84022 9.02744 6.03519L10.9428 7.94944C11.4021 8.40877 11.4021 9.02194 10.9428 9.48127L9.41094 11.0142C8.95053 11.4735 8.33845 11.4735 7.87803 11.0142L5.96378 9.09886Z" fill="#E2E4EA"/>
<path d="M20.4415 23.27C19.6756 23.27 19.0624 22.9635 18.5262 22.4272L13.1637 17.0647C10.3297 18.368 6.95942 17.7548 4.7375 15.5329C2.43975 13.2362 1.9035 9.78795 3.28258 6.87704C3.35842 6.64737 3.74192 6.4177 4.0485 6.4177C4.43092 6.34187 4.7375 6.49354 4.96717 6.72429L8.56925 10.3242L10.1011 8.79237L6.50008 5.19245C6.27042 4.9617 6.1935 4.57929 6.1935 4.2727C6.26933 3.8892 6.50008 3.50679 6.8825 3.42987C9.79342 2.05079 13.2417 2.58704 15.5383 4.88587C17.7603 7.1067 18.3734 10.478 17.0713 13.312L22.4338 18.6745C23.5063 19.747 23.5063 21.4316 22.4338 22.5041C21.8964 23.0404 21.2074 23.27 20.4415 23.27ZM13.4703 14.767C13.6999 14.6911 14.0065 14.8439 14.2362 15.0735L20.1349 20.9723C20.2888 21.125 20.4415 21.125 20.5184 21.202C20.6712 21.202 20.7481 21.1261 20.9008 20.9723C20.9778 20.8965 21.0547 20.6657 21.1305 20.5888C21.1305 20.436 21.0547 20.3591 20.9008 20.2064L15.0032 14.3076C14.6197 13.9252 14.5428 13.389 14.8493 12.9285C15.9977 10.8605 15.6922 8.10337 14.0065 6.4177C13.4087 5.82792 12.6835 5.38313 11.8868 5.11757C11.0901 4.852 10.2431 4.77274 9.411 4.88587L12.4747 7.94954C12.7043 8.1792 12.7813 8.40887 12.7813 8.71545C12.7813 9.02204 12.6274 9.32862 12.4747 9.48137L9.411 12.5461C8.95058 13.0055 8.3385 13.0055 7.87808 12.5461L4.81442 9.48137C4.70111 10.3137 4.78029 11.1609 5.04586 11.9578C5.31143 12.7547 5.75631 13.48 6.34625 14.078C8.10883 15.8395 10.789 16.223 12.8571 14.9208C13.0109 14.767 13.1637 14.767 13.4703 14.767Z" fill="#727272"/>
</svg>
