<svg width="36" height="36" viewBox="0 0 36 36" fill="none" xmlns="http://www.w3.org/2000/svg">
<path d="M3.375 26.0911C3.37905 25.1511 3.71579 24.243 4.32553 23.5277C4.93526 22.8123 5.77859 22.336 6.70602 22.1832C7.63344 22.0303 8.58503 22.2108 9.39208 22.6926C10.1991 23.1744 10.8095 23.9264 11.115 24.8153H21.2063L16.713 11.0948H13.3088C13.0895 11.797 12.6798 12.4246 12.1252 12.908C11.5706 13.3913 10.8929 13.7114 10.1673 13.8326C9.44177 13.9539 8.69679 13.8716 8.01519 13.5949C7.33359 13.3182 6.74207 12.8579 6.30637 12.2651C5.87067 11.6724 5.60786 10.9705 5.54715 10.2374C5.48644 9.50423 5.63021 8.76863 5.96247 8.11231C6.29473 7.45599 6.80248 6.90466 7.42928 6.51958C8.05607 6.13451 8.77737 5.93079 9.513 5.93105C10.3282 5.93275 11.1233 6.18429 11.7911 6.65176C12.4589 7.11924 12.9674 7.78019 13.248 8.54555H17.2665C17.6458 8.54449 18.0156 8.6637 18.3229 8.88605C18.6301 9.10841 18.859 9.42245 18.9765 9.78305L23.8995 24.8131H24.8895C25.1974 23.927 25.8085 23.1782 26.615 22.699C27.4214 22.2199 28.3712 22.0411 29.2966 22.1942C30.2221 22.3474 31.0636 22.8227 31.6726 23.5361C32.2817 24.2496 32.619 25.1553 32.625 26.0933C32.6215 27.0334 32.2851 27.9419 31.6756 28.6576C31.066 29.3734 30.2226 29.8501 29.2951 30.0032C28.3675 30.1564 27.4157 29.9761 26.6084 29.4943C25.8011 29.0125 25.1906 28.2604 24.885 27.3713H11.115C10.8094 28.2604 10.1989 29.0125 9.39159 29.4943C8.58431 29.9761 7.63248 30.1564 6.70491 30.0032C5.77735 29.8501 4.934 29.3734 4.32445 28.6576C3.71489 27.9419 3.37852 27.0334 3.375 26.0933V26.0911ZM27.018 26.0911C27.0181 26.53 27.1875 26.9521 27.491 27.2693C27.7944 27.5866 28.2085 27.7746 28.647 27.7943C29.0987 27.7943 29.532 27.6149 29.8514 27.2954C30.1708 26.976 30.3503 26.5428 30.3503 26.0911C30.3503 25.6393 30.1708 25.2061 29.8514 24.8867C29.532 24.5673 29.0987 24.3878 28.647 24.3878C28.2085 24.4075 27.7944 24.5955 27.491 24.9128C27.1875 25.23 27.0181 25.6521 27.018 26.0911ZM7.812 9.9068C7.812 10.3585 7.99145 10.7918 8.31087 11.1112C8.63029 11.4306 9.06352 11.6101 9.51525 11.6101C9.96698 11.6101 10.4002 11.4306 10.7196 11.1112C11.039 10.7918 11.2185 10.3585 11.2185 9.9068C11.2185 9.45507 11.039 9.02184 10.7196 8.70242C10.4002 8.383 9.96698 8.20355 9.51525 8.20355C9.06352 8.20355 8.63029 8.383 8.31087 8.70242C7.99145 9.02184 7.812 9.45507 7.812 9.9068ZM5.72175 26.0911C5.72189 26.53 5.89129 26.9521 6.19471 27.2693C6.49813 27.5866 6.9122 27.7746 7.35075 27.7943C7.80248 27.7943 8.23571 27.6149 8.55513 27.2954C8.87455 26.976 9.054 26.5428 9.054 26.0911C9.054 25.6393 8.87455 25.2061 8.55513 24.8867C8.23571 24.5673 7.80248 24.3878 7.35075 24.3878C6.9122 24.4075 6.49813 24.5955 6.19471 24.9128C5.89129 25.23 5.72189 25.6521 5.72175 26.0911Z" fill="black"/>
</svg>
