<svg width="12" height="17" viewBox="0 0 12 17" fill="none" xmlns="http://www.w3.org/2000/svg">
<path d="M7.1457 0.330116L7.08196 0.404173C6.75963 0.774458 6.78513 1.32898 7.1366 1.67579C8.81382 3.33756 9.85183 5.63513 9.85183 8.17114C9.85183 10.6656 8.84295 12.9307 7.20944 14.5888C6.87072 14.9356 6.8434 15.4775 7.16027 15.8478C7.51902 16.2723 8.17279 16.2975 8.56433 15.9038C10.5657 13.897 11.8004 11.1406 11.8004 8.1025C11.8004 5.05351 10.5584 2.29353 8.54429 0.27954C8.15458 -0.114227 7.50628 -0.087133 7.1457 0.330116Z" fill="#727272"/>
<path d="M5.46143 3.58145C5.13181 3.1371 4.47987 3.08291 4.07741 3.47126L4.05555 3.48571C3.72047 3.80542 3.67859 4.31299 3.95539 4.68146C4.6984 5.67491 5.13363 6.89776 5.13363 8.22537C5.13363 9.45544 4.75667 10.5952 4.11565 11.5453C3.85523 11.9264 3.93172 12.443 4.28501 12.741C4.70568 13.0897 5.33942 13.0066 5.64718 12.5586C6.49581 11.3141 6.9875 9.81308 6.9875 8.20189C6.99296 6.47328 6.42478 4.88015 5.46143 3.58145ZM0 8.12602C0 9.25675 0.659232 10.1761 1.46779 10.1761C2.28 10.1761 2.93559 9.26036 2.93559 8.12602C2.93559 6.9953 2.27635 6.07591 1.46779 6.07591C0.659232 6.07591 0 6.99169 0 8.12602Z" fill="#727272"/>
</svg>
