<svg width="193" height="140" viewBox="0 0 193 140" fill="none" xmlns="http://www.w3.org/2000/svg">
<path d="M78.1636 136V125.818H81.6039C82.3994 125.818 83.0523 125.954 83.5627 126.226C84.0731 126.494 84.451 126.864 84.6962 127.335C84.9415 127.805 85.0641 128.34 85.0641 128.94C85.0641 129.54 84.9415 130.072 84.6962 130.536C84.451 131 84.0748 131.365 83.5677 131.63C83.0606 131.892 82.4126 132.023 81.6238 132.023H78.8397V130.909H81.584C82.1276 130.909 82.5651 130.83 82.8965 130.67C83.2313 130.511 83.4732 130.286 83.6224 129.994C83.7748 129.699 83.8511 129.348 83.8511 128.94C83.8511 128.533 83.7748 128.176 83.6224 127.871C83.4699 127.567 83.2263 127.331 82.8915 127.165C82.5568 126.996 82.1143 126.912 81.5641 126.912H79.3965V136H78.1636ZM82.9562 131.426L85.4619 136H84.03L81.5641 131.426H82.9562ZM87.1186 136V125.818H90.559C91.3577 125.818 92.0107 125.962 92.5178 126.251C93.0282 126.536 93.406 126.922 93.6513 127.409C93.8966 127.896 94.0192 128.44 94.0192 129.04C94.0192 129.64 93.8966 130.185 93.6513 130.675C93.4094 131.166 93.0348 131.557 92.5277 131.849C92.0206 132.137 91.371 132.281 90.5789 132.281H88.113V131.188H90.5391C91.086 131.188 91.5251 131.093 91.8566 130.904C92.188 130.715 92.4283 130.46 92.5774 130.138C92.7299 129.814 92.8061 129.447 92.8061 129.04C92.8061 128.632 92.7299 128.268 92.5774 127.946C92.4283 127.625 92.1863 127.373 91.8516 127.19C91.5168 127.005 91.0727 126.912 90.5192 126.912H88.3516V136H87.1186ZM96.0054 125.818H97.4769L100.937 134.27H101.056L104.517 125.818H105.988V136H104.835V128.264H104.735L101.554 136H100.44L97.2582 128.264H97.1588V136H96.0054V125.818Z" fill="black"/>
<path d="M137.894 120.42L135.762 118.288C146.311 107.396 152.883 92.6291 153.143 76.328H156.156C155.896 93.4587 148.985 108.976 137.894 120.42ZM134.344 30.9381L136.476 28.8061C125.037 17.7147 109.514 10.804 92.3835 10.5444V13.5571C108.685 13.8167 123.447 20.389 134.344 30.9381ZM156.156 74.3211C155.896 57.1904 148.985 41.668 137.894 30.229L135.762 32.361C146.311 43.2531 152.883 58.02 153.143 74.3211H156.156Z" fill="#ABADB0"/>
<path d="M44.8617 120.42C33.7703 108.981 26.8597 93.4588 26.6001 76.3281H29.6128C29.8724 92.6292 36.4447 107.391 46.9938 118.288L44.8617 120.42Z" fill="#ABADB0"/>
<path d="M46.9938 32.361L44.8617 30.229C33.7703 41.668 26.8597 57.1904 26.6001 74.3211H29.6128C29.8724 58.02 36.4447 43.2578 46.9938 32.361ZM90.3721 10.5444C73.2414 10.804 57.719 17.7147 46.28 28.8061L48.4121 30.9381C59.3042 20.389 74.0711 13.8167 90.3721 13.5571V10.5444Z" fill="#ABADB0"/>
<path d="M166.705 74.3212C166.441 54.2751 158.353 36.1201 145.352 22.7715L137.894 30.2291C148.985 41.6681 155.896 57.1905 156.156 74.3212H166.705Z" fill="#C8CCD0"/>
<path d="M136.471 28.8107L143.929 21.3531C130.58 8.35215 112.425 0.264191 92.379 0V10.5491C109.51 10.8086 125.027 17.7193 136.471 28.8107Z" fill="#C8CCD0"/>
<path d="M145.352 127.878L137.894 120.42C148.985 108.981 155.896 93.4635 156.156 76.3281H166.705C166.441 96.3696 158.353 114.529 145.352 127.878Z" fill="#C8CCD0"/>
<path d="M37.404 127.878C24.4031 114.529 16.3151 96.3742 16.0509 76.3281H26.6C26.8596 93.4588 33.7703 108.977 44.8616 120.42L37.404 127.878Z" fill="#C8CCD0"/>
<path d="M90.3722 0C70.3261 0.264191 52.1711 8.35215 38.8225 21.3531L46.2801 28.8107C57.7191 17.7193 73.2415 10.8086 90.3722 10.5491V0Z" fill="#C8CCD0"/>
<path d="M44.8616 30.2291L37.404 22.7715C24.4031 36.1201 16.3151 54.2751 16.0509 74.3212H26.6C26.8596 57.1905 33.7703 41.6727 44.8616 30.2291Z" fill="#C8CCD0"/>
<path d="M38.784 21.3915L37.437 22.7385L44.9127 30.2143L46.2597 28.8673L38.784 21.3915Z" fill="white"/>
<path d="M26.5723 74.3167H16V76.2216H26.5723V74.3167Z" fill="white"/>
<path d="M143.939 21.3609L136.486 28.8137L137.885 30.2132L145.338 22.7604L143.939 21.3609Z" fill="white"/>
<path fill-rule="evenodd" clip-rule="evenodd" d="M65.3791 44.3362C48.3096 58.5319 45.9796 83.8801 60.1748 100.954C74.3705 118.024 99.7187 120.354 116.793 106.159C133.867 91.9633 136.192 66.6147 121.997 49.5405C116.917 43.4324 110.417 39.2137 103.372 36.9603L98.0695 11.5017C97.8657 10.5288 96.5318 10.4062 96.1541 11.3256L86.3292 35.3193C78.8758 36.1981 71.583 39.1768 65.3791 44.3362Z" fill="#53575A"/>
<mask id="mask0_835_4067" style="mask-type:luminance" maskUnits="userSpaceOnUse" x="50" y="10" width="82" height="106">
<path d="M65.3791 44.3361C48.3096 58.5318 45.9796 83.88 60.1748 100.954C74.3705 118.024 99.7187 120.354 116.793 106.158C133.862 91.9628 136.192 66.6146 121.997 49.5404C116.917 43.4323 110.417 39.2136 103.372 36.9603L98.0695 11.5016C97.8657 10.5287 96.5319 10.4061 96.1541 11.3255L86.3293 35.3192C78.8758 36.198 71.583 39.1767 65.3791 44.3361Z" fill="white"/>
</mask>
<g mask="url(#mask0_835_4067)">
<path d="M65.9747 45.047C72.0324 40.0092 79.1606 37.0991 86.4399 36.2415L86.2227 34.4016C78.595 35.3017 71.1331 38.3486 64.7881 43.6254L65.9742 45.0516L65.9747 45.047ZM95.2971 10.9767L85.4722 34.9703L87.1857 35.6724L97.0105 11.6787L95.2971 10.9767ZM98.9756 11.3148C98.5885 9.45001 96.0177 9.2137 95.2971 10.9767L97.0105 11.6787C97.0105 11.6787 97.0274 11.6477 97.0278 11.6431C97.0278 11.6431 97.0328 11.6389 97.0379 11.6347C97.0425 11.6351 97.0622 11.623 97.0899 11.6255C97.1176 11.6281 97.1352 11.639 97.1394 11.644C97.1394 11.644 97.144 11.6445 97.1478 11.6541C97.1478 11.6541 97.1558 11.6688 97.1582 11.6923L98.971 11.3144L98.9756 11.3148ZM104.278 36.7734L98.9756 11.3148L97.1629 11.6927L102.465 37.1514L104.278 36.7734ZM103.091 37.8419C109.968 40.0426 116.324 44.1642 121.286 50.1313L122.713 48.9451C117.52 42.7009 110.861 38.3792 103.658 36.0741L103.095 37.8423L103.091 37.8419ZM121.282 50.1308C135.151 66.8073 132.874 91.5739 116.198 105.443L117.384 106.869C134.846 92.3463 137.23 66.412 122.708 48.9493L121.281 50.1355L121.282 50.1308ZM116.198 105.443C99.5211 119.311 74.7545 117.035 60.8858 100.358L59.4595 101.545C73.9821 119.007 99.9165 121.391 117.379 106.868L116.193 105.442L116.198 105.443ZM60.8904 100.359C47.0217 83.6824 49.2982 58.9158 65.9747 45.047L64.7885 43.6208C47.3259 58.1433 44.942 84.0777 59.4646 101.54L60.8908 100.354L60.8904 100.359ZM86.3292 35.319L86.4399 36.2415L86.9808 36.1795L87.1857 35.6724L86.3292 35.319ZM103.372 36.9601L102.465 37.1514L102.575 37.6827L103.09 37.8465L103.372 36.9647L103.372 36.9601Z" fill="black"/>
</g>
<path d="M56.5555 72.0711C54.8027 91.1405 68.8406 108.02 87.91 109.773C106.98 111.526 123.859 97.4882 125.612 78.4187C127.365 59.3492 113.327 42.4694 94.2577 40.7165C75.1882 38.9637 58.3084 53.0016 56.5555 72.0711Z" fill="#E6E9EC"/>
<mask id="mask1_835_4067" style="mask-type:luminance" maskUnits="userSpaceOnUse" x="56" y="40" width="70" height="70">
<path d="M78.0041 107.394C95.7467 114.599 115.971 106.057 123.176 88.3141C130.381 70.5714 121.839 50.3471 104.096 43.1419C86.3538 35.9367 66.1295 44.479 58.9243 62.2217C51.7191 79.9643 60.2614 100.189 78.0041 107.394Z" fill="white"/>
</mask>
<g mask="url(#mask1_835_4067)">
<path d="M112.665 101.19C98.337 113.105 77.0551 111.149 65.1395 96.8212L63.7132 98.0073C76.2869 113.126 98.7319 115.19 113.851 102.616L112.665 101.19ZM117.033 53.6642C128.949 67.9922 126.993 89.2741 112.665 101.19L113.851 102.616C128.97 90.0423 131.033 67.5973 118.46 52.4781L117.033 53.6642ZM69.5034 49.2953C83.8313 37.3796 105.113 39.3359 117.029 53.6638L118.455 52.4777C105.881 37.3585 83.4364 35.2954 68.3172 47.869L69.5034 49.2953ZM65.1348 96.8208C53.2192 82.4928 55.1754 61.2109 69.5034 49.2953L68.3172 47.869C53.1981 60.4427 51.1349 82.8877 63.7086 98.0069L65.1348 96.8208Z" fill="#53575A"/>
</g>
<path d="M69.8919 85V82.7159L75.9516 76.7756C76.5311 76.1903 77.0141 75.6705 77.4004 75.2159C77.7868 74.7614 78.0766 74.321 78.2697 73.8949C78.4629 73.4687 78.5595 73.0142 78.5595 72.5312C78.5595 71.9801 78.4345 71.5085 78.1845 71.1165C77.9345 70.7188 77.5908 70.4119 77.1533 70.196C76.7158 69.9801 76.2186 69.8722 75.6618 69.8722C75.0879 69.8722 74.5851 69.9915 74.1533 70.2301C73.7214 70.4631 73.3862 70.7955 73.1476 71.2273C72.9146 71.6591 72.7981 72.1733 72.7981 72.7699H69.7896C69.7896 71.6619 70.0425 70.6989 70.5481 69.8807C71.0538 69.0625 71.7499 68.429 72.6362 67.9801C73.5283 67.5312 74.551 67.3068 75.7044 67.3068C76.8749 67.3068 77.9033 67.5256 78.7896 67.9631C79.676 68.4006 80.3635 69 80.8521 69.7614C81.3464 70.5227 81.5936 71.392 81.5936 72.3693C81.5936 73.0227 81.4686 73.6648 81.2186 74.2955C80.9686 74.9261 80.5283 75.625 79.8976 76.392C79.2726 77.1591 78.3947 78.0881 77.2641 79.179L74.2555 82.2386V82.358H81.8578V85H69.8919ZM91.1902 85.2386C90.355 85.233 89.5396 85.0881 88.7442 84.804C87.9487 84.5142 87.2328 84.0455 86.5964 83.3977C85.9601 82.7443 85.4544 81.8778 85.0794 80.7983C84.7044 79.7131 84.5197 78.3693 84.5254 76.767C84.5254 75.2727 84.6845 73.9403 85.0027 72.7699C85.3209 71.5994 85.7783 70.6108 86.3749 69.804C86.9714 68.9915 87.6902 68.3722 88.5311 67.946C89.3777 67.5199 90.3237 67.3068 91.3692 67.3068C92.4658 67.3068 93.4374 67.5227 94.2839 67.9545C95.1362 68.3864 95.8237 68.9773 96.3464 69.7273C96.8692 70.4716 97.193 71.3125 97.318 72.25H94.2072C94.0481 71.5795 93.7214 71.0455 93.2271 70.6477C92.7385 70.2443 92.1192 70.0426 91.3692 70.0426C90.1589 70.0426 89.2271 70.5682 88.5737 71.6193C87.926 72.6705 87.5993 74.1136 87.5936 75.9489H87.7129C87.9913 75.4489 88.3521 75.0199 88.7953 74.6619C89.2385 74.304 89.7385 74.0284 90.2953 73.8352C90.8578 73.6364 91.4516 73.5369 92.0766 73.5369C93.0993 73.5369 94.0169 73.7812 94.8294 74.2699C95.6476 74.7585 96.2953 75.4318 96.7726 76.2898C97.2499 77.142 97.4856 78.1193 97.48 79.2216C97.4856 80.3693 97.2243 81.4006 96.6959 82.3153C96.1675 83.2244 95.4317 83.9403 94.4885 84.4631C93.5453 84.9858 92.4459 85.2443 91.1902 85.2386ZM91.1731 82.6818C91.7925 82.6818 92.3464 82.5312 92.8351 82.2301C93.3237 81.929 93.7101 81.5227 93.9942 81.0114C94.2783 80.5 94.4175 79.9261 94.4118 79.2898C94.4175 78.6648 94.2811 78.0994 94.0027 77.5938C93.73 77.0881 93.3521 76.6875 92.8692 76.392C92.3862 76.0966 91.8351 75.9489 91.2158 75.9489C90.7555 75.9489 90.3266 76.0369 89.9288 76.2131C89.5311 76.3892 89.1845 76.6335 88.8891 76.946C88.5936 77.2528 88.3606 77.6108 88.1902 78.0199C88.0254 78.4233 87.9402 78.8551 87.9345 79.3153C87.9402 79.9233 88.0822 80.483 88.3606 80.9943C88.6391 81.5057 89.0226 81.9148 89.5112 82.2216C89.9999 82.5284 90.5538 82.6818 91.1731 82.6818ZM106.812 85.3324C105.409 85.3324 104.204 84.9773 103.199 84.267C102.199 83.5511 101.429 82.5199 100.889 81.1733C100.355 79.821 100.088 78.1932 100.088 76.2898C100.094 74.3864 100.363 72.767 100.898 71.4318C101.437 70.0909 102.207 69.0682 103.207 68.3636C104.213 67.6591 105.415 67.3068 106.812 67.3068C108.21 67.3068 109.412 67.6591 110.417 68.3636C111.423 69.0682 112.193 70.0909 112.727 71.4318C113.267 72.7727 113.537 74.392 113.537 76.2898C113.537 78.1989 113.267 79.8295 112.727 81.1818C112.193 82.5284 111.423 83.5568 110.417 84.267C109.417 84.9773 108.216 85.3324 106.812 85.3324ZM106.812 82.6648C107.903 82.6648 108.764 82.1278 109.395 81.054C110.031 79.9744 110.349 78.3864 110.349 76.2898C110.349 74.9034 110.204 73.7386 109.915 72.7955C109.625 71.8523 109.216 71.142 108.687 70.6648C108.159 70.1818 107.534 69.9403 106.812 69.9403C105.727 69.9403 104.869 70.4801 104.238 71.5597C103.608 72.6335 103.29 74.2102 103.284 76.2898C103.278 77.6818 103.417 78.8523 103.702 79.8011C103.991 80.75 104.4 81.4659 104.929 81.9489C105.457 82.4261 106.085 82.6648 106.812 82.6648Z" fill="black"/>
<path d="M13.0036 134.199C11.9808 134.199 11.1072 133.905 10.3828 133.318C9.66312 132.726 9.10914 131.872 8.72088 130.754C8.33736 129.637 8.1456 128.295 8.1456 126.727C8.1456 125.165 8.33736 123.827 8.72088 122.714C9.10914 121.597 9.66548 120.742 10.3899 120.151C11.1191 119.554 11.9903 119.256 13.0036 119.256C14.0168 119.256 14.8857 119.554 15.6101 120.151C16.3393 120.742 16.8956 121.597 17.2791 122.714C17.6674 123.827 17.8615 125.165 17.8615 126.727C17.8615 128.295 17.6674 129.637 17.2791 130.754C16.8956 131.872 16.3416 132.726 15.6172 133.318C14.8975 133.905 14.0263 134.199 13.0036 134.199ZM13.0036 133.006C14.1257 133.006 15.0017 132.459 15.6314 131.365C16.2611 130.267 16.576 128.721 16.576 126.727C16.576 125.402 16.4316 124.27 16.1428 123.332C15.8587 122.39 15.4491 121.67 14.9141 121.173C14.3838 120.676 13.7469 120.428 13.0036 120.428C11.8909 120.428 11.0173 120.982 10.3828 122.089C9.74834 123.193 9.43111 124.739 9.43111 126.727C9.43111 128.053 9.57315 129.185 9.85724 130.122C10.1461 131.06 10.5556 131.775 11.0859 132.267C11.621 132.759 12.2602 133.006 13.0036 133.006Z" fill="black"/>
<path d="M160.874 134.199C160.064 134.199 159.339 134.036 158.7 133.709C158.066 133.377 157.559 132.923 157.18 132.345C156.806 131.768 156.607 131.107 156.584 130.364H157.869C157.912 131.135 158.215 131.77 158.778 132.267C159.342 132.759 160.04 133.006 160.874 133.006C161.522 133.006 162.1 132.852 162.607 132.544C163.113 132.232 163.509 131.805 163.793 131.266C164.081 130.721 164.226 130.108 164.226 129.426C164.221 128.716 164.067 128.091 163.764 127.551C163.461 127.007 163.049 126.58 162.528 126.273C162.012 125.965 161.432 125.811 160.788 125.811C160.301 125.806 159.822 125.887 159.354 126.053C158.885 126.218 158.494 126.431 158.182 126.692L156.854 126.521L157.727 119.455H164.915V120.648H158.842L158.26 125.513H158.331C158.653 125.243 159.044 125.023 159.503 124.852C159.967 124.682 160.457 124.597 160.973 124.597C161.83 124.597 162.599 124.803 163.281 125.214C163.968 125.626 164.51 126.195 164.908 126.919C165.31 127.639 165.511 128.467 165.511 129.405C165.511 130.323 165.31 131.145 164.908 131.869C164.51 132.589 163.961 133.157 163.26 133.574C162.564 133.991 161.768 134.199 160.874 134.199ZM173.05 134.199C172.028 134.199 171.154 133.905 170.43 133.318C169.71 132.726 169.156 131.872 168.768 130.754C168.384 129.637 168.192 128.295 168.192 126.727C168.192 125.165 168.384 123.827 168.768 122.714C169.156 121.597 169.712 120.742 170.437 120.151C171.166 119.554 172.037 119.256 173.05 119.256C174.064 119.256 174.933 119.554 175.657 120.151C176.386 120.742 176.942 121.597 177.326 122.714C177.714 123.827 177.908 125.165 177.908 126.727C177.908 128.295 177.714 129.637 177.326 130.754C176.942 131.872 176.388 132.726 175.664 133.318C174.944 133.905 174.073 134.199 173.05 134.199ZM173.05 133.006C174.173 133.006 175.049 132.459 175.678 131.365C176.308 130.267 176.623 128.721 176.623 126.727C176.623 125.402 176.478 124.27 176.19 123.332C175.906 122.39 175.496 121.67 174.961 121.173C174.431 120.676 173.794 120.428 173.05 120.428C171.938 120.428 171.064 120.982 170.43 122.089C169.795 123.193 169.478 124.739 169.478 126.727C169.478 128.053 169.62 129.185 169.904 130.122C170.193 131.06 170.603 131.775 171.133 132.267C171.668 132.759 172.307 133.006 173.05 133.006ZM185.316 134.199C184.293 134.199 183.42 133.905 182.695 133.318C181.976 132.726 181.422 131.872 181.033 130.754C180.65 129.637 180.458 128.295 180.458 126.727C180.458 125.165 180.65 123.827 181.033 122.714C181.422 121.597 181.978 120.742 182.702 120.151C183.432 119.554 184.303 119.256 185.316 119.256C186.329 119.256 187.198 119.554 187.923 120.151C188.652 120.742 189.208 121.597 189.592 122.714C189.98 123.827 190.174 125.165 190.174 126.727C190.174 128.295 189.98 129.637 189.592 130.754C189.208 131.872 188.654 132.726 187.93 133.318C187.21 133.905 186.339 134.199 185.316 134.199ZM185.316 133.006C186.438 133.006 187.314 132.459 187.944 131.365C188.574 130.267 188.888 128.721 188.888 126.727C188.888 125.402 188.744 124.27 188.455 123.332C188.171 122.39 187.762 121.67 187.227 121.173C186.696 120.676 186.059 120.428 185.316 120.428C184.203 120.428 183.33 120.982 182.695 122.089C182.061 123.193 181.744 124.739 181.744 126.727C181.744 128.053 181.886 129.185 182.17 130.122C182.459 131.06 182.868 131.775 183.398 132.267C183.933 132.759 184.573 133.006 185.316 133.006Z" fill="black"/>
</svg>
