<svg width="40" height="19" viewBox="0 0 40 19" fill="none" xmlns="http://www.w3.org/2000/svg">
<rect width="40" height="19" rx="4" fill="#4FBF65"/>
<path d="M7.8608 14V5.27273H11.1335C11.804 5.27273 12.3665 5.3892 12.821 5.62216C13.2784 5.85511 13.6236 6.18182 13.8565 6.60227C14.0923 7.01989 14.2102 7.5071 14.2102 8.06392C14.2102 8.62358 14.0909 9.10937 13.8523 9.52131C13.6165 9.9304 13.2685 10.2472 12.8082 10.4716C12.348 10.6932 11.7827 10.804 11.1122 10.804H8.78125V9.49148H10.8991C11.2912 9.49148 11.6122 9.4375 11.8622 9.32955C12.1122 9.21875 12.2969 9.05824 12.4162 8.84801C12.5384 8.63494 12.5994 8.37358 12.5994 8.06392C12.5994 7.75426 12.5384 7.49006 12.4162 7.27131C12.294 7.04972 12.108 6.8821 11.858 6.76847C11.608 6.65199 11.2855 6.59375 10.8906 6.59375H9.44176V14H7.8608ZM12.3693 10.0455L14.5298 14H12.7656L10.6435 10.0455H12.3693ZM21.1669 5.27273H22.7479V10.9744C22.7479 11.5994 22.6001 12.1491 22.3047 12.6236C22.0121 13.098 21.6001 13.4687 21.0689 13.7358C20.5376 14 19.9169 14.1321 19.2067 14.1321C18.4936 14.1321 17.8714 14 17.3402 13.7358C16.8089 13.4687 16.397 13.098 16.1044 12.6236C15.8118 12.1491 15.6655 11.5994 15.6655 10.9744V5.27273H17.2464V10.8423C17.2464 11.206 17.326 11.5298 17.4851 11.8139C17.647 12.098 17.8743 12.321 18.1669 12.483C18.4595 12.642 18.8061 12.7216 19.2067 12.7216C19.6072 12.7216 19.9538 12.642 20.2464 12.483C20.5419 12.321 20.7692 12.098 20.9283 11.8139C21.0874 11.5298 21.1669 11.206 21.1669 10.8423V5.27273ZM31.6381 5.27273V14H30.2319L26.1197 8.0554H26.0472V14H24.4663V5.27273H25.881L29.989 11.2216H30.0657V5.27273H31.6381Z" fill="white"/>
</svg>
