<svg width="151" height="97" viewBox="0 0 151 97" fill="none" xmlns="http://www.w3.org/2000/svg">
<path d="M13.7452 29.4906L101.516 29.0161C103.167 29.0072 104.5 27.6667 104.5 26.0162V10C104.5 10 104.903 5.88381 106.5 4C108.049 2.17331 111.714 1.27471 112.733 1.05465C112.912 1.01601 113.092 1 113.275 1H120.901C121.611 1 122.297 1.25151 122.839 1.70984L127.424 5.58974C128.106 6.16636 129.008 6.40842 129.893 6.29449C132.119 6.00804 136.529 5.61676 139.5 6.5C142.152 7.28836 142.443 7.58906 145.5 9.5C149.5 12 149.5 16.5 149.5 16.5V49.5C149.5 51.1569 148.157 52.5 146.5 52.5H142.559C142.216 52.5 141.903 52.3064 141.75 52C141.597 51.6936 141.284 51.5 140.941 51.5H135C133.343 51.5 132 52.8431 132 54.5V57.5C132 59.1569 130.657 60.5 129 60.5H126C124.343 60.5 123 61.8431 123 63.5V86.5C123 88.1569 121.657 89.5 120 89.5H114C112.343 89.5 111 90.8431 111 92.5C111 94.1569 109.657 95.5 108 95.5H15C13.6193 95.5 12.5 94.3807 12.5 93V92.75C12.5 91.5074 11.4926 90.5 10.25 90.5C9.00736 90.5 8 89.4926 8 88.25V58.5C8 56.8431 6.65685 55.5 5 55.5H4C2.34315 55.5 1 54.1569 1 52.5V36C1 34.3431 2.34315 33 4 33H10.2453C11.2144 33 12 32.2144 12 31.2453C12 30.2799 12.7798 29.4958 13.7452 29.4906Z" fill="#EFEFEF" stroke="black" stroke-width="2"/>
<path fill-rule="evenodd" clip-rule="evenodd" d="M113.5 51H110.5V35H113.5V51ZM111 50.5H113V35.5H111V50.5Z" fill="black"/>
<path fill-rule="evenodd" clip-rule="evenodd" d="M135.5 9.5C141.842 9.5 147 14.4335 147 20.5C147 26.5665 141.842 31.5 135.5 31.5C129.158 31.5 124 26.5665 124 20.5C124 14.4335 129.158 9.5 135.5 9.5ZM135.5 10C129.413 10 124.5 14.7304 124.5 20.5C124.5 26.2696 129.413 31 135.5 31C141.587 31 146.5 26.2696 146.5 20.5C146.5 14.7304 141.587 10 135.5 10Z" fill="black"/>
<path fill-rule="evenodd" clip-rule="evenodd" d="M121.943 0.5C122.219 0.5 122.482 0.613955 122.671 0.814453L128.5 6.5H138.5C143.876 6.50015 150 12.1661 150 17.5V49.459C150 51.1082 148.669 52.4483 147.02 52.459L143.638 52.4805C142.749 52.4862 141.952 52.106 141.399 51.5H132V60.5H111V95.5H12V55.3252C11.6869 55.436 11.3511 55.5 11 55.5H4C2.34315 55.5 1 54.1569 1 52.5V35.5C1 33.8431 2.34315 32.5 4 32.5H11C11.351 32.5 11.6869 32.5631 12 32.6738V29.5H26V90.5H99V29.5C99 29.5 102.657 29.5 105 29.5C104.448 29.5 104 29.0523 104 28.5V10.79C104 5.11136 108.263 0.5 113.52 0.5H121.943ZM113.52 1C108.575 1 104.5 5.35002 104.5 10.79V28.5C104.5 28.7761 104.724 29 105 29C105 29 105 29.3047 105 29.5C105 29.6953 105 30 105 30H99.5V91H25.5V30H12.5V33.3809L11.833 33.1455C11.57 33.0525 11.2905 33 11 33H4C2.61929 33 1.5 34.1193 1.5 35.5V52.5C1.5 53.8807 2.61929 55 4 55H11C11.2898 55 11.569 54.9469 11.833 54.8535L12.5 54.6182V95H110.5V60H131.5V51H141.62L141.769 51.1631C142.23 51.6694 142.895 51.9852 143.635 51.9805L147.017 51.959C148.391 51.9499 149.5 50.8333 149.5 49.459V17.5C149.5 15.0159 148.064 12.3885 145.923 10.3633C143.85 8.40264 141.196 7.08444 138.737 7.00391L138.5 7H128.297L128.151 6.8584L122.322 1.17285L122.307 1.15723C122.212 1.0568 122.081 1 121.943 1H113.52Z" fill="black"/>
<path fill-rule="evenodd" clip-rule="evenodd" d="M9.5 56.5C10.3284 56.5 11 57.1716 11 58V89C11 89.8284 10.3284 90.5 9.5 90.5C8.67157 90.5 8 89.8284 8 89V58C8 57.1716 8.67157 56.5 9.5 56.5ZM9.5 57C8.94772 57 8.5 57.4477 8.5 58V89C8.5 89.5523 8.94772 90 9.5 90C10.0523 90 10.5 89.5523 10.5 89V58C10.5 57.4477 10.0523 57 9.5 57Z" fill="black"/>
<path fill-rule="evenodd" clip-rule="evenodd" d="M38.1426 72.5C38.6159 72.5 38.9998 72.9229 39 73.4443V88.5557C39 89.0773 38.616 89.5 38.1426 89.5H27.8574C27.384 89.5 27 89.0773 27 88.5557V73.4443C27.0002 72.9229 27.3841 72.5 27.8574 72.5H38.1426ZM27.8574 73C27.7047 73 27.5002 73.1524 27.5 73.4443V88.5557C27.5 88.8476 27.7044 89 27.8574 89H38.1426C38.2956 89 38.5 88.8476 38.5 88.5557V73.4443C38.4998 73.1524 38.2953 73 38.1426 73H27.8574Z" fill="black"/>
<path fill-rule="evenodd" clip-rule="evenodd" d="M53.0713 72.5C53.584 72.5 53.9998 72.9229 54 73.4443V88.5557C54 89.0772 53.5841 89.5 53.0713 89.5H41.9287C41.4159 89.5 41 89.0772 41 88.5557V73.4443C41.0002 72.9229 41.416 72.5 41.9287 72.5H53.0713ZM41.9287 73C41.7002 73 41.5002 73.191 41.5 73.4443V88.5557C41.5 88.8089 41.6998 89 41.9287 89H53.0713C53.3002 89 53.5 88.8089 53.5 88.5557V73.4443C53.4998 73.191 53.2998 73 53.0713 73H41.9287Z" fill="black"/>
<path fill-rule="evenodd" clip-rule="evenodd" d="M68.0713 72.5C68.584 72.5 68.9998 72.9229 69 73.4443V88.5557C69 89.0772 68.5841 89.5 68.0713 89.5H56.9287C56.4159 89.5 56 89.0772 56 88.5557V73.4443C56.0002 72.9229 56.416 72.5 56.9287 72.5H68.0713ZM56.9287 73C56.7002 73 56.5002 73.191 56.5 73.4443V88.5557C56.5 88.8089 56.6998 89 56.9287 89H68.0713C68.3002 89 68.5 88.8089 68.5 88.5557V73.4443C68.4998 73.191 68.2998 73 68.0713 73H56.9287Z" fill="black"/>
<path fill-rule="evenodd" clip-rule="evenodd" d="M83.0713 72.5C83.584 72.5 83.9998 72.9229 84 73.4443V88.5557C84 89.0772 83.5841 89.5 83.0713 89.5H71.9287C71.4159 89.5 71 89.0772 71 88.5557V73.4443C71.0002 72.9229 71.416 72.5 71.9287 72.5H83.0713ZM71.9287 73C71.7002 73 71.5002 73.191 71.5 73.4443V88.5557C71.5 88.8089 71.6998 89 71.9287 89H83.0713C83.3002 89 83.5 88.8089 83.5 88.5557V73.4443C83.4998 73.191 83.2998 73 83.0713 73H71.9287Z" fill="black"/>
<path fill-rule="evenodd" clip-rule="evenodd" d="M97.1426 72.5C97.6159 72.5 97.9998 72.9229 98 73.4443V88.5557C98 89.0773 97.616 89.5 97.1426 89.5H86.8574C86.384 89.5 86 89.0773 86 88.5557V73.4443C86.0002 72.9229 86.3841 72.5 86.8574 72.5H97.1426ZM86.8574 73C86.7047 73 86.5002 73.1524 86.5 73.4443V88.5557C86.5 88.8476 86.7044 89 86.8574 89H97.1426C97.2956 89 97.5 88.8476 97.5 88.5557V73.4443C97.4998 73.1524 97.2953 73 97.1426 73H86.8574Z" fill="black"/>
<path fill-rule="evenodd" clip-rule="evenodd" d="M121 62.5C122.105 62.5 123 63.3954 123 64.5V87.5C123 88.6046 122.105 89.5 121 89.5H115C113.895 89.5 113 88.6046 113 87.5V64.5C113 63.3954 113.895 62.5 115 62.5H121ZM115 63C114.172 63 113.5 63.6716 113.5 64.5V87.5C113.5 88.3284 114.172 89 115 89H121C121.828 89 122.5 88.3284 122.5 87.5V64.5C122.5 63.6716 121.828 63 121 63H115Z" fill="black"/>
<path fill-rule="evenodd" clip-rule="evenodd" d="M98 71.5H27V57.5H98V71.5ZM27.5 71H97.5V58H27.5V71Z" fill="black"/>
<path fill-rule="evenodd" clip-rule="evenodd" d="M98 56.5H27V39.5H98V56.5ZM27.5 56H97.5V40H27.5V56Z" fill="black"/>
<path fill-rule="evenodd" clip-rule="evenodd" d="M98 38.5H27V29.5H98V38.5ZM27.5 38H97.5V30H27.5V38Z" fill="black"/>
</svg>
