<svg width="71" height="19" viewBox="0 0 71 19" fill="none" xmlns="http://www.w3.org/2000/svg">
<rect width="71" height="19" rx="4" fill="#999999"/>
<path d="M12.6037 7.67188C12.5639 7.29972 12.3963 7.00994 12.1009 6.80256C11.8082 6.59517 11.4276 6.49148 10.9588 6.49148C10.6293 6.49148 10.3466 6.54119 10.1108 6.64062C9.875 6.74006 9.6946 6.875 9.5696 7.04545C9.4446 7.21591 9.38068 7.41051 9.37784 7.62926C9.37784 7.81108 9.41903 7.96875 9.50142 8.10227C9.58665 8.2358 9.7017 8.34943 9.84659 8.44318C9.99148 8.53409 10.152 8.6108 10.3281 8.6733C10.5043 8.7358 10.6818 8.78835 10.8608 8.83097L11.679 9.03551C12.0085 9.11222 12.3253 9.21591 12.6293 9.34659C12.9361 9.47727 13.2102 9.64205 13.4517 9.84091C13.696 10.0398 13.8892 10.2798 14.0312 10.5611C14.1733 10.8423 14.2443 11.1719 14.2443 11.5497C14.2443 12.0611 14.1136 12.5114 13.8523 12.9006C13.5909 13.2869 13.2131 13.5895 12.7188 13.8082C12.2273 14.0241 11.6321 14.1321 10.9332 14.1321C10.2543 14.1321 9.66477 14.027 9.16477 13.8168C8.66761 13.6065 8.27841 13.2997 7.99716 12.8963C7.71875 12.4929 7.56818 12.0014 7.54545 11.4219H9.10085C9.12358 11.7259 9.21733 11.9787 9.3821 12.1804C9.54688 12.3821 9.76136 12.5327 10.0256 12.6321C10.2926 12.7315 10.5909 12.7812 10.9205 12.7812C11.2642 12.7812 11.5653 12.7301 11.8239 12.6278C12.0852 12.5227 12.2898 12.3778 12.4375 12.1932C12.5852 12.0057 12.6605 11.7869 12.6634 11.5369C12.6605 11.3097 12.5938 11.1222 12.4631 10.9744C12.3324 10.8239 12.1491 10.6989 11.9134 10.5994C11.6804 10.4972 11.4077 10.4062 11.0952 10.3267L10.1023 10.071C9.38352 9.88636 8.81534 9.60653 8.39773 9.23153C7.98295 8.85369 7.77557 8.35227 7.77557 7.72727C7.77557 7.21307 7.91477 6.76278 8.19318 6.37642C8.47443 5.99006 8.85653 5.69034 9.33949 5.47727C9.82244 5.26136 10.3693 5.15341 10.9801 5.15341C11.5994 5.15341 12.142 5.26136 12.608 5.47727C13.0767 5.69034 13.4446 5.98722 13.7116 6.3679C13.9787 6.74574 14.1165 7.1804 14.125 7.67188H12.6037ZM15.2702 6.59801V5.27273H22.2333V6.59801H19.5359V14H17.9677V6.59801H15.2702ZM23.6417 14H21.9542L25.0266 5.27273H26.9783L30.055 14H28.3675L26.0366 7.0625H25.9684L23.6417 14ZM23.6971 10.5781H28.2994V11.848H23.6971V10.5781ZM38.3764 5.27273V14H36.9702L32.858 8.0554H32.7855V14H31.2045V5.27273H32.6193L36.7273 11.2216H36.804V5.27273H38.3764ZM43.0565 14H40.0991V5.27273H43.1161C43.9826 5.27273 44.7269 5.44744 45.3491 5.79688C45.9741 6.14347 46.4542 6.64205 46.7894 7.29261C47.1246 7.94318 47.2923 8.72159 47.2923 9.62784C47.2923 10.5369 47.1232 11.3182 46.7852 11.9716C46.4499 12.625 45.9656 13.1264 45.332 13.4759C44.7013 13.8253 43.9428 14 43.0565 14ZM41.68 12.6321H42.9798C43.5877 12.6321 44.0948 12.5213 44.5011 12.2997C44.9073 12.0753 45.2127 11.7415 45.4173 11.2983C45.6218 10.8523 45.7241 10.2955 45.7241 9.62784C45.7241 8.96023 45.6218 8.40625 45.4173 7.96591C45.2127 7.52273 44.9102 7.19176 44.5096 6.97301C44.1119 6.75142 43.6175 6.64062 43.0266 6.64062H41.68V12.6321ZM48.7944 14V5.27273H52.1353C52.766 5.27273 53.2901 5.37216 53.7077 5.57102C54.1282 5.76705 54.4421 6.03551 54.6495 6.37642C54.8597 6.71733 54.9648 7.10369 54.9648 7.53551C54.9648 7.89062 54.8967 8.1946 54.7603 8.44744C54.6239 8.69744 54.4407 8.90057 54.2106 9.05682C53.9805 9.21307 53.7234 9.32528 53.4393 9.39347V9.47869C53.7489 9.49574 54.0458 9.59091 54.3299 9.7642C54.6168 9.93466 54.8512 10.1761 55.033 10.4886C55.2148 10.8011 55.3058 11.179 55.3058 11.6222C55.3058 12.0739 55.1964 12.4801 54.9776 12.8409C54.7589 13.1989 54.4293 13.4815 53.989 13.6889C53.5487 13.8963 52.9947 14 52.3271 14H48.7944ZM50.3754 12.679H52.0756C52.6495 12.679 53.0629 12.5696 53.3157 12.3509C53.5714 12.1293 53.6992 11.8452 53.6992 11.4986C53.6992 11.2401 53.6353 11.0071 53.5075 10.7997C53.3796 10.5895 53.1978 10.4247 52.962 10.3054C52.7262 10.1832 52.445 10.1222 52.1183 10.1222H50.3754V12.679ZM50.3754 8.98438H51.9393C52.212 8.98438 52.4577 8.93466 52.6765 8.83523C52.8952 8.73295 53.0671 8.58949 53.1921 8.40483C53.32 8.21733 53.3839 7.99574 53.3839 7.74006C53.3839 7.40199 53.2646 7.12358 53.0259 6.90483C52.7901 6.68608 52.4393 6.5767 51.9734 6.5767H50.3754V8.98438ZM56.0845 5.27273H57.87L60.005 9.13352H60.0902L62.2251 5.27273H64.0107L60.8359 10.7443V14H59.2592V10.7443L56.0845 5.27273Z" fill="white"/>
</svg>
