<svg width="72" height="72" viewBox="0 0 72 72" fill="none" xmlns="http://www.w3.org/2000/svg">
<path d="M63 0H9C4.02944 0 0 4.02944 0 9V63C0 67.9706 4.02944 72 9 72H63C67.9706 72 72 67.9706 72 63V9C72 4.02944 67.9706 0 63 0Z" fill="#53575A"/>
<path d="M35.6699 42.38C36.4799 42.38 37.28 42.16 37.97 41.75C38.67 41.34 39.2399 40.75 39.6299 40.04H50.6699C43.8599 31.54 46.5599 18.01 35.6699 18.01C24.7799 18.01 27.4799 31.54 20.6699 40.04H31.71C32.1 40.75 32.6701 41.34 33.3701 41.75C34.0701 42.16 34.8599 42.38 35.6699 42.38Z" fill="#E6E9EC"/>
<path d="M47.96 56.8799C47.96 56.8799 47.9599 56.93 47.9399 56.95C47.9299 56.97 47.9099 56.9799 47.8799 56.9899C47.8499 56.9999 47.81 57.01 47.76 57.02C47.71 57.02 47.6401 57.02 47.5601 57.02C47.4801 57.02 47.4101 57.02 47.3601 57.02C47.3101 57.02 47.27 56.9999 47.23 56.9899C47.2 56.9799 47.1799 56.96 47.1699 56.95C47.1599 56.93 47.1499 56.9099 47.1499 56.8799V54.21C47.1499 54.02 47.1301 53.86 47.1001 53.7C47.0701 53.55 47.0199 53.4199 46.9399 53.2999C46.8699 53.1899 46.7799 53.0999 46.6699 53.0499C46.5599 52.9899 46.43 52.96 46.28 52.96C46.09 52.96 45.91 53.0299 45.72 53.1699C45.53 53.3099 45.3301 53.5199 45.1001 53.7999V56.8699C45.1001 56.8699 45.1001 56.9199 45.0801 56.9399C45.0701 56.9599 45.04 56.9699 45.01 56.9799C44.98 56.9899 44.9399 56.9999 44.8899 57.0099C44.8399 57.0099 44.7699 57.0099 44.6899 57.0099C44.6099 57.0099 44.55 57.0099 44.49 57.0099C44.44 57.0099 44.4001 56.9899 44.3601 56.9799C44.3301 56.9699 44.31 56.9499 44.3 56.9399C44.3 56.9199 44.29 56.8999 44.29 56.8699V54.2C44.29 54.01 44.27 53.8499 44.24 53.6899C44.2 53.5399 44.1501 53.4099 44.0801 53.2899C44.0101 53.1799 43.9201 53.0899 43.8101 53.0399C43.7001 52.9799 43.5699 52.95 43.4199 52.95C43.2299 52.95 43.0501 53.0199 42.8601 53.1599C42.6701 53.2999 42.47 53.5099 42.24 53.7899V56.8599C42.24 56.8599 42.24 56.9099 42.22 56.9299C42.21 56.9499 42.1899 56.9599 42.1599 56.9699C42.1299 56.9799 42.09 56.9899 42.04 56.9999C41.99 56.9999 41.9201 56.9999 41.8401 56.9999C41.7601 56.9999 41.6999 56.9999 41.6399 56.9999C41.5899 56.9999 41.55 56.9799 41.51 56.9699C41.48 56.9599 41.46 56.9399 41.45 56.9299C41.45 56.9099 41.4399 56.8899 41.4399 56.8599V52.4699C41.4399 52.4699 41.44 52.4199 41.45 52.4099C41.45 52.3899 41.48 52.3699 41.51 52.3599C41.54 52.3399 41.5801 52.33 41.6201 52.33C41.6701 52.33 41.73 52.33 41.8 52.33C41.87 52.33 41.93 52.33 41.98 52.33C42.03 52.33 42.0701 52.3399 42.0901 52.3599C42.1201 52.3699 42.1299 52.3899 42.1399 52.4099C42.1499 52.4299 42.1599 52.4499 42.1599 52.4699V53.0499C42.4099 52.7699 42.6499 52.5699 42.8799 52.4399C43.1099 52.3099 43.3501 52.2399 43.5901 52.2399C43.7701 52.2399 43.9301 52.2599 44.0801 52.2999C44.2301 52.3399 44.35 52.3999 44.47 52.4799C44.58 52.5499 44.68 52.6499 44.75 52.7499C44.83 52.8499 44.89 52.9699 44.95 53.0999C45.1 52.9399 45.2301 52.8099 45.3701 52.6899C45.5001 52.5799 45.63 52.4899 45.75 52.4199C45.87 52.3499 45.9901 52.3 46.1101 52.27C46.2301 52.24 46.34 52.2199 46.46 52.2199C46.74 52.2199 46.9799 52.2699 47.1699 52.3699C47.3599 52.4699 47.5199 52.6 47.6299 52.77C47.7499 52.94 47.8399 53.1299 47.8799 53.3599C47.9299 53.5799 47.96 53.8199 47.96 54.0599V56.84V56.8799ZM40.52 52.77C40.52 52.84 40.52 52.9 40.52 52.95C40.52 53 40.52 53.0399 40.5 53.0699C40.5 53.0999 40.48 53.1199 40.46 53.1299C40.45 53.1399 40.4299 53.15 40.3999 53.15C40.3699 53.15 40.34 53.1499 40.3 53.1299C40.26 53.1099 40.2199 53.1 40.1699 53.09C40.1199 53.07 40.07 53.0599 40.01 53.0499C39.95 53.0399 39.8901 53.03 39.8201 53.03C39.7401 53.03 39.6601 53.05 39.5801 53.08C39.5001 53.11 39.4201 53.1699 39.3301 53.2399C39.2501 53.3099 39.1601 53.4099 39.0601 53.5399C38.9701 53.6599 38.86 53.8199 38.75 53.9899V56.8799C38.75 56.8799 38.75 56.93 38.73 56.95C38.72 56.97 38.6999 56.9799 38.6699 56.9899C38.6399 56.9999 38.6 57.01 38.55 57.02C38.5 57.02 38.4301 57.02 38.3501 57.02C38.2701 57.02 38.2099 57.02 38.1499 57.02C38.0999 57.02 38.06 56.9999 38.02 56.9899C37.99 56.9799 37.97 56.96 37.96 56.95C37.96 56.93 37.95 56.9099 37.95 56.8799V52.4899C37.95 52.4899 37.95 52.4399 37.96 52.4299C37.96 52.4099 37.99 52.3899 38.02 52.3799C38.05 52.3599 38.0899 52.3499 38.1299 52.3499C38.1799 52.3499 38.2401 52.3499 38.3101 52.3499C38.3801 52.3499 38.44 52.3499 38.49 52.3499C38.54 52.3499 38.5801 52.3599 38.6001 52.3799C38.6301 52.3899 38.6399 52.4099 38.6499 52.4299C38.6599 52.4499 38.6699 52.4699 38.6699 52.4899V53.1299C38.7899 52.9499 38.9 52.81 39.01 52.7C39.12 52.59 39.2201 52.4999 39.3101 52.4399C39.4001 52.3699 39.5001 52.3299 39.5901 52.3099C39.6801 52.2799 39.7801 52.27 39.8701 52.27C39.9101 52.27 39.96 52.27 40.01 52.27C40.07 52.27 40.1199 52.2799 40.1799 52.2899C40.2399 52.2999 40.2901 52.32 40.3401 52.33C40.3901 52.35 40.4199 52.3599 40.4399 52.3799C40.4599 52.3999 40.47 52.4099 40.48 52.4299C40.48 52.4399 40.49 52.4599 40.49 52.4799C40.49 52.4999 40.49 52.54 40.49 52.58C40.49 52.62 40.49 52.6799 40.49 52.7599L40.52 52.77ZM35.6699 54.8799H34.98C34.76 54.8799 34.5699 54.8999 34.3999 54.9399C34.2399 54.9799 34.1 55.0299 33.99 55.1099C33.88 55.1799 33.8 55.2699 33.75 55.3699C33.7 55.4699 33.6799 55.5899 33.6799 55.7199C33.6799 55.9499 33.7499 56.13 33.8899 56.27C34.0399 56.4 34.24 56.4699 34.5 56.4699C34.71 56.4699 34.9101 56.4199 35.0901 56.3099C35.2701 56.1999 35.4599 56.0399 35.6599 55.8199V54.89L35.6699 54.8799ZM36.47 56.8799C36.47 56.8799 36.4599 56.9499 36.4299 56.9699C36.3999 56.9899 36.3701 56.9999 36.3201 57.0099C36.2701 57.0099 36.2101 57.02 36.1201 57.02C36.0301 57.02 35.9699 57.0199 35.9099 57.0099C35.8599 57.0099 35.83 56.9899 35.8 56.9699C35.78 56.9499 35.77 56.9199 35.77 56.8799V56.4399C35.58 56.6499 35.3599 56.7999 35.1299 56.9199C34.8999 57.0299 34.6499 57.09 34.3799 57.09C34.1499 57.09 33.94 57.0599 33.75 56.9999C33.56 56.9399 33.4 56.8599 33.27 56.7399C33.14 56.6299 33.04 56.4899 32.96 56.3199C32.89 56.1499 32.8501 55.9699 32.8501 55.7499C32.8501 55.4999 32.9 55.2899 33 55.1099C33.1 54.9299 33.2499 54.7799 33.4299 54.6599C33.6199 54.5399 33.8501 54.45 34.1201 54.39C34.3901 54.33 34.7 54.2999 35.04 54.2999H35.6499V53.96C35.6499 53.79 35.6301 53.6399 35.6001 53.5099C35.5601 53.3799 35.5099 53.2699 35.4199 53.1899C35.3399 53.0999 35.2401 53.0399 35.1101 52.9899C34.9801 52.9399 34.8299 52.9199 34.6399 52.9199C34.4399 52.9199 34.2601 52.9399 34.1001 52.9899C33.9401 53.0399 33.8099 53.09 33.6799 53.15C33.5599 53.21 33.4599 53.2599 33.3799 53.3099C33.2999 53.3599 33.24 53.3799 33.2 53.3799C33.17 53.3799 33.1499 53.3799 33.1299 53.3599C33.1099 53.3499 33.0901 53.3299 33.0801 53.2999C33.0701 53.2699 33.06 53.24 33.05 53.2C33.05 53.16 33.05 53.1099 33.05 53.0599C33.05 52.9799 33.0501 52.9199 33.0601 52.8699C33.0701 52.8199 33.0999 52.7799 33.1399 52.7299C33.1899 52.6899 33.2601 52.64 33.3701 52.58C33.4801 52.52 33.6 52.4699 33.74 52.4199C33.88 52.3699 34.03 52.3299 34.2 52.2999C34.37 52.2699 34.53 52.2499 34.7 52.2499C35.02 52.2499 35.28 52.2899 35.51 52.3599C35.73 52.4299 35.91 52.5399 36.05 52.6799C36.19 52.8199 36.2901 52.9899 36.3501 53.1899C36.4101 53.3999 36.4399 53.6299 36.4399 53.9099V56.8699L36.47 56.8799ZM31.6699 56.8799C31.6699 56.8799 31.6699 56.93 31.6499 56.95C31.6399 56.97 31.6201 56.9799 31.5901 56.9899C31.5601 56.9999 31.52 57.01 31.47 57.02C31.42 57.02 31.35 57.02 31.27 57.02C31.19 57.02 31.1301 57.02 31.0701 57.02C31.0201 57.02 30.9799 56.9999 30.9399 56.9899C30.9099 56.9799 30.8899 56.96 30.8799 56.95C30.8799 56.93 30.8701 56.9099 30.8701 56.8799V50.3599C30.8701 50.3599 30.8699 50.3099 30.8799 50.2899C30.8899 50.2699 30.9099 50.2499 30.9399 50.2399C30.9699 50.2299 31.0101 50.22 31.0701 50.21C31.1201 50.21 31.19 50.21 31.27 50.21C31.35 50.21 31.42 50.21 31.47 50.21C31.52 50.21 31.5601 50.2299 31.5901 50.2399C31.6201 50.2499 31.6399 50.2699 31.6499 50.2899C31.6599 50.3099 31.6699 50.3299 31.6699 50.3599V56.8799ZM27.1699 51.52L26.0801 54.6699H28.28L27.1799 51.52H27.1699ZM29.8899 56.7C29.9199 56.77 29.9299 56.8299 29.9299 56.8799C29.9299 56.9199 29.9299 56.9499 29.8999 56.9799C29.8699 56.9999 29.83 57.02 29.77 57.02C29.71 57.02 29.63 57.02 29.53 57.02C29.43 57.02 29.35 57.02 29.29 57.02C29.23 57.02 29.1899 57.0199 29.1499 56.9999C29.1199 56.9899 29.1001 56.97 29.0801 56.95C29.0701 56.93 29.05 56.9099 29.04 56.8799L28.5 55.34H25.8701L25.3501 56.8599C25.3501 56.8599 25.3301 56.9199 25.3101 56.9399C25.2901 56.9599 25.27 56.9799 25.24 56.9899C25.21 56.9999 25.1701 57.01 25.1101 57.02C25.0501 57.02 24.9799 57.02 24.8899 57.02C24.7999 57.02 24.7199 57.0199 24.6599 57.0099C24.5999 57.0099 24.56 56.9899 24.53 56.9699C24.51 56.9499 24.5 56.9099 24.5 56.8699C24.5 56.8199 24.52 56.7699 24.54 56.6899L26.6599 50.8199C26.6599 50.8199 26.69 50.7499 26.71 50.7299C26.73 50.7099 26.76 50.6899 26.8 50.6799C26.84 50.6699 26.89 50.6599 26.96 50.6599C27.02 50.6599 27.11 50.6599 27.2 50.6599C27.3 50.6599 27.39 50.6599 27.46 50.6599C27.53 50.6599 27.5799 50.6699 27.6299 50.6799C27.6699 50.6899 27.7 50.7099 27.73 50.7399C27.75 50.7599 27.77 50.79 27.78 50.83L29.8999 56.7H29.8899Z" fill="#E6E9EC"/>
<mask id="mask0_893_4927" style="mask-type:luminance" maskUnits="userSpaceOnUse" x="3" y="3" width="66" height="66">
<path d="M62 3H10C6.13401 3 3 6.13401 3 10V62C3 65.866 6.13401 69 10 69H62C65.866 69 69 65.866 69 62V10C69 6.13401 65.866 3 62 3Z" fill="white"/>
</mask>
<g mask="url(#mask0_893_4927)">
<path d="M10 1C5.03 1 1 5.03 1 10H5C5 7.24 7.24 5 10 5V1ZM62 5C64.76 5 67 7.24 67 10H71C71 5.03 66.97 1 62 1V5ZM67 62C67 64.76 64.76 67 62 67V71C66.97 71 71 66.97 71 62H67ZM10 67C7.24 67 5 64.76 5 62H1C1 66.97 5.03 71 10 71V67ZM5 62V10H1V62H5ZM62 67H10V71H62V67ZM67 10V62H71V10H67ZM10 5H62V1H10V5Z" fill="#E71F19"/>
</g>
</svg>
