<svg width="72" height="72" viewBox="0 0 72 72" fill="none" xmlns="http://www.w3.org/2000/svg">
<path d="M63 0H9C4.02944 0 0 4.02944 0 9V63C0 67.9706 4.02944 72 9 72H63C67.9706 72 72 67.9706 72 63V9C72 4.02944 67.9706 0 63 0Z" fill="#53575A"/>
<mask id="mask0_893_4926" style="mask-type:luminance" maskUnits="userSpaceOnUse" x="3" y="3" width="66" height="66">
<path d="M62 3H10C6.13401 3 3 6.13401 3 10V62C3 65.866 6.13401 69 10 69H62C65.866 69 69 65.866 69 62V10C69 6.13401 65.866 3 62 3Z" fill="white"/>
</mask>
<g mask="url(#mask0_893_4926)">
<path d="M10 1C5.03 1 1 5.03 1 10H5C5 7.24 7.24 5 10 5V1ZM62 5C64.76 5 67 7.24 67 10H71C71 5.03 66.97 1 62 1V5ZM67 62C67 64.76 64.76 67 62 67V71C66.97 71 71 66.97 71 62H67ZM10 67C7.24 67 5 64.76 5 62H1C1 66.97 5.03 71 10 71V67ZM5 62V10H1V62H5ZM62 67H10V71H62V67ZM67 10V62H71V10H67ZM10 5H62V1H10V5Z" fill="#E6E9EC"/>
</g>
<path d="M52.4905 56.88C52.4905 56.88 52.4905 56.93 52.4705 56.95C52.4605 56.97 52.4404 56.98 52.4104 56.99C52.3804 57 52.3405 57.01 52.2905 57.02C52.2405 57.02 52.1706 57.02 52.0906 57.02C52.0106 57.02 51.9404 57.02 51.8904 57.02C51.8404 57.02 51.8005 57 51.7705 56.99C51.7405 56.98 51.7204 56.96 51.7104 56.95C51.7005 56.93 51.6904 56.91 51.6904 56.88V54.31C51.6904 54.06 51.6704 53.86 51.6304 53.7C51.5904 53.55 51.5304 53.42 51.4604 53.3C51.3904 53.19 51.2904 53.1 51.1704 53.05C51.0504 52.99 50.9205 52.96 50.7605 52.96C50.5605 52.96 50.3604 53.03 50.1504 53.17C49.9504 53.31 49.7405 53.52 49.5205 53.8V56.87C49.5205 56.87 49.5205 56.92 49.5005 56.94C49.4905 56.96 49.4704 56.97 49.4404 56.98C49.4104 56.99 49.3706 57 49.3206 57.01C49.2706 57.01 49.2006 57.01 49.1206 57.01C49.0406 57.01 48.9804 57.01 48.9204 57.01C48.8704 57.01 48.8305 56.99 48.7905 56.98C48.7605 56.97 48.7405 56.95 48.7305 56.94C48.7305 56.92 48.7205 56.9 48.7205 56.87V52.48C48.7205 52.48 48.7205 52.43 48.7305 52.42C48.7305 52.4 48.7605 52.38 48.7905 52.37C48.8205 52.35 48.8604 52.34 48.9004 52.34C48.9504 52.34 49.0106 52.34 49.0806 52.34C49.1506 52.34 49.2105 52.34 49.2605 52.34C49.3105 52.34 49.3506 52.35 49.3706 52.37C49.4006 52.38 49.4104 52.4 49.4204 52.42C49.4304 52.44 49.4404 52.46 49.4404 52.48V53.06C49.6904 52.78 49.9304 52.58 50.1804 52.45C50.4304 52.32 50.6804 52.25 50.9304 52.25C51.2204 52.25 51.4704 52.3 51.6704 52.4C51.8704 52.5 52.0304 52.63 52.1604 52.8C52.2804 52.97 52.3704 53.16 52.4204 53.39C52.4804 53.61 52.5005 53.88 52.5005 54.19V56.87L52.4905 56.88ZM46.6704 54.69C46.6704 54.45 46.6506 54.23 46.6006 54.02C46.5606 53.81 46.4904 53.62 46.3904 53.46C46.2904 53.3 46.1505 53.18 45.9805 53.08C45.8105 52.99 45.5906 52.94 45.3406 52.94C45.1006 52.94 44.9005 52.98 44.7205 53.07C44.5505 53.15 44.4105 53.28 44.3005 53.43C44.1905 53.58 44.1105 53.77 44.0505 53.98C44.0005 54.19 43.9705 54.42 43.9705 54.67C43.9705 54.92 43.9905 55.14 44.0305 55.35C44.0805 55.56 44.1505 55.75 44.2505 55.91C44.3505 56.07 44.4904 56.19 44.6704 56.29C44.8404 56.38 45.0605 56.43 45.3105 56.43C45.5405 56.43 45.7504 56.39 45.9204 56.3C46.0904 56.22 46.2306 56.1 46.3406 55.94C46.4506 55.79 46.5306 55.6 46.5806 55.39C46.6306 55.18 46.6604 54.95 46.6604 54.69H46.6704ZM47.5205 54.63C47.5205 54.99 47.4704 55.32 47.3804 55.62C47.2904 55.92 47.1404 56.18 46.9604 56.4C46.7704 56.62 46.5405 56.79 46.2605 56.91C45.9805 57.03 45.6505 57.09 45.2805 57.09C44.9105 57.09 44.6006 57.04 44.3306 56.93C44.0606 56.82 43.8404 56.67 43.6604 56.46C43.4804 56.26 43.3505 56.01 43.2605 55.71C43.1705 55.42 43.1304 55.09 43.1304 54.71C43.1304 54.33 43.1805 54.02 43.2705 53.72C43.3605 53.42 43.5004 53.16 43.6904 52.94C43.8804 52.72 44.1104 52.55 44.3904 52.43C44.6704 52.31 45.0006 52.25 45.3706 52.25C45.7406 52.25 46.0505 52.3 46.3105 52.41C46.5805 52.52 46.8005 52.67 46.9805 52.88C47.1605 53.09 47.2904 53.33 47.3804 53.63C47.4704 53.92 47.5205 54.25 47.5205 54.62V54.63ZM42.0305 51C42.0305 51.19 41.9904 51.32 41.9204 51.39C41.8504 51.46 41.7205 51.49 41.5205 51.49C41.3205 51.49 41.2004 51.46 41.1304 51.39C41.0604 51.32 41.0305 51.19 41.0305 51.01C41.0305 50.83 41.0704 50.69 41.1404 50.62C41.2104 50.55 41.3405 50.52 41.5405 50.52C41.7405 50.52 41.8604 50.55 41.9304 50.62C42.0004 50.69 42.0405 50.81 42.0405 51H42.0305ZM41.6804 52.36C41.7804 52.36 41.8404 52.38 41.8804 52.43C41.9204 52.47 41.9304 52.54 41.9304 52.62V56.88C41.9304 56.88 41.9304 56.93 41.9104 56.95C41.9004 56.97 41.8706 56.98 41.8406 56.99C41.8106 57 41.7705 57.01 41.7205 57.02C41.6705 57.02 41.6005 57.02 41.5305 57.02C41.4505 57.02 41.3806 57.02 41.3306 57.02C41.2806 57.02 41.2404 57 41.2004 56.99C41.1704 56.98 41.1504 56.96 41.1404 56.95C41.1304 56.93 41.1206 56.91 41.1206 56.88V53.03H38.8506V55.48C38.8506 55.78 38.8905 56.01 38.9805 56.17C39.0705 56.32 39.2304 56.4 39.4604 56.4C39.5304 56.4 39.6004 56.4 39.6604 56.38C39.7204 56.36 39.7706 56.35 39.8206 56.33C39.8706 56.31 39.9004 56.3 39.9404 56.29C39.9704 56.27 40.0005 56.27 40.0305 56.27C40.0505 56.27 40.0606 56.27 40.0706 56.28C40.0906 56.28 40.1006 56.3 40.1006 56.32C40.1006 56.34 40.1206 56.37 40.1206 56.41C40.1206 56.45 40.1206 56.5 40.1206 56.56C40.1206 56.65 40.1206 56.73 40.1006 56.78C40.0906 56.83 40.0705 56.87 40.0405 56.9C40.0105 56.93 39.9704 56.95 39.9204 56.97C39.8704 56.99 39.8105 57.01 39.7405 57.02C39.6705 57.04 39.6005 57.05 39.5305 57.06C39.4605 57.06 39.3805 57.07 39.3105 57.07C39.0805 57.07 38.8905 57.04 38.7205 56.98C38.5605 56.92 38.4206 56.83 38.3206 56.71C38.2206 56.59 38.1406 56.43 38.0906 56.25C38.0406 56.06 38.0205 55.84 38.0205 55.59V53.02H37.4004C37.4004 53.02 37.3105 52.99 37.2805 52.94C37.2505 52.89 37.2405 52.8 37.2405 52.69C37.2405 52.63 37.2405 52.58 37.2405 52.53C37.2405 52.49 37.2605 52.45 37.2705 52.43C37.2805 52.4 37.3006 52.38 37.3206 52.37C37.3406 52.36 37.3704 52.35 37.3904 52.35H38.0005V51.31C38.0005 51.31 38.0005 51.27 38.0105 51.25C38.0205 51.23 38.0406 51.21 38.0706 51.2C38.1006 51.18 38.1404 51.17 38.2004 51.17C38.2504 51.17 38.3204 51.17 38.4004 51.17C38.4804 51.17 38.5506 51.17 38.6006 51.17C38.6506 51.17 38.6905 51.19 38.7205 51.2C38.7505 51.21 38.7705 51.23 38.7805 51.25C38.7905 51.27 38.8005 51.29 38.8005 51.31V52.35H41.6304L41.6804 52.36ZM35.6704 54.88H34.9805C34.7605 54.88 34.5704 54.9 34.4004 54.94C34.2404 54.98 34.1005 55.03 33.9905 55.11C33.8805 55.18 33.8005 55.27 33.7505 55.37C33.7005 55.47 33.6804 55.59 33.6804 55.72C33.6804 55.95 33.7504 56.13 33.8904 56.27C34.0404 56.4 34.2405 56.47 34.5005 56.47C34.7105 56.47 34.9106 56.42 35.0906 56.31C35.2706 56.2 35.4604 56.04 35.6604 55.82V54.89L35.6704 54.88ZM36.4705 56.88C36.4705 56.88 36.4604 56.95 36.4304 56.97C36.4004 56.99 36.3706 57 36.3206 57.01C36.2706 57.01 36.2106 57.02 36.1206 57.02C36.0306 57.02 35.9704 57.02 35.9104 57.01C35.8604 57.01 35.8305 56.99 35.8005 56.97C35.7805 56.95 35.7705 56.92 35.7705 56.88V56.44C35.5805 56.65 35.3604 56.8 35.1304 56.92C34.9004 57.03 34.6504 57.09 34.3804 57.09C34.1504 57.09 33.9405 57.06 33.7505 57C33.5605 56.94 33.4005 56.86 33.2705 56.74C33.1405 56.63 33.0404 56.49 32.9604 56.32C32.8904 56.15 32.8506 55.97 32.8506 55.75C32.8506 55.5 32.9005 55.29 33.0005 55.11C33.1005 54.93 33.2504 54.78 33.4304 54.66C33.6204 54.54 33.8506 54.45 34.1206 54.39C34.3906 54.33 34.7005 54.3 35.0405 54.3H35.6504V53.96C35.6504 53.79 35.6306 53.64 35.6006 53.51C35.5606 53.38 35.5104 53.27 35.4204 53.19C35.3404 53.1 35.2406 53.04 35.1106 52.99C34.9806 52.94 34.8304 52.92 34.6404 52.92C34.4404 52.92 34.2606 52.94 34.1006 52.99C33.9406 53.04 33.8104 53.09 33.6804 53.15C33.5604 53.21 33.4604 53.26 33.3804 53.31C33.3004 53.36 33.2404 53.38 33.2004 53.38C33.1704 53.38 33.1504 53.38 33.1304 53.36C33.1104 53.35 33.0906 53.33 33.0806 53.3C33.0706 53.27 33.0605 53.24 33.0505 53.2C33.0505 53.16 33.0505 53.11 33.0505 53.06C33.0505 52.98 33.0505 52.92 33.0605 52.87C33.0705 52.82 33.1004 52.78 33.1404 52.73C33.1904 52.69 33.2606 52.64 33.3706 52.58C33.4806 52.52 33.6005 52.47 33.7405 52.42C33.8805 52.37 34.0304 52.33 34.2004 52.3C34.3704 52.27 34.5304 52.25 34.7004 52.25C35.0204 52.25 35.2805 52.29 35.5105 52.36C35.7305 52.43 35.9105 52.54 36.0505 52.68C36.1905 52.82 36.2906 52.99 36.3506 53.19C36.4106 53.4 36.4404 53.63 36.4404 53.91V56.87L36.4705 56.88ZM32.1804 56.21C32.1804 56.27 32.1804 56.31 32.1804 56.36C32.1804 56.4 32.1804 56.43 32.1604 56.46C32.1604 56.49 32.1404 56.51 32.1304 56.53C32.1304 56.55 32.0905 56.58 32.0505 56.62C32.0105 56.66 31.9406 56.71 31.8406 56.77C31.7406 56.83 31.6305 56.88 31.5105 56.93C31.3905 56.98 31.2606 57.01 31.1106 57.04C30.9706 57.07 30.8204 57.08 30.6704 57.08C30.3504 57.08 30.0706 57.03 29.8306 56.92C29.5906 56.82 29.3804 56.66 29.2104 56.47C29.0504 56.27 28.9206 56.02 28.8306 55.73C28.7506 55.44 28.7004 55.1 28.7004 54.72C28.7004 54.29 28.7506 53.92 28.8606 53.61C28.9706 53.3 29.1105 53.04 29.2905 52.84C29.4805 52.64 29.6904 52.49 29.9404 52.4C30.1904 52.3 30.4605 52.25 30.7505 52.25C30.8905 52.25 31.0204 52.26 31.1604 52.29C31.2904 52.32 31.4205 52.35 31.5305 52.39C31.6405 52.43 31.7406 52.48 31.8206 52.54C31.9106 52.6 31.9705 52.64 32.0105 52.68C32.0505 52.72 32.0706 52.75 32.0906 52.77C32.1106 52.79 32.1204 52.82 32.1304 52.85C32.1304 52.88 32.1504 52.91 32.1504 52.95C32.1504 52.99 32.1504 53.04 32.1504 53.1C32.1504 53.23 32.1406 53.32 32.1106 53.37C32.0806 53.42 32.0405 53.44 32.0005 53.44C31.9505 53.44 31.8906 53.41 31.8306 53.36C31.7706 53.3 31.6906 53.24 31.5906 53.18C31.4906 53.11 31.3705 53.06 31.2305 53C31.0905 52.94 30.9305 52.92 30.7405 52.92C30.3505 52.92 30.0506 53.07 29.8506 53.37C29.6406 53.67 29.5405 54.1 29.5405 54.66C29.5405 54.94 29.5706 55.19 29.6206 55.41C29.6806 55.62 29.7606 55.8 29.8606 55.94C29.9606 56.08 30.0905 56.19 30.2405 56.26C30.3905 56.33 30.5705 56.36 30.7605 56.36C30.9505 56.36 31.1105 56.33 31.2505 56.27C31.3905 56.21 31.5106 56.15 31.6106 56.08C31.7106 56.01 31.8006 55.94 31.8706 55.89C31.9406 55.83 32.0005 55.8 32.0405 55.8C32.0605 55.8 32.0806 55.8 32.1006 55.82C32.1206 55.83 32.1304 55.86 32.1404 55.89C32.1504 55.92 32.1604 55.96 32.1604 56.01C32.1604 56.06 32.1604 56.11 32.1604 56.18L32.1804 56.21ZM26.9805 54.69C26.9805 54.45 26.9604 54.23 26.9104 54.02C26.8704 53.81 26.8004 53.62 26.7004 53.46C26.6004 53.3 26.4605 53.18 26.2905 53.08C26.1205 52.99 25.9004 52.94 25.6504 52.94C25.4104 52.94 25.2105 52.98 25.0305 53.07C24.8605 53.15 24.7206 53.28 24.6106 53.43C24.5006 53.58 24.4206 53.77 24.3606 53.98C24.3106 54.19 24.2805 54.42 24.2805 54.67C24.2805 54.92 24.3006 55.14 24.3406 55.35C24.3906 55.56 24.4605 55.75 24.5605 55.91C24.6605 56.07 24.8005 56.19 24.9805 56.29C25.1505 56.38 25.3706 56.43 25.6206 56.43C25.8506 56.43 26.0605 56.39 26.2305 56.3C26.4005 56.22 26.5404 56.1 26.6504 55.94C26.7604 55.79 26.8404 55.6 26.8904 55.39C26.9404 55.18 26.9705 54.95 26.9705 54.69H26.9805ZM27.8306 54.63C27.8306 54.99 27.7804 55.32 27.6904 55.62C27.6004 55.92 27.4505 56.18 27.2705 56.4C27.0805 56.62 26.8506 56.79 26.5706 56.91C26.2906 57.03 25.9606 57.09 25.5906 57.09C25.2206 57.09 24.9104 57.04 24.6404 56.93C24.3704 56.82 24.1505 56.67 23.9705 56.46C23.7905 56.26 23.6606 56.01 23.5706 55.71C23.4806 55.42 23.4404 55.09 23.4404 54.71C23.4404 54.33 23.4906 54.02 23.5806 53.72C23.6706 53.42 23.8105 53.16 24.0005 52.94C24.1905 52.72 24.4204 52.55 24.7004 52.43C24.9804 52.31 25.3104 52.25 25.6804 52.25C26.0504 52.25 26.3606 52.3 26.6206 52.41C26.8906 52.52 27.1105 52.67 27.2905 52.88C27.4705 53.09 27.6004 53.33 27.6904 53.63C27.7804 53.92 27.8306 54.25 27.8306 54.62V54.63ZM22.9004 56.63C22.9004 56.7 22.9004 56.75 22.9004 56.8C22.9004 56.84 22.8806 56.88 22.8706 56.91C22.8606 56.94 22.8406 56.96 22.8206 56.98C22.8006 56.99 22.7805 57 22.7505 57H19.9604C19.8904 57 19.8105 56.98 19.7505 56.93C19.6805 56.88 19.6504 56.79 19.6504 56.66V50.81C19.6504 50.81 19.6504 50.76 19.6704 50.74C19.6804 50.72 19.7105 50.71 19.7405 50.7C19.7705 50.69 19.8206 50.68 19.8706 50.67C19.9306 50.67 19.9906 50.66 20.0706 50.66C20.1506 50.66 20.2205 50.66 20.2705 50.67C20.3305 50.67 20.3704 50.69 20.4004 50.7C20.4304 50.7 20.4605 50.72 20.4705 50.74C20.4805 50.76 20.4905 50.78 20.4905 50.81V56.27H22.7605C22.7605 56.27 22.8106 56.27 22.8306 56.29C22.8506 56.3 22.8704 56.32 22.8804 56.35C22.9004 56.38 22.9104 56.41 22.9104 56.46C22.9104 56.51 22.9104 56.56 22.9104 56.63H22.9004Z" fill="#E6E9EC"/>
<path d="M35.8201 20.69C36.9201 20.69 37.8101 19.79 37.8101 18.7C37.8101 17.61 36.9101 16.71 35.8201 16.71C34.7301 16.71 33.8301 17.61 33.8301 18.7C33.8301 19.79 34.7301 20.69 35.8201 20.69Z" fill="#E6E9EC"/>
<path d="M23.0596 40.6199L24.1594 28.6599H28.1494L27.3496 36.6299H48.1794L48.5796 40.6199H23.0596ZM30.1394 28.6599H31.3396C31.8396 29.2599 32.3394 29.8599 32.9294 30.5499C33.2294 30.9499 33.6294 31.3499 33.9294 31.7499L36.0195 34.0399L37.5195 32.0499C38.5195 30.8499 39.5094 29.7599 40.4094 28.6599H47.5896L48.1895 34.64H29.6494L30.1494 28.6599H30.1394ZM41.1995 17.8999V18.2C41.2995 18.8 41.1996 19.4999 40.7996 20.1899C40.1996 21.6799 39.2996 22.9799 38.6096 24.0799C37.7096 25.2799 36.8195 26.5699 35.7195 27.8699C34.0295 25.8799 32.7295 24.1799 31.7295 22.4899C31.2295 21.6899 30.8295 20.8999 30.5295 20.0999C30.2295 19.2999 30.1296 18.5099 30.3296 17.6099C30.5296 16.6099 31.0295 15.6199 31.7295 14.8199C31.8295 14.6199 32.0295 14.5199 32.2295 14.3199L32.3296 14.2199C33.3296 13.4199 34.4195 13.0199 35.7195 13.0199C38.5095 13.0199 40.8995 15.1099 41.1995 17.8999ZM51.0696 24.6799H43.0996C43.5996 23.7799 44.1996 22.7899 44.5996 21.6899C45.1996 20.2899 45.3995 19 45.1995 17.7C45.1995 17.5 45.1996 17.3999 45.0996 17.2999C44.4996 12.5199 40.4195 8.92993 35.7295 8.92993C33.6395 8.92993 31.4396 9.72993 29.8496 11.0199L29.7495 11.1199C29.4495 11.4199 29.1496 11.72 28.8496 11.92C27.6496 13.22 26.8596 14.8099 26.5596 16.4999C26.1596 18.0899 26.2596 19.6899 26.8596 21.2799C27.2596 22.2799 27.7596 23.2699 28.3596 24.3699C28.3596 24.4699 28.4595 24.4699 28.4595 24.5699H20.4895L18.5996 44.4999H52.8894L51.0996 24.67L51.0696 24.6799Z" fill="#E6E9EC"/>
</svg>
