<svg width="72" height="72" viewBox="0 0 72 72" fill="none" xmlns="http://www.w3.org/2000/svg">
<path d="M63 0H9C4.02944 0 0 4.02944 0 9V63C0 67.9706 4.02944 72 9 72H63C67.9706 72 72 67.9706 72 63V9C72 4.02944 67.9706 0 63 0Z" fill="#53575A"/>
<mask id="mask0_893_4928" style="mask-type:luminance" maskUnits="userSpaceOnUse" x="3" y="3" width="66" height="66">
<path d="M62 3H10C6.13401 3 3 6.13401 3 10V62C3 65.866 6.13401 69 10 69H62C65.866 69 69 65.866 69 62V10C69 6.13401 65.866 3 62 3Z" fill="white"/>
</mask>
<g mask="url(#mask0_893_4928)">
<path d="M10 1C5.03 1 1 5.03 1 10H5C5 7.24 7.24 5 10 5V1ZM62 5C64.76 5 67 7.24 67 10H71C71 5.03 66.97 1 62 1V5ZM67 62C67 64.76 64.76 67 62 67V71C66.97 71 71 66.97 71 62H67ZM10 67C7.24 67 5 64.76 5 62H1C1 66.97 5.03 71 10 71V67ZM5 62V10H1V62H5ZM62 67H10V71H62V67ZM67 10V62H71V10H67ZM10 5H62V1H10V5Z" fill="#E6E9EC"/>
</g>
<mask id="mask1_893_4928" style="mask-type:luminance" maskUnits="userSpaceOnUse" x="26" y="18" width="19" height="26">
<path d="M26.5703 18.8599H37.3604L44.1003 26.9499V43.1399H26.5703V18.8599Z" fill="white"/>
</mask>
<g mask="url(#mask1_893_4928)">
<path d="M43.1003 26.9499V43.1299H45.1003V26.9499H43.1003ZM36.5903 19.4999L43.3303 27.5899L44.8704 26.3099L38.1301 18.2198L36.5903 19.4999ZM27.5703 43.1399V18.8699H25.5703V43.1399H27.5703ZM44.1003 42.1399H26.5703V44.1399H44.1003V42.1399ZM26.5703 19.8599H37.3604V17.8599H26.5703V19.8599ZM44.1003 26.9499H45.1003V26.5899L44.8704 26.3099L44.1003 26.9499ZM26.5703 43.1399H25.5703V44.1399H26.5703V43.1399ZM44.1003 43.1399V44.1399H45.1003V43.1399H44.1003ZM37.3604 18.8599L38.1301 18.2198L37.8303 17.8599H37.3604V18.8599ZM26.5703 18.8599V17.8599H25.5703V18.8599H26.5703Z" fill="#E6E9EC"/>
</g>
<path d="M43.4297 29.65V41.79H27.9197V20.22H35.3398V28.31H43.4297V29.66V29.65ZM38.0298 21.39L42.2397 25.6H38.0298V21.39ZM38.0298 17.52H25.2197V44.49H46.1199V25.61L38.0298 17.52Z" fill="#E6E9EC"/>
<mask id="mask2_893_4928" style="mask-type:luminance" maskUnits="userSpaceOnUse" x="25" y="17" width="22" height="28">
<path d="M43.4297 29.65V41.79H27.9197V20.22H35.3398V28.31H43.4297V29.66V29.65ZM38.0298 21.39L42.2397 25.6H38.0298V21.39ZM38.0298 17.52H25.2197V44.49H46.1199V25.61L38.0298 17.52Z" fill="white"/>
</mask>
<g mask="url(#mask2_893_4928)">
<path d="M42.4297 28.3V29.65H44.4297V28.3H42.4297ZM35.3298 29.3H43.4197V27.3H35.3298V29.3ZM34.3298 20.21V28.3H36.3298V20.21H34.3298ZM27.9197 21.21H35.3398V19.21H27.9197V21.21ZM28.9197 29.65V20.21H26.9197V29.65H28.9197ZM28.9197 30.33V29.66H26.9197V30.33H28.9197ZM28.9197 31V30.33H26.9197V31H28.9197ZM28.9197 40.44V31H26.9197V40.44H28.9197ZM28.9197 41.11V40.44H26.9197V41.11H28.9197ZM28.9197 41.79V41.12H26.9197V41.79H28.9197ZM43.4297 40.79H27.9197V42.79H43.4297V40.79ZM42.4297 40.44V41.79H44.4297V40.44H42.4297ZM42.4297 29.65V40.44H44.4297V29.65H42.4297ZM39.0298 25.61V21.4H37.0298V25.61H39.0298ZM42.2498 24.61H38.0398V26.61H42.2498V24.61ZM37.3198 22.1L41.5298 26.31L42.9397 24.9L38.7297 20.69L37.3198 22.1ZM46.8298 24.9L38.7397 16.81L37.3298 18.22L45.4197 26.31L46.8298 24.9ZM47.1199 29.65V25.6H45.1199V29.65H47.1199ZM47.1199 40.44V29.65H45.1199V40.44H47.1199ZM47.1199 44.48V40.43H45.1199V44.48H47.1199ZM25.2197 45.48H46.1199V43.48H25.2197V45.48ZM24.2197 41.11V44.48H26.2197V41.11H24.2197ZM24.2197 40.44V41.11H26.2197V40.44H24.2197ZM24.2197 31V40.44H26.2197V31H24.2197ZM24.2197 30.33V31H26.2197V30.33H24.2197ZM24.2197 29.65V30.32H26.2197V29.65H24.2197ZM24.2197 17.52V29.66H26.2197V17.52H24.2197ZM38.0298 16.52H25.2197V18.52H38.0298V16.52ZM43.4297 28.3H44.4297V27.3H43.4297V28.3ZM35.3298 28.3H34.3298V29.3H35.3298V28.3ZM35.3298 20.21H36.3298V19.21H35.3298V20.21ZM27.9197 20.21V19.21H26.9197V20.21H27.9197ZM27.9197 41.79H26.9197V42.79H27.9197V41.79ZM43.4297 41.79V42.79H44.4297V41.79H43.4297ZM38.0298 25.61H37.0298V26.61H38.0298V25.61ZM42.2498 25.61V26.61H44.6597L42.9497 24.9L42.2397 25.61H42.2498ZM38.0298 21.39L38.7397 20.68L37.0298 18.97V21.38H38.0298V21.39ZM46.1199 25.61H47.1199V25.2L46.8298 24.91L46.1199 25.62V25.61ZM46.1199 44.48V45.48H47.1199V44.48H46.1199ZM25.2197 44.48H24.2197V45.48H25.2197V44.48ZM25.2197 17.52V16.52H24.2197V17.52H25.2197ZM38.0298 17.52L38.7397 16.81L38.4497 16.52H38.0398V17.52H38.0298Z" fill="#E6E9EC"/>
</g>
<path d="M41.77 34.5901H29.5801V36.16H41.77V34.5901Z" fill="#E6E9EC"/>
<mask id="mask3_893_4928" style="mask-type:luminance" maskUnits="userSpaceOnUse" x="29" y="34" width="13" height="3">
<path d="M41.77 34.5901H29.5801V36.16H41.77V34.5901Z" fill="white"/>
</mask>
<g mask="url(#mask3_893_4928)">
<path d="M30.5801 36.16V34.5901H28.5801V36.16H30.5801ZM41.77 35.16H29.5801V37.16H41.77V35.16ZM40.77 34.5901V36.16H42.77V34.5901H40.77ZM29.5801 35.5901H41.77V33.5901H29.5801V35.5901ZM29.5801 36.16H28.5801V37.16H29.5801V36.16ZM41.77 36.16V37.16H42.77V36.16H41.77ZM41.77 34.5901H42.77V33.5901H41.77V34.5901ZM29.5801 34.5901V33.5901H28.5801V34.5901H29.5801Z" fill="#E6E9EC"/>
</g>
<path d="M41.77 37.73H29.5801V39.3H41.77V37.73Z" fill="#E6E9EC"/>
<mask id="mask4_893_4928" style="mask-type:luminance" maskUnits="userSpaceOnUse" x="29" y="37" width="13" height="3">
<path d="M41.77 37.73H29.5801V39.3H41.77V37.73Z" fill="white"/>
</mask>
<g mask="url(#mask4_893_4928)">
<path d="M30.5801 39.3V37.73H28.5801V39.3H30.5801ZM41.77 38.3H29.5801V40.3H41.77V38.3ZM40.77 37.73V39.3H42.77V37.73H40.77ZM29.5801 38.73H41.77V36.73H29.5801V38.73ZM29.5801 39.3H28.5801V40.3H29.5801V39.3ZM41.77 39.3V40.3H42.77V39.3H41.77ZM41.77 37.73H42.77V36.73H41.77V37.73ZM29.5801 37.73V36.73H28.5801V37.73H29.5801Z" fill="#E6E9EC"/>
</g>
<path d="M41.77 31.45H29.5801V33.02H41.77V31.45Z" fill="#E6E9EC"/>
<mask id="mask5_893_4928" style="mask-type:luminance" maskUnits="userSpaceOnUse" x="29" y="31" width="13" height="3">
<path d="M41.77 31.45H29.5801V33.02H41.77V31.45Z" fill="white"/>
</mask>
<g mask="url(#mask5_893_4928)">
<path d="M30.5801 33.02V31.45H28.5801V33.02H30.5801ZM41.77 32.02H29.5801V34.02H41.77V32.02ZM40.77 31.45V33.02H42.77V31.45H40.77ZM29.5801 32.45H41.77V30.45H29.5801V32.45ZM29.5801 33.02H28.5801V34.02H29.5801V33.02ZM41.77 33.02V34.02H42.77V33.02H41.77ZM41.77 31.45H42.77V30.45H41.77V31.45ZM29.5801 31.45V30.45H28.5801V31.45H29.5801Z" fill="#E6E9EC"/>
</g>
<path d="M50.73 55.58C50.73 55.58 50.73 55.63 50.71 55.65C50.7 55.67 50.6799 55.6799 50.6499 55.6899C50.6199 55.6999 50.58 55.7099 50.53 55.7199C50.48 55.7199 50.4101 55.7199 50.3301 55.7199C50.2501 55.7199 50.1899 55.7199 50.1299 55.7199C50.0799 55.7199 50.04 55.6999 50 55.6899C49.97 55.6799 49.9499 55.66 49.9399 55.65C49.9399 55.63 49.9299 55.61 49.9299 55.58V49.0599C49.9299 49.0599 49.9299 49.0099 49.9399 48.9899C49.9499 48.9699 49.97 48.9499 50 48.9399C50.03 48.9299 50.0699 48.9199 50.1299 48.9099C50.1799 48.9099 50.2501 48.9099 50.3301 48.9099C50.4101 48.9099 50.48 48.9099 50.53 48.9099C50.58 48.9099 50.6199 48.9299 50.6499 48.9399C50.6799 48.9499 50.7 48.9699 50.71 48.9899C50.72 49.0099 50.73 49.0299 50.73 49.0599V55.58ZM47.6399 53.58H46.95C46.73 53.58 46.5401 53.6 46.3701 53.64C46.2101 53.68 46.07 53.7299 45.96 53.8099C45.85 53.8799 45.77 53.9699 45.72 54.0699C45.67 54.1699 45.6499 54.2899 45.6499 54.4199C45.6499 54.6499 45.7201 54.8299 45.8601 54.9699C46.0101 55.0999 46.21 55.1699 46.47 55.1699C46.68 55.1699 46.8801 55.1199 47.0601 55.0099C47.2401 54.8999 47.4299 54.74 47.6299 54.52V53.59L47.6399 53.58ZM48.4399 55.58C48.4399 55.58 48.4299 55.6499 48.3999 55.6699C48.3699 55.6899 48.34 55.7 48.29 55.71C48.24 55.71 48.1801 55.7199 48.0901 55.7199C48.0001 55.7199 47.9399 55.72 47.8799 55.71C47.8299 55.71 47.8 55.6899 47.77 55.6699C47.75 55.6499 47.74 55.62 47.74 55.58V55.14C47.55 55.35 47.3301 55.4999 47.1001 55.6199C46.8701 55.7299 46.6201 55.7899 46.3501 55.7899C46.1201 55.7899 45.91 55.76 45.72 55.7C45.53 55.64 45.37 55.5599 45.24 55.4399C45.11 55.3299 45.0099 55.19 44.9299 55.02C44.8599 54.85 44.8201 54.67 44.8201 54.45C44.8201 54.2 44.87 53.9899 44.97 53.8099C45.07 53.6299 45.2199 53.4799 45.3999 53.3599C45.5899 53.2399 45.8201 53.15 46.0901 53.09C46.3601 53.03 46.67 52.9999 47.01 52.9999H47.6201V52.6599C47.6201 52.4899 47.6001 52.34 47.5701 52.21C47.5301 52.08 47.4799 51.97 47.3899 51.89C47.3099 51.8 47.2101 51.7399 47.0801 51.6899C46.9501 51.6399 46.8001 51.6199 46.6101 51.6199C46.4101 51.6199 46.2301 51.6399 46.0701 51.6899C45.9101 51.7399 45.7799 51.7899 45.6499 51.8499C45.5299 51.9099 45.4301 51.9599 45.3501 52.0099C45.2701 52.0599 45.2099 52.08 45.1699 52.08C45.1399 52.08 45.1201 52.0799 45.1001 52.0599C45.0801 52.0499 45.06 52.0299 45.05 51.9999C45.04 51.9699 45.03 51.94 45.02 51.9C45.02 51.86 45.02 51.8099 45.02 51.7599C45.02 51.6799 45.02 51.6199 45.03 51.5699C45.04 51.5199 45.0701 51.4799 45.1101 51.4299C45.1601 51.3899 45.2301 51.34 45.3401 51.28C45.4501 51.22 45.57 51.1699 45.71 51.1199C45.85 51.0699 45.9999 51.0299 46.1699 50.9999C46.3399 50.9699 46.4999 50.95 46.6699 50.95C46.9899 50.95 47.25 50.9899 47.48 51.0599C47.7 51.1299 47.88 51.2399 48.02 51.3799C48.16 51.5199 48.2601 51.69 48.3201 51.89C48.3801 52.1 48.4099 52.3299 48.4099 52.6099V55.5699L48.4399 55.58ZM43.6399 55.58C43.6399 55.58 43.6401 55.63 43.6201 55.65C43.6201 55.67 43.5901 55.6799 43.5601 55.6899C43.5301 55.6999 43.4899 55.7099 43.4399 55.7199C43.3899 55.7199 43.34 55.7199 43.27 55.7199C43.2 55.7199 43.1301 55.7199 43.0801 55.7199C43.0301 55.7199 43 55.6999 42.97 55.6899C42.94 55.6799 42.9299 55.66 42.9199 55.65C42.9199 55.63 42.9099 55.61 42.9099 55.58V54.9999C42.6599 55.2799 42.4099 55.4799 42.1699 55.6099C41.9299 55.7399 41.6799 55.7999 41.4299 55.7999C41.1399 55.7999 40.8899 55.75 40.6899 55.65C40.4899 55.55 40.33 55.4199 40.21 55.2499C40.09 55.0799 39.9999 54.8899 39.9399 54.6599C39.8899 54.4399 39.8601 54.16 39.8601 53.84V51.1699C39.8601 51.1699 39.8601 51.1199 39.8701 51.1099C39.8801 51.0899 39.9099 51.0699 39.9399 51.0599C39.9699 51.0399 40.0101 51.03 40.0701 51.03C40.1201 51.03 40.19 51.03 40.27 51.03C40.35 51.03 40.41 51.03 40.47 51.03C40.52 51.03 40.5601 51.0399 40.5901 51.0599C40.6201 51.0699 40.6499 51.0899 40.6599 51.1099C40.6699 51.1299 40.6799 51.1499 40.6799 51.1699V53.7299C40.6799 53.9899 40.7 54.1899 40.73 54.3499C40.77 54.4999 40.8299 54.6299 40.8999 54.7499C40.9799 54.8599 41.0799 54.9399 41.1899 54.9999C41.3099 55.0599 41.4401 55.09 41.6001 55.09C41.8001 55.09 42 55.0199 42.2 54.8799C42.4 54.7399 42.6201 54.5299 42.8401 54.2499V51.1799C42.8401 51.1799 42.8401 51.1299 42.8501 51.1199C42.8601 51.0999 42.8899 51.0799 42.9199 51.0699C42.9499 51.0499 42.99 51.0399 43.04 51.0399C43.09 51.0399 43.16 51.0399 43.24 51.0399C43.32 51.0399 43.3799 51.0399 43.4399 51.0399C43.4899 51.0399 43.5301 51.0499 43.5601 51.0699C43.5901 51.0799 43.6101 51.0999 43.6201 51.1199C43.6401 51.1399 43.6399 51.1599 43.6399 51.1799V55.5699V55.58ZM38.4099 55.58C38.4099 55.58 38.4099 55.63 38.3899 55.65C38.3799 55.67 38.3601 55.6799 38.3301 55.6899C38.3001 55.6999 38.26 55.7099 38.21 55.7199C38.16 55.7199 38.09 55.7199 38.01 55.7199C37.93 55.7199 37.8601 55.7199 37.8101 55.7199C37.7601 55.7199 37.7199 55.6999 37.6899 55.6899C37.6599 55.6799 37.6399 55.66 37.6299 55.65C37.6199 55.63 37.6101 55.61 37.6101 55.58V53.0099C37.6101 52.7599 37.59 52.56 37.55 52.4C37.51 52.25 37.4499 52.1199 37.3799 51.9999C37.3099 51.8899 37.2101 51.7999 37.0901 51.7499C36.9701 51.6899 36.8399 51.6599 36.6799 51.6599C36.4799 51.6599 36.2801 51.7299 36.0701 51.8699C35.8701 52.0099 35.6599 52.2199 35.4399 52.4999V55.5699C35.4399 55.5699 35.4399 55.62 35.4199 55.64C35.4099 55.66 35.3901 55.6699 35.3601 55.6799C35.3301 55.6899 35.29 55.7 35.24 55.71C35.19 55.71 35.12 55.71 35.04 55.71C34.96 55.71 34.9001 55.71 34.8401 55.71C34.7901 55.71 34.75 55.6899 34.71 55.6799C34.68 55.6699 34.6599 55.65 34.6499 55.64C34.6499 55.62 34.6399 55.5999 34.6399 55.5699V51.1799C34.6399 51.1799 34.6399 51.1299 34.6499 51.1199C34.6499 51.0999 34.68 51.0799 34.71 51.0699C34.74 51.0499 34.7801 51.0399 34.8201 51.0399C34.8701 51.0399 34.93 51.0399 35 51.0399C35.07 51.0399 35.1299 51.0399 35.1799 51.0399C35.2299 51.0399 35.27 51.0499 35.29 51.0699C35.32 51.0799 35.3301 51.0999 35.3401 51.1199C35.3501 51.1399 35.3601 51.1599 35.3601 51.1799V51.7599C35.6101 51.4799 35.8501 51.28 36.1001 51.15C36.3501 51.02 36.6001 50.95 36.8501 50.95C37.1401 50.95 37.3901 50.9999 37.5901 51.0999C37.7901 51.1999 37.9501 51.3299 38.0801 51.4999C38.2001 51.6699 38.2901 51.86 38.3401 52.09C38.4001 52.31 38.4199 52.58 38.4199 52.89V55.5699L38.4099 55.58ZM32.3401 53.58H31.6499C31.4299 53.58 31.2401 53.6 31.0701 53.64C30.9101 53.68 30.7699 53.7299 30.6599 53.8099C30.5499 53.8799 30.4699 53.9699 30.4199 54.0699C30.3699 54.1699 30.3501 54.2899 30.3501 54.4199C30.3501 54.6499 30.4201 54.8299 30.5601 54.9699C30.7101 55.0999 30.9099 55.1699 31.1699 55.1699C31.3799 55.1699 31.58 55.1199 31.76 55.0099C31.94 54.8999 32.1301 54.74 32.3301 54.52V53.59L32.3401 53.58ZM33.1399 55.58C33.1399 55.58 33.1301 55.6499 33.1001 55.6699C33.0701 55.6899 33.04 55.7 32.99 55.71C32.94 55.71 32.88 55.7199 32.79 55.7199C32.7 55.7199 32.6401 55.72 32.5801 55.71C32.5301 55.71 32.5 55.6899 32.47 55.6699C32.45 55.6499 32.4399 55.62 32.4399 55.58V55.14C32.2499 55.35 32.03 55.4999 31.8 55.6199C31.57 55.7299 31.32 55.7899 31.05 55.7899C30.82 55.7899 30.6099 55.76 30.4199 55.7C30.2299 55.64 30.0699 55.5599 29.9399 55.4399C29.8099 55.3299 29.7099 55.19 29.6299 55.02C29.5599 54.85 29.52 54.67 29.52 54.45C29.52 54.2 29.5699 53.9899 29.6699 53.8099C29.7699 53.6299 29.9201 53.4799 30.1001 53.3599C30.2901 53.2399 30.52 53.15 30.79 53.09C31.06 53.03 31.37 52.9999 31.71 52.9999H32.3201V52.6599C32.3201 52.4899 32.3 52.34 32.27 52.21C32.23 52.08 32.1801 51.97 32.0901 51.89C32.0101 51.8 31.91 51.7399 31.78 51.6899C31.65 51.6399 31.5001 51.6199 31.3101 51.6199C31.1101 51.6199 30.93 51.6399 30.77 51.6899C30.61 51.7399 30.4801 51.7899 30.3501 51.8499C30.2301 51.9099 30.13 51.9599 30.05 52.0099C29.97 52.0599 29.9101 52.08 29.8701 52.08C29.8401 52.08 29.82 52.0799 29.8 52.0599C29.78 52.0499 29.76 52.0299 29.75 51.9999C29.74 51.9699 29.73 51.94 29.72 51.9C29.72 51.86 29.72 51.8099 29.72 51.7599C29.72 51.6799 29.72 51.6199 29.73 51.5699C29.74 51.5199 29.7701 51.4799 29.8101 51.4299C29.8601 51.3899 29.93 51.34 30.04 51.28C30.15 51.22 30.2699 51.1699 30.4099 51.1199C30.5499 51.0699 30.7001 51.0299 30.8701 50.9999C31.0401 50.9699 31.2001 50.95 31.3701 50.95C31.6901 50.95 31.9499 50.9899 32.1799 51.0599C32.3999 51.1299 32.58 51.2399 32.72 51.3799C32.86 51.5199 32.96 51.69 33.02 51.89C33.08 52.1 33.1101 52.3299 33.1101 52.6099V55.5699L33.1399 55.58ZM28.24 55.5699C28.24 55.5699 28.24 55.62 28.22 55.64C28.21 55.66 28.1799 55.6799 28.1499 55.6899C28.1199 55.6899 28.08 55.71 28.02 55.71C27.97 55.71 27.9101 55.7199 27.8201 55.7199C27.7501 55.7199 27.6801 55.72 27.6201 55.71C27.5701 55.71 27.53 55.6999 27.49 55.6899C27.46 55.6799 27.4399 55.66 27.4299 55.64C27.4199 55.62 27.4099 55.5999 27.4099 55.5699V50.0699L25.1599 55.5999C25.1599 55.5999 25.1401 55.6399 25.1201 55.6599C25.1001 55.6799 25.08 55.69 25.04 55.7C25.01 55.7 24.9699 55.7199 24.9199 55.7199C24.8699 55.7199 24.82 55.7199 24.75 55.7199C24.68 55.7199 24.6201 55.7199 24.5701 55.7199C24.5201 55.7199 24.48 55.71 24.45 55.7C24.42 55.69 24.3901 55.6699 24.3701 55.6599C24.3501 55.6399 24.3401 55.6299 24.3401 55.6099L22.1899 50.08V55.58C22.1899 55.58 22.1899 55.63 22.1699 55.65C22.1599 55.67 22.1301 55.69 22.1001 55.7C22.0701 55.7 22.03 55.7199 21.97 55.7199C21.92 55.7199 21.85 55.7299 21.77 55.7299C21.69 55.7299 21.6301 55.7299 21.5701 55.7199C21.5201 55.7199 21.4799 55.71 21.4399 55.7C21.4099 55.69 21.3899 55.67 21.3799 55.65C21.3799 55.63 21.3701 55.61 21.3701 55.58V49.77C21.3701 49.63 21.41 49.5399 21.48 49.4799C21.55 49.4199 21.63 49.39 21.72 49.39H22.23C22.33 49.39 22.43 49.3899 22.5 49.4199C22.58 49.4399 22.65 49.4699 22.71 49.5099C22.77 49.5499 22.8201 49.6099 22.8601 49.6699C22.9001 49.7399 22.93 49.81 22.96 49.9L24.79 54.4799H24.8101L26.71 49.9199C26.75 49.8199 26.7801 49.7399 26.8301 49.6699C26.8701 49.5999 26.92 49.5499 26.97 49.5099C27.02 49.4699 27.0799 49.4399 27.1399 49.4199C27.1999 49.3999 27.2701 49.39 27.3501 49.39H27.8799C27.8799 49.39 27.97 49.3899 28.02 49.4099C28.07 49.4199 28.0999 49.4499 28.1299 49.4799C28.1599 49.5099 28.19 49.5499 28.21 49.5999C28.23 49.6499 28.24 49.7 28.24 49.77V55.58V55.5699Z" fill="#E6E9EC"/>
<mask id="mask6_893_4928" style="mask-type:luminance" maskUnits="userSpaceOnUse" x="21" y="48" width="30" height="8">
<path d="M50.73 55.58C50.73 55.58 50.73 55.63 50.71 55.65C50.7 55.67 50.6799 55.68 50.6499 55.69C50.6199 55.7 50.58 55.71 50.53 55.72C50.48 55.73 50.4101 55.72 50.3301 55.72C50.2501 55.72 50.1899 55.72 50.1299 55.72C50.0699 55.72 50.04 55.7 50 55.69C49.97 55.68 49.9499 55.66 49.9399 55.65C49.9399 55.63 49.9299 55.61 49.9299 55.58V49.06C49.9299 49.06 49.9299 49.01 49.9399 48.99C49.9499 48.97 49.97 48.95 50 48.94C50.03 48.93 50.0699 48.92 50.1299 48.91C50.1899 48.9 50.2501 48.91 50.3301 48.91C50.4101 48.91 50.48 48.91 50.53 48.91C50.58 48.91 50.6199 48.93 50.6499 48.94C50.6799 48.95 50.7 48.97 50.71 48.99C50.72 49.01 50.73 49.03 50.73 49.06V55.58ZM47.6399 53.58H46.95C46.73 53.58 46.5401 53.6 46.3701 53.64C46.2101 53.68 46.07 53.73 45.96 53.81C45.85 53.88 45.77 53.97 45.72 54.07C45.67 54.17 45.6499 54.29 45.6499 54.42C45.6499 54.65 45.7201 54.83 45.8601 54.97C46.0101 55.1 46.21 55.17 46.47 55.17C46.68 55.17 46.8801 55.12 47.0601 55.01C47.2401 54.9 47.4299 54.74 47.6299 54.52V53.59L47.6399 53.58ZM48.4399 55.58C48.4399 55.58 48.4299 55.65 48.3999 55.67C48.3699 55.69 48.34 55.7 48.29 55.71C48.24 55.72 48.1801 55.72 48.0901 55.72C48.0001 55.72 47.9399 55.72 47.8799 55.71C47.8299 55.71 47.8 55.69 47.77 55.67C47.74 55.65 47.74 55.62 47.74 55.58V55.14C47.55 55.35 47.3301 55.5 47.1001 55.62C46.8701 55.73 46.6201 55.79 46.3501 55.79C46.1201 55.79 45.91 55.76 45.72 55.7C45.53 55.64 45.38 55.56 45.24 55.44C45.11 55.33 45.0099 55.19 44.9299 55.02C44.8599 54.85 44.8201 54.67 44.8201 54.45C44.8201 54.2 44.87 53.99 44.97 53.81C45.07 53.63 45.2199 53.48 45.3999 53.36C45.5799 53.24 45.8201 53.15 46.0901 53.09C46.3601 53.03 46.67 53 47.01 53H47.6201V52.66C47.6201 52.49 47.6001 52.34 47.5701 52.21C47.5401 52.08 47.4799 51.97 47.3899 51.89C47.3099 51.8 47.2101 51.74 47.0801 51.69C46.9501 51.64 46.8001 51.62 46.6101 51.62C46.4101 51.62 46.2301 51.64 46.0701 51.69C45.9101 51.74 45.7799 51.79 45.6499 51.85C45.5299 51.91 45.4301 51.96 45.3501 52.01C45.2701 52.06 45.2099 52.08 45.1699 52.08C45.1399 52.08 45.1201 52.08 45.1001 52.06C45.0801 52.04 45.06 52.03 45.05 52C45.04 51.97 45.03 51.94 45.02 51.9C45.02 51.86 45.02 51.81 45.02 51.76C45.02 51.68 45.02 51.62 45.03 51.57C45.04 51.52 45.0701 51.48 45.1101 51.43C45.1601 51.39 45.2301 51.34 45.3401 51.28C45.4501 51.22 45.57 51.17 45.71 51.12C45.85 51.07 45.9999 51.03 46.1699 51C46.3399 50.97 46.4999 50.95 46.6699 50.95C46.9899 50.95 47.25 50.99 47.48 51.06C47.71 51.13 47.88 51.24 48.02 51.38C48.16 51.52 48.2601 51.69 48.3201 51.89C48.3801 52.09 48.4099 52.33 48.4099 52.61V55.57L48.4399 55.58ZM43.6399 55.58C43.6399 55.58 43.6401 55.63 43.6201 55.65C43.6201 55.67 43.5901 55.68 43.5601 55.69C43.5301 55.7 43.4899 55.71 43.4399 55.72C43.3899 55.72 43.34 55.72 43.27 55.72C43.2 55.72 43.1301 55.72 43.0801 55.72C43.0301 55.72 43 55.7 42.97 55.69C42.94 55.68 42.9299 55.66 42.9199 55.65C42.9199 55.63 42.9099 55.61 42.9099 55.58V55C42.6599 55.28 42.4099 55.48 42.1699 55.61C41.9299 55.74 41.6799 55.8 41.4299 55.8C41.1399 55.8 40.8899 55.75 40.6899 55.65C40.4899 55.55 40.33 55.42 40.21 55.25C40.09 55.08 39.9999 54.89 39.9399 54.66C39.8899 54.44 39.8601 54.16 39.8601 53.84V51.17C39.8601 51.17 39.8601 51.12 39.8701 51.11C39.8801 51.09 39.9099 51.07 39.9399 51.06C39.9699 51.04 40.0101 51.03 40.0701 51.03C40.1201 51.03 40.19 51.03 40.27 51.03C40.35 51.03 40.41 51.03 40.47 51.03C40.52 51.03 40.5601 51.04 40.5901 51.06C40.6201 51.07 40.6499 51.09 40.6599 51.11C40.6699 51.13 40.6799 51.15 40.6799 51.17V53.73C40.6799 53.99 40.7 54.19 40.73 54.35C40.77 54.5 40.8299 54.63 40.8999 54.75C40.9799 54.86 41.0799 54.94 41.1899 55C41.3099 55.06 41.4401 55.09 41.6001 55.09C41.8001 55.09 42 55.02 42.2 54.88C42.4 54.74 42.6201 54.53 42.8401 54.25V51.18C42.8401 51.18 42.8401 51.13 42.8501 51.12C42.8601 51.1 42.8899 51.08 42.9199 51.07C42.9499 51.05 42.99 51.04 43.04 51.04C43.09 51.04 43.16 51.04 43.24 51.04C43.32 51.04 43.3799 51.04 43.4399 51.04C43.4899 51.04 43.5301 51.05 43.5601 51.07C43.5901 51.08 43.6101 51.1 43.6201 51.12C43.6401 51.14 43.6399 51.16 43.6399 51.18V55.57V55.58ZM38.4099 55.58C38.4099 55.58 38.4099 55.63 38.3899 55.65C38.3799 55.67 38.3601 55.68 38.3301 55.69C38.3001 55.7 38.26 55.71 38.21 55.72C38.16 55.73 38.09 55.72 38.01 55.72C37.93 55.72 37.8601 55.72 37.8101 55.72C37.7601 55.72 37.7199 55.7 37.6899 55.69C37.6599 55.68 37.6399 55.66 37.6299 55.65C37.6199 55.63 37.6101 55.61 37.6101 55.58V53.01C37.6101 52.76 37.59 52.56 37.55 52.4C37.51 52.24 37.4499 52.12 37.3799 52C37.3099 51.88 37.2101 51.8 37.0901 51.75C36.9701 51.69 36.8399 51.66 36.6799 51.66C36.4799 51.66 36.2801 51.73 36.0701 51.87C35.8601 52.01 35.6599 52.22 35.4399 52.5V55.57C35.4399 55.57 35.4399 55.62 35.4199 55.64C35.4099 55.66 35.3901 55.67 35.3601 55.68C35.3301 55.69 35.29 55.7 35.24 55.71C35.19 55.72 35.12 55.71 35.04 55.71C34.96 55.71 34.9001 55.71 34.8401 55.71C34.7801 55.71 34.75 55.69 34.71 55.68C34.68 55.67 34.6599 55.65 34.6499 55.64C34.6499 55.62 34.6399 55.6 34.6399 55.57V51.18C34.6399 51.18 34.6399 51.13 34.6499 51.12C34.6499 51.1 34.68 51.08 34.71 51.07C34.74 51.05 34.7801 51.04 34.8201 51.04C34.8701 51.04 34.93 51.04 35 51.04C35.07 51.04 35.1299 51.04 35.1799 51.04C35.2299 51.04 35.27 51.05 35.29 51.07C35.32 51.08 35.3301 51.1 35.3401 51.12C35.3501 51.14 35.3601 51.16 35.3601 51.18V51.76C35.6101 51.48 35.8501 51.28 36.1001 51.15C36.3501 51.02 36.6001 50.95 36.8501 50.95C37.1401 50.95 37.3901 51 37.5901 51.1C37.7901 51.2 37.9501 51.33 38.0801 51.5C38.2101 51.67 38.2901 51.86 38.3401 52.09C38.4001 52.31 38.4199 52.58 38.4199 52.89V55.57L38.4099 55.58ZM32.3401 53.58H31.6499C31.4299 53.58 31.2401 53.6 31.0701 53.64C30.9101 53.68 30.7699 53.73 30.6599 53.81C30.5499 53.88 30.4699 53.97 30.4199 54.07C30.3699 54.17 30.3501 54.29 30.3501 54.42C30.3501 54.65 30.4201 54.83 30.5601 54.97C30.7101 55.1 30.9099 55.17 31.1699 55.17C31.3799 55.17 31.58 55.12 31.76 55.01C31.94 54.9 32.1301 54.74 32.3301 54.52V53.59L32.3401 53.58ZM33.1399 55.58C33.1399 55.58 33.1301 55.65 33.1001 55.67C33.0701 55.69 33.04 55.7 32.99 55.71C32.94 55.72 32.88 55.72 32.79 55.72C32.7 55.72 32.6401 55.72 32.5801 55.71C32.5301 55.71 32.5 55.69 32.47 55.67C32.44 55.65 32.4399 55.62 32.4399 55.58V55.14C32.2499 55.35 32.03 55.5 31.8 55.62C31.57 55.73 31.32 55.79 31.05 55.79C30.82 55.79 30.6099 55.76 30.4199 55.7C30.2299 55.64 30.0799 55.56 29.9399 55.44C29.8099 55.33 29.7099 55.19 29.6299 55.02C29.5599 54.85 29.52 54.67 29.52 54.45C29.52 54.2 29.5699 53.99 29.6699 53.81C29.7699 53.63 29.9201 53.48 30.1001 53.36C30.2801 53.24 30.52 53.15 30.79 53.09C31.06 53.03 31.37 53 31.71 53H32.3201V52.66C32.3201 52.49 32.3 52.34 32.27 52.21C32.24 52.08 32.1801 51.97 32.0901 51.89C32.0101 51.8 31.91 51.74 31.78 51.69C31.65 51.64 31.5001 51.62 31.3101 51.62C31.1101 51.62 30.93 51.64 30.77 51.69C30.61 51.74 30.4801 51.79 30.3501 51.85C30.2301 51.91 30.13 51.96 30.05 52.01C29.97 52.06 29.9101 52.08 29.8701 52.08C29.8401 52.08 29.82 52.08 29.8 52.06C29.78 52.04 29.76 52.03 29.75 52C29.74 51.97 29.73 51.94 29.72 51.9C29.72 51.86 29.72 51.81 29.72 51.76C29.72 51.68 29.72 51.62 29.73 51.57C29.74 51.52 29.7701 51.48 29.8101 51.43C29.8601 51.39 29.93 51.34 30.04 51.28C30.15 51.22 30.2699 51.17 30.4099 51.12C30.5499 51.07 30.7001 51.03 30.8701 51C31.0401 50.97 31.2001 50.95 31.3701 50.95C31.6901 50.95 31.9499 50.99 32.1799 51.06C32.4099 51.13 32.58 51.24 32.72 51.38C32.86 51.52 32.96 51.69 33.02 51.89C33.08 52.09 33.1101 52.33 33.1101 52.61V55.57L33.1399 55.58ZM28.24 55.57C28.24 55.57 28.24 55.62 28.22 55.64C28.2 55.66 28.1799 55.68 28.1499 55.69C28.1199 55.69 28.08 55.71 28.02 55.71C27.97 55.71 27.9101 55.72 27.8201 55.72C27.7501 55.72 27.6801 55.72 27.6201 55.71C27.5701 55.71 27.53 55.7 27.49 55.69C27.46 55.68 27.4399 55.66 27.4299 55.64C27.4199 55.62 27.4099 55.6 27.4099 55.57V50.07L25.1599 55.6C25.1599 55.6 25.1401 55.64 25.1201 55.66C25.1001 55.68 25.08 55.69 25.04 55.7C25.01 55.7 24.9699 55.72 24.9199 55.72C24.8699 55.72 24.82 55.72 24.75 55.72C24.68 55.72 24.6201 55.72 24.5701 55.72C24.5201 55.72 24.48 55.71 24.45 55.7C24.42 55.69 24.3901 55.67 24.3701 55.66C24.3501 55.64 24.3401 55.63 24.3401 55.61L22.1899 50.08V55.58C22.1899 55.58 22.1899 55.63 22.1699 55.65C22.1499 55.67 22.1301 55.69 22.1001 55.7C22.0701 55.7 22.03 55.72 21.97 55.72C21.92 55.72 21.85 55.73 21.77 55.73C21.69 55.73 21.6301 55.73 21.5701 55.72C21.5201 55.72 21.4799 55.71 21.4399 55.7C21.4099 55.69 21.3899 55.67 21.3799 55.65C21.3799 55.63 21.3701 55.61 21.3701 55.58V49.77C21.3701 49.63 21.41 49.54 21.48 49.48C21.55 49.42 21.63 49.39 21.72 49.39H22.23C22.33 49.39 22.43 49.39 22.5 49.42C22.57 49.45 22.65 49.47 22.71 49.51C22.77 49.55 22.8201 49.61 22.8601 49.67C22.9001 49.73 22.93 49.81 22.96 49.9L24.79 54.48H24.8101L26.71 49.92C26.75 49.82 26.7801 49.74 26.8301 49.67C26.8801 49.6 26.92 49.55 26.97 49.51C27.02 49.47 27.0799 49.44 27.1399 49.42C27.1999 49.4 27.2701 49.39 27.3501 49.39H27.8799C27.8799 49.39 27.97 49.39 28.02 49.41C28.07 49.42 28.0999 49.45 28.1299 49.48C28.1599 49.51 28.19 49.55 28.21 49.6C28.23 49.65 28.24 49.7 28.24 49.77V55.58V55.57Z" fill="white"/>
</mask>
<g mask="url(#mask6_893_4928)">
<path d="M49.73 49.0499V55.5699H51.73V49.0499H49.73ZM49.8799 49.5399C49.7699 49.3799 49.73 49.1999 49.73 49.0499H51.73C51.73 48.8499 51.68 48.6299 51.54 48.4299L49.8799 49.5399ZM50.24 49.8499C50.16 49.8099 49.9999 49.7299 49.8799 49.5399L51.54 48.4299C51.39 48.2099 51.19 48.0799 51.05 48.0199L50.24 49.8499ZM50.3999 49.8999C50.3999 49.8999 50.3801 49.8999 50.3601 49.8999C50.3401 49.8999 50.29 49.8799 50.24 49.8599L51.05 48.0299C50.89 47.9599 50.7399 47.9299 50.6499 47.9199L50.3999 49.8999ZM50.3301 49.8999C50.3301 49.8999 50.3799 49.8999 50.3899 49.8999C50.3999 49.8999 50.4099 49.8999 50.3999 49.8999L50.6499 47.9199C50.5399 47.9099 50.4301 47.8999 50.3301 47.8999V49.8999ZM50.26 49.8999C50.26 49.8999 50.26 49.8999 50.27 49.8999C50.28 49.8999 50.3001 49.8999 50.3301 49.8999V47.8999C50.2301 47.8999 50.12 47.8999 50.01 47.9199L50.26 49.8999ZM50.3799 49.8699C50.3799 49.8699 50.31 49.8899 50.29 49.8999C50.27 49.8999 50.26 49.8999 50.26 49.8999L50.01 47.9199C49.91 47.9299 49.7799 47.9599 49.6399 48.0099L50.3799 49.8699ZM50.77 49.5399C50.65 49.7299 50.4899 49.8099 50.4099 49.8499L49.6001 48.0199C49.4601 48.0799 49.2601 48.1999 49.1101 48.4299L50.77 49.5399ZM50.9299 49.0499C50.9299 49.1499 50.9101 49.2899 50.8401 49.4299L49.05 48.5399C48.96 48.7199 48.9299 48.8999 48.9299 49.0599H50.9299V49.0499ZM50.9299 55.5799V49.0599H48.9299V55.5799H50.9299ZM50.8301 55.1999C50.9001 55.3399 50.9199 55.4799 50.9199 55.5799H48.9199C48.9199 55.7299 48.95 55.9099 49.04 56.0999L50.8301 55.2099V55.1999ZM50.4099 54.7799C50.4099 54.7799 50.48 54.8199 50.54 54.8499C50.59 54.8899 50.66 54.9399 50.73 55.0199L49.1699 56.2699C49.3199 56.4599 49.5001 56.5599 49.6101 56.5999L50.4199 54.7699L50.4099 54.7799ZM50.26 54.7299C50.26 54.7299 50.27 54.7299 50.29 54.7299C50.31 54.7299 50.3399 54.7399 50.3799 54.7599L49.6399 56.6199C49.7799 56.6799 49.92 56.6999 50.01 56.7099L50.26 54.7299ZM50.3301 54.7299C50.3301 54.7299 50.29 54.7299 50.27 54.7299C50.26 54.7299 50.25 54.7299 50.26 54.7299L50.01 56.7099C50.12 56.7199 50.2301 56.7299 50.3301 56.7299V54.7299ZM50.3999 54.7299C50.3999 54.7299 50.3999 54.7299 50.3899 54.7299C50.3799 54.7299 50.3601 54.7299 50.3301 54.7299V56.7299C50.4301 56.7299 50.5499 56.7299 50.6499 56.7099L50.3999 54.7299ZM50.24 54.7799C50.29 54.7599 50.3401 54.7399 50.3601 54.7399C50.3801 54.7399 50.3999 54.7399 50.3999 54.7399L50.6499 56.7198C50.7499 56.7098 50.9 56.6799 51.05 56.6099L50.24 54.7799ZM49.9299 55.0199C49.9999 54.9399 50.0601 54.8799 50.1201 54.8499C50.1701 54.8099 50.22 54.7899 50.25 54.7799L51.0601 56.6099C51.1601 56.5599 51.35 56.4699 51.5 56.2799L49.9399 55.0299L49.9299 55.0199ZM49.73 55.5799C49.73 55.4299 49.7699 55.2599 49.8799 55.0899L51.54 56.1999C51.67 55.9999 51.73 55.7799 51.73 55.5799H49.73ZM50 48.9399L49.6299 48.0099H49.6101L49.5901 48.0199L50 48.9299V48.9399ZM49.9399 48.9899L49.1101 48.4399L49.0801 48.4899L49.05 48.5499L49.9399 48.9999V48.9899ZM49.9399 55.6499L49.05 56.0999L49.1001 56.1899L49.1699 56.2699L49.95 55.6499H49.9399ZM50 55.6899L49.5901 56.5999H49.6101L49.6299 56.6099L50 55.6799V55.6899ZM50.71 55.6499L51.49 56.2699L51.52 56.2399L51.54 56.1999L50.71 55.6499ZM48.6399 54.5099V53.5799H46.6399V54.5099H48.6399ZM47.5801 55.8599C47.8801 55.6799 48.1499 55.4399 48.3899 55.1699L46.8999 53.8299C46.7399 53.9999 46.6301 54.0899 46.5701 54.1299L47.5901 55.8499L47.5801 55.8599ZM46.48 56.1599C46.87 56.1599 47.2401 56.0599 47.5801 55.8599L46.55 54.1499C46.55 54.1499 46.51 54.1699 46.48 54.1699V56.1699V56.1599ZM45.2 55.6999C45.58 56.0499 46.05 56.1599 46.48 56.1599V54.1599C46.48 54.1599 46.4299 54.1599 46.4399 54.1599C46.4399 54.1599 46.46 54.1599 46.48 54.1799C46.5 54.1899 46.52 54.1998 46.54 54.2198L45.1899 55.6999H45.2ZM44.6599 54.4199C44.6599 54.8799 44.8099 55.3399 45.1799 55.6899L46.5601 54.2399C46.5601 54.2399 46.6199 54.3099 46.6399 54.3599C46.6599 54.3999 46.6599 54.4299 46.6599 54.4199H44.6599ZM44.8301 53.6299C44.7001 53.8899 44.6599 54.1599 44.6599 54.4199H46.6599C46.6599 54.4199 46.6599 54.4499 46.6299 54.4999L44.8301 53.6299ZM45.4199 52.9698C45.1799 53.1298 44.9801 53.3399 44.8401 53.6199L46.6299 54.5099C46.6299 54.5099 46.6001 54.5699 46.5801 54.5899C46.5601 54.6099 46.54 54.6199 46.53 54.6299L45.4199 52.9698ZM46.1599 52.6599C45.8999 52.7199 45.6399 52.8199 45.3999 52.9799L46.54 54.6199C46.54 54.6199 46.52 54.6299 46.53 54.6199C46.53 54.6199 46.5601 54.6199 46.5901 54.5999L46.1599 52.6499V52.6599ZM46.95 52.5799C46.67 52.5799 46.3999 52.5999 46.1399 52.6699L46.6101 54.6099C46.6801 54.5899 46.79 54.5799 46.95 54.5799V52.5799ZM47.6399 52.5799H46.95V54.5799H47.6399V52.5799ZM47.4399 52.6199V55.5799H49.4399V52.6199H47.4399ZM47.3899 52.1899C47.4199 52.2799 47.4399 52.4199 47.4399 52.6199H49.4399C49.4399 52.2699 49.4 51.9299 49.3 51.6099L47.3899 52.1899ZM47.3401 52.0999C47.3401 52.0999 47.3699 52.1299 47.3899 52.1899L49.3 51.6099C49.2 51.2599 49.02 50.9399 48.75 50.6799L47.3401 52.0899V52.0999ZM47.21 52.0199C47.31 52.0499 47.3401 52.0799 47.3401 52.0799L48.77 50.6799C48.5 50.3999 48.1701 50.2199 47.8301 50.1099L47.21 52.0099V52.0199ZM46.71 51.9599C46.96 51.9599 47.11 51.9899 47.21 52.0199L47.8301 50.1199C47.4801 50.0099 47.1 49.9599 46.72 49.9599V51.9599H46.71ZM46.3999 51.9899C46.4999 51.9699 46.61 51.9599 46.71 51.9599V49.9599C46.48 49.9599 46.24 49.9799 46.01 50.0299L46.3999 51.9899ZM46.0801 52.0699C46.1601 52.0399 46.2599 52.0099 46.3799 51.9899L46.03 50.0199C45.82 50.0599 45.6099 50.1099 45.4199 50.1799L46.0801 52.0699ZM45.8501 52.1599C45.8501 52.1599 45.96 52.1099 46.05 52.0799L45.4299 50.1799C45.2399 50.2399 45.0599 50.3199 44.8899 50.4099L45.8501 52.1699V52.1599ZM45.8301 52.1699C45.8301 52.1699 45.81 52.1899 45.8 52.1899C45.79 52.1899 45.79 52.1999 45.78 52.1999C45.78 52.1999 45.78 52.1999 45.8 52.1899C45.81 52.1899 45.8201 52.1799 45.8401 52.1699L44.9199 50.3899C44.7899 50.4599 44.62 50.5499 44.47 50.6899L45.8301 52.1599V52.1699ZM46.03 51.8299C45.99 51.9799 45.9101 52.0799 45.8501 52.1399L44.4399 50.7299C44.2999 50.8699 44.1601 51.0699 44.1001 51.3199L46.03 51.8399V51.8299ZM46.05 51.7599V51.7399C46.05 51.7399 46.05 51.7399 46.05 51.7499C46.05 51.7499 46.05 51.7699 46.05 51.7899L44.0901 51.3699C44.0601 51.5199 44.05 51.6599 44.05 51.7699H46.05V51.7599ZM46.05 51.7399V51.7599H44.05C44.05 51.8499 44.0501 51.9499 44.0701 52.0499L46.05 51.7499V51.7399ZM45.98 51.5499C46.02 51.6399 46.04 51.7099 46.04 51.7399L44.0701 52.0699C44.0901 52.1699 44.1199 52.3099 44.1899 52.4499L45.98 51.5599V51.5499ZM45.7 51.2198C45.83 51.3098 45.8999 51.3999 45.9399 51.4599L44.24 52.5199C44.31 52.6299 44.4201 52.7699 44.5901 52.8799L45.7 51.2198ZM45.21 51.0699C45.36 51.0699 45.53 51.1098 45.7 51.2198L44.5901 52.8799C44.7901 53.0099 45.01 53.0699 45.21 53.0699V51.0699ZM44.8799 51.1399C44.8799 51.1399 44.8799 51.1399 44.9199 51.1199C44.9399 51.1199 44.97 51.0999 45.01 51.0899C45.05 51.0899 45.12 51.0699 45.2 51.0699V53.0699C45.4 53.0699 45.5499 53.0199 45.6399 52.9799C45.7299 52.9399 45.8199 52.8999 45.8799 52.8599L44.8701 51.1299L44.8799 51.1399ZM45.26 50.9399C45.12 50.9999 44.9901 51.0699 44.8701 51.1399L45.8999 52.8499C45.8999 52.8499 46.0101 52.7899 46.1101 52.7399L45.26 50.9299V50.9399ZM45.8201 50.7299C45.6201 50.7899 45.43 50.8599 45.25 50.9499L46.1201 52.7499C46.1801 52.7199 46.2599 52.6899 46.3799 52.6499L45.8201 50.7299ZM46.6399 50.6199C46.3599 50.6199 46.0801 50.6499 45.8101 50.7399L46.3999 52.6499C46.3999 52.6499 46.5299 52.6199 46.6399 52.6199V50.6199ZM47.4399 50.7499C47.1699 50.6499 46.8899 50.6199 46.6299 50.6199V52.6199C46.6799 52.6199 46.72 52.6199 46.74 52.6199C46.76 52.6199 46.77 52.6199 46.76 52.6199L47.4399 50.7399V50.7499ZM48.1599 51.2198C47.9499 50.9798 47.6899 50.8299 47.4199 50.7399L46.79 52.6399C46.79 52.6399 46.77 52.6399 46.74 52.6199C46.72 52.5999 46.6899 52.5799 46.6599 52.5499L48.1499 51.2198H48.1599ZM48.55 51.9399C48.48 51.6699 48.3399 51.4099 48.1299 51.1899L46.6899 52.5799C46.6899 52.5799 46.6499 52.5299 46.6399 52.5099C46.6299 52.4899 46.6201 52.4798 46.6201 52.4698L48.55 51.9399ZM48.6399 52.6499C48.6399 52.4099 48.62 52.1699 48.55 51.9399L46.6201 52.4698C46.6201 52.4698 46.6399 52.5499 46.6399 52.6499H48.6399ZM48.6399 52.9999V52.6599H46.6399V52.9999H48.6399ZM47.04 53.9999H47.6499V51.9999H47.04V53.9999ZM46.3301 54.0599C46.5201 54.0199 46.75 53.9899 47.03 53.9899V51.9899C46.63 51.9899 46.2499 52.0299 45.8899 52.1099L46.3301 54.0599ZM45.96 54.1999C46.03 54.1599 46.1401 54.1099 46.3301 54.0699L45.9099 52.1099C45.5499 52.1899 45.1999 52.3199 44.8899 52.5099L45.97 54.1999H45.96ZM45.8601 54.2899C45.8601 54.2899 45.9 54.2299 45.96 54.1899L44.8799 52.4999C44.5599 52.6999 44.3001 52.9699 44.1101 53.3099L45.8601 54.2799V54.2899ZM45.8301 54.4599C45.8301 54.3499 45.8501 54.3099 45.8601 54.2999L44.1101 53.3299C43.9101 53.6899 43.8301 54.0699 43.8301 54.4599H45.8301ZM45.8601 54.6299C45.8601 54.6299 45.8301 54.5599 45.8301 54.4599H43.8301C43.8301 54.7799 43.89 55.1099 44.02 55.4199L45.8601 54.6299ZM45.9099 54.6899C45.9099 54.6899 45.8701 54.6499 45.8601 54.6099L44.04 55.4299C44.17 55.7199 44.3601 55.9799 44.6001 56.1899L45.9199 54.6799L45.9099 54.6899ZM46.03 54.7499C45.96 54.7299 45.9199 54.6999 45.8999 54.6799L44.6001 56.1999C44.8501 56.4099 45.1299 56.5599 45.4299 56.6499L46.03 54.7399V54.7499ZM46.3601 54.7899C46.2201 54.7899 46.11 54.7699 46.04 54.7499L45.4199 56.6499C45.7199 56.7499 46.0401 56.7899 46.3601 56.7899V54.7899ZM46.6699 54.7198C46.5699 54.7698 46.4701 54.7899 46.3601 54.7899V56.7899C46.7701 56.7899 47.17 56.6999 47.54 56.5199L46.6699 54.7198ZM47.02 54.4599C46.91 54.5799 46.7899 54.6598 46.6699 54.7198L47.53 56.5199C47.89 56.3499 48.2 56.1099 48.47 55.8199L47.01 54.4499L47.02 54.4599ZM48.75 55.5799V55.1399H46.75V55.5799H48.75ZM48.4299 54.9099C48.6899 55.1299 48.75 55.4199 48.75 55.5799H46.75C46.75 55.8199 46.8299 56.1599 47.1299 56.4299L48.4299 54.9099ZM48.0901 54.7299C48.0901 54.7299 48.15 54.7399 48.21 54.7699C48.26 54.7899 48.3499 54.8299 48.4399 54.9099L47.1399 56.4299C47.3499 56.6099 47.58 56.6699 47.7 56.6999L48.0901 54.7399V54.7299ZM48.0901 54.7299H48.05C48.05 54.7299 48.0601 54.7299 48.0701 54.7299L47.7 56.6999C47.84 56.7299 47.9701 56.7299 48.0901 56.7299V54.7299ZM48.0901 54.7399C48.0901 54.7399 48.1199 54.7399 48.1299 54.7399H48.1399C48.1399 54.7399 48.1399 54.7399 48.1299 54.7399C48.1199 54.7399 48.1101 54.7399 48.1001 54.7399V56.7399C48.2101 56.7399 48.36 56.7399 48.51 56.6999L48.0901 54.7399ZM47.8 54.8699C47.93 54.7699 48.0401 54.7399 48.0801 54.7399L48.5 56.6999C48.63 56.6699 48.82 56.6099 49 56.4799L47.8 54.8799V54.8699ZM47.4399 55.5799C47.4399 55.4899 47.45 55.3599 47.52 55.2299C47.58 55.0899 47.68 54.9599 47.8 54.8699L49 56.4698C49.33 56.2198 49.4399 55.8699 49.4399 55.5799H47.4399ZM47.6399 54.5099L48.3799 55.1799L48.6399 54.8899V54.5099H47.6399ZM45.8701 54.9599L45.1799 55.6799V55.6999L45.8501 54.9599H45.8701ZM45.73 54.0599L44.8401 53.6099L45.74 54.0599H45.73ZM45.97 53.7999L46.52 54.6299V54.6199L45.95 53.7999H45.97ZM46.3799 53.6299L46.5901 54.6099L46.3601 53.6399L46.3799 53.6299ZM47.6399 53.5799H48.6399V52.5799H47.6399V53.5799ZM48.05 51.3899L47.3301 52.0899L48.04 51.3899H48.05ZM46.21 51.0099L46.3799 51.9899L46.1899 51.0099H46.21ZM45.75 51.1299L46.0601 52.0799H46.0701L45.74 51.1399L45.75 51.1299ZM45.3799 51.2899L45.8401 52.1799H45.8501L45.8601 52.1699L45.3799 51.2899ZM45.1499 51.4299L44.47 50.6999H44.46L44.45 50.7299L45.1599 51.4399L45.1499 51.4299ZM45.0601 51.5699L44.0901 51.3099V51.3299L44.0801 51.3499L45.0601 51.5599V51.5699ZM45.0901 51.9899L44.2 52.4399L44.22 52.4799L44.25 52.5199L45.1001 51.9899H45.0901ZM45.3899 51.9999L45.8899 52.8599H45.8999L45.3899 51.9999ZM45.6799 51.8499L46.1101 52.7499H46.1201L45.6799 51.8499ZM46.1001 51.6899L46.3799 52.6499H46.3899L46.1001 51.6899ZM47.1001 51.6899L46.76 52.6299H46.77H46.78L47.1001 51.6799V51.6899ZM47.4099 51.8799L46.6599 52.5399H46.6699L46.6799 52.5699L47.3999 51.8799H47.4099ZM47.6399 52.9999V53.9999H48.6399V52.9999H47.6399ZM46.1101 53.0899L46.3201 54.0699H46.3301L46.1101 53.0899ZM44.9399 55.0199L44.02 55.4199V55.4399L44.9299 55.0299L44.9399 55.0199ZM45.25 55.4399L44.5901 56.1899L45.24 55.4399H45.25ZM45.73 55.6999L46.04 54.7499H46.03L45.73 55.6999ZM47.1001 55.6199L46.6699 54.7198L47.1101 55.6199H47.1001ZM47.75 55.1399H48.75V52.6099L47.02 54.4599L47.75 55.1399ZM47.8899 55.7099L47.6899 56.6899H47.7L47.8799 55.7099H47.8899ZM42.6399 51.1799V55.5699H44.6399V51.1799H42.6399ZM42.9099 51.8299C42.8199 51.7399 42.75 51.6299 42.7 51.5099C42.65 51.3899 42.6399 51.2799 42.6399 51.1899H44.6399C44.6399 50.9399 44.5501 50.6499 44.3201 50.4199L42.9099 51.8299ZM43.1499 51.9899C43.0699 51.9499 42.91 51.8699 42.79 51.6799L44.45 50.5699C44.3 50.3499 44.1 50.2199 43.96 50.1599L43.1499 51.9899ZM43.3701 52.0399C43.3701 52.0399 43.32 52.0399 43.27 52.0199C43.22 52.0099 43.1501 51.9899 43.0701 51.9399L44.04 50.1899C43.83 50.0699 43.62 50.0399 43.49 50.0399L43.3701 52.0399ZM43.24 52.0299C43.24 52.0299 43.28 52.0299 43.3 52.0299C43.31 52.0299 43.3201 52.0299 43.3101 52.0299L43.5601 50.0499C43.4501 50.0399 43.34 50.0299 43.24 50.0299V52.0299ZM43.1599 52.0299C43.1599 52.0299 43.1599 52.0299 43.1699 52.0299C43.1799 52.0299 43.2 52.0299 43.23 52.0299V50.0299C43.13 50.0299 43.0099 50.0299 42.9099 50.0499L43.1599 52.0299ZM43.3601 51.9698C43.2401 52.0298 43.1401 52.0399 43.1001 52.0399L42.97 50.0399C42.83 50.0399 42.65 50.0799 42.47 50.1699L43.3601 51.9599V51.9698ZM43.6799 51.6699C43.5399 51.8799 43.36 51.9699 43.29 51.9899L42.55 50.1299C42.42 50.1799 42.19 50.2999 42.02 50.5499L43.6799 51.6599V51.6699ZM43.8301 51.1799C43.8301 51.2699 43.81 51.4399 43.7 51.6299L41.98 50.5999C41.85 50.8199 41.8201 51.0399 41.8201 51.1799H43.8201H43.8301ZM43.8301 54.2499V51.1799H41.8301V54.2499H43.8301ZM42.77 55.6999C43.07 55.4899 43.3501 55.1999 43.6101 54.8799L42.0601 53.6199C41.8701 53.8499 41.7201 53.9899 41.6201 54.0599L42.78 55.6899L42.77 55.6999ZM41.5901 56.0999C42.0401 56.0999 42.44 55.9399 42.78 55.6999L41.6101 54.0799L41.5601 54.1099C41.5601 54.1099 41.5601 54.1099 41.5701 54.1099H41.5901V56.1099V56.0999ZM40.73 55.9099C41.01 56.0499 41.3101 56.0999 41.5901 56.0999V54.0999C41.5901 54.0999 41.5701 54.0999 41.5801 54.0999C41.5801 54.0999 41.6099 54.0999 41.6299 54.1199L40.74 55.9099H40.73ZM40.0801 55.3499C40.2501 55.5799 40.46 55.7699 40.72 55.8999L41.6499 54.1299C41.6499 54.1299 41.6699 54.1299 41.6799 54.1499C41.6899 54.1699 41.7 54.1699 41.7 54.1699L40.0801 55.3499ZM39.75 54.6099C39.81 54.8499 39.9101 55.0999 40.0601 55.3199L41.72 54.1999C41.72 54.1999 41.72 54.1999 41.72 54.1799C41.72 54.1699 41.71 54.1499 41.7 54.1199L39.76 54.6099H39.75ZM39.6599 53.7399C39.6599 54.0299 39.68 54.3199 39.74 54.5799L41.6899 54.1299C41.6799 54.0799 41.6599 53.9499 41.6599 53.7299H39.6599V53.7399ZM39.6599 51.1799V53.7399H41.6599V51.1799H39.6599ZM39.8601 51.7399C39.7001 51.5399 39.6599 51.3199 39.6599 51.1799H41.6599C41.6599 50.9799 41.6099 50.7299 41.4199 50.4899L39.8601 51.7399ZM40.2 51.9999C40.13 51.9699 39.9501 51.8899 39.8101 51.6799L41.47 50.5699C41.3 50.3199 41.0699 50.1999 40.9399 50.1499L40.2 52.0099V51.9999ZM40.3899 52.0399C40.3899 52.0399 40.34 52.0399 40.29 52.0199C40.24 52.0099 40.1701 51.9899 40.0901 51.9399L41.0601 50.1899C40.8501 50.0699 40.64 50.0399 40.51 50.0399L40.3899 52.0399ZM40.26 52.0299C40.26 52.0299 40.3001 52.0299 40.3201 52.0299C40.3301 52.0299 40.3401 52.0299 40.3301 52.0299L40.5801 50.0499C40.4701 50.0399 40.36 50.0299 40.26 50.0299V52.0299ZM40.1899 52.0299C40.1899 52.0299 40.19 52.0299 40.2 52.0299C40.21 52.0299 40.23 52.0299 40.26 52.0299V50.0299C40.16 50.0299 40.0499 50.0299 39.9399 50.0499L40.1899 52.0299ZM40.3799 51.9698C40.2499 52.0298 40.1501 52.0399 40.1201 52.0399L40 50.0399C39.87 50.0399 39.68 50.0799 39.49 50.1699L40.3799 51.9599V51.9698ZM40.7 51.6699C40.56 51.8799 40.3801 51.9699 40.3101 51.9899L39.5701 50.1299C39.4401 50.1799 39.21 50.2999 39.04 50.5499L40.7 51.6599V51.6699ZM40.8501 51.1799C40.8501 51.2699 40.83 51.4399 40.72 51.6299L39 50.5999C38.87 50.8199 38.8401 51.0399 38.8401 51.1799H40.8401H40.8501ZM40.8501 53.8499V51.1799H38.8501V53.8499H40.8501ZM40.9099 54.4399C40.8799 54.3099 40.8601 54.1199 40.8601 53.8499H38.8601C38.8601 54.2199 38.89 54.5699 38.96 54.8899L40.9099 54.4399ZM41.01 54.6599C40.97 54.5999 40.9299 54.5299 40.8999 54.4199L38.96 54.8999C39.04 55.2399 39.1799 55.5499 39.3899 55.8299L41 54.6499L41.01 54.6599ZM41.1201 54.7499C41.0501 54.7199 41.02 54.6799 41 54.6499L39.3999 55.8399C39.6199 56.1399 39.91 56.3699 40.24 56.5399L41.1201 54.7499ZM41.4299 54.7899C41.2399 54.7899 41.1501 54.7599 41.1201 54.7399L40.25 56.5399C40.62 56.7199 41.0299 56.7899 41.4299 56.7899V54.7899ZM41.71 54.7198C41.59 54.7798 41.4999 54.7999 41.4299 54.7999V56.7999C41.8599 56.7999 42.2599 56.6899 42.6299 56.4999L41.71 54.7299V54.7198ZM42.1699 54.3299C41.9699 54.5499 41.82 54.6598 41.71 54.7198L42.6299 56.4899C43.0099 56.2899 43.3499 55.9999 43.6499 55.6699L42.1699 54.3299ZM43.9099 55.5799V54.9999H41.9099V55.5799H43.9099ZM43.8201 55.1999C43.8901 55.3399 43.9099 55.4799 43.9099 55.5799H41.9099C41.9099 55.7299 41.94 55.9099 42.03 56.0999L43.8201 55.2099V55.1999ZM43.4199 54.7999C43.4799 54.8299 43.65 54.9199 43.78 55.1399L42.0601 56.1699C42.2101 56.4099 42.41 56.5399 42.52 56.5899L43.4099 54.7999H43.4199ZM43.23 54.7299C43.23 54.7299 43.25 54.7299 43.28 54.7399C43.3 54.7399 43.3399 54.7599 43.3799 54.7799L42.5701 56.6099C42.7101 56.6699 42.85 56.6998 42.95 56.7198L43.23 54.7399V54.7299ZM43.28 54.7299C43.28 54.7299 43.24 54.7299 43.23 54.7299C43.22 54.7299 43.22 54.7299 43.23 54.7299L42.97 56.7099C43.08 56.7199 43.19 56.7299 43.29 56.7299V54.7299H43.28ZM43.3 54.7299C43.3 54.7299 43.28 54.7299 43.26 54.7299V56.7299C43.36 56.7299 43.4601 56.7299 43.5701 56.7099L43.29 54.7299H43.3ZM43.1599 54.7799C43.1599 54.7799 43.25 54.7499 43.27 54.7399C43.29 54.7299 43.3101 54.7399 43.3101 54.7399L43.5701 56.7198C43.6701 56.7098 43.81 56.6799 43.96 56.6099L43.1499 54.7799H43.1599ZM42.76 55.1299C42.84 54.9999 42.93 54.9199 43 54.8699C43.07 54.8199 43.1199 54.7899 43.1599 54.7799L43.97 56.6099C44.07 56.5699 44.31 56.4399 44.48 56.1699L42.76 55.1399V55.1299ZM42.6399 55.5799C42.6399 55.4299 42.68 55.2599 42.79 55.0899L44.45 56.1999C44.58 55.9999 44.6399 55.7799 44.6399 55.5799H42.6399ZM43.6201 51.1199L42.79 51.6699L42.8401 51.7499L42.9099 51.8199L43.6201 51.1099V51.1199ZM43.55 51.0699L43.0601 51.9399L43.1001 51.9599L43.1399 51.9799L43.55 51.0699ZM43.4299 51.0399L43.3101 52.0299H43.3401H43.3701L43.4299 51.0299V51.0399ZM43.04 51.0399L43.1101 52.0399H43.1399H43.1699L43.05 51.0499L43.04 51.0399ZM42.9099 51.0699L43.28 51.9999L43.3201 51.9799L43.3601 51.9599L42.9099 51.0699ZM42.8501 51.1199L42.02 50.5699V50.5899L41.99 50.6099L42.8501 51.1199ZM42.8301 54.2499L43.6101 54.8799L43.8301 54.5999V54.2499H42.8301ZM42.1899 54.8799L41.6101 54.0599L42.2 54.8799H42.1899ZM41.1799 55.0099L40.71 55.8899L40.72 55.8999L41.1699 55.0099H41.1799ZM40.8899 54.7599L40.0601 55.3199L40.0701 55.3499L40.8799 54.7599H40.8899ZM40.72 54.3599L39.75 54.5799V54.5999L40.72 54.3499V54.3599ZM40.6399 51.1199L39.8101 51.6699L39.8301 51.7099L39.8601 51.7399L40.6399 51.1199ZM40.5801 51.0699L40.0901 51.9399L40.1499 51.9698L40.21 51.9899L40.5801 51.0599V51.0699ZM40.45 51.0399L40.3301 52.0299H40.3601H40.3899L40.45 51.0299V51.0399ZM40.0601 51.0399L40.1201 52.0399H40.1499H40.1799L40.0601 51.0499V51.0399ZM39.9399 51.0699L40.3101 51.9999L40.3501 51.9799L40.3899 51.9599L39.9399 51.0699ZM39.8701 51.1199L39.04 50.5699V50.5899L39.01 50.6099L39.8701 51.1199ZM39.9299 54.6699L38.96 54.8999V54.9199L39.9299 54.6799V54.6699ZM40.2 55.2499L39.3899 55.8399L40.1899 55.2499H40.2ZM42.9099 54.9999H43.9099V52.4099L42.1699 54.3299L42.9099 54.9999ZM42.9199 55.6499L42.03 56.0999L42.05 56.1299L42.0701 56.1599L42.9299 55.6499H42.9199ZM42.98 55.6899L42.53 56.5799H42.55L42.5701 56.5999L42.98 55.6899ZM43.0901 55.7198L42.95 56.7099L43.0801 55.7198H43.0901ZM43.45 55.7198L43.3201 54.7299L43.46 55.7198H43.45ZM43.6201 55.6499L42.79 55.0999V55.1199L42.76 55.1399L43.6201 55.6499ZM37.4099 52.8999V55.5799H39.4099V52.8999H37.4099ZM37.3501 52.3399C37.3801 52.4599 37.3999 52.6399 37.3999 52.8999H39.3999C39.3999 52.5299 39.37 52.1799 39.29 51.8599L37.3501 52.3399ZM37.26 52.1099C37.26 52.1099 37.3301 52.2199 37.3501 52.3199L39.3 51.8699C39.22 51.5299 39.0801 51.1999 38.8601 50.9099L37.26 52.0999V52.1099ZM37.1399 52.0199C37.2099 52.0499 37.24 52.0899 37.26 52.1099L38.8601 50.9199C38.6301 50.6099 38.34 50.3798 38.01 50.2198L37.1399 52.0199ZM36.8401 51.9599C37.0201 51.9599 37.1001 51.9899 37.1201 51.9999L38.03 50.2198C37.65 50.0298 37.2401 49.9599 36.8401 49.9599V51.9599ZM36.55 52.0399C36.67 51.9799 36.7601 51.9599 36.8301 51.9599V49.9599C36.4001 49.9599 35.9901 50.0699 35.6201 50.2699L36.55 52.0399ZM36.1001 52.4299C36.2901 52.2099 36.45 52.0999 36.55 52.0499L35.6299 50.2799C35.2499 50.4799 34.9101 50.7699 34.6101 51.1099L36.1001 52.4399V52.4299ZM34.3501 51.1799V51.7599H36.3501V51.1799H34.3501ZM34.55 51.7399C34.39 51.5399 34.3501 51.3199 34.3501 51.1799H36.3501C36.3501 50.9799 36.3001 50.7299 36.1101 50.4899L34.55 51.7399ZM34.8301 51.9698C34.7301 51.9198 34.5499 51.7999 34.4399 51.5699L36.23 50.6799C36.1 50.4099 35.88 50.2599 35.73 50.1799L34.8401 51.9698H34.8301ZM35.1001 52.0399C35.1001 52.0399 35.03 52.0399 34.98 52.0199C34.92 52.0099 34.84 51.9799 34.75 51.9199L35.8101 50.2198C35.5901 50.0798 35.36 50.0499 35.23 50.0399L35.1001 52.0399ZM34.99 52.0299C34.99 52.0299 35.02 52.0299 35.03 52.0299L35.3101 50.0499C35.2001 50.0299 35.09 50.0299 34.99 50.0299V52.0299ZM34.95 52.0299H34.9399C34.9399 52.0299 34.96 52.0299 34.99 52.0299V50.0299C34.89 50.0299 34.7799 50.0299 34.6699 50.0499L34.95 52.0299ZM35.1799 51.9499C35.0399 52.0299 34.9299 52.0399 34.8799 52.0399L34.74 50.0499C34.6 50.0599 34.41 50.0899 34.21 50.1999L35.1799 51.9499ZM35.53 51.5699C35.4 51.8399 35.1901 51.9499 35.1001 51.9899L34.29 50.1599C34.14 50.2199 33.9 50.3699 33.74 50.6799L35.53 51.5699ZM35.6201 51.1799C35.6201 51.2699 35.6 51.4399 35.49 51.6299L33.77 50.5999C33.64 50.8199 33.6101 51.0399 33.6101 51.1799H35.6101H35.6201ZM35.6201 55.5799V51.1899H33.6201V55.5799H35.6201ZM35.53 55.1999C35.6 55.3399 35.6201 55.4799 35.6201 55.5799H33.6201C33.6201 55.7299 33.65 55.9099 33.74 56.0999L35.53 55.2099V55.1999ZM35.1101 54.7799C35.1101 54.7799 35.18 54.8199 35.24 54.8499C35.29 54.8899 35.3599 54.9399 35.4299 55.0199L33.8701 56.2699C34.0201 56.4599 34.2001 56.5599 34.3101 56.5999L35.1201 54.7699L35.1101 54.7799ZM34.95 54.7299C34.95 54.7299 34.96 54.7299 34.98 54.7299C35 54.7299 35.0301 54.7399 35.0701 54.7599L34.3301 56.6199C34.4701 56.6799 34.61 56.6999 34.7 56.7099L34.95 54.7299ZM35.02 54.7299C35.02 54.7299 34.98 54.7299 34.96 54.7299C34.95 54.7299 34.94 54.7299 34.95 54.7299L34.7 56.7099C34.81 56.7199 34.92 56.7299 35.02 56.7299V54.7299ZM35.1001 54.7299C35.1001 54.7299 35.1001 54.7299 35.0901 54.7299C35.0801 54.7299 35.06 54.7299 35.03 54.7299V56.7299C35.13 56.7299 35.2501 56.7299 35.3501 56.7099L35.1001 54.7299ZM34.9399 54.7799C34.9899 54.7599 35.0401 54.7399 35.0601 54.7399C35.0801 54.7399 35.1001 54.7399 35.1001 54.7399L35.3501 56.7198C35.4501 56.7098 35.6 56.6799 35.75 56.6099L34.9399 54.7799ZM34.6299 55.0199C34.6999 54.9399 34.7601 54.8799 34.8201 54.8499C34.8701 54.8099 34.92 54.7899 34.95 54.7799L35.76 56.6099C35.86 56.5599 36.05 56.4699 36.2 56.2799L34.6399 55.0299L34.6299 55.0199ZM34.4299 55.5799C34.4299 55.4299 34.4701 55.2599 34.5801 55.0899L36.24 56.1999C36.37 55.9999 36.4299 55.7799 36.4299 55.5799H34.4299ZM34.4299 52.5099V55.5799H36.4299V52.5099H34.4299ZM35.48 51.0599C35.18 51.2699 34.8999 51.5599 34.6399 51.8799L36.2 53.1299C36.39 52.8999 36.5299 52.7599 36.6299 52.6899L35.47 51.0599H35.48ZM36.6699 50.6599C36.2199 50.6599 35.82 50.8199 35.49 51.0599L36.6499 52.6899L36.71 52.6599C36.71 52.6599 36.6999 52.6599 36.6899 52.6599V50.6599H36.6699ZM37.53 50.8599C37.25 50.7199 36.9499 50.6699 36.6699 50.6699V52.6699C36.6699 52.6699 36.6899 52.6699 36.6799 52.6699C36.6799 52.6699 36.6499 52.6699 36.6299 52.6499L37.52 50.8599H37.53ZM38.2 51.4399C38.03 51.1799 37.79 50.9799 37.52 50.8499L36.6499 52.6499C36.6499 52.6499 36.6201 52.6299 36.6001 52.6099C36.5801 52.5899 36.5701 52.5799 36.5601 52.5599L38.22 51.4399H38.2ZM38.51 52.1499C38.45 51.9099 38.35 51.6599 38.2 51.4399L36.54 52.5599C36.54 52.5599 36.54 52.5599 36.54 52.5799C36.54 52.5899 36.5501 52.6099 36.5601 52.6399L38.5 52.1499H38.51ZM38.6001 52.9999C38.6001 52.7099 38.58 52.4099 38.51 52.1499L36.5701 52.6399C36.5701 52.6399 36.6001 52.7899 36.6001 52.9999H38.6001ZM38.6001 55.5799V53.0099H36.6001V55.5799H38.6001ZM38.45 55.0899C38.56 55.2499 38.6001 55.4299 38.6001 55.5799H36.6001C36.6001 55.7799 36.65 55.9999 36.79 56.1999L38.45 55.0899ZM38.0901 54.7799C38.0901 54.7799 38.16 54.8199 38.22 54.8499C38.27 54.8899 38.3399 54.9399 38.4099 55.0199L36.8501 56.2699C37.0001 56.4599 37.18 56.5599 37.29 56.5999L38.1001 54.7699L38.0901 54.7799ZM37.9299 54.7299C37.9299 54.7299 37.95 54.7299 37.97 54.7299C37.99 54.7299 38.0401 54.7499 38.0901 54.7699L37.28 56.5999C37.44 56.6699 37.5899 56.6999 37.6799 56.7099L37.9299 54.7299ZM38.01 54.7299C38.01 54.7299 37.96 54.7299 37.95 54.7299C37.94 54.7299 37.9299 54.7299 37.9399 54.7299L37.6899 56.7099C37.7999 56.7199 37.91 56.7299 38.01 56.7299V54.7299ZM38.0801 54.7299C38.0801 54.7299 38.0801 54.7299 38.0701 54.7299C38.0601 54.7299 38.04 54.7299 38.01 54.7299V56.7299C38.11 56.7299 38.2201 56.7299 38.3301 56.7099L38.0801 54.7299ZM37.9199 54.7799C37.9699 54.7599 38.02 54.7399 38.04 54.7399C38.06 54.7399 38.0801 54.7399 38.0801 54.7399L38.3301 56.7198C38.4301 56.7098 38.58 56.6799 38.73 56.6099L37.9199 54.7799ZM37.6101 55.0199C37.6801 54.9399 37.74 54.8799 37.8 54.8499C37.85 54.8099 37.8999 54.7899 37.9299 54.7799L38.74 56.6099C38.84 56.5599 39.0299 56.4699 39.1799 56.2799L37.6201 55.0299L37.6101 55.0199ZM37.4099 55.5799C37.4099 55.4299 37.4501 55.2599 37.5601 55.0899L39.22 56.1999C39.35 55.9999 39.4099 55.7799 39.4099 55.5799H37.4099ZM38.3201 52.0999L37.3501 52.3299V52.3499L38.3201 52.1099V52.0999ZM37.5701 51.1199L37.1201 52.0099L37.5601 51.1099L37.5701 51.1199ZM36.0901 51.1599L36.55 52.0499L36.0801 51.1599H36.0901ZM35.3501 51.7599H34.3501V54.3799L36.1001 52.4299L35.3501 51.7599ZM35.3301 51.1199L34.4399 51.5699L34.49 51.6599L34.5601 51.7399L35.3401 51.1199H35.3301ZM35.28 51.0699L34.75 51.9199L34.79 51.9499L34.8301 51.9698L35.28 51.0799V51.0699ZM35.1699 51.0399L35.03 52.0299H35.0701H35.1101L35.1799 51.0299L35.1699 51.0399ZM34.8101 51.0399L34.8799 52.0399H34.9199H34.95L34.8101 51.0499V51.0399ZM34.7 51.0699L35.1101 51.9799L35.1499 51.9599L35.1899 51.9399L34.7 51.0699ZM34.6399 51.1199L35.5 51.6299L35.52 51.5999L35.54 51.5699L34.6499 51.1199H34.6399ZM34.6399 55.6499L33.75 56.0999L33.8 56.1899L33.8701 56.2699L34.6499 55.6499H34.6399ZM34.7 55.6899L34.29 56.5999H34.3101L34.3301 56.6099L34.7 55.6799V55.6899ZM35.4099 55.6499L36.1899 56.2699L36.22 56.2399L36.24 56.1999L35.4099 55.6499ZM35.4299 52.5099L34.6499 51.8899L34.4299 52.1599V52.5099H35.4299ZM37.0801 51.7499L36.6299 52.6399L37.0701 51.7499H37.0801ZM37.6201 55.6499L36.79 56.1999L36.8101 56.2399L36.8401 56.2699L37.6201 55.6499ZM38.3899 55.6499L39.1699 56.2699L39.2 56.2399L39.22 56.1999L38.3899 55.6499ZM33.3401 54.5099V53.5799H31.3401V54.5099H33.3401ZM32.27 55.8599C32.57 55.6799 32.8401 55.4399 33.0801 55.1699L31.5901 53.8299C31.4301 53.9999 31.32 54.0899 31.26 54.1299L32.28 55.8499L32.27 55.8599ZM31.1799 56.1599C31.5699 56.1599 31.94 56.0599 32.28 55.8599L31.25 54.1499C31.25 54.1499 31.2099 54.1699 31.1799 54.1699V56.1699V56.1599ZM29.8999 55.6999C30.2799 56.0499 30.7499 56.1599 31.1799 56.1599V54.1599C31.1799 54.1599 31.1299 54.1599 31.1399 54.1599C31.1399 54.1599 31.1599 54.1599 31.1799 54.1799C31.1999 54.1899 31.22 54.1998 31.24 54.2198L29.8899 55.6999H29.8999ZM29.3601 54.4199C29.3601 54.8799 29.5099 55.3399 29.8799 55.6899L31.26 54.2399C31.26 54.2399 31.3201 54.3099 31.3401 54.3599C31.3601 54.3999 31.3601 54.4299 31.3601 54.4199H29.3601ZM29.53 53.6299C29.4 53.8899 29.3601 54.1599 29.3601 54.4199H31.3601C31.3601 54.4199 31.3601 54.4499 31.3301 54.4999L29.53 53.6299ZM30.1101 52.9698C29.8701 53.1298 29.67 53.3399 29.53 53.6199L31.3201 54.5099C31.3201 54.5099 31.29 54.5699 31.27 54.5899C31.25 54.6099 31.23 54.6199 31.22 54.6299L30.1101 52.9698ZM30.8601 52.6599C30.6001 52.7199 30.3401 52.8199 30.1001 52.9799L31.24 54.6199C31.24 54.6199 31.22 54.6299 31.23 54.6199C31.23 54.6199 31.26 54.6199 31.29 54.5999L30.8601 52.6499V52.6599ZM31.6499 52.5799C31.3699 52.5799 31.1001 52.5999 30.8401 52.6699L31.3101 54.6099C31.3801 54.5899 31.4899 54.5799 31.6499 54.5799V52.5799ZM32.3401 52.5799H31.6499V54.5799H32.3401V52.5799ZM32.1399 52.6199V55.5799H34.1399V52.6199H32.1399ZM32.0901 52.1899C32.1201 52.2799 32.1399 52.4199 32.1399 52.6199H34.1399C34.1399 52.2699 34.1 51.9299 34 51.6099L32.0901 52.1899ZM32.04 52.0999C32.04 52.0999 32.0701 52.1299 32.0901 52.1899L34 51.6099C33.9 51.2599 33.72 50.9399 33.45 50.6799L32.04 52.0899V52.0999ZM31.8999 52.0199C31.9999 52.0499 32.03 52.0799 32.03 52.0799L33.46 50.6799C33.19 50.3999 32.86 50.2199 32.52 50.1099L31.8999 52.0099V52.0199ZM31.4099 51.9599C31.6599 51.9599 31.8099 51.9899 31.9099 52.0199L32.53 50.1199C32.18 50.0099 31.7999 49.9599 31.4199 49.9599V51.9599H31.4099ZM31.0901 51.9899C31.1901 51.9699 31.2999 51.9599 31.3999 51.9599V49.9599C31.1699 49.9599 30.93 49.9799 30.7 50.0299L31.0901 51.9899ZM30.77 52.0699C30.85 52.0399 30.9501 52.0099 31.0701 51.9899L30.72 50.0199C30.51 50.0599 30.3001 50.1099 30.1101 50.1799L30.77 52.0699ZM30.55 52.1599C30.55 52.1599 30.66 52.1099 30.75 52.0799L30.1299 50.1799C29.9399 50.2399 29.7601 50.3199 29.5901 50.4099L30.55 52.1699V52.1599ZM30.52 52.1699C30.52 52.1699 30.5 52.1899 30.49 52.1899C30.48 52.1899 30.48 52.1999 30.47 52.1999C30.47 52.1999 30.47 52.1999 30.49 52.1899C30.5 52.1899 30.51 52.1799 30.53 52.1699L29.6101 50.3899C29.4801 50.4599 29.3099 50.5499 29.1599 50.6899L30.52 52.1599V52.1699ZM30.73 51.8299C30.69 51.9799 30.61 52.0799 30.55 52.1399L29.1399 50.7299C28.9999 50.8699 28.86 51.0699 28.8 51.3199L30.73 51.8399V51.8299ZM30.75 51.7599V51.7399C30.75 51.7399 30.75 51.7399 30.75 51.7499C30.75 51.7499 30.75 51.7699 30.75 51.7899L28.79 51.3699C28.76 51.5199 28.75 51.6599 28.75 51.7699H30.75V51.7599ZM30.74 51.7399V51.7599H28.74C28.74 51.8499 28.74 51.9499 28.76 52.0499L30.74 51.7499V51.7399ZM30.6799 51.5499C30.7199 51.6399 30.74 51.7099 30.74 51.7399L28.77 52.0699C28.79 52.1699 28.8199 52.3099 28.8899 52.4499L30.6799 51.5599V51.5499ZM30.3899 51.2198C30.5199 51.3098 30.5899 51.3999 30.6299 51.4599L28.9299 52.5199C28.9999 52.6299 29.11 52.7699 29.28 52.8799L30.3899 51.2198ZM29.9099 51.0699C30.0599 51.0699 30.2299 51.1098 30.3999 51.2198L29.29 52.8799C29.49 53.0099 29.7099 53.0699 29.9099 53.0699V51.0699ZM29.5801 51.1399C29.5801 51.1399 29.5801 51.1399 29.6201 51.1199C29.6401 51.1199 29.67 51.0999 29.71 51.0899C29.75 51.0899 29.8199 51.0699 29.8999 51.0699V53.0699C30.0999 53.0699 30.2501 53.0199 30.3401 52.9799C30.4301 52.9399 30.5201 52.8999 30.5801 52.8599L29.5701 51.1299L29.5801 51.1399ZM29.95 50.9399C29.81 50.9999 29.6801 51.0699 29.5601 51.1399L30.5901 52.8499C30.5901 52.8499 30.7 52.7899 30.8 52.7399L29.95 50.9299V50.9399ZM30.52 50.7299C30.32 50.7899 30.13 50.8599 29.95 50.9499L30.8201 52.7499C30.8801 52.7199 30.9601 52.6899 31.0801 52.6499L30.52 50.7299ZM31.3301 50.6199C31.0501 50.6199 30.77 50.6499 30.5 50.7399L31.0901 52.6499C31.0901 52.6499 31.2201 52.6199 31.3301 52.6199V50.6199ZM32.1399 50.7499C31.8699 50.6499 31.5901 50.6199 31.3301 50.6199V52.6199C31.3801 52.6199 31.4199 52.6199 31.4399 52.6199C31.4599 52.6199 31.47 52.6199 31.46 52.6199L32.1399 50.7399V50.7499ZM32.8601 51.2198C32.6501 50.9798 32.3901 50.8299 32.1201 50.7399L31.49 52.6399C31.49 52.6399 31.4699 52.6399 31.4399 52.6199C31.4199 52.5999 31.3901 52.5799 31.3601 52.5499L32.8501 51.2198H32.8601ZM33.25 51.9399C33.18 51.6699 33.0401 51.4099 32.8301 51.1899L31.3899 52.5799C31.3899 52.5799 31.3501 52.5299 31.3401 52.5099C31.3301 52.4899 31.3201 52.4798 31.3201 52.4698L33.25 51.9399ZM33.3401 52.6499C33.3401 52.4099 33.32 52.1699 33.25 51.9399L31.3201 52.4698C31.3201 52.4698 31.3401 52.5499 31.3401 52.6499H33.3401ZM33.3401 52.9999V52.6599H31.3401V52.9999H33.3401ZM31.73 53.9999H32.3401V51.9999H31.73V53.9999ZM31.03 54.0599C31.22 54.0199 31.45 53.9899 31.73 53.9899V51.9899C31.33 51.9899 30.9501 52.0299 30.5901 52.1099L31.03 54.0599ZM30.6499 54.1999C30.7199 54.1599 30.83 54.1099 31.02 54.0699L30.6001 52.1099C30.2401 52.1899 29.8901 52.3199 29.5801 52.5099L30.6599 54.1999H30.6499ZM30.5601 54.2899C30.5601 54.2899 30.5999 54.2299 30.6599 54.1899L29.5801 52.4999C29.2601 52.6999 29.0001 52.9699 28.8101 53.3099L30.5601 54.2799V54.2899ZM30.53 54.4599C30.53 54.3499 30.5501 54.3099 30.5601 54.2999L28.8101 53.3299C28.6101 53.6899 28.53 54.0699 28.53 54.4599H30.53ZM30.5601 54.6299C30.5601 54.6299 30.53 54.5599 30.53 54.4599H28.53C28.53 54.7799 28.59 55.1099 28.72 55.4199L30.5601 54.6299ZM30.6001 54.6899C30.6001 54.6899 30.56 54.6499 30.55 54.6099L28.73 55.4299C28.86 55.7199 29.05 55.9799 29.29 56.1899L30.6101 54.6799L30.6001 54.6899ZM30.73 54.7499C30.66 54.7299 30.6201 54.6999 30.6001 54.6799L29.3 56.1999C29.55 56.4099 29.8299 56.5599 30.1299 56.6499L30.73 54.7399V54.7499ZM31.05 54.7899C30.91 54.7899 30.8 54.7699 30.73 54.7499L30.1101 56.6499C30.4101 56.7499 30.73 56.7899 31.05 56.7899V54.7899ZM31.3601 54.7198C31.2601 54.7698 31.16 54.7899 31.05 54.7899V56.7899C31.46 56.7899 31.86 56.6999 32.23 56.5199L31.3601 54.7198ZM31.72 54.4599C31.61 54.5799 31.4901 54.6598 31.3701 54.7198L32.23 56.5199C32.59 56.3499 32.8999 56.1099 33.1699 55.8199L31.71 54.4499L31.72 54.4599ZM33.45 55.5799V55.1399H31.45V55.5799H33.45ZM33.1299 54.9099C33.3899 55.1299 33.45 55.4199 33.45 55.5799H31.45C31.45 55.8199 31.5301 56.1599 31.8301 56.4299L33.1299 54.9099ZM32.78 54.7299C32.78 54.7299 32.8399 54.7399 32.8999 54.7699C32.9499 54.7899 33.0399 54.8299 33.1299 54.9099L31.8301 56.4299C32.0401 56.6099 32.2699 56.6699 32.3899 56.6999L32.78 54.7399V54.7299ZM32.79 54.7299H32.75C32.75 54.7299 32.76 54.7299 32.77 54.7299L32.3999 56.6999C32.5399 56.7299 32.67 56.7299 32.79 56.7299V54.7299ZM32.78 54.7399C32.78 54.7399 32.8101 54.7399 32.8201 54.7399H32.8301C32.8301 54.7399 32.8301 54.7399 32.8201 54.7399C32.8101 54.7399 32.8 54.7399 32.79 54.7399V56.7399C32.9 56.7399 33.05 56.7399 33.2 56.6999L32.78 54.7399ZM32.5 54.8699C32.63 54.7699 32.74 54.7399 32.78 54.7399L33.2 56.6999C33.33 56.6699 33.52 56.6099 33.7 56.4799L32.5 54.8799V54.8699ZM32.1399 55.5799C32.1399 55.4899 32.15 55.3599 32.22 55.2299C32.28 55.0899 32.38 54.9599 32.5 54.8699L33.7 56.4698C34.03 56.2198 34.1399 55.8699 34.1399 55.5799H32.1399ZM32.3401 54.5099L33.0801 55.1799L33.3401 54.8899V54.5099H32.3401ZM30.5701 54.9599L29.8799 55.6799V55.6999L30.55 54.9599H30.5701ZM30.4299 54.0599L29.54 53.6099L30.4399 54.0599H30.4299ZM30.6699 53.7999L31.22 54.6299V54.6199L30.6499 53.7999H30.6699ZM31.0701 53.6299L31.28 54.6099L31.05 53.6399L31.0701 53.6299ZM32.3401 53.5799H33.3401V52.5799H32.3401V53.5799ZM32.75 51.3899L32.03 52.0899L32.74 51.3899H32.75ZM30.8999 51.0099L31.0701 51.9899L30.8799 51.0099H30.8999ZM30.4399 51.1299L30.75 52.0799H30.76L30.4299 51.1399L30.4399 51.1299ZM30.0701 51.2899L30.53 52.1799H30.54L30.55 52.1699L30.0701 51.2899ZM29.8401 51.4299L29.1599 50.6999H29.1499L29.1399 50.7299L29.8501 51.4399L29.8401 51.4299ZM29.76 51.5699L28.79 51.3099V51.3299L28.78 51.3499L29.76 51.5599V51.5699ZM29.78 51.9899L28.8899 52.4399L28.9099 52.4799L28.9399 52.5199L29.79 51.9899H29.78ZM30.0801 51.9999L30.5801 52.8599H30.5901L30.0801 51.9999ZM30.3799 51.8499L30.8101 52.7499H30.8201L30.3799 51.8499ZM30.8 51.6899L31.0801 52.6499H31.0901L30.8 51.6899ZM31.8 51.6899L31.46 52.6299H31.47H31.48L31.8 51.6799V51.6899ZM32.1101 51.8799L31.3601 52.5399H31.3701L31.3799 52.5699L32.1001 51.8799H32.1101ZM32.3401 52.9999V53.9999H33.3401V52.9999H32.3401ZM30.8101 53.0899L31.02 54.0699H31.03L30.8101 53.0899ZM29.6399 55.0199L28.72 55.4199V55.4399L29.6299 55.0299L29.6399 55.0199ZM29.95 55.4399L29.29 56.1899L29.9399 55.4399H29.95ZM30.4199 55.6999L30.73 54.7499H30.72L30.4199 55.6999ZM31.8 55.6199L31.3701 54.7198L31.8101 55.6199H31.8ZM32.45 55.1399H33.45V52.6099L31.72 54.4599L32.45 55.1399ZM32.5901 55.7099L32.3899 56.6899H32.3999L32.5801 55.7099H32.5901ZM27.24 49.7599V55.5699H29.24V49.7599H27.24ZM27.29 49.9899C27.24 49.8699 27.24 49.7899 27.24 49.7699H29.24C29.24 49.6099 29.2199 49.4099 29.1299 49.2099L27.29 49.9999V49.9899ZM27.46 50.2198C27.36 50.1298 27.3 50.0298 27.28 49.9698L29.1399 49.2299C29.0699 49.0699 28.97 48.8899 28.8 48.7399L27.46 50.2299V50.2198ZM27.74 50.3699C27.62 50.3399 27.4899 50.2599 27.3799 50.1499L28.8701 48.8099C28.7001 48.6299 28.5 48.5099 28.29 48.4499L27.74 50.3699ZM27.8799 50.3799C27.8199 50.3799 27.7399 50.3699 27.6599 50.3399L28.3799 48.4698C28.2099 48.4098 28.0499 48.3799 27.8799 48.3799V50.3799ZM27.3501 50.3799H27.8799V48.3799H27.3501V50.3799ZM27.4299 50.3599C27.3699 50.3799 27.3401 50.3799 27.3401 50.3799V48.3799C27.1801 48.3799 27.0001 48.3999 26.8201 48.4599L27.4199 50.3699L27.4299 50.3599ZM27.5901 50.2799C27.5401 50.3199 27.4699 50.3599 27.3799 50.3799L26.8701 48.4499C26.6601 48.4999 26.4801 48.5999 26.3201 48.7299L27.5801 50.2799H27.5901ZM27.6799 50.1899C27.6799 50.1899 27.6501 50.2299 27.5901 50.2799L26.3401 48.7198C26.1801 48.8498 26.06 48.9999 25.98 49.1399L27.6799 50.1899ZM27.6499 50.2499C27.6699 50.1999 27.6799 50.1799 27.6799 50.1799L25.98 49.1299C25.89 49.2699 25.83 49.4199 25.77 49.5599L27.6499 50.2499ZM25.73 54.8599L27.6299 50.2999L25.78 49.5299L23.8799 54.0899L25.73 54.8599ZM24.78 55.4698H24.8V53.4698H24.78V55.4698ZM22.02 50.2699L23.8501 54.8499L25.71 54.1099L23.8799 49.5299L22.02 50.2699ZM21.99 50.1799C21.99 50.1799 21.99 50.1999 22 50.2099L23.8999 49.5799C23.8499 49.4399 23.79 49.2899 23.71 49.1499L21.99 50.1799ZM22.1101 50.3099C22.0501 50.2699 22.01 50.2199 21.98 50.1699L23.7 49.1399C23.59 48.9599 23.46 48.8099 23.28 48.6799L22.1101 50.2999V50.3099ZM22.25 50.3799C22.25 50.3799 22.1701 50.3499 22.1101 50.3099L23.28 48.6899C23.11 48.5699 22.92 48.4799 22.73 48.4399L22.24 50.3799H22.25ZM22.22 50.3799C22.22 50.3799 22.25 50.3799 22.26 50.3799L22.75 48.4399C22.57 48.3999 22.4 48.3799 22.23 48.3799V50.3799H22.22ZM21.71 50.3799H22.22V48.3799H21.71V50.3799ZM22.1101 50.2399C22.1101 50.2399 22.0099 50.3099 21.9399 50.3399C21.8699 50.3699 21.79 50.3799 21.72 50.3799V48.3799C21.39 48.3799 21.0901 48.4999 20.8501 48.6899L22.1201 50.2399H22.1101ZM22.3701 49.7599C22.3701 49.7599 22.3701 50.0299 22.1101 50.2399L20.8401 48.6899C20.4401 49.0199 20.3701 49.4699 20.3701 49.7599H22.3701ZM22.3701 55.5699V49.7599H20.3701V55.5699H22.3701ZM22.28 55.1899C22.35 55.3299 22.3701 55.4699 22.3701 55.5699H20.3701C20.3701 55.7199 20.4 55.8999 20.49 56.0899L22.28 55.1999V55.1899ZM21.8501 54.7799C21.9301 54.8199 22.09 54.8999 22.21 55.0899L20.55 56.1999C20.7 56.4199 20.9 56.5499 21.04 56.6099L21.8501 54.7799ZM21.7 54.7198C21.7 54.7198 21.72 54.7199 21.74 54.7299L21.1699 56.6499C21.2799 56.6799 21.38 56.6999 21.46 56.7099L21.71 54.7299L21.7 54.7198ZM21.77 54.7299H21.74C21.74 54.7299 21.74 54.7299 21.76 54.7299L21.3899 56.6999C21.5199 56.7299 21.66 56.7299 21.77 56.7299V54.7299ZM21.78 54.7299H21.8C21.8 54.7299 21.78 54.7299 21.76 54.7299V56.7299C21.87 56.7299 22.0099 56.7299 22.1399 56.6999L21.77 54.7299H21.78ZM21.8101 54.7299L21.8501 54.7198L22.1001 56.6999C22.1801 56.6899 22.2799 56.6699 22.3899 56.6399L21.8201 54.7198L21.8101 54.7299ZM21.3301 55.0899C21.4701 54.8799 21.65 54.7899 21.72 54.7699L22.46 56.6299C22.59 56.5799 22.82 56.4599 22.99 56.2099L21.3301 55.0999V55.0899ZM21.1799 55.5699C21.1799 55.4199 21.2201 55.2499 21.3301 55.0799L22.99 56.1899C23.12 55.9899 23.1799 55.7699 23.1799 55.5699H21.1799ZM21.1799 50.0699V55.5699H23.1799V50.0699H21.1799ZM25.27 55.2299L23.1201 49.6999L21.26 50.4299L23.4099 55.9599L25.27 55.2299ZM25.0801 54.9399C25.1601 55.0199 25.24 55.1299 25.29 55.2799L23.3899 55.9099C23.4499 56.0899 23.5499 56.2399 23.6699 56.3499L25.0801 54.9399ZM24.8201 54.7699C24.8201 54.7699 24.93 54.8199 25.01 54.8899L23.73 56.4299C23.85 56.5299 23.9801 56.5999 24.0801 56.6299L24.8201 54.7699ZM24.71 54.7299C24.71 54.7299 24.73 54.7299 24.75 54.7299L24.1799 56.6499C24.2799 56.6799 24.38 56.6999 24.46 56.7099L24.72 54.7299H24.71ZM24.75 54.7299C24.75 54.7299 24.72 54.7299 24.71 54.7299L24.45 56.7099C24.56 56.7199 24.66 56.7299 24.76 56.7299V54.7299H24.75ZM24.77 54.7299C24.77 54.7299 24.75 54.7299 24.74 54.7299V56.7299C24.83 56.7299 24.94 56.7299 25.05 56.7099L24.77 54.7299ZM24.75 54.7399C24.75 54.7399 24.8101 54.7198 24.8201 54.7198C24.8401 54.7198 24.8401 54.7198 24.8401 54.7198L24.97 56.7198C25.06 56.7198 25.1801 56.6999 25.3101 56.6599L24.74 54.7399H24.75ZM24.4099 54.9499C24.4799 54.8799 24.5501 54.8299 24.6001 54.8099C24.6501 54.7799 24.68 54.7699 24.7 54.7599L25.3799 56.6399C25.4699 56.6099 25.6601 56.5299 25.8201 56.3599L24.4099 54.9499ZM24.24 55.1999C24.29 55.0699 24.38 54.9699 24.47 54.8799L25.75 56.4199C25.89 56.3099 26.0001 56.1599 26.0701 55.9899L24.23 55.1999H24.24ZM26.49 49.6899L24.24 55.2198L26.0901 55.9698L28.3401 50.4399L26.49 49.6899ZM28.4199 55.5699V50.0699H26.4199V55.5699H28.4199ZM28.27 55.0899C28.38 55.2499 28.4199 55.4299 28.4199 55.5799H26.4199C26.4199 55.7799 26.4701 55.9999 26.6101 56.1999L28.27 55.0899ZM27.9099 54.7799C27.9899 54.8199 28.15 54.8999 28.27 55.0899L26.6101 56.1999C26.7601 56.4199 26.9601 56.5499 27.1001 56.6099L27.9099 54.7799ZM27.76 54.7198C27.76 54.7198 27.78 54.7199 27.8 54.7299L27.23 56.6499C27.34 56.6799 27.44 56.6999 27.52 56.7099L27.77 54.7299L27.76 54.7198ZM27.8301 54.7299H27.8L27.45 56.6999C27.58 56.7199 27.7001 56.7299 27.8201 56.7299V54.7299H27.8301ZM27.8301 54.7299C27.8301 54.7299 27.8501 54.7299 27.8601 54.7299C27.8601 54.7299 27.8601 54.7299 27.8501 54.7299C27.8501 54.7299 27.8401 54.7299 27.8301 54.7299V56.7299C27.9401 56.7299 28.08 56.7299 28.22 56.6999L27.8301 54.7399V54.7299ZM27.8601 54.7299L27.8999 54.7198L28.1499 56.6999C28.2299 56.6899 28.3299 56.6699 28.4399 56.6399L27.8701 54.7198L27.8601 54.7299ZM27.3799 55.0899C27.5199 54.8799 27.7 54.7899 27.77 54.7699L28.51 56.6299C28.64 56.5799 28.87 56.4599 29.04 56.2099L27.3799 55.0999V55.0899ZM27.24 55.5699C27.24 55.4199 27.2799 55.2499 27.3899 55.0799L29.05 56.1899C29.18 55.9899 29.24 55.7699 29.24 55.5699H27.24ZM28.21 49.5899L27.28 49.9599V49.9799L28.2 49.5899H28.21ZM28.1299 49.4698L27.3899 50.1399L27.4299 50.1799L27.47 50.2198L28.1399 49.4799L28.1299 49.4698ZM28.02 49.4099L27.6599 50.3399L27.7 50.3599H27.74L28.01 49.4099H28.02ZM27.1299 49.4099L27.3799 50.3799H27.3999L27.4199 50.3699L27.1201 49.4199L27.1299 49.4099ZM26.96 49.4999L27.5801 50.2799L26.95 49.4999H26.96ZM26.71 49.9099L27.6299 50.2999V50.2799L27.6499 50.2599L26.71 49.9199V49.9099ZM24.8 54.4698V55.4698H25.47L25.73 54.8599L24.8101 54.4698H24.8ZM24.78 54.4698L23.8501 54.8399L24.1001 55.4698H24.78V54.4698ZM22.95 49.8899L22 50.2099V50.2399L22.02 50.2699L22.95 49.8999V49.8899ZM21.3799 55.6399L20.49 56.0899L20.52 56.1499L20.55 56.1999L21.3799 55.6499V55.6399ZM21.4399 55.6899L21.03 56.5999L21.0901 56.6299L21.1499 56.6499L21.4399 55.6899ZM21.5701 55.7099L21.75 54.7299H21.72H21.6899L21.5701 55.7198V55.7099ZM21.97 55.7099L21.8501 54.7198H21.8201H21.79L21.97 55.6999V55.7099ZM22.0901 55.6899L22.3799 56.6499H22.4199L22.46 56.6199L22.0901 55.6899ZM22.1799 50.0699V49.0699H21.1799V50.0699H22.1799ZM22.1899 50.0699L23.1201 49.7099L22.8701 49.0699H22.1899V50.0699ZM24.3401 55.5999L25.29 55.2799V55.2599L25.27 55.2399L24.3401 55.5999ZM24.3701 55.6499L23.6599 56.3599L23.6899 56.3899L23.72 56.4199L24.3601 55.6499H24.3701ZM24.45 55.6999L24.0801 56.6299L24.1201 56.6499H24.1599L24.45 55.7099V55.6999ZM24.9199 55.7198L24.8501 54.7198H24.8101H24.77L24.9099 55.7099L24.9199 55.7198ZM25.04 55.6999L25.3301 56.6599H25.3601L25.3899 56.6399L25.05 55.6999H25.04ZM25.1201 55.6599L24.48 54.8899L24.45 54.9199L24.4199 54.9499L25.1299 55.6599H25.1201ZM25.1599 55.5999L26.0801 55.9899V55.9698L25.1499 55.5899L25.1599 55.5999ZM27.4099 50.0699V49.0699H26.74L26.49 49.6899L27.4199 50.0699H27.4099ZM27.4199 50.0699H28.4199V49.0699H27.4199V50.0699ZM27.5 55.6899L27.0901 56.5999L27.1499 56.6299L27.21 56.6499L27.5 55.6899ZM27.6299 55.7099L27.8 54.7299H27.78H27.76L27.6399 55.7198L27.6299 55.7099ZM28.02 55.7099L27.8999 54.7198H27.8601L27.8201 54.7299L28.02 55.7099ZM28.1499 55.6899L28.4399 56.6499H28.48L28.52 56.6199L28.1499 55.6899Z" fill="#E6E9EC"/>
</g>
</svg>
