<svg width="72" height="72" viewBox="0 0 72 72" fill="none" xmlns="http://www.w3.org/2000/svg">
<path d="M63.5294 0H8.47059C3.79241 0 0 3.79241 0 8.47059V63.5294C0 68.2076 3.79241 72 8.47059 72H63.5294C68.2076 72 72 68.2076 72 63.5294V8.47059C72 3.79241 68.2076 0 63.5294 0Z" fill="#53575A"/>
<path d="M63.1571 1H8.84292C5.61596 1 3 3.69524 3 7.01998V62.98C3 66.3048 5.61596 69 8.84292 69H63.1571C66.384 69 69 66.3048 69 62.98V7.01998C69 3.69524 66.384 1 63.1571 1Z" fill="#53575A"/>
<mask id="mask0_893_4929" style="mask-type:luminance" maskUnits="userSpaceOnUse" x="2" y="1" width="68" height="68">
<path d="M63.5631 1.5542H8.44492C5.17019 1.5542 2.5155 4.20889 2.5155 7.48361V62.6017C2.5155 65.8765 5.17019 68.5311 8.44492 68.5311H63.5631C66.8378 68.5311 69.4925 65.8765 69.4925 62.6017V7.48361C69.4925 4.20889 66.8378 1.5542 63.5631 1.5542Z" fill="white"/>
</mask>
<g mask="url(#mask0_893_4929)">
<path d="M8.44487 -0.139893C4.23499 -0.139893 0.821345 3.27375 0.821345 7.48364H4.20958C4.20958 5.14575 6.10699 3.24834 8.44487 3.24834V-0.139893ZM63.5546 3.24834C65.8925 3.24834 67.7899 5.14575 67.7899 7.48364H71.1781C71.1781 3.27375 67.7645 -0.139893 63.5546 -0.139893V3.24834ZM67.7899 62.6018C67.7899 64.9397 65.8925 66.8371 63.5546 66.8371V70.2253C67.7645 70.2253 71.1781 66.8116 71.1781 62.6018H67.7899ZM8.4364 66.8371C6.09851 66.8371 4.2011 64.9397 4.2011 62.6018H0.812866C0.812866 66.8116 4.22651 70.2253 8.4364 70.2253V66.8371ZM4.20958 62.6018V7.48364H0.821345V62.6018H4.20958ZM63.5546 66.8371H8.4364V70.2253H63.5546V66.8371ZM67.7899 7.48364V62.6018H71.1781V7.48364H67.7899ZM8.44487 3.24834H63.563V-0.139893H8.44487V3.24834Z" fill="#E6E9EC"/>
</g>
<path d="M36.5769 30.5172C36.2743 23.8414 32.015 20.0456 29.2329 18.2658C28.7655 17.9668 28.9931 17.1002 29.5457 17.1511C35.2479 17.6757 48 20.0222 48 30.5172C48 42.1395 33.8322 44.435 28.2357 44.8884C27.7028 44.9316 27.5005 44.1845 27.9531 43.8999C31.0934 41.9253 36.8861 37.3387 36.5769 30.5172Z" fill="#E6E9EC"/>
<path d="M15.0257 52.7273V60H14.1734L10.2103 54.2898H10.1393V60H9.25861V52.7273H10.1109L14.0882 58.4517H14.1592V52.7273H15.0257ZM16.6743 60V54.5455H17.5123V60H16.6743ZM17.1004 53.6364C16.9371 53.6364 16.7962 53.5807 16.6778 53.4695C16.5618 53.3582 16.5038 53.2244 16.5038 53.0682C16.5038 52.9119 16.5618 52.7782 16.6778 52.6669C16.7962 52.5556 16.9371 52.5 17.1004 52.5C17.2638 52.5 17.4034 52.5556 17.5194 52.6669C17.6378 52.7782 17.697 52.9119 17.697 53.0682C17.697 53.2244 17.6378 53.3582 17.5194 53.4695C17.4034 53.5807 17.2638 53.6364 17.1004 53.6364ZM21.249 62.1591C20.8442 62.1591 20.4962 62.107 20.205 62.0028C19.9138 61.901 19.6711 61.7661 19.477 61.598C19.2852 61.4323 19.1325 61.2547 19.0189 61.0653L19.6865 60.5966C19.7623 60.696 19.8582 60.8097 19.9742 60.9375C20.0902 61.0677 20.2488 61.1802 20.45 61.2749C20.6536 61.3719 20.92 61.4205 21.249 61.4205C21.6894 61.4205 22.0528 61.3139 22.3392 61.1009C22.6257 60.8878 22.7689 60.554 22.7689 60.0994V58.9915H22.6979C22.6363 59.0909 22.5487 59.214 22.4351 59.3608C22.3238 59.5052 22.1628 59.6342 21.9521 59.7479C21.7438 59.8591 21.4621 59.9148 21.107 59.9148C20.6666 59.9148 20.2713 59.8106 19.9209 59.6023C19.5729 59.3939 19.2971 59.0909 19.0935 58.6932C18.8923 58.2955 18.7916 57.8125 18.7916 57.2443C18.7916 56.6856 18.8899 56.1991 19.0864 55.7848C19.2829 55.3681 19.5563 55.0462 19.9067 54.8189C20.2571 54.5893 20.6619 54.4744 21.1212 54.4744C21.4763 54.4744 21.758 54.5336 21.9664 54.652C22.1771 54.768 22.338 54.9006 22.4493 55.0497C22.5629 55.1965 22.6505 55.3172 22.7121 55.4119H22.7973V54.5455H23.607V60.1562C23.607 60.625 23.5004 61.0062 23.2874 61.2997C23.0767 61.5956 22.7926 61.8123 22.4351 61.9496C22.08 62.0893 21.6846 62.1591 21.249 62.1591ZM21.2206 59.1619C21.5568 59.1619 21.8409 59.085 22.0729 58.9311C22.3049 58.7772 22.4813 58.5559 22.602 58.267C22.7227 57.9782 22.7831 57.6326 22.7831 57.2301C22.7831 56.8371 22.7239 56.4903 22.6056 56.1896C22.4872 55.889 22.312 55.6534 22.08 55.483C21.848 55.3125 21.5615 55.2273 21.2206 55.2273C20.8655 55.2273 20.5696 55.3172 20.3328 55.4972C20.0985 55.6771 19.9221 55.9186 19.8037 56.2216C19.6877 56.5246 19.6297 56.8608 19.6297 57.2301C19.6297 57.6089 19.6889 57.9439 19.8073 58.2351C19.928 58.5239 20.1056 58.7512 20.3399 58.9169C20.5767 59.0803 20.8702 59.1619 21.2206 59.1619ZM25.9791 56.7188V60H25.1411V52.7273H25.9791V55.3977H26.0502C26.178 55.116 26.3698 54.8923 26.6254 54.7266C26.8835 54.5585 27.2268 54.4744 27.6553 54.4744C28.027 54.4744 28.3525 54.549 28.6318 54.6982C28.9112 54.8449 29.1278 55.071 29.2817 55.3764C29.4379 55.6795 29.5161 56.0653 29.5161 56.5341V60H28.678V56.5909C28.678 56.1577 28.5655 55.8227 28.3406 55.5859C28.1181 55.3468 27.8092 55.2273 27.4138 55.2273C27.1392 55.2273 26.893 55.2853 26.6752 55.4013C26.4597 55.5173 26.2893 55.6866 26.1638 55.9091C26.0407 56.1316 25.9791 56.4015 25.9791 56.7188ZM33.4214 54.5455V55.2557H30.5947V54.5455H33.4214ZM31.4186 53.2386H32.2567V58.4375C32.2567 58.6742 32.291 58.8518 32.3596 58.9702C32.4307 59.0862 32.5206 59.1643 32.6295 59.2045C32.7408 59.2424 32.858 59.2614 32.9811 59.2614C33.0734 59.2614 33.1492 59.2566 33.2084 59.2472C33.2675 59.2353 33.3149 59.2259 33.3504 59.2188L33.5209 59.9716C33.464 59.9929 33.3847 60.0142 33.2829 60.0355C33.1811 60.0592 33.0521 60.071 32.8959 60.071C32.6591 60.071 32.4271 60.0201 32.1998 59.9183C31.9749 59.8165 31.7879 59.6615 31.6388 59.4531C31.492 59.2448 31.4186 58.982 31.4186 58.6648V53.2386ZM37.6082 52.7273H38.6594L41.1309 58.7642H41.2162L43.6878 52.7273H44.7389V60H43.915V54.4744H43.844L41.5713 60H40.7758L38.5031 54.4744H38.4321V60H37.6082V52.7273ZM48.607 60.1136C48.1146 60.1136 47.6825 59.9964 47.3108 59.7621C46.9415 59.5277 46.6527 59.1998 46.4443 58.7784C46.2384 58.357 46.1354 57.8646 46.1354 57.3011C46.1354 56.733 46.2384 56.237 46.4443 55.8132C46.6527 55.3894 46.9415 55.0604 47.3108 54.826C47.6825 54.5916 48.1146 54.4744 48.607 54.4744C49.0994 54.4744 49.5303 54.5916 49.8996 54.826C50.2713 55.0604 50.5601 55.3894 50.7661 55.8132C50.9744 56.237 51.0786 56.733 51.0786 57.3011C51.0786 57.8646 50.9744 58.357 50.7661 58.7784C50.5601 59.1998 50.2713 59.5277 49.8996 59.7621C49.5303 59.9964 49.0994 60.1136 48.607 60.1136ZM48.607 59.3608C48.981 59.3608 49.2888 59.2649 49.5303 59.0732C49.7718 58.8814 49.9505 58.6293 50.0665 58.3168C50.1825 58.0043 50.2405 57.6657 50.2405 57.3011C50.2405 56.9366 50.1825 56.5968 50.0665 56.282C49.9505 55.9671 49.7718 55.7126 49.5303 55.5185C49.2888 55.3243 48.981 55.2273 48.607 55.2273C48.2329 55.2273 47.9252 55.3243 47.6837 55.5185C47.4422 55.7126 47.2635 55.9671 47.1475 56.282C47.0315 56.5968 46.9735 56.9366 46.9735 57.3011C46.9735 57.6657 47.0315 58.0043 47.1475 58.3168C47.2635 58.6293 47.4422 58.8814 47.6837 59.0732C47.9252 59.2649 48.2329 59.3608 48.607 59.3608ZM54.4175 60.1136C53.963 60.1136 53.5617 59.9988 53.2137 59.7692C52.8657 59.5372 52.5934 59.2105 52.3969 58.7891C52.2004 58.3653 52.1022 57.8646 52.1022 57.2869C52.1022 56.714 52.2004 56.2169 52.3969 55.7955C52.5934 55.3741 52.8669 55.0485 53.2172 54.8189C53.5676 54.5893 53.9724 54.4744 54.4317 54.4744C54.7868 54.4744 55.0674 54.5336 55.2733 54.652C55.4817 54.768 55.6403 54.9006 55.7492 55.0497C55.8605 55.1965 55.9469 55.3172 56.0084 55.4119H56.0795V52.7273H56.9175V60H56.1079V59.1619H56.0084C55.9469 59.2614 55.8593 59.3868 55.7456 59.5384C55.632 59.6875 55.4698 59.8213 55.2591 59.9396C55.0484 60.0556 54.7679 60.1136 54.4175 60.1136ZM54.5312 59.3608C54.8673 59.3608 55.1514 59.2732 55.3834 59.098C55.6154 58.9205 55.7918 58.6754 55.9126 58.3629C56.0333 58.0481 56.0937 57.6847 56.0937 57.2727C56.0937 56.8655 56.0345 56.5092 55.9161 56.2038C55.7977 55.8961 55.6225 55.657 55.3905 55.4865C55.1585 55.3137 54.8721 55.2273 54.5312 55.2273C54.176 55.2273 53.8801 55.3184 53.6434 55.5007C53.409 55.6806 53.2326 55.9257 53.1143 56.2358C52.9983 56.5436 52.9403 56.8892 52.9403 57.2727C52.9403 57.661 52.9994 58.0137 53.1178 58.331C53.2385 58.6458 53.4161 58.8968 53.6505 59.0838C53.8872 59.2685 54.1808 59.3608 54.5312 59.3608ZM60.8557 60.1136C60.3302 60.1136 59.8768 59.9976 59.4956 59.7656C59.1169 59.5312 58.8245 59.2045 58.6185 58.7855C58.4149 58.3641 58.3131 57.8741 58.3131 57.3153C58.3131 56.7566 58.4149 56.2642 58.6185 55.8381C58.8245 55.4096 59.1109 55.0758 59.4779 54.8366C59.8472 54.5952 60.2781 54.4744 60.7705 54.4744C61.0546 54.4744 61.3351 54.5218 61.6121 54.6165C61.8891 54.7112 62.1412 54.8651 62.3685 55.0781C62.5958 55.2888 62.7769 55.5682 62.9118 55.9162C63.0468 56.2642 63.1143 56.6927 63.1143 57.2017V57.5568H58.9097V56.8324H62.262C62.262 56.5246 62.2004 56.25 62.0773 56.0085C61.9566 55.767 61.7838 55.5765 61.5589 55.4368C61.3363 55.2971 61.0735 55.2273 60.7705 55.2273C60.4367 55.2273 60.1479 55.3101 59.904 55.4759C59.6626 55.6392 59.4767 55.8523 59.3465 56.1151C59.2163 56.3778 59.1512 56.6596 59.1512 56.9602V57.4432C59.1512 57.8551 59.2222 58.2043 59.3643 58.4908C59.5087 58.7749 59.7087 58.9915 59.9644 59.1406C60.2201 59.2874 60.5172 59.3608 60.8557 59.3608C61.0759 59.3608 61.2748 59.33 61.4523 59.2685C61.6323 59.2045 61.7873 59.1098 61.9175 58.9844C62.0477 58.8565 62.1483 58.6979 62.2194 58.5085L63.029 58.7358C62.9438 59.0104 62.8006 59.2519 62.5993 59.4602C62.3981 59.6662 62.1495 59.8272 61.8536 59.9432C61.5577 60.0568 61.2251 60.1136 60.8557 60.1136Z" fill="#E6E9EC"/>
</svg>
