<svg width="72" height="72" viewBox="0 0 72 72" fill="none" xmlns="http://www.w3.org/2000/svg">
<path d="M63 0H9C4.02944 0 0 4.02944 0 9V63C0 67.9706 4.02944 72 9 72H63C67.9706 72 72 67.9706 72 63V9C72 4.02944 67.9706 0 63 0Z" fill="#53575A"/>
<mask id="mask0_1194_3027" style="mask-type:luminance" maskUnits="userSpaceOnUse" x="3" y="3" width="66" height="66">
<path d="M62 3H10C6.13401 3 3 6.13401 3 10V62C3 65.866 6.13401 69 10 69H62C65.866 69 69 65.866 69 62V10C69 6.13401 65.866 3 62 3Z" fill="white"/>
</mask>
<g mask="url(#mask0_1194_3027)">
<path d="M10 3V1C5.03 1 1 5.03 1 10H5C5 7.24 7.24 5 10 5V3ZM62 3V5C64.76 5 67 7.24 67 10H71C71 5.03 66.97 1 62 1V3ZM69 62H67C67 64.76 64.76 67 62 67V71C66.97 71 71 66.97 71 62H69ZM10 69V67C7.24 67 5 64.76 5 62H1C1 66.97 5.03 71 10 71V69ZM3 62H5V10H1V62H3ZM62 69V67H10V71H62V69ZM69 10H67V62H71V10H69ZM10 3V5H62V1H10V3Z" fill="#F2F2F2"/>
</g>
<path d="M22.0586 18.1996C22.0619 18.1963 22.0686 18.193 22.0719 18.1963C22.0818 18.2395 22.0719 18.2793 22.0586 18.3192V18.1996Z" fill="#B7BEC7"/>
<path d="M51.9281 18.183C51.9348 18.183 51.9381 18.183 51.9414 18.1863V18.3058C51.9281 18.2627 51.9182 18.2228 51.9281 18.183Z" fill="#C1C7CF"/>
<path d="M48.817 15.0586C48.817 15.0619 48.817 15.0686 48.8204 15.0719C48.7772 15.0785 48.7374 15.0785 48.6975 15.0586H48.817Z" fill="#BCC3CB"/>
<path d="M25.183 15.0719C25.183 15.0686 25.183 15.0619 25.1863 15.0586H25.3059C25.2627 15.0785 25.2229 15.0785 25.183 15.0719ZM22.0719 41.817H22.0652L22.0586 41.8137V41.6941C22.0719 41.7373 22.0818 41.7771 22.0719 41.817Z" fill="#C1C7CF"/>
<path d="M51.9414 41.817L51.9348 41.8204H51.9281C51.9182 41.7772 51.9281 41.7374 51.9414 41.6975V41.817Z" fill="#BCC3CB"/>
<path d="M25.1996 44.9414C25.1996 44.9381 25.1963 44.9315 25.1963 44.9281C25.2395 44.9215 25.2793 44.9248 25.3191 44.9414H25.1996ZM48.8037 44.9281C48.8037 44.9315 48.8037 44.9381 48.8004 44.9414H48.6809C48.7207 44.9248 48.7605 44.9215 48.8037 44.9281Z" fill="#B7BEC7"/>
<path d="M51.9415 18.3026C51.9249 18.2627 51.9381 18.2229 51.9315 18.183C51.9215 17.9838 51.9249 17.7846 51.8717 17.5887C51.6127 16.6557 51.0616 15.9451 50.2249 15.4604C49.7899 15.208 49.325 15.052 48.8137 15.0653C48.7739 15.0619 48.734 15.0752 48.6942 15.0553H25.2993C25.2594 15.0719 25.2196 15.0586 25.1797 15.0653C24.9805 15.0752 24.7813 15.0719 24.5854 15.125C23.6524 15.384 22.9418 15.9352 22.4571 16.7719C22.2014 17.2102 22.0454 17.6817 22.062 18.1996C22.0586 18.2395 22.0719 18.2793 22.052 18.3192V41.6975C22.0686 41.7373 22.0553 41.7772 22.062 41.817C22.0719 42.0162 22.0686 42.2155 22.1217 42.4114C22.3807 43.3444 22.9319 44.0549 23.7686 44.5397C24.2069 44.7953 24.6784 44.9514 25.1963 44.9348C25.2362 44.9381 25.276 44.9248 25.3159 44.9447H48.6743C48.7141 44.9281 48.754 44.9414 48.7938 44.9348C48.9963 44.9281 49.2022 44.9281 49.4014 44.875C50.3377 44.616 51.0483 44.0649 51.5364 43.2248C51.7887 42.7899 51.9448 42.3283 51.9315 41.817C51.9348 41.7772 51.9215 41.7373 51.9415 41.6975V18.3026ZM50.2348 18.5117V41.485C50.2348 42.0793 49.9958 42.5608 49.5176 42.9127C49.2454 43.1153 48.9333 43.2149 48.5946 43.2315C48.5581 43.2348 48.5215 43.2315 48.485 43.2315H25.5184C24.9241 43.2315 24.4426 42.9957 24.0874 42.5176C23.8848 42.242 23.7819 41.9299 23.7653 41.5879V41.485V18.5117C23.7653 17.9174 24.0043 17.436 24.4825 17.084C24.7547 16.8815 25.0668 16.7819 25.4055 16.7653C25.4553 16.7619 25.5084 16.7653 25.5583 16.7653H48.4883C49.1524 16.7653 49.6571 17.0541 50.0024 17.6219C50.1485 17.861 50.2182 18.1266 50.2315 18.4088C50.2348 18.4453 50.2348 18.4785 50.2348 18.5117Z" fill="#E6EAED"/>
<path d="M37.4284 29.8639C34.636 29.8639 31.847 29.8605 29.0546 29.8672C28.5532 29.8672 28.2942 29.6082 28.1415 29.2463C27.9788 28.8578 28.0087 28.4959 28.2843 28.1705C28.447 27.9779 28.6628 27.8883 28.9118 27.8683C28.9517 27.865 28.9915 27.865 29.0313 27.865H45.8222C46.204 27.865 46.5028 28.0045 46.6921 28.3465C46.9577 28.8279 46.7983 29.4721 46.3567 29.7344C46.2239 29.814 46.0812 29.8506 45.9284 29.8605C45.8819 29.8639 45.8388 29.8639 45.7923 29.8639H37.4284ZM37.4185 35.5482C35.2503 35.5482 33.0821 35.5449 30.914 35.5515C30.572 35.5515 30.3429 35.3955 30.2167 35.09C30.0673 34.7281 30.0673 34.3562 30.2233 33.9943C30.3495 33.7021 30.5753 33.5494 30.904 33.5494C35.247 33.5527 39.5899 33.5494 43.9296 33.5527C44.2849 33.5527 44.514 33.6955 44.6401 34.0275C44.7862 34.4094 44.7829 34.7978 44.5937 35.1697C44.4642 35.4221 44.2517 35.5515 43.9595 35.5515C41.7813 35.5482 39.5999 35.5482 37.4185 35.5482ZM27.3413 21.2974C26.5146 21.2941 25.7974 20.5803 25.7974 19.7635C25.8007 18.9566 26.5278 18.2461 27.3479 18.2494C28.1681 18.2527 28.8886 18.9666 28.8853 19.7767C28.8853 20.5902 28.1614 21.3008 27.3413 21.2974ZM36.6149 21.2974C35.7882 21.2941 35.0677 20.5803 35.071 19.7668C35.0743 18.9599 35.8015 18.2494 36.6216 18.2527C37.4417 18.256 38.1622 18.9699 38.1589 19.7801C38.1589 20.5902 37.4351 21.3008 36.6149 21.2974ZM31.9765 21.2974C31.153 21.2941 30.4325 20.5803 30.4358 19.7701C30.4392 18.9533 31.163 18.2461 31.9931 18.2494C32.8099 18.2527 33.5304 18.9732 33.5271 19.7767C33.5204 20.5935 32.7966 21.3008 31.9765 21.2974Z" fill="#E6EAED"/>
<path d="M17.8807 57V49.7273H20.3381C20.9086 49.7273 21.375 49.8303 21.7372 50.0362C22.1018 50.2398 22.3717 50.5156 22.5469 50.8636C22.7221 51.2116 22.8097 51.5999 22.8097 52.0284C22.8097 52.4569 22.7221 52.8464 22.5469 53.1967C22.3741 53.5471 22.1065 53.8265 21.7443 54.0348C21.3821 54.2408 20.9181 54.3438 20.3523 54.3438H18.5909V53.5625H20.3239C20.7145 53.5625 21.0282 53.495 21.2649 53.3601C21.5017 53.2251 21.6733 53.0429 21.7798 52.8132C21.8887 52.5812 21.9432 52.3196 21.9432 52.0284C21.9432 51.7372 21.8887 51.4768 21.7798 51.2472C21.6733 51.0175 21.5005 50.8376 21.2614 50.7074C21.0223 50.5748 20.705 50.5085 20.3097 50.5085H18.7614V57H17.8807ZM26.272 57.1136C25.7796 57.1136 25.3475 56.9964 24.9759 56.7621C24.6065 56.5277 24.3177 56.1998 24.1094 55.7784C23.9034 55.357 23.8004 54.8646 23.8004 54.3011C23.8004 53.733 23.9034 53.237 24.1094 52.8132C24.3177 52.3894 24.6065 52.0604 24.9759 51.826C25.3475 51.5916 25.7796 51.4744 26.272 51.4744C26.7644 51.4744 27.1953 51.5916 27.5646 51.826C27.9363 52.0604 28.2251 52.3894 28.4311 52.8132C28.6394 53.237 28.7436 53.733 28.7436 54.3011C28.7436 54.8646 28.6394 55.357 28.4311 55.7784C28.2251 56.1998 27.9363 56.5277 27.5646 56.7621C27.1953 56.9964 26.7644 57.1136 26.272 57.1136ZM26.272 56.3608C26.6461 56.3608 26.9538 56.2649 27.1953 56.0732C27.4368 55.8814 27.6155 55.6293 27.7315 55.3168C27.8475 55.0043 27.9055 54.6657 27.9055 54.3011C27.9055 53.9366 27.8475 53.5968 27.7315 53.282C27.6155 52.9671 27.4368 52.7126 27.1953 52.5185C26.9538 52.3243 26.6461 52.2273 26.272 52.2273C25.898 52.2273 25.5902 52.3243 25.3487 52.5185C25.1072 52.7126 24.9285 52.9671 24.8125 53.282C24.6965 53.5968 24.6385 53.9366 24.6385 54.3011C24.6385 54.6657 24.6965 55.0043 24.8125 55.3168C24.9285 55.6293 25.1072 55.8814 25.3487 56.0732C25.5902 56.2649 25.898 56.3608 26.272 56.3608ZM30.0229 57V51.5455H30.8326V52.3693H30.8894C30.9888 52.0994 31.1687 51.8804 31.4292 51.7124C31.6896 51.5443 31.9831 51.4602 32.3098 51.4602C32.3714 51.4602 32.4483 51.4614 32.5407 51.4638C32.633 51.4661 32.7028 51.4697 32.7502 51.4744V52.3267C32.7218 52.3196 32.6567 52.3089 32.5549 52.2947C32.4554 52.2782 32.3501 52.2699 32.2388 52.2699C31.9737 52.2699 31.7369 52.3255 31.5286 52.4368C31.3226 52.5457 31.1593 52.6972 31.0385 52.8913C30.9202 53.0831 30.861 53.3021 30.861 53.5483V57H30.0229ZM36.4576 51.5455V52.2557H33.6309V51.5455H36.4576ZM34.4547 50.2386H35.2928V55.4375C35.2928 55.6742 35.3271 55.8518 35.3958 55.9702C35.4668 56.0862 35.5568 56.1643 35.6657 56.2045C35.7769 56.2424 35.8941 56.2614 36.0172 56.2614C36.1096 56.2614 36.1853 56.2566 36.2445 56.2472C36.3037 56.2353 36.351 56.2259 36.3865 56.2188L36.557 56.9716C36.5002 56.9929 36.4209 57.0142 36.3191 57.0355C36.2173 57.0592 36.0882 57.071 35.932 57.071C35.6953 57.071 35.4632 57.0201 35.236 56.9183C35.0111 56.8165 34.824 56.6615 34.6749 56.4531C34.5281 56.2448 34.4547 55.982 34.4547 55.6648V50.2386ZM40.1472 51.5455V52.2557H37.2069V51.5455H40.1472ZM38.0875 57V50.7926C38.0875 50.4801 38.1609 50.2197 38.3077 50.0114C38.4545 49.803 38.6451 49.6468 38.8794 49.5426C39.1138 49.4384 39.3612 49.3864 39.6216 49.3864C39.8276 49.3864 39.9957 49.4029 40.1259 49.4361C40.2561 49.4692 40.3532 49.5 40.4171 49.5284L40.1756 50.2528C40.133 50.2386 40.0738 50.2209 39.998 50.1996C39.9247 50.1783 39.8276 50.1676 39.7069 50.1676C39.4299 50.1676 39.2298 50.2375 39.1067 50.3771C38.986 50.5168 38.9256 50.7216 38.9256 50.9915V57H38.0875ZM43.313 57.1136C42.8206 57.1136 42.3886 56.9964 42.0169 56.7621C41.6475 56.5277 41.3587 56.1998 41.1504 55.7784C40.9444 55.357 40.8414 54.8646 40.8414 54.3011C40.8414 53.733 40.9444 53.237 41.1504 52.8132C41.3587 52.3894 41.6475 52.0604 42.0169 51.826C42.3886 51.5916 42.8206 51.4744 43.313 51.4744C43.8055 51.4744 44.2363 51.5916 44.6056 51.826C44.9773 52.0604 45.2662 52.3894 45.4721 52.8132C45.6805 53.237 45.7846 53.733 45.7846 54.3011C45.7846 54.8646 45.6805 55.357 45.4721 55.7784C45.2662 56.1998 44.9773 56.5277 44.6056 56.7621C44.2363 56.9964 43.8055 57.1136 43.313 57.1136ZM43.313 56.3608C43.6871 56.3608 43.9949 56.2649 44.2363 56.0732C44.4778 55.8814 44.6565 55.6293 44.7725 55.3168C44.8886 55.0043 44.9466 54.6657 44.9466 54.3011C44.9466 53.9366 44.8886 53.5968 44.7725 53.282C44.6565 52.9671 44.4778 52.7126 44.2363 52.5185C43.9949 52.3243 43.6871 52.2273 43.313 52.2273C42.939 52.2273 42.6312 52.3243 42.3897 52.5185C42.1483 52.7126 41.9695 52.9671 41.8535 53.282C41.7375 53.5968 41.6795 53.9366 41.6795 54.3011C41.6795 54.6657 41.7375 55.0043 41.8535 55.3168C41.9695 55.6293 42.1483 55.8814 42.3897 56.0732C42.6312 56.2649 42.939 56.3608 43.313 56.3608ZM47.902 49.7273V57H47.0639V49.7273H47.902ZM49.437 57V51.5455H50.275V57H49.437ZM49.8631 50.6364C49.6998 50.6364 49.5589 50.5807 49.4405 50.4695C49.3245 50.3582 49.2665 50.2244 49.2665 50.0682C49.2665 49.9119 49.3245 49.7782 49.4405 49.6669C49.5589 49.5556 49.6998 49.5 49.8631 49.5C50.0265 49.5 50.1661 49.5556 50.2821 49.6669C50.4005 49.7782 50.4597 49.9119 50.4597 50.0682C50.4597 50.2244 50.4005 50.3582 50.2821 50.4695C50.1661 50.5807 50.0265 50.6364 49.8631 50.6364ZM54.0259 57.1136C53.5335 57.1136 53.1014 56.9964 52.7298 56.7621C52.3604 56.5277 52.0716 56.1998 51.8633 55.7784C51.6573 55.357 51.5543 54.8646 51.5543 54.3011C51.5543 53.733 51.6573 53.237 51.8633 52.8132C52.0716 52.3894 52.3604 52.0604 52.7298 51.826C53.1014 51.5916 53.5335 51.4744 54.0259 51.4744C54.5183 51.4744 54.9492 51.5916 55.3185 51.826C55.6902 52.0604 55.979 52.3894 56.185 52.8132C56.3933 53.237 56.4975 53.733 56.4975 54.3011C56.4975 54.8646 56.3933 55.357 56.185 55.7784C55.979 56.1998 55.6902 56.5277 55.3185 56.7621C54.9492 56.9964 54.5183 57.1136 54.0259 57.1136ZM54.0259 56.3608C54.4 56.3608 54.7077 56.2649 54.9492 56.0732C55.1907 55.8814 55.3694 55.6293 55.4854 55.3168C55.6014 55.0043 55.6594 54.6657 55.6594 54.3011C55.6594 53.9366 55.6014 53.5968 55.4854 53.282C55.3694 52.9671 55.1907 52.7126 54.9492 52.5185C54.7077 52.3243 54.4 52.2273 54.0259 52.2273C53.6519 52.2273 53.3441 52.3243 53.1026 52.5185C52.8612 52.7126 52.6824 52.9671 52.5664 53.282C52.4504 53.5968 52.3924 53.9366 52.3924 54.3011C52.3924 54.6657 52.4504 55.0043 52.5664 55.3168C52.6824 55.6293 52.8612 55.8814 53.1026 56.0732C53.3441 56.2649 53.6519 56.3608 54.0259 56.3608Z" fill="#E6EAED"/>
</svg>
