<svg width="72" height="89" viewBox="0 0 72 89" fill="none" xmlns="http://www.w3.org/2000/svg">
<path d="M36 8.5C53.397 8.5 67.5 22.603 67.5 40C67.5 57.397 53.397 71.5 36 71.5C18.603 71.5 4.5 57.397 4.5 40C4.5 22.603 18.603 8.5 36 8.5Z" fill="white"/>
<path d="M36 8.5C53.397 8.5 67.5 22.603 67.5 40C67.5 57.397 53.397 71.5 36 71.5C18.603 71.5 4.5 57.397 4.5 40C4.5 22.603 18.603 8.5 36 8.5Z" stroke="#BEBEBE"/>
<path d="M23.7 50.2C25.4 48.9 27.3 47.875 29.4 47.125C31.5 46.375 33.7 46 36 46C38.3 46 40.5 46.375 42.6 47.125C44.7 47.875 46.6 48.9 48.3 50.2C49.4667 48.8333 50.375 47.2833 51.025 45.55C51.675 43.8167 52 41.9667 52 40C52 35.5667 50.4417 31.7917 47.325 28.675C44.2083 25.5583 40.4333 24 36 24C31.5667 24 27.7917 25.5583 24.675 28.675C21.5583 31.7917 20 35.5667 20 40C20 41.9667 20.325 43.8167 20.975 45.55C21.625 47.2833 22.5333 48.8333 23.7 50.2ZM36 42C34.0333 42 32.375 41.325 31.025 39.975C29.675 38.625 29 36.9667 29 35C29 33.0333 29.675 31.375 31.025 30.025C32.375 28.675 34.0333 28 36 28C37.9667 28 39.625 28.675 40.975 30.025C42.325 31.375 43 33.0333 43 35C43 36.9667 42.325 38.625 40.975 39.975C39.625 41.325 37.9667 42 36 42ZM36 60C33.2333 60 30.6333 59.475 28.2 58.425C25.7667 57.375 23.65 55.95 21.85 54.15C20.05 52.35 18.625 50.2333 17.575 47.8C16.525 45.3667 16 42.7667 16 40C16 37.2333 16.525 34.6333 17.575 32.2C18.625 29.7667 20.05 27.65 21.85 25.85C23.65 24.05 25.7667 22.625 28.2 21.575C30.6333 20.525 33.2333 20 36 20C38.7667 20 41.3667 20.525 43.8 21.575C46.2333 22.625 48.35 24.05 50.15 25.85C51.95 27.65 53.375 29.7667 54.425 32.2C55.475 34.6333 56 37.2333 56 40C56 42.7667 55.475 45.3667 54.425 47.8C53.375 50.2333 51.95 52.35 50.15 54.15C48.35 55.95 46.2333 57.375 43.8 58.425C41.3667 59.475 38.7667 60 36 60Z" fill="#535353"/>
<path d="M28.4573 87H27.534L30.2045 79.7273H31.1135L33.784 87H32.8607L30.6874 80.8778H30.6306L28.4573 87ZM28.7982 84.1591H32.5198V84.9403H28.7982V84.1591ZM36.8335 81.5455V82.2557H34.0068V81.5455H36.8335ZM34.8307 80.2386H35.6688V85.4375C35.6688 85.6742 35.7031 85.8518 35.7718 85.9702C35.8428 86.0862 35.9327 86.1643 36.0416 86.2045C36.1529 86.2424 36.2701 86.2614 36.3932 86.2614C36.4855 86.2614 36.5613 86.2566 36.6205 86.2472C36.6797 86.2353 36.727 86.2259 36.7625 86.2188L36.933 86.9716C36.8762 86.9929 36.7968 87.0142 36.695 87.0355C36.5932 87.0592 36.4642 87.071 36.308 87.071C36.0712 87.071 35.8392 87.0201 35.6119 86.9183C35.387 86.8165 35.2 86.6615 35.0509 86.4531C34.9041 86.2448 34.8307 85.982 34.8307 85.6648V80.2386ZM40.4664 81.5455V82.2557H37.6396V81.5455H40.4664ZM38.4635 80.2386H39.3016V85.4375C39.3016 85.6742 39.3359 85.8518 39.4046 85.9702C39.4756 86.0862 39.5655 86.1643 39.6744 86.2045C39.7857 86.2424 39.9029 86.2614 40.026 86.2614C40.1183 86.2614 40.1941 86.2566 40.2533 86.2472C40.3125 86.2353 40.3598 86.2259 40.3953 86.2188L40.5658 86.9716C40.509 86.9929 40.4297 87.0142 40.3279 87.0355C40.2261 87.0592 40.097 87.071 39.9408 87.071C39.704 87.071 39.472 87.0201 39.2448 86.9183C39.0199 86.8165 38.8328 86.6615 38.6837 86.4531C38.5369 86.2448 38.4635 85.982 38.4635 85.6648V80.2386ZM43.9553 87.1136C43.4298 87.1136 42.9764 86.9976 42.5953 86.7656C42.2165 86.5312 41.9241 86.2045 41.7181 85.7855C41.5145 85.3641 41.4127 84.8741 41.4127 84.3153C41.4127 83.7566 41.5145 83.2642 41.7181 82.8381C41.9241 82.4096 42.2106 82.0758 42.5775 81.8366C42.9468 81.5952 43.3777 81.4744 43.8701 81.4744C44.1542 81.4744 44.4347 81.5218 44.7117 81.6165C44.9887 81.7112 45.2409 81.8651 45.4681 82.0781C45.6954 82.2888 45.8765 82.5682 46.0115 82.9162C46.1464 83.2642 46.2139 83.6927 46.2139 84.2017V84.5568H42.0093V83.8324H45.3616C45.3616 83.5246 45.3 83.25 45.1769 83.0085C45.0562 82.767 44.8834 82.5765 44.6585 82.4368C44.4359 82.2971 44.1731 82.2273 43.8701 82.2273C43.5363 82.2273 43.2475 82.3101 43.0036 82.4759C42.7622 82.6392 42.5763 82.8523 42.4461 83.1151C42.3159 83.3778 42.2508 83.6596 42.2508 83.9602V84.4432C42.2508 84.8551 42.3218 85.2043 42.4639 85.4908C42.6083 85.7749 42.8083 85.9915 43.064 86.1406C43.3197 86.2874 43.6168 86.3608 43.9553 86.3608C44.1755 86.3608 44.3744 86.33 44.5519 86.2685C44.7319 86.2045 44.8869 86.1098 45.0171 85.9844C45.1473 85.8565 45.248 85.6979 45.319 85.5085L46.1286 85.7358C46.0434 86.0104 45.9002 86.2519 45.699 86.4602C45.4977 86.6662 45.2491 86.8272 44.9532 86.9432C44.6573 87.0568 44.3247 87.1136 43.9553 87.1136Z" fill="#E6E9EC"/>
</svg>
