<svg width="185" height="24" viewBox="0 0 185 24" fill="none" xmlns="http://www.w3.org/2000/svg">
  <rect x="172.5" width="12" height="24" rx="6" fill="#999999"/>
  <rect x="152.5" width="12" height="24" rx="6" fill="#999999"/>
  <rect x="132.5" width="12" height="24" rx="6" fill="#999999"/>
  <rect x="112.5" width="12" height="24" rx="6" fill="#E6E9EC"/>
  <rect x="92.5" width="12" height="24" rx="6" fill="#E6E9EC"/>
  <rect x="72.5" width="12" height="24" rx="6" fill="#E6E9EC"/>
  <rect x="52.5" width="12" height="24" rx="6" fill="#E6E9EC"/>
  <rect x="32.5" width="12" height="24" rx="6" fill="#E6E9EC"/>
  <path fill-rule="evenodd" clip-rule="evenodd" d="M7 2C5.34315 2 4 3.34315 4 5V11.5C4 13.1569 5.34315 14.5 7 14.5C8.65685 14.5 10 13.1569 10 11.5V5C10 3.34315 8.65685 2 7 2ZM8 11.5V5C8 4.44772 7.55228 4 7 4C6.44772 4 6 4.44772 6 5V11.5C6 12.0523 6.44772 12.5 7 12.5C7.55228 12.5 8 12.0523 8 11.5Z" fill="white"/>
  <path d="M7 16C4.23858 16 2 13.7614 2 11H0C0 14.5265 2.60771 17.4439 6 17.9291V22H8V17.9291C11.3923 17.4439 14 14.5265 14 11H12C12 13.7614 9.76142 16 7 16Z" fill="white"/>
</svg>
