<svg width="35" height="30" viewBox="0 0 35 30" fill="none" xmlns="http://www.w3.org/2000/svg">
<path d="M22.05 14C20.945 14 20.1 15.0833 20.1 16.5C20.1 17.9167 20.945 19 22.05 19C23.155 19 24 17.9167 24 16.5C24 15.0833 23.155 14 22.05 14ZM12.95 14C11.845 14 11 15.0833 11 16.5C11 17.9167 11.845 19 12.95 19C14.055 19 14.9 17.9167 14.9 16.5C14.9 15.0833 14.055 14 12.95 14Z" fill="#EFEFEF"/>
<path d="M4.375 8.59084C4.375 7.80584 5.03125 7.16357 5.83333 7.16357H11.6667L9.55208 1.954C9.26042 1.24036 9.625 0.383998 10.3542 0.0985424C11.0833 -0.186913 11.9583 0.169906 12.25 0.883545L14.8021 7.0922H20.125L22.6771 0.883545C22.9688 0.169906 23.8438 -0.186913 24.5729 0.0985424C25.3021 0.383998 25.6667 1.24036 25.375 1.954L23.3333 7.16357H29.1667C29.9688 7.16357 30.625 7.80584 30.625 8.59084V28.5727C30.625 29.3577 29.9688 30 29.1667 30H5.83333C5.03125 30 4.375 29.3577 4.375 28.5727V8.59084ZM7.29167 10.0181V27.1454H27.7083V10.0181H7.29167ZM35 22.15V15.0136C35 14.2286 34.3438 13.5863 33.5417 13.5863C32.7396 13.5863 32.0833 14.2286 32.0833 15.0136V22.15C32.0833 22.935 32.7396 23.5773 33.5417 23.5773C34.3438 23.5773 35 22.935 35 22.15ZM1.45833 23.5773C2.26042 23.5773 2.91667 22.935 2.91667 22.15V15.0136C2.91667 14.2286 2.26042 13.5863 1.45833 13.5863C0.65625 13.5863 0 14.2286 0 15.0136V22.15C0 22.935 0.65625 23.5773 1.45833 23.5773Z" fill="#EFEFEF"/>
</svg>
