<svg width="46" height="34" viewBox="0 0 46 34" fill="none" xmlns="http://www.w3.org/2000/svg">
<mask id="path-1-inside-1_863_5747" fill="white">
<path d="M22.2724 0.000199377C22.5094 -0.00645885 22.7188 0.154297 22.7734 0.384965L26.4667 16.1301C26.8291 16.2886 27.1865 16.4713 27.5341 16.6818C31.787 19.2575 33.1434 24.7929 30.5702 29.0422C27.9946 33.2953 22.4631 34.6539 18.2099 32.0783C13.9568 29.5027 12.5982 23.9711 15.1738 19.718C16.1213 18.1535 17.4691 16.9816 19.0058 16.2522L21.7948 0.413285C21.8362 0.179911 22.0355 0.00713263 22.2724 0.000199377Z"/>
</mask>
<path d="M22.2724 0.000199377C22.5094 -0.00645885 22.7188 0.154297 22.7734 0.384965L26.4667 16.1301C26.8291 16.2886 27.1865 16.4713 27.5341 16.6818C31.787 19.2575 33.1434 24.7929 30.5702 29.0422C27.9946 33.2953 22.4631 34.6539 18.2099 32.0783C13.9568 29.5027 12.5982 23.9711 15.1738 19.718C16.1213 18.1535 17.4691 16.9816 19.0058 16.2522L21.7948 0.413285C21.8362 0.179911 22.0355 0.00713263 22.2724 0.000199377Z" fill="#4FBF65"/>
<path d="M22.2724 0.000199377L22.2443 -0.999407L22.2431 -0.999373L22.2724 0.000199377ZM22.7734 0.384965L23.7469 0.156592L23.7465 0.154848L22.7734 0.384965ZM26.4667 16.1301L25.4932 16.3585L25.6074 16.8457L26.066 17.0463L26.4667 16.1301ZM27.5341 16.6818L28.0521 15.8265L28.0521 15.8265L27.5341 16.6818ZM30.5702 29.0422L31.4256 29.5602L31.4256 29.5602L30.5702 29.0422ZM18.2099 32.0783L17.6919 32.9337L17.6919 32.9337L18.2099 32.0783ZM15.1738 19.718L14.3184 19.1999L14.3184 19.2L15.1738 19.718ZM19.0058 16.2522L19.4346 17.1555L19.9011 16.9341L19.9906 16.4256L19.0058 16.2522ZM21.7948 0.413285L20.8102 0.238942L20.81 0.239864L21.7948 0.413285ZM22.2724 0.000199377L22.3005 0.999805C22.0642 1.00644 21.8549 0.846493 21.8002 0.615082L22.7734 0.384965L23.7465 0.154848C23.5827 -0.537899 22.9546 -1.01936 22.2443 -0.999406L22.2724 0.000199377ZM22.7734 0.384965L21.7998 0.613338L25.4932 16.3585L26.4667 16.1301L27.4403 15.9017L23.7469 0.156592L22.7734 0.384965ZM26.4667 16.1301L26.066 17.0463C26.391 17.1884 26.7089 17.3512 27.0161 17.5372L27.5341 16.6818L28.0521 15.8265C27.664 15.5915 27.2672 15.3888 26.8675 15.2139L26.4667 16.1301ZM27.5341 16.6818L27.0161 17.5372C30.7963 19.8266 32.0022 24.747 29.7149 28.5242L30.5702 29.0422L31.4256 29.5602C34.2847 24.8388 32.7778 18.6884 28.0521 15.8265L27.5341 16.6818ZM30.5702 29.0422L29.7149 28.5242C27.4254 32.3048 22.5087 33.5125 18.7279 31.2229L18.2099 32.0783L17.6919 32.9337C22.4174 35.7953 28.5639 34.2858 31.4256 29.5602L30.5702 29.0422ZM18.2099 32.0783L18.7279 31.2229C14.9472 28.9334 13.7396 24.0168 16.0291 20.236L15.1738 19.718L14.3184 19.2C11.4568 23.9255 12.9663 30.072 17.6919 32.9337L18.2099 32.0783ZM15.1738 19.718L16.0291 20.236C16.872 18.8442 18.0691 17.8037 19.4346 17.1555L19.0058 16.2522L18.577 15.3488C16.8691 16.1594 15.3705 17.4627 14.3184 19.1999L15.1738 19.718ZM19.0058 16.2522L19.9906 16.4256L22.7797 0.586707L21.7948 0.413285L20.81 0.239864L18.0209 16.0787L19.0058 16.2522ZM21.7948 0.413285L22.7795 0.587628C22.7385 0.819236 22.5404 0.992785 22.3016 0.999771L22.2724 0.000199377L22.2431 -0.999373C21.5306 -0.978519 20.9338 -0.459414 20.8102 0.238942L21.7948 0.413285Z" fill="black" mask="url(#path-1-inside-1_863_5747)"/>
<path d="M19.2878 28.7136C18.7253 28.7136 18.2239 28.617 17.7836 28.4238C17.3461 28.2306 16.998 27.9621 16.7395 27.6184C16.4838 27.2718 16.3446 26.8698 16.3219 26.4124H17.3958C17.4185 26.6937 17.5151 26.9366 17.6855 27.1411C17.856 27.3428 18.079 27.4991 18.3546 27.6099C18.6301 27.7207 18.9355 27.7761 19.2708 27.7761C19.6458 27.7761 19.9782 27.7107 20.2679 27.58C20.5577 27.4494 20.785 27.2675 20.9498 27.0346C21.1145 26.8016 21.1969 26.5317 21.1969 26.2249C21.1969 25.9039 21.1174 25.6212 20.9583 25.3769C20.7992 25.1297 20.5662 24.9366 20.2594 24.7974C19.9526 24.6582 19.5776 24.5886 19.1344 24.5886H18.4355V23.6511H19.1344C19.481 23.6511 19.785 23.5886 20.0463 23.4636C20.3105 23.3386 20.5165 23.1624 20.6642 22.9351C20.8148 22.7079 20.8901 22.4408 20.8901 22.134C20.8901 21.8386 20.8248 21.5815 20.6941 21.3627C20.5634 21.144 20.3787 20.9735 20.1401 20.8513C19.9043 20.7292 19.6259 20.6681 19.3049 20.6681C19.0037 20.6681 18.7196 20.7235 18.4526 20.8343C18.1884 20.9422 17.9725 21.0999 17.8049 21.3073C17.6373 21.5119 17.5463 21.759 17.5321 22.0488H16.5094C16.5265 21.5914 16.6642 21.1908 16.9228 20.8471C17.1813 20.5005 17.5194 20.2306 17.937 20.0374C18.3574 19.8442 18.8191 19.7476 19.3219 19.7476C19.8617 19.7476 20.3248 19.857 20.7111 20.0758C21.0975 20.2917 21.3944 20.5772 21.6017 20.9323C21.8091 21.2874 21.9128 21.6709 21.9128 22.0829C21.9128 22.5744 21.7836 22.9934 21.525 23.34C21.2694 23.6866 20.9213 23.9266 20.481 24.0601V24.1283C21.0321 24.2192 21.4625 24.4536 21.7722 24.8315C22.0819 25.2065 22.2367 25.6709 22.2367 26.2249C22.2367 26.6994 22.1074 27.1255 21.8489 27.5033C21.5932 27.8783 21.2438 28.1738 20.8006 28.3897C20.3574 28.6056 19.8532 28.7136 19.2878 28.7136ZM26.758 19.7476C27.1159 19.7505 27.4739 19.8187 27.8319 19.9522C28.1898 20.0857 28.5165 20.3073 28.812 20.617C29.1074 20.9238 29.3446 21.3428 29.5236 21.8741C29.7026 22.4053 29.7921 23.0715 29.7921 23.8726C29.7921 24.6482 29.7182 25.3371 29.5705 25.9394C29.4256 26.5388 29.2154 27.0445 28.9398 27.4565C28.6671 27.8684 28.3347 28.1809 27.9426 28.394C27.5534 28.607 27.1131 28.7136 26.6216 28.7136C26.133 28.7136 25.6969 28.617 25.3134 28.4238C24.9327 28.2278 24.6202 27.9565 24.3759 27.6099C24.1344 27.2604 23.9796 26.8556 23.9114 26.3954H24.9512C25.0449 26.7959 25.231 27.1269 25.5094 27.3883C25.7907 27.6468 26.1614 27.7761 26.6216 27.7761C27.2949 27.7761 27.8262 27.482 28.2154 26.894C28.6074 26.3059 28.8034 25.4749 28.8034 24.4011H28.7353C28.5762 24.6397 28.3872 24.8457 28.1685 25.019C27.9497 25.1922 27.7069 25.3258 27.4398 25.4195C27.1728 25.5133 26.8887 25.5601 26.5875 25.5601C26.0875 25.5601 25.6287 25.4366 25.2111 25.1894C24.7963 24.9394 24.464 24.5971 24.214 24.1624C23.9668 23.7249 23.8432 23.2249 23.8432 22.6624C23.8432 22.1283 23.9625 21.6397 24.2012 21.1965C24.4426 20.7505 24.7807 20.3954 25.2154 20.1312C25.6529 19.867 26.1671 19.7391 26.758 19.7476ZM26.758 20.6851C26.4 20.6851 26.0776 20.7746 25.7907 20.9536C25.5066 21.1297 25.2807 21.3684 25.1131 21.6695C24.9483 21.9678 24.8659 22.2988 24.8659 22.6624C24.8659 23.0261 24.9455 23.357 25.1046 23.6553C25.2665 23.9508 25.4867 24.1866 25.7651 24.3627C26.0463 24.536 26.3659 24.6226 26.7239 24.6226C26.9938 24.6226 27.2452 24.5701 27.4782 24.465C27.7111 24.357 27.9142 24.2107 28.0875 24.0261C28.2637 23.8386 28.4015 23.6269 28.5009 23.3911C28.6003 23.1525 28.65 22.9039 28.65 22.6454C28.65 22.3045 28.5676 21.9849 28.4029 21.6866C28.2409 21.3883 28.0165 21.1468 27.7296 20.9621C27.4455 20.7775 27.1216 20.6851 26.758 20.6851Z" fill="white"/>
</svg>
