<svg width="391" height="418" viewBox="0 0 391 418" fill="none" xmlns="http://www.w3.org/2000/svg">
<path d="M390 1H1V418H380C385.523 418 390 413.523 390 408V1Z" fill="#EFEFEF"/>
<path d="M390.5 377.5V417.5H1.5V377.5H390.5Z" fill="#CBCBCB" stroke="black"/>
<path d="M33.8599 107.982L68.5654 73.2767C69.799 72.0432 71.6895 71.7516 73.2376 72.5558L157.383 116.268C156.686 116.499 155.847 116.785 154.882 117.134C151.846 118.23 147.566 119.929 142.574 122.341C132.594 127.161 119.741 134.845 108.293 146.293C97.3756 157.21 89.5674 170.571 84.4933 181.173C81.9538 186.479 80.0931 191.107 78.8668 194.41C78.4232 195.605 78.0655 196.628 77.7855 197.447L33.1493 112.674C32.3328 111.124 32.6206 109.222 33.8599 107.982Z" fill="#D4D4D4" stroke="black" stroke-width="2"/>
<path d="M194.879 354.087C127.225 354.087 72.2074 299.069 72.2074 231.415C72.2074 163.761 127.225 108.743 194.879 108.743C262.533 108.743 317.551 163.761 317.551 231.415C317.551 299.069 262.533 354.087 194.879 354.087ZM194.879 112C129.818 112 75 165.94 75 231C75 296.061 129.939 351 195 351C260.061 351 314.5 296.476 314.5 231.415C314.5 166.354 259.94 112 194.879 112Z" fill="black"/>
<path d="M292.861 232.533C292.861 286.773 248.925 330.709 194.685 330.709C140.445 330.709 96.5087 286.773 96.5087 232.533C96.5087 178.293 140.445 134.356 194.685 134.356C248.925 134.356 292.861 178.341 292.861 232.533Z" fill="#CBCBCB"/>
<path d="M194.879 109.493C262.119 109.493 316.801 164.175 316.801 231.415C316.801 298.655 262.119 353.337 194.879 353.337C127.639 353.337 72.9574 298.655 72.9574 231.415C72.9574 164.175 127.639 109.493 194.879 109.493ZM194.879 111.25C129.411 111.25 74.2505 165.518 74.2504 231C74.2504 296.475 129.525 351.75 195 351.75C260.476 351.75 315.25 296.889 315.25 231.415C315.25 165.938 260.353 111.25 194.879 111.25ZM194.685 135.106C248.51 135.107 292.111 178.756 292.111 232.533C292.11 286.359 248.511 329.959 194.685 329.959C140.859 329.959 97.2594 286.359 97.2592 232.533C97.2592 178.707 140.859 135.106 194.685 135.106Z" stroke="black" stroke-width="1.5"/>
<path d="M195 146.25C242.927 146.25 281.75 185.116 281.75 233C281.75 280.927 242.927 319.75 195 319.75C147.073 319.75 108.25 280.927 108.25 233C108.25 185.073 147.073 146.25 195 146.25Z" stroke="#ABADB0" stroke-width="0.5"/>
<path d="M264.836 362.786H325.772V376H66.313V362.786H125.89V333.041C126.838 333.642 128.201 334.481 129.936 335.478C133.533 337.544 138.731 340.296 145.152 343.048C157.985 348.548 175.743 354.064 195.364 354.064C214.985 354.064 232.741 348.548 245.575 343.048C251.995 340.296 257.194 337.544 260.791 335.478C262.525 334.481 263.888 333.642 264.836 333.041V362.786Z" fill="#53575A" stroke="black" stroke-width="2"/>
<path d="M195 0L195 417" stroke="black" stroke-dasharray="4 4"/>
<path d="M0 233L391 233" stroke="black" stroke-dasharray="4 4"/>
<path d="M196 175.25C227.905 175.25 253.75 201.123 253.75 233C253.75 264.905 227.906 290.75 196 290.75C164.094 290.75 138.25 264.905 138.25 233C138.25 201.095 164.094 175.25 196 175.25Z" stroke="#ABADB0" stroke-width="0.5"/>
<path d="M193.5 190.25C216.842 190.25 235.75 209.179 235.75 232.5C235.75 255.842 216.842 274.75 193.5 274.75C170.158 274.75 151.25 255.842 151.25 232.5C151.25 209.158 170.158 190.25 193.5 190.25Z" stroke="#ABADB0" stroke-width="0.5"/>
<path d="M194.5 160.25C234.416 160.25 266.75 192.62 266.75 232.5C266.75 272.416 234.416 304.75 194.5 304.75C154.584 304.75 122.25 272.416 122.25 232.5C122.25 192.584 154.584 160.25 194.5 160.25Z" stroke="#ABADB0" stroke-width="0.5"/>
<path d="M31 69L33.9886 80.1535L42.1535 71.9886L31 69ZM277.569 314.155C277.179 313.764 276.545 313.764 276.155 314.155C275.764 314.545 275.764 315.179 276.155 315.569L276.862 314.862L277.569 314.155ZM271.879 311.293C272.27 311.684 272.903 311.684 273.293 311.293C273.684 310.903 273.684 310.27 273.293 309.879L272.586 310.586L271.879 311.293ZM269.017 305.603C268.627 305.213 267.994 305.213 267.603 305.603C267.213 305.994 267.213 306.627 267.603 307.017L268.31 306.31L269.017 305.603ZM263.327 302.742C263.718 303.132 264.351 303.132 264.742 302.742C265.132 302.351 265.132 301.718 264.742 301.327L264.034 302.034L263.327 302.742ZM260.466 297.052C260.075 296.661 259.442 296.661 259.052 297.052C258.661 297.442 258.661 298.075 259.052 298.466L259.759 297.759L260.466 297.052ZM254.776 294.19C255.166 294.58 255.799 294.58 256.19 294.19C256.58 293.799 256.58 293.166 256.19 292.776L255.483 293.483L254.776 294.19ZM251.914 288.5C251.523 288.109 250.89 288.109 250.5 288.5C250.109 288.89 250.109 289.523 250.5 289.914L251.207 289.207L251.914 288.5ZM246.224 285.638C246.614 286.029 247.248 286.029 247.638 285.638C248.029 285.248 248.029 284.614 247.638 284.224L246.931 284.931L246.224 285.638ZM243.362 279.948C242.972 279.558 242.339 279.558 241.948 279.948C241.558 280.339 241.558 280.972 241.948 281.362L242.655 280.655L243.362 279.948ZM237.672 277.086C238.063 277.477 238.696 277.477 239.086 277.086C239.477 276.696 239.477 276.063 239.086 275.672L238.379 276.379L237.672 277.086ZM234.811 271.396C234.42 271.006 233.787 271.006 233.396 271.396C233.006 271.787 233.006 272.42 233.396 272.811L234.103 272.103L234.811 271.396ZM229.12 268.535C229.511 268.925 230.144 268.925 230.535 268.535C230.925 268.144 230.925 267.511 230.535 267.12L229.828 267.828L229.12 268.535ZM226.259 262.845C225.868 262.454 225.235 262.454 224.845 262.845C224.454 263.235 224.454 263.868 224.845 264.259L225.552 263.552L226.259 262.845ZM220.569 259.983C220.959 260.373 221.592 260.373 221.983 259.983C222.373 259.592 222.373 258.959 221.983 258.569L221.276 259.276L220.569 259.983ZM217.707 254.293C217.317 253.902 216.683 253.902 216.293 254.293C215.902 254.683 215.902 255.317 216.293 255.707L217 255L217.707 254.293ZM212.017 251.431C212.408 251.822 213.041 251.822 213.431 251.431C213.822 251.041 213.822 250.408 213.431 250.017L212.724 250.724L212.017 251.431ZM209.155 245.741C208.765 245.351 208.132 245.351 207.741 245.741C207.351 246.132 207.351 246.765 207.741 247.155L208.448 246.448L209.155 245.741ZM203.465 242.88C203.856 243.27 204.489 243.27 204.88 242.88C205.27 242.489 205.27 241.856 204.88 241.465L204.172 242.172L203.465 242.88ZM200.604 237.189C200.213 236.799 199.58 236.799 199.189 237.189C198.799 237.58 198.799 238.213 199.189 238.604L199.897 237.897L200.604 237.189ZM194.914 234.328C195.304 234.718 195.937 234.718 196.328 234.328C196.718 233.937 196.718 233.304 196.328 232.914L195.621 233.621L194.914 234.328ZM192.052 228.638C191.661 228.247 191.028 228.247 190.638 228.638C190.247 229.028 190.247 229.661 190.638 230.052L191.345 229.345L192.052 228.638ZM186.362 225.776C186.752 226.167 187.386 226.167 187.776 225.776C188.167 225.386 188.167 224.752 187.776 224.362L187.069 225.069L186.362 225.776ZM183.5 220.086C183.11 219.695 182.477 219.695 182.086 220.086C181.695 220.477 181.695 221.11 182.086 221.5L182.793 220.793L183.5 220.086ZM177.81 217.224C178.201 217.615 178.834 217.615 179.224 217.224C179.615 216.834 179.615 216.201 179.224 215.81L178.517 216.517L177.81 217.224ZM174.948 211.534C174.558 211.144 173.925 211.144 173.534 211.534C173.144 211.925 173.144 212.558 173.534 212.948L174.241 212.241L174.948 211.534ZM169.258 208.673C169.649 209.063 170.282 209.063 170.673 208.673C171.063 208.282 171.063 207.649 170.673 207.258L169.966 207.966L169.258 208.673ZM166.397 202.983C166.006 202.592 165.373 202.592 164.983 202.983C164.592 203.373 164.592 204.006 164.983 204.397L165.69 203.69L166.397 202.983ZM160.707 200.121C161.097 200.511 161.73 200.511 162.121 200.121C162.511 199.73 162.511 199.097 162.121 198.707L161.414 199.414L160.707 200.121ZM157.845 194.431C157.455 194.04 156.821 194.04 156.431 194.431C156.04 194.821 156.04 195.455 156.431 195.845L157.138 195.138L157.845 194.431ZM152.155 191.569C152.545 191.96 153.179 191.96 153.569 191.569C153.96 191.179 153.96 190.545 153.569 190.155L152.862 190.862L152.155 191.569ZM149.293 185.879C148.903 185.489 148.27 185.489 147.879 185.879C147.489 186.27 147.489 186.903 147.879 187.293L148.586 186.586L149.293 185.879ZM143.603 183.017C143.994 183.408 144.627 183.408 145.017 183.017C145.408 182.627 145.408 181.994 145.017 181.603L144.31 182.31L143.603 183.017ZM140.742 177.327C140.351 176.937 139.718 176.937 139.327 177.327C138.937 177.718 138.937 178.351 139.327 178.742L140.034 178.034L140.742 177.327ZM135.052 174.466C135.442 174.856 136.075 174.856 136.466 174.466C136.856 174.075 136.856 173.442 136.466 173.052L135.759 173.759L135.052 174.466ZM132.19 168.776C131.799 168.385 131.166 168.385 130.776 168.776C130.385 169.166 130.385 169.799 130.776 170.19L131.483 169.483L132.19 168.776ZM126.5 165.914C126.89 166.305 127.523 166.305 127.914 165.914C128.305 165.523 128.305 164.89 127.914 164.5L127.207 165.207L126.5 165.914ZM123.638 160.224C123.248 159.833 122.614 159.833 122.224 160.224C121.833 160.614 121.833 161.248 122.224 161.638L122.931 160.931L123.638 160.224ZM117.948 157.362C118.339 157.753 118.972 157.753 119.362 157.362C119.753 156.972 119.753 156.339 119.362 155.948L118.655 156.655L117.948 157.362ZM115.086 151.672C114.696 151.282 114.063 151.282 113.672 151.672C113.282 152.063 113.282 152.696 113.672 153.086L114.379 152.379L115.086 151.672ZM109.396 148.811C109.787 149.201 110.42 149.201 110.811 148.811C111.201 148.42 111.201 147.787 110.811 147.396L110.103 148.103L109.396 148.811ZM106.535 143.12C106.144 142.73 105.511 142.73 105.12 143.12C104.73 143.511 104.73 144.144 105.12 144.535L105.828 143.828L106.535 143.12ZM100.845 140.259C101.235 140.649 101.868 140.649 102.259 140.259C102.649 139.868 102.649 139.235 102.259 138.845L101.552 139.552L100.845 140.259ZM97.983 134.569C97.5925 134.178 96.9593 134.178 96.5688 134.569C96.1782 134.959 96.1782 135.592 96.5688 135.983L97.2759 135.276L97.983 134.569ZM92.2929 131.707C92.6834 132.098 93.3166 132.098 93.7071 131.707C94.0976 131.317 94.0976 130.683 93.7071 130.293L93 131L92.2929 131.707ZM89.4312 126.017C89.0407 125.626 88.4075 125.626 88.017 126.017C87.6265 126.408 87.6265 127.041 88.017 127.431L88.7241 126.724L89.4312 126.017ZM83.7411 123.155C84.1317 123.546 84.7648 123.546 85.1554 123.155C85.5459 122.765 85.5459 122.132 85.1554 121.741L84.4483 122.448L83.7411 123.155ZM80.8795 117.465C80.489 117.075 79.8558 117.075 79.4653 117.465C79.0747 117.856 79.0748 118.489 79.4653 118.879L80.1724 118.172L80.8795 117.465ZM75.1894 114.604C75.5799 114.994 76.2131 114.994 76.6036 114.604C76.9941 114.213 76.9941 113.58 76.6036 113.189L75.8965 113.897L75.1894 114.604ZM72.3277 108.914C71.9372 108.523 71.3041 108.523 70.9135 108.914C70.523 109.304 70.523 109.937 70.9135 110.328L71.6206 109.621L72.3277 108.914ZM66.6377 106.052C67.0282 106.442 67.6613 106.442 68.0519 106.052C68.4424 105.661 68.4424 105.028 68.0519 104.638L67.3448 105.345L66.6377 106.052ZM63.776 100.362C63.3855 99.9713 62.7523 99.9713 62.3618 100.362C61.9713 100.752 61.9713 101.385 62.3618 101.776L63.0689 101.069L63.776 100.362ZM58.0859 97.5001C58.4764 97.8907 59.1096 97.8906 59.5001 97.5001C59.8906 97.1096 59.8907 96.4764 59.5001 96.0859L58.793 96.793L58.0859 97.5001ZM55.2243 91.81C54.8337 91.4195 54.2006 91.4195 53.81 91.81C53.4195 92.2006 53.4195 92.8337 53.81 93.2243L54.5171 92.5171L55.2243 91.81ZM49.5342 88.9484C49.9247 89.3389 50.5579 89.3389 50.9484 88.9484C51.3389 88.5579 51.3389 87.9247 50.9484 87.5342L50.2413 88.2413L49.5342 88.9484ZM46.6725 83.2583C46.282 82.8678 45.6488 82.8678 45.2583 83.2583C44.8678 83.6488 44.8678 84.282 45.2583 84.6725L45.9654 83.9654L46.6725 83.2583ZM40.9824 80.3966C41.3729 80.7872 42.0061 80.7872 42.3966 80.3966C42.7872 80.0061 42.7872 79.3729 42.3966 78.9824L41.6895 79.6895L40.9824 80.3966ZM38.1208 74.7065C37.7302 74.316 37.0971 74.316 36.7065 74.7065C36.316 75.0971 36.316 75.7302 36.7065 76.1208L37.4137 75.4137L38.1208 74.7065ZM32.4307 71.8449C32.8212 72.2354 33.4544 72.2354 33.8449 71.8449C34.2354 71.4544 34.2354 70.8212 33.8449 70.4307L33.1378 71.1378L32.4307 71.8449ZM279 317L279.707 316.293L277.569 314.155L276.862 314.862L276.155 315.569L278.293 317.707L279 317ZM272.586 310.586L273.293 309.879L269.017 305.603L268.31 306.31L267.603 307.017L271.879 311.293L272.586 310.586ZM264.034 302.034L264.742 301.327L260.466 297.052L259.759 297.759L259.052 298.466L263.327 302.742L264.034 302.034ZM255.483 293.483L256.19 292.776L251.914 288.5L251.207 289.207L250.5 289.914L254.776 294.19L255.483 293.483ZM246.931 284.931L247.638 284.224L243.362 279.948L242.655 280.655L241.948 281.362L246.224 285.638L246.931 284.931ZM238.379 276.379L239.086 275.672L234.811 271.396L234.103 272.103L233.396 272.811L237.672 277.086L238.379 276.379ZM229.828 267.828L230.535 267.12L226.259 262.845L225.552 263.552L224.845 264.259L229.12 268.535L229.828 267.828ZM221.276 259.276L221.983 258.569L217.707 254.293L217 255L216.293 255.707L220.569 259.983L221.276 259.276ZM212.724 250.724L213.431 250.017L209.155 245.741L208.448 246.448L207.741 247.155L212.017 251.431L212.724 250.724ZM204.172 242.172L204.88 241.465L200.604 237.189L199.897 237.897L199.189 238.604L203.465 242.88L204.172 242.172ZM195.621 233.621L196.328 232.914L192.052 228.638L191.345 229.345L190.638 230.052L194.914 234.328L195.621 233.621ZM187.069 225.069L187.776 224.362L183.5 220.086L182.793 220.793L182.086 221.5L186.362 225.776L187.069 225.069ZM178.517 216.517L179.224 215.81L174.948 211.534L174.241 212.241L173.534 212.948L177.81 217.224L178.517 216.517ZM169.966 207.966L170.673 207.258L166.397 202.983L165.69 203.69L164.983 204.397L169.258 208.673L169.966 207.966ZM161.414 199.414L162.121 198.707L157.845 194.431L157.138 195.138L156.431 195.845L160.707 200.121L161.414 199.414ZM152.862 190.862L153.569 190.155L149.293 185.879L148.586 186.586L147.879 187.293L152.155 191.569L152.862 190.862ZM144.31 182.31L145.017 181.603L140.742 177.327L140.034 178.034L139.327 178.742L143.603 183.017L144.31 182.31ZM135.759 173.759L136.466 173.052L132.19 168.776L131.483 169.483L130.776 170.19L135.052 174.466L135.759 173.759ZM127.207 165.207L127.914 164.5L123.638 160.224L122.931 160.931L122.224 161.638L126.5 165.914L127.207 165.207ZM118.655 156.655L119.362 155.948L115.086 151.672L114.379 152.379L113.672 153.086L117.948 157.362L118.655 156.655ZM110.103 148.103L110.811 147.396L106.535 143.12L105.828 143.828L105.12 144.535L109.396 148.811L110.103 148.103ZM101.552 139.552L102.259 138.845L97.983 134.569L97.2759 135.276L96.5688 135.983L100.845 140.259L101.552 139.552ZM93 131L93.7071 130.293L89.4312 126.017L88.7241 126.724L88.017 127.431L92.2929 131.707L93 131ZM84.4483 122.448L85.1554 121.741L80.8795 117.465L80.1724 118.172L79.4653 118.879L83.7411 123.155L84.4483 122.448ZM75.8965 113.897L76.6036 113.189L72.3277 108.914L71.6206 109.621L70.9135 110.328L75.1894 114.604L75.8965 113.897ZM67.3448 105.345L68.0519 104.638L63.776 100.362L63.0689 101.069L62.3618 101.776L66.6377 106.052L67.3448 105.345ZM58.793 96.793L59.5001 96.0859L55.2243 91.81L54.5171 92.5171L53.81 93.2243L58.0859 97.5001L58.793 96.793ZM50.2413 88.2413L50.9484 87.5342L46.6725 83.2583L45.9654 83.9654L45.2583 84.6725L49.5342 88.9484L50.2413 88.2413ZM41.6895 79.6895L42.3966 78.9824L38.1208 74.7065L37.4137 75.4137L36.7065 76.1208L40.9824 80.3966L41.6895 79.6895ZM31 69L33.9886 80.1535L42.1535 71.9886L31 69ZM277.569 314.155C277.179 313.764 276.545 313.764 276.155 314.155C275.764 314.545 275.764 315.179 276.155 315.569L276.862 314.862L277.569 314.155ZM271.879 311.293C272.27 311.684 272.903 311.684 273.293 311.293C273.684 310.903 273.684 310.27 273.293 309.879L272.586 310.586L271.879 311.293ZM269.017 305.603C268.627 305.213 267.994 305.213 267.603 305.603C267.213 305.994 267.213 306.627 267.603 307.017L268.31 306.31L269.017 305.603ZM263.327 302.742C263.718 303.132 264.351 303.132 264.742 302.742C265.132 302.351 265.132 301.718 264.742 301.327L264.034 302.034L263.327 302.742ZM260.466 297.052C260.075 296.661 259.442 296.661 259.052 297.052C258.661 297.442 258.661 298.075 259.052 298.466L259.759 297.759L260.466 297.052ZM254.776 294.19C255.166 294.58 255.799 294.58 256.19 294.19C256.58 293.799 256.58 293.166 256.19 292.776L255.483 293.483L254.776 294.19ZM251.914 288.5C251.523 288.109 250.89 288.109 250.5 288.5C250.109 288.89 250.109 289.523 250.5 289.914L251.207 289.207L251.914 288.5ZM246.224 285.638C246.614 286.029 247.248 286.029 247.638 285.638C248.029 285.248 248.029 284.614 247.638 284.224L246.931 284.931L246.224 285.638ZM243.362 279.948C242.972 279.558 242.339 279.558 241.948 279.948C241.558 280.339 241.558 280.972 241.948 281.362L242.655 280.655L243.362 279.948ZM237.672 277.086C238.063 277.477 238.696 277.477 239.086 277.086C239.477 276.696 239.477 276.063 239.086 275.672L238.379 276.379L237.672 277.086ZM234.811 271.396C234.42 271.006 233.787 271.006 233.396 271.396C233.006 271.787 233.006 272.42 233.396 272.811L234.103 272.103L234.811 271.396ZM229.12 268.535C229.511 268.925 230.144 268.925 230.535 268.535C230.925 268.144 230.925 267.511 230.535 267.12L229.828 267.828L229.12 268.535ZM226.259 262.845C225.868 262.454 225.235 262.454 224.845 262.845C224.454 263.235 224.454 263.868 224.845 264.259L225.552 263.552L226.259 262.845ZM220.569 259.983C220.959 260.373 221.592 260.373 221.983 259.983C222.373 259.592 222.373 258.959 221.983 258.569L221.276 259.276L220.569 259.983ZM217.707 254.293C217.317 253.902 216.683 253.902 216.293 254.293C215.902 254.683 215.902 255.317 216.293 255.707L217 255L217.707 254.293ZM212.017 251.431C212.408 251.822 213.041 251.822 213.431 251.431C213.822 251.041 213.822 250.408 213.431 250.017L212.724 250.724L212.017 251.431ZM209.155 245.741C208.765 245.351 208.132 245.351 207.741 245.741C207.351 246.132 207.351 246.765 207.741 247.155L208.448 246.448L209.155 245.741ZM203.465 242.88C203.856 243.27 204.489 243.27 204.88 242.88C205.27 242.489 205.27 241.856 204.88 241.465L204.172 242.172L203.465 242.88ZM200.604 237.189C200.213 236.799 199.58 236.799 199.189 237.189C198.799 237.58 198.799 238.213 199.189 238.604L199.897 237.897L200.604 237.189ZM194.914 234.328C195.304 234.718 195.937 234.718 196.328 234.328C196.718 233.937 196.718 233.304 196.328 232.914L195.621 233.621L194.914 234.328ZM192.052 228.638C191.661 228.247 191.028 228.247 190.638 228.638C190.247 229.028 190.247 229.661 190.638 230.052L191.345 229.345L192.052 228.638ZM186.362 225.776C186.752 226.167 187.386 226.167 187.776 225.776C188.167 225.386 188.167 224.752 187.776 224.362L187.069 225.069L186.362 225.776ZM183.5 220.086C183.11 219.695 182.477 219.695 182.086 220.086C181.695 220.477 181.695 221.11 182.086 221.5L182.793 220.793L183.5 220.086ZM177.81 217.224C178.201 217.615 178.834 217.615 179.224 217.224C179.615 216.834 179.615 216.201 179.224 215.81L178.517 216.517L177.81 217.224ZM174.948 211.534C174.558 211.144 173.925 211.144 173.534 211.534C173.144 211.925 173.144 212.558 173.534 212.948L174.241 212.241L174.948 211.534ZM169.258 208.673C169.649 209.063 170.282 209.063 170.673 208.673C171.063 208.282 171.063 207.649 170.673 207.258L169.966 207.966L169.258 208.673ZM166.397 202.983C166.006 202.592 165.373 202.592 164.983 202.983C164.592 203.373 164.592 204.006 164.983 204.397L165.69 203.69L166.397 202.983ZM160.707 200.121C161.097 200.511 161.73 200.511 162.121 200.121C162.511 199.73 162.511 199.097 162.121 198.707L161.414 199.414L160.707 200.121ZM157.845 194.431C157.455 194.04 156.821 194.04 156.431 194.431C156.04 194.821 156.04 195.455 156.431 195.845L157.138 195.138L157.845 194.431ZM152.155 191.569C152.545 191.96 153.179 191.96 153.569 191.569C153.96 191.179 153.96 190.545 153.569 190.155L152.862 190.862L152.155 191.569ZM149.293 185.879C148.903 185.489 148.27 185.489 147.879 185.879C147.489 186.27 147.489 186.903 147.879 187.293L148.586 186.586L149.293 185.879ZM143.603 183.017C143.994 183.408 144.627 183.408 145.017 183.017C145.408 182.627 145.408 181.994 145.017 181.603L144.31 182.31L143.603 183.017ZM140.742 177.327C140.351 176.937 139.718 176.937 139.327 177.327C138.937 177.718 138.937 178.351 139.327 178.742L140.034 178.034L140.742 177.327ZM135.052 174.466C135.442 174.856 136.075 174.856 136.466 174.466C136.856 174.075 136.856 173.442 136.466 173.052L135.759 173.759L135.052 174.466ZM132.19 168.776C131.799 168.385 131.166 168.385 130.776 168.776C130.385 169.166 130.385 169.799 130.776 170.19L131.483 169.483L132.19 168.776ZM126.5 165.914C126.89 166.305 127.523 166.305 127.914 165.914C128.305 165.523 128.305 164.89 127.914 164.5L127.207 165.207L126.5 165.914ZM123.638 160.224C123.248 159.833 122.614 159.833 122.224 160.224C121.833 160.614 121.833 161.248 122.224 161.638L122.931 160.931L123.638 160.224ZM117.948 157.362C118.339 157.753 118.972 157.753 119.362 157.362C119.753 156.972 119.753 156.339 119.362 155.948L118.655 156.655L117.948 157.362ZM115.086 151.672C114.696 151.282 114.063 151.282 113.672 151.672C113.282 152.063 113.282 152.696 113.672 153.086L114.379 152.379L115.086 151.672ZM109.396 148.811C109.787 149.201 110.42 149.201 110.811 148.811C111.201 148.42 111.201 147.787 110.811 147.396L110.103 148.103L109.396 148.811ZM106.535 143.12C106.144 142.73 105.511 142.73 105.12 143.12C104.73 143.511 104.73 144.144 105.12 144.535L105.828 143.828L106.535 143.12ZM100.845 140.259C101.235 140.649 101.868 140.649 102.259 140.259C102.649 139.868 102.649 139.235 102.259 138.845L101.552 139.552L100.845 140.259ZM97.983 134.569C97.5925 134.178 96.9593 134.178 96.5688 134.569C96.1782 134.959 96.1782 135.592 96.5688 135.983L97.2759 135.276L97.983 134.569ZM92.2929 131.707C92.6834 132.098 93.3166 132.098 93.7071 131.707C94.0976 131.317 94.0976 130.683 93.7071 130.293L93 131L92.2929 131.707ZM89.4312 126.017C89.0407 125.626 88.4075 125.626 88.017 126.017C87.6265 126.408 87.6265 127.041 88.017 127.431L88.7241 126.724L89.4312 126.017ZM83.7411 123.155C84.1317 123.546 84.7648 123.546 85.1554 123.155C85.5459 122.765 85.5459 122.132 85.1554 121.741L84.4483 122.448L83.7411 123.155ZM80.8795 117.465C80.489 117.075 79.8558 117.075 79.4653 117.465C79.0747 117.856 79.0748 118.489 79.4653 118.879L80.1724 118.172L80.8795 117.465ZM75.1894 114.604C75.5799 114.994 76.2131 114.994 76.6036 114.604C76.9941 114.213 76.9941 113.58 76.6036 113.189L75.8965 113.897L75.1894 114.604ZM72.3277 108.914C71.9372 108.523 71.3041 108.523 70.9135 108.914C70.523 109.304 70.523 109.937 70.9135 110.328L71.6206 109.621L72.3277 108.914ZM66.6377 106.052C67.0282 106.442 67.6613 106.442 68.0519 106.052C68.4424 105.661 68.4424 105.028 68.0519 104.638L67.3448 105.345L66.6377 106.052ZM63.776 100.362C63.3855 99.9713 62.7523 99.9713 62.3618 100.362C61.9713 100.752 61.9713 101.385 62.3618 101.776L63.0689 101.069L63.776 100.362ZM58.0859 97.5001C58.4764 97.8907 59.1096 97.8906 59.5001 97.5001C59.8906 97.1096 59.8907 96.4764 59.5001 96.0859L58.793 96.793L58.0859 97.5001ZM55.2243 91.81C54.8337 91.4195 54.2006 91.4195 53.81 91.81C53.4195 92.2006 53.4195 92.8337 53.81 93.2243L54.5171 92.5171L55.2243 91.81ZM49.5342 88.9484C49.9247 89.3389 50.5579 89.3389 50.9484 88.9484C51.3389 88.5579 51.3389 87.9247 50.9484 87.5342L50.2413 88.2413L49.5342 88.9484ZM46.6725 83.2583C46.282 82.8678 45.6488 82.8678 45.2583 83.2583C44.8678 83.6488 44.8678 84.282 45.2583 84.6725L45.9654 83.9654L46.6725 83.2583ZM40.9824 80.3966C41.3729 80.7872 42.0061 80.7872 42.3966 80.3966C42.7872 80.0061 42.7872 79.3729 42.3966 78.9824L41.6895 79.6895L40.9824 80.3966ZM38.1208 74.7065C37.7302 74.316 37.0971 74.316 36.7065 74.7065C36.316 75.0971 36.316 75.7302 36.7065 76.1208L37.4137 75.4137L38.1208 74.7065ZM32.4307 71.8449C32.8212 72.2354 33.4544 72.2354 33.8449 71.8449C34.2354 71.4544 34.2354 70.8212 33.8449 70.4307L33.1378 71.1378L32.4307 71.8449ZM279 317L279.707 316.293L277.569 314.155L276.862 314.862L276.155 315.569L278.293 317.707L279 317ZM272.586 310.586L273.293 309.879L269.017 305.603L268.31 306.31L267.603 307.017L271.879 311.293L272.586 310.586ZM264.034 302.034L264.742 301.327L260.466 297.052L259.759 297.759L259.052 298.466L263.327 302.742L264.034 302.034ZM255.483 293.483L256.19 292.776L251.914 288.5L251.207 289.207L250.5 289.914L254.776 294.19L255.483 293.483ZM246.931 284.931L247.638 284.224L243.362 279.948L242.655 280.655L241.948 281.362L246.224 285.638L246.931 284.931ZM238.379 276.379L239.086 275.672L234.811 271.396L234.103 272.103L233.396 272.811L237.672 277.086L238.379 276.379ZM229.828 267.828L230.535 267.12L226.259 262.845L225.552 263.552L224.845 264.259L229.12 268.535L229.828 267.828ZM221.276 259.276L221.983 258.569L217.707 254.293L217 255L216.293 255.707L220.569 259.983L221.276 259.276ZM212.724 250.724L213.431 250.017L209.155 245.741L208.448 246.448L207.741 247.155L212.017 251.431L212.724 250.724ZM204.172 242.172L204.88 241.465L200.604 237.189L199.897 237.897L199.189 238.604L203.465 242.88L204.172 242.172ZM195.621 233.621L196.328 232.914L192.052 228.638L191.345 229.345L190.638 230.052L194.914 234.328L195.621 233.621ZM187.069 225.069L187.776 224.362L183.5 220.086L182.793 220.793L182.086 221.5L186.362 225.776L187.069 225.069ZM178.517 216.517L179.224 215.81L174.948 211.534L174.241 212.241L173.534 212.948L177.81 217.224L178.517 216.517ZM169.966 207.966L170.673 207.258L166.397 202.983L165.69 203.69L164.983 204.397L169.258 208.673L169.966 207.966ZM161.414 199.414L162.121 198.707L157.845 194.431L157.138 195.138L156.431 195.845L160.707 200.121L161.414 199.414ZM152.862 190.862L153.569 190.155L149.293 185.879L148.586 186.586L147.879 187.293L152.155 191.569L152.862 190.862ZM144.31 182.31L145.017 181.603L140.742 177.327L140.034 178.034L139.327 178.742L143.603 183.017L144.31 182.31ZM135.759 173.759L136.466 173.052L132.19 168.776L131.483 169.483L130.776 170.19L135.052 174.466L135.759 173.759ZM127.207 165.207L127.914 164.5L123.638 160.224L122.931 160.931L122.224 161.638L126.5 165.914L127.207 165.207ZM118.655 156.655L119.362 155.948L115.086 151.672L114.379 152.379L113.672 153.086L117.948 157.362L118.655 156.655ZM110.103 148.103L110.811 147.396L106.535 143.12L105.828 143.828L105.12 144.535L109.396 148.811L110.103 148.103ZM101.552 139.552L102.259 138.845L97.983 134.569L97.2759 135.276L96.5688 135.983L100.845 140.259L101.552 139.552ZM93 131L93.7071 130.293L89.4312 126.017L88.7241 126.724L88.017 127.431L92.2929 131.707L93 131ZM84.4483 122.448L85.1554 121.741L80.8795 117.465L80.1724 118.172L79.4653 118.879L83.7411 123.155L84.4483 122.448ZM75.8965 113.897L76.6036 113.189L72.3277 108.914L71.6206 109.621L70.9135 110.328L75.1894 114.604L75.8965 113.897ZM67.3448 105.345L68.0519 104.638L63.776 100.362L63.0689 101.069L62.3618 101.776L66.6377 106.052L67.3448 105.345ZM58.793 96.793L59.5001 96.0859L55.2243 91.81L54.5171 92.5171L53.81 93.2243L58.0859 97.5001L58.793 96.793ZM50.2413 88.2413L50.9484 87.5342L46.6725 83.2583L45.9654 83.9654L45.2583 84.6725L49.5342 88.9484L50.2413 88.2413ZM41.6895 79.6895L42.3966 78.9824L38.1208 74.7065L37.4137 75.4137L36.7065 76.1208L40.9824 80.3966L41.6895 79.6895Z" fill="black"/>
<path d="M195.5 201.5C212.627 201.5 226.5 215.389 226.5 232.5C226.5 249.627 212.627 263.5 195.5 263.5C178.373 263.5 164.5 249.627 164.5 232.5C164.5 215.373 178.373 201.5 195.5 201.5Z" fill="#E6E9EC" stroke="black"/>
<path d="M195.5 204.25C211.107 204.25 223.75 216.907 223.75 232.5C223.75 248.107 211.108 260.75 195.5 260.75C179.892 260.75 167.25 248.107 167.25 232.5C167.25 216.893 179.893 204.25 195.5 204.25Z" fill="#E6E9EC" stroke="black" stroke-width="0.5"/>
<path d="M180.432 235.614V234.455L185.545 226.364H186.386V228.159H185.818L181.955 234.273V234.364H188.841V235.614H180.432ZM185.909 238V235.261V234.722V226.364H187.25V238H185.909ZM194.607 238.159C193.94 238.159 193.339 238.027 192.805 237.761C192.271 237.496 191.843 237.133 191.521 236.67C191.199 236.208 191.023 235.682 190.993 235.091H192.357C192.41 235.617 192.648 236.053 193.072 236.398C193.5 236.739 194.012 236.909 194.607 236.909C195.084 236.909 195.508 236.797 195.879 236.574C196.254 236.35 196.548 236.044 196.76 235.653C196.976 235.259 197.084 234.814 197.084 234.318C197.084 233.811 196.972 233.358 196.749 232.96C196.529 232.559 196.226 232.242 195.839 232.011C195.453 231.78 195.012 231.663 194.516 231.659C194.16 231.655 193.794 231.71 193.419 231.824C193.044 231.934 192.735 232.076 192.493 232.25L191.175 232.091L191.879 226.364H197.925V227.614H193.061L192.652 231.045H192.72C192.959 230.856 193.258 230.699 193.618 230.574C193.978 230.449 194.353 230.386 194.743 230.386C195.455 230.386 196.089 230.557 196.646 230.898C197.207 231.235 197.646 231.697 197.964 232.284C198.286 232.871 198.447 233.542 198.447 234.295C198.447 235.038 198.281 235.701 197.947 236.284C197.618 236.864 197.163 237.322 196.584 237.659C196.004 237.992 195.345 238.159 194.607 238.159ZM206.636 235.818V235.205C206.636 234.78 206.723 234.392 206.898 234.04C207.076 233.684 207.333 233.4 207.67 233.188C208.011 232.972 208.424 232.864 208.909 232.864C209.402 232.864 209.814 232.972 210.148 233.188C210.481 233.4 210.733 233.684 210.903 234.04C211.074 234.392 211.159 234.78 211.159 235.205V235.818C211.159 236.242 211.072 236.633 210.898 236.989C210.727 237.341 210.473 237.625 210.136 237.841C209.803 238.053 209.394 238.159 208.909 238.159C208.417 238.159 208.002 238.053 207.665 237.841C207.328 237.625 207.072 237.341 206.898 236.989C206.723 236.633 206.636 236.242 206.636 235.818ZM207.795 235.205V235.818C207.795 236.17 207.879 236.487 208.045 236.767C208.212 237.044 208.5 237.182 208.909 237.182C209.307 237.182 209.587 237.044 209.75 236.767C209.917 236.487 210 236.17 210 235.818V235.205C210 234.852 209.92 234.538 209.761 234.261C209.602 233.981 209.318 233.841 208.909 233.841C208.511 233.841 208.225 233.981 208.051 234.261C207.881 234.538 207.795 234.852 207.795 235.205ZM200.841 229.159V228.545C200.841 228.121 200.928 227.733 201.102 227.381C201.28 227.025 201.538 226.741 201.875 226.528C202.216 226.312 202.629 226.205 203.114 226.205C203.606 226.205 204.019 226.312 204.352 226.528C204.686 226.741 204.938 227.025 205.108 227.381C205.278 227.733 205.364 228.121 205.364 228.545V229.159C205.364 229.583 205.277 229.973 205.102 230.33C204.932 230.682 204.678 230.966 204.341 231.182C204.008 231.394 203.598 231.5 203.114 231.5C202.621 231.5 202.206 231.394 201.869 231.182C201.532 230.966 201.277 230.682 201.102 230.33C200.928 229.973 200.841 229.583 200.841 229.159ZM202 228.545V229.159C202 229.511 202.083 229.828 202.25 230.108C202.417 230.384 202.705 230.523 203.114 230.523C203.511 230.523 203.792 230.384 203.955 230.108C204.121 229.828 204.205 229.511 204.205 229.159V228.545C204.205 228.193 204.125 227.879 203.966 227.602C203.807 227.322 203.523 227.182 203.114 227.182C202.716 227.182 202.43 227.322 202.256 227.602C202.085 227.879 202 228.193 202 228.545ZM201.273 238L209.273 226.364H210.568L202.568 238H201.273Z" fill="black"/>
</svg>
