<svg width="73" height="49" viewBox="0 0 73 49" fill="none" xmlns="http://www.w3.org/2000/svg">
<path d="M5 1.5H68C69.933 1.5 71.5 3.067 71.5 5V44C71.5 45.933 69.933 47.5 68 47.5H5C3.067 47.5 1.5 45.933 1.5 44V5L1.50488 4.82031C1.59842 2.97083 3.12727 1.5 5 1.5Z" fill="#E6E9EC" stroke="#C8CCD0" stroke-width="3"/>
<path d="M9.54261 8.36364H12.5767L15.7812 16.1818H15.9176L19.1222 8.36364H22.1562V20H19.7699V12.4261H19.6733L16.6619 19.9432H15.0369L12.0256 12.3977H11.929V20H9.54261V8.36364ZM26.6264 20.1648C26.0696 20.1648 25.5734 20.0682 25.1378 19.875C24.7022 19.678 24.3575 19.3883 24.1037 19.0057C23.8537 18.6193 23.7287 18.1383 23.7287 17.5625C23.7287 17.0777 23.8177 16.6705 23.9957 16.3409C24.1738 16.0114 24.4162 15.7462 24.723 15.5455C25.0298 15.3447 25.3783 15.1932 25.7685 15.0909C26.1624 14.9886 26.5753 14.9167 27.0071 14.875C27.5147 14.822 27.9238 14.7727 28.2344 14.7273C28.545 14.678 28.7704 14.6061 28.9105 14.5114C29.0507 14.4167 29.1207 14.2765 29.1207 14.0909V14.0568C29.1207 13.697 29.0071 13.4186 28.7798 13.2216C28.5563 13.0246 28.2382 12.9261 27.8253 12.9261C27.3897 12.9261 27.0431 13.0227 26.7855 13.2159C26.5279 13.4053 26.3575 13.6439 26.2741 13.9318L24.0355 13.75C24.1491 13.2197 24.3726 12.7614 24.706 12.375C25.0393 11.9848 25.4692 11.6856 25.9957 11.4773C26.526 11.2652 27.1397 11.1591 27.8366 11.1591C28.3215 11.1591 28.7855 11.2159 29.2287 11.3295C29.6757 11.4432 30.0715 11.6193 30.4162 11.858C30.7647 12.0966 31.0393 12.4034 31.2401 12.7784C31.4408 13.1496 31.5412 13.5947 31.5412 14.1136V20H29.2457V18.7898H29.1776C29.0374 19.0625 28.8499 19.303 28.6151 19.5114C28.3802 19.7159 28.098 19.8769 27.7685 19.9943C27.4389 20.108 27.0582 20.1648 26.6264 20.1648ZM27.3196 18.4943C27.6757 18.4943 27.9901 18.4242 28.2628 18.2841C28.5355 18.1402 28.7495 17.947 28.9048 17.7045C29.0601 17.4621 29.1378 17.1875 29.1378 16.8807V15.9545C29.062 16.0038 28.9579 16.0492 28.8253 16.0909C28.6965 16.1288 28.5507 16.1648 28.3878 16.1989C28.2249 16.2292 28.062 16.2576 27.8991 16.2841C27.7363 16.3068 27.5885 16.3277 27.456 16.3466C27.1719 16.3883 26.9238 16.4545 26.7116 16.5455C26.4995 16.6364 26.3348 16.7595 26.2173 16.9148C26.0999 17.0663 26.0412 17.2557 26.0412 17.483C26.0412 17.8125 26.1605 18.0644 26.3991 18.2386C26.6416 18.4091 26.9484 18.4943 27.3196 18.4943ZM35.8395 14.9545V20H33.419V11.2727H35.7259V12.8125H35.8281C36.0213 12.3049 36.3452 11.9034 36.7997 11.608C37.2543 11.3087 37.8054 11.1591 38.4531 11.1591C39.0592 11.1591 39.5876 11.2917 40.0384 11.5568C40.4891 11.822 40.8395 12.2008 41.0895 12.6932C41.3395 13.1818 41.4645 13.7652 41.4645 14.4432V20H39.044V14.875C39.0478 14.3409 38.9115 13.9242 38.6349 13.625C38.3584 13.322 37.9777 13.1705 37.4929 13.1705C37.1671 13.1705 36.8793 13.2405 36.6293 13.3807C36.383 13.5208 36.1899 13.7254 36.0497 13.9943C35.9134 14.2595 35.8433 14.5795 35.8395 14.9545ZM48.9688 16.2841V11.2727H51.3892V20H49.0653V18.4148H48.9744C48.7775 18.9261 48.4498 19.3371 47.9915 19.6477C47.5369 19.9583 46.982 20.1136 46.3267 20.1136C45.7434 20.1136 45.2301 19.9811 44.7869 19.7159C44.3438 19.4508 43.9972 19.0739 43.7472 18.5852C43.5009 18.0966 43.3759 17.5114 43.3722 16.8295V11.2727H45.7926V16.3977C45.7964 16.9129 45.9347 17.3201 46.2074 17.6193C46.4801 17.9186 46.8456 18.0682 47.304 18.0682C47.5956 18.0682 47.8684 18.0019 48.1222 17.8693C48.3759 17.733 48.5805 17.5322 48.7358 17.267C48.8949 17.0019 48.9725 16.6742 48.9688 16.2841ZM55.8139 20.1648C55.2571 20.1648 54.7609 20.0682 54.3253 19.875C53.8897 19.678 53.545 19.3883 53.2912 19.0057C53.0412 18.6193 52.9162 18.1383 52.9162 17.5625C52.9162 17.0777 53.0052 16.6705 53.1832 16.3409C53.3613 16.0114 53.6037 15.7462 53.9105 15.5455C54.2173 15.3447 54.5658 15.1932 54.956 15.0909C55.3499 14.9886 55.7628 14.9167 56.1946 14.875C56.7022 14.822 57.1113 14.7727 57.4219 14.7273C57.7325 14.678 57.9579 14.6061 58.098 14.5114C58.2382 14.4167 58.3082 14.2765 58.3082 14.0909V14.0568C58.3082 13.697 58.1946 13.4186 57.9673 13.2216C57.7438 13.0246 57.4257 12.9261 57.0128 12.9261C56.5772 12.9261 56.2306 13.0227 55.973 13.2159C55.7154 13.4053 55.545 13.6439 55.4616 13.9318L53.223 13.75C53.3366 13.2197 53.5601 12.7614 53.8935 12.375C54.2268 11.9848 54.6567 11.6856 55.1832 11.4773C55.7135 11.2652 56.3272 11.1591 57.0241 11.1591C57.509 11.1591 57.973 11.2159 58.4162 11.3295C58.8632 11.4432 59.259 11.6193 59.6037 11.858C59.9522 12.0966 60.2268 12.4034 60.4276 12.7784C60.6283 13.1496 60.7287 13.5947 60.7287 14.1136V20H58.4332V18.7898H58.3651C58.2249 19.0625 58.0374 19.303 57.8026 19.5114C57.5677 19.7159 57.2855 19.8769 56.956 19.9943C56.6264 20.108 56.2457 20.1648 55.8139 20.1648ZM56.5071 18.4943C56.8632 18.4943 57.1776 18.4242 57.4503 18.2841C57.723 18.1402 57.937 17.947 58.0923 17.7045C58.2476 17.4621 58.3253 17.1875 58.3253 16.8807V15.9545C58.2495 16.0038 58.1454 16.0492 58.0128 16.0909C57.884 16.1288 57.7382 16.1648 57.5753 16.1989C57.4124 16.2292 57.2495 16.2576 57.0866 16.2841C56.9238 16.3068 56.776 16.3277 56.6435 16.3466C56.3594 16.3883 56.1113 16.4545 55.8991 16.5455C55.687 16.6364 55.5223 16.7595 55.4048 16.9148C55.2874 17.0663 55.2287 17.2557 55.2287 17.483C55.2287 17.8125 55.348 18.0644 55.5866 18.2386C55.8291 18.4091 56.1359 18.4943 56.5071 18.4943ZM65.027 8.36364V20H62.6065V8.36364H65.027Z" fill="#53575A"/>
<rect x="9" y="27" width="57" height="14" rx="4" fill="#53575A"/>
<path d="M17.4418 29.2727V38H15.8608V29.2727H17.4418ZM20.6282 34.1648V38H19.0856V31.4545H20.56V32.5668H20.6367C20.7873 32.2003 21.0273 31.9091 21.3569 31.6932C21.6893 31.4773 22.0998 31.3693 22.5884 31.3693C23.0401 31.3693 23.4336 31.4659 23.7688 31.6591C24.1069 31.8523 24.3683 32.1321 24.5529 32.4986C24.7404 32.8651 24.8327 33.3097 24.8299 33.8324V38H23.2873V34.071C23.2873 33.6335 23.1737 33.2912 22.9464 33.044C22.7219 32.7969 22.4109 32.6733 22.0131 32.6733C21.7433 32.6733 21.5032 32.733 21.293 32.8523C21.0856 32.9687 20.9222 33.1378 20.8029 33.3594C20.6864 33.581 20.6282 33.8494 20.6282 34.1648ZM27.587 38H25.8995L28.9719 29.2727H30.9237L34.0004 38H32.3129L29.9819 31.0625H29.9137L27.587 38ZM27.6424 34.5781H32.2447V35.848H27.6424V34.5781ZM37.7376 38.1278C37.0842 38.1278 36.5231 37.9844 36.0543 37.6974C35.5884 37.4105 35.229 37.0142 34.9762 36.5085C34.7262 36 34.6012 35.4148 34.6012 34.7528C34.6012 34.0881 34.729 33.5014 34.9847 32.9929C35.2404 32.4815 35.6012 32.0838 36.0671 31.7997C36.5359 31.5128 37.0898 31.3693 37.729 31.3693C38.2603 31.3693 38.7305 31.4673 39.1396 31.6634C39.5515 31.8565 39.8796 32.1307 40.1239 32.4858C40.3683 32.8381 40.5075 33.25 40.5415 33.7216H39.0671C39.0075 33.4062 38.8654 33.1435 38.641 32.9332C38.4194 32.7202 38.1225 32.6136 37.7504 32.6136C37.435 32.6136 37.158 32.6989 36.9194 32.8693C36.6808 33.0369 36.4947 33.2784 36.3612 33.5938C36.2305 33.9091 36.1651 34.2869 36.1651 34.7273C36.1651 35.1733 36.2305 35.5568 36.3612 35.8778C36.4918 36.196 36.6751 36.4418 36.9109 36.6151C37.1495 36.7855 37.4293 36.8707 37.7504 36.8707C37.9776 36.8707 38.1808 36.8281 38.3597 36.7429C38.5415 36.6548 38.6935 36.5284 38.8157 36.3636C38.9379 36.1989 39.0217 35.9986 39.0671 35.7628H40.5415C40.5046 36.2259 40.3683 36.6364 40.1325 36.9943C39.8967 37.3494 39.5756 37.6278 39.1694 37.8295C38.7631 38.0284 38.2859 38.1278 37.7376 38.1278ZM45.0767 31.4545V32.6477H41.3139V31.4545H45.0767ZM42.2429 29.8864H43.7855V36.0312C43.7855 36.2386 43.8168 36.3977 43.8793 36.5085C43.9446 36.6165 44.0298 36.6903 44.1349 36.7301C44.2401 36.7699 44.3565 36.7898 44.4844 36.7898C44.581 36.7898 44.669 36.7827 44.7486 36.7685C44.831 36.7543 44.8935 36.7415 44.9361 36.7301L45.196 37.9361C45.1136 37.9645 44.9957 37.9957 44.8423 38.0298C44.6918 38.0639 44.5071 38.0838 44.2884 38.0895C43.902 38.1009 43.554 38.0426 43.2443 37.9148C42.9347 37.7841 42.6889 37.5824 42.5071 37.3097C42.3281 37.0369 42.2401 36.696 42.2429 36.2869V29.8864ZM46.3668 38V31.4545H47.9094V38H46.3668ZM47.1424 30.5256C46.8981 30.5256 46.6879 30.4446 46.5117 30.2827C46.3356 30.1179 46.2475 29.9205 46.2475 29.6903C46.2475 29.4574 46.3356 29.2599 46.5117 29.098C46.6879 28.9332 46.8981 28.8509 47.1424 28.8509C47.3896 28.8509 47.5998 28.9332 47.7731 29.098C47.9492 29.2599 48.0373 29.4574 48.0373 29.6903C48.0373 29.9205 47.9492 30.1179 47.7731 30.2827C47.5998 30.4446 47.3896 30.5256 47.1424 30.5256ZM55.3423 31.4545L53.0114 38H51.3068L48.9759 31.4545H50.6207L52.125 36.3168H52.1932L53.7017 31.4545H55.3423ZM59.0849 38.1278C58.4286 38.1278 57.8619 37.9915 57.3846 37.7188C56.9102 37.4432 56.5451 37.054 56.2894 36.5511C56.0337 36.0455 55.9059 35.4503 55.9059 34.7656C55.9059 34.0923 56.0337 33.5014 56.2894 32.9929C56.5479 32.4815 56.9087 32.0838 57.3718 31.7997C57.8349 31.5128 58.3789 31.3693 59.0039 31.3693C59.4073 31.3693 59.788 31.4347 60.146 31.5653C60.5067 31.6932 60.8249 31.892 61.1005 32.1619C61.3789 32.4318 61.5977 32.7756 61.7567 33.1932C61.9158 33.608 61.9954 34.1023 61.9954 34.6761V35.1491H56.6303V34.1094H60.5167C60.5138 33.8139 60.4499 33.5511 60.3249 33.321C60.1999 33.0881 60.0252 32.9048 59.8008 32.7713C59.5792 32.6378 59.3207 32.571 59.0252 32.571C58.7099 32.571 58.4329 32.6477 58.1942 32.8011C57.9556 32.9517 57.7695 33.1506 57.636 33.3977C57.5053 33.642 57.4386 33.9105 57.4357 34.2031V35.1108C57.4357 35.4915 57.5053 35.8182 57.6445 36.0909C57.7837 36.3608 57.9783 36.5682 58.2283 36.7131C58.4783 36.8551 58.771 36.9261 59.1062 36.9261C59.3306 36.9261 59.5337 36.8949 59.7156 36.8324C59.8974 36.767 60.055 36.6719 60.1886 36.5469C60.3221 36.4219 60.4229 36.267 60.4911 36.0824L61.9315 36.2443C61.8406 36.625 61.6673 36.9574 61.4116 37.2415C61.1587 37.5227 60.8349 37.7415 60.44 37.8977C60.0451 38.0511 59.5934 38.1278 59.0849 38.1278Z" fill="white"/>
</svg>
