<svg width="79" height="55" viewBox="0 0 79 55" fill="none" xmlns="http://www.w3.org/2000/svg">
<g opacity="0.5">
<g filter="url(#filter0_d_863_5676)">
<path d="M2 6C2 3.23858 4.23858 1 7 1H70C72.7614 1 75 3.23858 75 6V45C75 47.7614 72.7614 50 70 50H7C4.23857 50 2 47.7614 2 45V6Z" fill="#E6E9EC"/>
<path d="M7 2.5H70C71.933 2.5 73.5 4.067 73.5 6V45C73.5 46.933 71.933 48.5 70 48.5H7C5.067 48.5 3.5 46.933 3.5 45V6L3.50488 5.82031C3.59842 3.97083 5.12727 2.5 7 2.5Z" stroke="#C8CCD0" stroke-width="3"/>
</g>
<path d="M11.5426 9.36364H14.5767L17.7812 17.1818H17.9176L21.1222 9.36364H24.1562V21H21.7699V13.4261H21.6733L18.6619 20.9432H17.0369L14.0256 13.3977H13.929V21H11.5426V9.36364ZM28.6264 21.1648C28.0696 21.1648 27.5734 21.0682 27.1378 20.875C26.7022 20.678 26.3575 20.3883 26.1037 20.0057C25.8537 19.6193 25.7287 19.1383 25.7287 18.5625C25.7287 18.0777 25.8177 17.6705 25.9957 17.3409C26.1738 17.0114 26.4162 16.7462 26.723 16.5455C27.0298 16.3447 27.3783 16.1932 27.7685 16.0909C28.1624 15.9886 28.5753 15.9167 29.0071 15.875C29.5147 15.822 29.9238 15.7727 30.2344 15.7273C30.545 15.678 30.7704 15.6061 30.9105 15.5114C31.0507 15.4167 31.1207 15.2765 31.1207 15.0909V15.0568C31.1207 14.697 31.0071 14.4186 30.7798 14.2216C30.5563 14.0246 30.2382 13.9261 29.8253 13.9261C29.3897 13.9261 29.0431 14.0227 28.7855 14.2159C28.5279 14.4053 28.3575 14.6439 28.2741 14.9318L26.0355 14.75C26.1491 14.2197 26.3726 13.7614 26.706 13.375C27.0393 12.9848 27.4692 12.6856 27.9957 12.4773C28.526 12.2652 29.1397 12.1591 29.8366 12.1591C30.3215 12.1591 30.7855 12.2159 31.2287 12.3295C31.6757 12.4432 32.0715 12.6193 32.4162 12.858C32.7647 13.0966 33.0393 13.4034 33.2401 13.7784C33.4408 14.1496 33.5412 14.5947 33.5412 15.1136V21H31.2457V19.7898H31.1776C31.0374 20.0625 30.8499 20.303 30.6151 20.5114C30.3802 20.7159 30.098 20.8769 29.7685 20.9943C29.4389 21.108 29.0582 21.1648 28.6264 21.1648ZM29.3196 19.4943C29.6757 19.4943 29.9901 19.4242 30.2628 19.2841C30.5355 19.1402 30.7495 18.947 30.9048 18.7045C31.0601 18.4621 31.1378 18.1875 31.1378 17.8807V16.9545C31.062 17.0038 30.9579 17.0492 30.8253 17.0909C30.6965 17.1288 30.5507 17.1648 30.3878 17.1989C30.2249 17.2292 30.062 17.2576 29.8991 17.2841C29.7363 17.3068 29.5885 17.3277 29.456 17.3466C29.1719 17.3883 28.9238 17.4545 28.7116 17.5455C28.4995 17.6364 28.3348 17.7595 28.2173 17.9148C28.0999 18.0663 28.0412 18.2557 28.0412 18.483C28.0412 18.8125 28.1605 19.0644 28.3991 19.2386C28.6416 19.4091 28.9484 19.4943 29.3196 19.4943ZM37.8395 15.9545V21H35.419V12.2727H37.7259V13.8125H37.8281C38.0213 13.3049 38.3452 12.9034 38.7997 12.608C39.2543 12.3087 39.8054 12.1591 40.4531 12.1591C41.0592 12.1591 41.5876 12.2917 42.0384 12.5568C42.4891 12.822 42.8395 13.2008 43.0895 13.6932C43.3395 14.1818 43.4645 14.7652 43.4645 15.4432V21H41.044V15.875C41.0478 15.3409 40.9115 14.9242 40.6349 14.625C40.3584 14.322 39.9777 14.1705 39.4929 14.1705C39.1671 14.1705 38.8793 14.2405 38.6293 14.3807C38.383 14.5208 38.1899 14.7254 38.0497 14.9943C37.9134 15.2595 37.8433 15.5795 37.8395 15.9545ZM50.9688 17.2841V12.2727H53.3892V21H51.0653V19.4148H50.9744C50.7775 19.9261 50.4498 20.3371 49.9915 20.6477C49.5369 20.9583 48.982 21.1136 48.3267 21.1136C47.7434 21.1136 47.2301 20.9811 46.7869 20.7159C46.3438 20.4508 45.9972 20.0739 45.7472 19.5852C45.5009 19.0966 45.3759 18.5114 45.3722 17.8295V12.2727H47.7926V17.3977C47.7964 17.9129 47.9347 18.3201 48.2074 18.6193C48.4801 18.9186 48.8456 19.0682 49.304 19.0682C49.5956 19.0682 49.8684 19.0019 50.1222 18.8693C50.3759 18.733 50.5805 18.5322 50.7358 18.267C50.8949 18.0019 50.9725 17.6742 50.9688 17.2841ZM57.8139 21.1648C57.2571 21.1648 56.7609 21.0682 56.3253 20.875C55.8897 20.678 55.545 20.3883 55.2912 20.0057C55.0412 19.6193 54.9162 19.1383 54.9162 18.5625C54.9162 18.0777 55.0052 17.6705 55.1832 17.3409C55.3613 17.0114 55.6037 16.7462 55.9105 16.5455C56.2173 16.3447 56.5658 16.1932 56.956 16.0909C57.3499 15.9886 57.7628 15.9167 58.1946 15.875C58.7022 15.822 59.1113 15.7727 59.4219 15.7273C59.7325 15.678 59.9579 15.6061 60.098 15.5114C60.2382 15.4167 60.3082 15.2765 60.3082 15.0909V15.0568C60.3082 14.697 60.1946 14.4186 59.9673 14.2216C59.7438 14.0246 59.4257 13.9261 59.0128 13.9261C58.5772 13.9261 58.2306 14.0227 57.973 14.2159C57.7154 14.4053 57.545 14.6439 57.4616 14.9318L55.223 14.75C55.3366 14.2197 55.5601 13.7614 55.8935 13.375C56.2268 12.9848 56.6567 12.6856 57.1832 12.4773C57.7135 12.2652 58.3272 12.1591 59.0241 12.1591C59.509 12.1591 59.973 12.2159 60.4162 12.3295C60.8632 12.4432 61.259 12.6193 61.6037 12.858C61.9522 13.0966 62.2268 13.4034 62.4276 13.7784C62.6283 14.1496 62.7287 14.5947 62.7287 15.1136V21H60.4332V19.7898H60.3651C60.2249 20.0625 60.0374 20.303 59.8026 20.5114C59.5677 20.7159 59.2855 20.8769 58.956 20.9943C58.6264 21.108 58.2457 21.1648 57.8139 21.1648ZM58.5071 19.4943C58.8632 19.4943 59.1776 19.4242 59.4503 19.2841C59.723 19.1402 59.937 18.947 60.0923 18.7045C60.2476 18.4621 60.3253 18.1875 60.3253 17.8807V16.9545C60.2495 17.0038 60.1454 17.0492 60.0128 17.0909C59.884 17.1288 59.7382 17.1648 59.5753 17.1989C59.4124 17.2292 59.2495 17.2576 59.0866 17.2841C58.9238 17.3068 58.776 17.3277 58.6435 17.3466C58.3594 17.3883 58.1113 17.4545 57.8991 17.5455C57.687 17.6364 57.5223 17.7595 57.4048 17.9148C57.2874 18.0663 57.2287 18.2557 57.2287 18.483C57.2287 18.8125 57.348 19.0644 57.5866 19.2386C57.8291 19.4091 58.1359 19.4943 58.5071 19.4943ZM67.027 9.36364V21H64.6065V9.36364H67.027Z" fill="#53575A"/>
<rect x="11" y="28" width="57" height="14" rx="4" fill="#53575A"/>
<path d="M19.4418 30.2727V39H17.8608V30.2727H19.4418ZM22.6282 35.1648V39H21.0856V32.4545H22.56V33.5668H22.6367C22.7873 33.2003 23.0273 32.9091 23.3569 32.6932C23.6893 32.4773 24.0998 32.3693 24.5884 32.3693C25.0401 32.3693 25.4336 32.4659 25.7688 32.6591C26.1069 32.8523 26.3683 33.1321 26.5529 33.4986C26.7404 33.8651 26.8327 34.3097 26.8299 34.8324V39H25.2873V35.071C25.2873 34.6335 25.1737 34.2912 24.9464 34.044C24.7219 33.7969 24.4109 33.6733 24.0131 33.6733C23.7433 33.6733 23.5032 33.733 23.293 33.8523C23.0856 33.9687 22.9222 34.1378 22.8029 34.3594C22.6864 34.581 22.6282 34.8494 22.6282 35.1648ZM29.587 39H27.8995L30.9719 30.2727H32.9237L36.0004 39H34.3129L31.9819 32.0625H31.9137L29.587 39ZM29.6424 35.5781H34.2447V36.848H29.6424V35.5781ZM39.7376 39.1278C39.0842 39.1278 38.5231 38.9844 38.0543 38.6974C37.5884 38.4105 37.229 38.0142 36.9762 37.5085C36.7262 37 36.6012 36.4148 36.6012 35.7528C36.6012 35.0881 36.729 34.5014 36.9847 33.9929C37.2404 33.4815 37.6012 33.0838 38.0671 32.7997C38.5359 32.5128 39.0898 32.3693 39.729 32.3693C40.2603 32.3693 40.7305 32.4673 41.1396 32.6634C41.5515 32.8565 41.8796 33.1307 42.1239 33.4858C42.3683 33.8381 42.5075 34.25 42.5415 34.7216H41.0671C41.0075 34.4062 40.8654 34.1435 40.641 33.9332C40.4194 33.7202 40.1225 33.6136 39.7504 33.6136C39.435 33.6136 39.158 33.6989 38.9194 33.8693C38.6808 34.0369 38.4947 34.2784 38.3612 34.5938C38.2305 34.9091 38.1651 35.2869 38.1651 35.7273C38.1651 36.1733 38.2305 36.5568 38.3612 36.8778C38.4918 37.196 38.6751 37.4418 38.9109 37.6151C39.1495 37.7855 39.4293 37.8707 39.7504 37.8707C39.9776 37.8707 40.1808 37.8281 40.3597 37.7429C40.5415 37.6548 40.6935 37.5284 40.8157 37.3636C40.9379 37.1989 41.0217 36.9986 41.0671 36.7628H42.5415C42.5046 37.2259 42.3683 37.6364 42.1325 37.9943C41.8967 38.3494 41.5756 38.6278 41.1694 38.8295C40.7631 39.0284 40.2859 39.1278 39.7376 39.1278ZM47.0767 32.4545V33.6477H43.3139V32.4545H47.0767ZM44.2429 30.8864H45.7855V37.0312C45.7855 37.2386 45.8168 37.3977 45.8793 37.5085C45.9446 37.6165 46.0298 37.6903 46.1349 37.7301C46.2401 37.7699 46.3565 37.7898 46.4844 37.7898C46.581 37.7898 46.669 37.7827 46.7486 37.7685C46.831 37.7543 46.8935 37.7415 46.9361 37.7301L47.196 38.9361C47.1136 38.9645 46.9957 38.9957 46.8423 39.0298C46.6918 39.0639 46.5071 39.0838 46.2884 39.0895C45.902 39.1009 45.554 39.0426 45.2443 38.9148C44.9347 38.7841 44.6889 38.5824 44.5071 38.3097C44.3281 38.0369 44.2401 37.696 44.2429 37.2869V30.8864ZM48.3668 39V32.4545H49.9094V39H48.3668ZM49.1424 31.5256C48.8981 31.5256 48.6879 31.4446 48.5117 31.2827C48.3356 31.1179 48.2475 30.9205 48.2475 30.6903C48.2475 30.4574 48.3356 30.2599 48.5117 30.098C48.6879 29.9332 48.8981 29.8509 49.1424 29.8509C49.3896 29.8509 49.5998 29.9332 49.7731 30.098C49.9492 30.2599 50.0373 30.4574 50.0373 30.6903C50.0373 30.9205 49.9492 31.1179 49.7731 31.2827C49.5998 31.4446 49.3896 31.5256 49.1424 31.5256ZM57.3423 32.4545L55.0114 39H53.3068L50.9759 32.4545H52.6207L54.125 37.3168H54.1932L55.7017 32.4545H57.3423ZM61.0849 39.1278C60.4286 39.1278 59.8619 38.9915 59.3846 38.7188C58.9102 38.4432 58.5451 38.054 58.2894 37.5511C58.0337 37.0455 57.9059 36.4503 57.9059 35.7656C57.9059 35.0923 58.0337 34.5014 58.2894 33.9929C58.5479 33.4815 58.9087 33.0838 59.3718 32.7997C59.8349 32.5128 60.3789 32.3693 61.0039 32.3693C61.4073 32.3693 61.788 32.4347 62.146 32.5653C62.5067 32.6932 62.8249 32.892 63.1005 33.1619C63.3789 33.4318 63.5977 33.7756 63.7567 34.1932C63.9158 34.608 63.9954 35.1023 63.9954 35.6761V36.1491H58.6303V35.1094H62.5167C62.5138 34.8139 62.4499 34.5511 62.3249 34.321C62.1999 34.0881 62.0252 33.9048 61.8008 33.7713C61.5792 33.6378 61.3207 33.571 61.0252 33.571C60.7099 33.571 60.4329 33.6477 60.1942 33.8011C59.9556 33.9517 59.7695 34.1506 59.636 34.3977C59.5053 34.642 59.4386 34.9105 59.4357 35.2031V36.1108C59.4357 36.4915 59.5053 36.8182 59.6445 37.0909C59.7837 37.3608 59.9783 37.5682 60.2283 37.7131C60.4783 37.8551 60.771 37.9261 61.1062 37.9261C61.3306 37.9261 61.5337 37.8949 61.7156 37.8324C61.8974 37.767 62.055 37.6719 62.1886 37.5469C62.3221 37.4219 62.4229 37.267 62.4911 37.0824L63.9315 37.2443C63.8406 37.625 63.6673 37.9574 63.4116 38.2415C63.1587 38.5227 62.8349 38.7415 62.44 38.8977C62.0451 39.0511 61.5934 39.1278 61.0849 39.1278Z" fill="white"/>
</g>
<defs>
<filter id="filter0_d_863_5676" x="0" y="0" width="79" height="55" filterUnits="userSpaceOnUse" color-interpolation-filters="sRGB">
<feFlood flood-opacity="0" result="BackgroundImageFix"/>
<feColorMatrix in="SourceAlpha" type="matrix" values="0 0 0 0 0 0 0 0 0 0 0 0 0 0 0 0 0 0 127 0" result="hardAlpha"/>
<feOffset dx="1" dy="2"/>
<feGaussianBlur stdDeviation="1.5"/>
<feComposite in2="hardAlpha" operator="out"/>
<feColorMatrix type="matrix" values="0 0 0 0 0 0 0 0 0 0 0 0 0 0 0 0 0 0 0.25 0"/>
<feBlend mode="normal" in2="BackgroundImageFix" result="effect1_dropShadow_863_5676"/>
<feBlend mode="normal" in="SourceGraphic" in2="effect1_dropShadow_863_5676" result="shape"/>
</filter>
</defs>
</svg>
