<svg width="234" height="30" viewBox="0 0 234 30" fill="none" xmlns="http://www.w3.org/2000/svg">
<rect width="234" height="29.4294" rx="5" fill="#E6E9EC"/>
<path d="M34.233 19V8.81818H37.6733C38.4721 8.81818 39.125 8.96236 39.6321 9.25071C40.1425 9.53575 40.5204 9.92188 40.7656 10.4091C41.0109 10.8963 41.1335 11.4399 41.1335 12.0398C41.1335 12.6397 41.0109 13.1849 40.7656 13.6754C40.5237 14.166 40.1491 14.5571 39.642 14.8487C39.1349 15.1371 38.4853 15.2812 37.6932 15.2812H35.2273V14.1875H37.6534C38.2003 14.1875 38.6394 14.093 38.9709 13.9041C39.3023 13.7152 39.5426 13.46 39.6918 13.1385C39.8442 12.8137 39.9205 12.4474 39.9205 12.0398C39.9205 11.6321 39.8442 11.2675 39.6918 10.946C39.5426 10.6245 39.3007 10.3726 38.9659 10.1903C38.6312 10.0047 38.187 9.91193 37.6335 9.91193H35.4659V19H34.233ZM42.9606 19V11.3636H44.0941V12.517H44.1737C44.3129 12.1392 44.5647 11.8326 44.9293 11.5973C45.2939 11.362 45.7049 11.2443 46.1623 11.2443C46.2485 11.2443 46.3562 11.246 46.4854 11.2493C46.6147 11.2526 46.7125 11.2576 46.7788 11.2642V12.4574C46.739 12.4474 46.6478 12.4325 46.5053 12.4126C46.3661 12.3894 46.2186 12.3778 46.0629 12.3778C45.6916 12.3778 45.3602 12.4557 45.0685 12.6115C44.7802 12.764 44.5515 12.9761 44.3825 13.2479C44.2167 13.5163 44.1339 13.8229 44.1339 14.1676V19H42.9606ZM51.1388 19.1591C50.4031 19.1591 49.7683 18.9967 49.2347 18.6719C48.7044 18.3438 48.2951 17.8864 48.0067 17.2997C47.7217 16.7098 47.5792 16.0237 47.5792 15.2415C47.5792 14.4593 47.7217 13.7699 48.0067 13.1733C48.2951 12.5734 48.6961 12.1061 49.2099 11.7713C49.7269 11.4332 50.3301 11.2642 51.0195 11.2642C51.4173 11.2642 51.81 11.3305 52.1978 11.4631C52.5856 11.5956 52.9386 11.8111 53.2567 12.1094C53.5749 12.4044 53.8285 12.7955 54.0174 13.2827C54.2063 13.7699 54.3008 14.3698 54.3008 15.0824V15.5795H48.4144V14.5653H53.1076C53.1076 14.1345 53.0214 13.75 52.8491 13.4119C52.68 13.0739 52.4381 12.8071 52.1232 12.6115C51.8117 12.416 51.4438 12.3182 51.0195 12.3182C50.5522 12.3182 50.1478 12.4342 49.8065 12.6662C49.4684 12.8949 49.2082 13.1932 49.0259 13.5611C48.8436 13.929 48.7525 14.3234 48.7525 14.7443V15.4205C48.7525 15.9972 48.8519 16.486 49.0508 16.8871C49.253 17.2848 49.533 17.5881 49.891 17.7969C50.2489 18.0024 50.6649 18.1051 51.1388 18.1051C51.4471 18.1051 51.7255 18.062 51.9741 17.9759C52.226 17.8864 52.4431 17.7538 52.6254 17.5781C52.8076 17.3991 52.9485 17.1771 53.0479 16.9119L54.1815 17.2301C54.0621 17.6146 53.8616 17.9527 53.5799 18.2443C53.2982 18.5327 52.9502 18.758 52.5359 18.9205C52.1216 19.0795 51.6559 19.1591 51.1388 19.1591ZM61.4947 13.0739L60.4407 13.3722C60.3744 13.1965 60.2766 13.0258 60.1474 12.8601C60.0214 12.6911 59.8491 12.5518 59.6303 12.4425C59.4116 12.3331 59.1315 12.2784 58.7901 12.2784C58.3228 12.2784 57.9334 12.3861 57.6218 12.6016C57.3136 12.8137 57.1594 13.0838 57.1594 13.4119C57.1594 13.7036 57.2655 13.9339 57.4776 14.103C57.6897 14.272 58.0212 14.4129 58.4719 14.5256L59.6055 14.804C60.2882 14.9697 60.797 15.2232 61.1317 15.5646C61.4665 15.9027 61.6339 16.3385 61.6339 16.8722C61.6339 17.3097 61.5079 17.7008 61.256 18.0455C61.0075 18.3902 60.6594 18.6619 60.212 18.8608C59.7646 19.0597 59.2442 19.1591 58.6509 19.1591C57.872 19.1591 57.2274 18.9901 56.717 18.652C56.2066 18.3139 55.8834 17.8201 55.7475 17.1705L56.8612 16.892C56.9672 17.303 57.1677 17.6113 57.4627 17.8168C57.761 18.0223 58.1504 18.125 58.631 18.125C59.1779 18.125 59.6121 18.009 59.9336 17.777C60.2584 17.5417 60.4208 17.2599 60.4208 16.9318C60.4208 16.6667 60.328 16.4446 60.1424 16.2656C59.9568 16.0833 59.6718 15.9474 59.2873 15.858L58.0146 15.5597C57.3152 15.3939 56.8015 15.1371 56.4734 14.7891C56.1486 14.4377 55.9862 13.9986 55.9862 13.4716C55.9862 13.0407 56.1071 12.6596 56.3491 12.3281C56.5943 11.9967 56.9274 11.7365 57.3484 11.5476C57.7726 11.3587 58.2532 11.2642 58.7901 11.2642C59.5458 11.2642 60.1391 11.4299 60.57 11.7614C61.0041 12.0928 61.3124 12.5303 61.4947 13.0739ZM68.8091 13.0739L67.7551 13.3722C67.6889 13.1965 67.5911 13.0258 67.4618 12.8601C67.3359 12.6911 67.1635 12.5518 66.9448 12.4425C66.726 12.3331 66.446 12.2784 66.1046 12.2784C65.6373 12.2784 65.2478 12.3861 64.9363 12.6016C64.628 12.8137 64.4739 13.0838 64.4739 13.4119C64.4739 13.7036 64.58 13.9339 64.7921 14.103C65.0042 14.272 65.3356 14.4129 65.7864 14.5256L66.9199 14.804C67.6027 14.9697 68.1114 15.2232 68.4462 15.5646C68.781 15.9027 68.9483 16.3385 68.9483 16.8722C68.9483 17.3097 68.8224 17.7008 68.5705 18.0455C68.3219 18.3902 67.9739 18.6619 67.5265 18.8608C67.079 19.0597 66.5587 19.1591 65.9654 19.1591C65.1865 19.1591 64.5418 18.9901 64.0314 18.652C63.521 18.3139 63.1979 17.8201 63.062 17.1705L64.1756 16.892C64.2817 17.303 64.4822 17.6113 64.7772 17.8168C65.0755 18.0223 65.4649 18.125 65.9455 18.125C66.4924 18.125 66.9266 18.009 67.248 17.777C67.5729 17.5417 67.7353 17.2599 67.7353 16.9318C67.7353 16.6667 67.6425 16.4446 67.4569 16.2656C67.2712 16.0833 66.9862 15.9474 66.6017 15.858L65.329 15.5597C64.6297 15.3939 64.1159 15.1371 63.7878 14.7891C63.463 14.4377 63.3006 13.9986 63.3006 13.4716C63.3006 13.0407 63.4216 12.6596 63.6635 12.3281C63.9088 11.9967 64.2419 11.7365 64.6628 11.5476C65.0871 11.3587 65.5676 11.2642 66.1046 11.2642C66.8603 11.2642 67.4535 11.4299 67.8844 11.7614C68.3186 12.0928 68.6268 12.5303 68.8091 13.0739ZM77.973 11.3636V12.358H74.0156V11.3636H77.973ZM75.169 9.53409H76.3423V16.8125C76.3423 17.1439 76.3904 17.3925 76.4865 17.5582C76.5859 17.7206 76.7119 17.83 76.8643 17.8864C77.0201 17.9394 77.1842 17.9659 77.3565 17.9659C77.4858 17.9659 77.5919 17.9593 77.6747 17.946C77.7576 17.9295 77.8239 17.9162 77.8736 17.9062L78.1122 18.9602C78.0327 18.9901 77.9216 19.0199 77.7791 19.0497C77.6366 19.0829 77.456 19.0994 77.2372 19.0994C76.9058 19.0994 76.581 19.0282 76.2628 18.8857C75.9479 18.7431 75.6861 18.526 75.4773 18.2344C75.2718 17.9427 75.169 17.5748 75.169 17.1307V9.53409ZM82.7582 19.1591C82.0688 19.1591 81.4639 18.995 80.9435 18.6669C80.4265 18.3388 80.0221 17.8797 79.7305 17.2898C79.4421 16.6998 79.2979 16.0104 79.2979 15.2216C79.2979 14.4261 79.4421 13.7318 79.7305 13.1385C80.0221 12.5452 80.4265 12.0845 80.9435 11.7564C81.4639 11.4283 82.0688 11.2642 82.7582 11.2642C83.4476 11.2642 84.0508 11.4283 84.5678 11.7564C85.0882 12.0845 85.4925 12.5452 85.7809 13.1385C86.0726 13.7318 86.2184 14.4261 86.2184 15.2216C86.2184 16.0104 86.0726 16.6998 85.7809 17.2898C85.4925 17.8797 85.0882 18.3388 84.5678 18.6669C84.0508 18.995 83.4476 19.1591 82.7582 19.1591ZM82.7582 18.1051C83.2818 18.1051 83.7127 17.9709 84.0508 17.7024C84.3888 17.4339 84.6391 17.081 84.8015 16.6435C84.9639 16.206 85.0451 15.732 85.0451 15.2216C85.0451 14.7112 84.9639 14.2356 84.8015 13.7947C84.6391 13.3539 84.3888 12.9976 84.0508 12.7259C83.7127 12.4541 83.2818 12.3182 82.7582 12.3182C82.2345 12.3182 81.8036 12.4541 81.4656 12.7259C81.1275 12.9976 80.8772 13.3539 80.7148 13.7947C80.5524 14.2356 80.4712 14.7112 80.4712 15.2216C80.4712 15.732 80.5524 16.206 80.7148 16.6435C80.8772 17.081 81.1275 17.4339 81.4656 17.7024C81.8036 17.9709 82.2345 18.1051 82.7582 18.1051ZM91.9469 19V11.3636H93.0804V12.517H93.16C93.2992 12.1392 93.5511 11.8326 93.9157 11.5973C94.2802 11.362 94.6912 11.2443 95.1486 11.2443C95.2348 11.2443 95.3425 11.246 95.4718 11.2493C95.601 11.2526 95.6988 11.2576 95.7651 11.2642V12.4574C95.7253 12.4474 95.6342 12.4325 95.4917 12.4126C95.3525 12.3894 95.205 12.3778 95.0492 12.3778C94.678 12.3778 94.3465 12.4557 94.0549 12.6115C93.7665 12.764 93.5378 12.9761 93.3688 13.2479C93.2031 13.5163 93.1202 13.8229 93.1202 14.1676V19H91.9469ZM100.125 19.1591C99.3894 19.1591 98.7547 18.9967 98.2211 18.6719C97.6908 18.3438 97.2814 17.8864 96.9931 17.2997C96.708 16.7098 96.5655 16.0237 96.5655 15.2415C96.5655 14.4593 96.708 13.7699 96.9931 13.1733C97.2814 12.5734 97.6825 12.1061 98.1962 11.7713C98.7132 11.4332 99.3165 11.2642 100.006 11.2642C100.404 11.2642 100.796 11.3305 101.184 11.4631C101.572 11.5956 101.925 11.8111 102.243 12.1094C102.561 12.4044 102.815 12.7955 103.004 13.2827C103.193 13.7699 103.287 14.3698 103.287 15.0824V15.5795H97.4007V14.5653H102.094C102.094 14.1345 102.008 13.75 101.835 13.4119C101.666 13.0739 101.424 12.8071 101.11 12.6115C100.798 12.416 100.43 12.3182 100.006 12.3182C99.5385 12.3182 99.1342 12.4342 98.7928 12.6662C98.4547 12.8949 98.1945 13.1932 98.0123 13.5611C97.83 13.929 97.7388 14.3234 97.7388 14.7443V15.4205C97.7388 15.9972 97.8382 16.486 98.0371 16.8871C98.2393 17.2848 98.5194 17.5881 98.8773 17.7969C99.2353 18.0024 99.6512 18.1051 100.125 18.1051C100.433 18.1051 100.712 18.062 100.96 17.9759C101.212 17.8864 101.429 17.7538 101.612 17.5781C101.794 17.3991 101.935 17.1771 102.034 16.9119L103.168 17.2301C103.048 17.6146 102.848 17.9527 102.566 18.2443C102.285 18.5327 101.936 18.758 101.522 18.9205C101.108 19.0795 100.642 19.1591 100.125 19.1591ZM108.174 19.1591C107.458 19.1591 106.842 18.9901 106.325 18.652C105.808 18.3139 105.41 17.8482 105.132 17.255C104.853 16.6617 104.714 15.9839 104.714 15.2216C104.714 14.446 104.856 13.7616 105.142 13.1683C105.43 12.5717 105.831 12.1061 106.345 11.7713C106.862 11.4332 107.465 11.2642 108.154 11.2642C108.691 11.2642 109.175 11.3636 109.606 11.5625C110.037 11.7614 110.39 12.0398 110.665 12.3977C110.94 12.7557 111.111 13.1733 111.177 13.6506H110.004C109.914 13.3026 109.715 12.9943 109.407 12.7259C109.102 12.4541 108.691 12.3182 108.174 12.3182C107.717 12.3182 107.316 12.4375 106.971 12.6761C106.63 12.9115 106.363 13.2446 106.171 13.6754C105.982 14.103 105.887 14.6051 105.887 15.1818C105.887 15.7718 105.98 16.2855 106.166 16.723C106.355 17.1605 106.62 17.5002 106.961 17.7422C107.306 17.9841 107.71 18.1051 108.174 18.1051C108.479 18.1051 108.756 18.0521 109.004 17.946C109.253 17.84 109.463 17.6875 109.636 17.4886C109.808 17.2898 109.931 17.0511 110.004 16.7727H111.177C111.111 17.2235 110.947 17.6295 110.685 17.9908C110.426 18.3487 110.083 18.6338 109.656 18.8459C109.231 19.0547 108.738 19.1591 108.174 19.1591ZM115.994 19.1591C115.305 19.1591 114.7 18.995 114.18 18.6669C113.663 18.3388 113.258 17.8797 112.967 17.2898C112.678 16.6998 112.534 16.0104 112.534 15.2216C112.534 14.4261 112.678 13.7318 112.967 13.1385C113.258 12.5452 113.663 12.0845 114.18 11.7564C114.7 11.4283 115.305 11.2642 115.994 11.2642C116.684 11.2642 117.287 11.4283 117.804 11.7564C118.325 12.0845 118.729 12.5452 119.017 13.1385C119.309 13.7318 119.455 14.4261 119.455 15.2216C119.455 16.0104 119.309 16.6998 119.017 17.2898C118.729 17.8797 118.325 18.3388 117.804 18.6669C117.287 18.995 116.684 19.1591 115.994 19.1591ZM115.994 18.1051C116.518 18.1051 116.949 17.9709 117.287 17.7024C117.625 17.4339 117.875 17.081 118.038 16.6435C118.2 16.206 118.281 15.732 118.281 15.2216C118.281 14.7112 118.2 14.2356 118.038 13.7947C117.875 13.3539 117.625 12.9976 117.287 12.7259C116.949 12.4541 116.518 12.3182 115.994 12.3182C115.471 12.3182 115.04 12.4541 114.702 12.7259C114.364 12.9976 114.114 13.3539 113.951 13.7947C113.789 14.2356 113.708 14.7112 113.708 15.2216C113.708 15.732 113.789 16.206 113.951 16.6435C114.114 17.081 114.364 17.4339 114.702 17.7024C115.04 17.9709 115.471 18.1051 115.994 18.1051ZM121.246 19V11.3636H122.379V12.517H122.459C122.598 12.1392 122.85 11.8326 123.214 11.5973C123.579 11.362 123.99 11.2443 124.447 11.2443C124.534 11.2443 124.641 11.246 124.771 11.2493C124.9 11.2526 124.998 11.2576 125.064 11.2642V12.4574C125.024 12.4474 124.933 12.4325 124.79 12.4126C124.651 12.3894 124.504 12.3778 124.348 12.3778C123.977 12.3778 123.645 12.4557 123.354 12.6115C123.065 12.764 122.837 12.9761 122.668 13.2479C122.502 13.5163 122.419 13.8229 122.419 14.1676V19H121.246ZM129.106 19.1591C128.469 19.1591 127.908 18.9983 127.42 18.6768C126.933 18.352 126.552 17.8946 126.277 17.3047C126.002 16.7114 125.864 16.0104 125.864 15.2017C125.864 14.3996 126.002 13.7036 126.277 13.1136C126.552 12.5237 126.935 12.0679 127.425 11.7464C127.916 11.425 128.483 11.2642 129.126 11.2642C129.623 11.2642 130.016 11.3471 130.304 11.5128C130.596 11.6752 130.818 11.8608 130.97 12.0696C131.126 12.2751 131.247 12.4441 131.333 12.5767H131.433V8.81818H132.606V19H131.472V17.8267H131.333C131.247 17.9659 131.124 18.1416 130.965 18.3537C130.806 18.5625 130.579 18.7498 130.284 18.9155C129.989 19.0779 129.596 19.1591 129.106 19.1591ZM129.265 18.1051C129.736 18.1051 130.133 17.9825 130.458 17.7372C130.783 17.4886 131.03 17.1456 131.199 16.7081C131.368 16.2673 131.452 15.7585 131.452 15.1818C131.452 14.6117 131.37 14.1129 131.204 13.6854C131.038 13.2545 130.793 12.9197 130.468 12.6811C130.143 12.4392 129.742 12.3182 129.265 12.3182C128.768 12.3182 128.353 12.4458 128.022 12.701C127.694 12.9529 127.447 13.2959 127.281 13.7301C127.119 14.161 127.038 14.6449 127.038 15.1818C127.038 15.7254 127.121 16.2192 127.286 16.6634C127.455 17.1042 127.704 17.4555 128.032 17.7173C128.363 17.9759 128.774 18.1051 129.265 18.1051ZM141.102 19.179C140.618 19.179 140.179 19.0878 139.785 18.9055C139.39 18.7199 139.077 18.4531 138.845 18.1051C138.613 17.7538 138.497 17.3295 138.497 16.8324C138.497 16.3949 138.583 16.0402 138.756 15.7685C138.928 15.4934 139.158 15.2779 139.447 15.1222C139.735 14.9664 140.053 14.8504 140.401 14.7741C140.753 14.6946 141.106 14.6316 141.46 14.5852C141.924 14.5256 142.3 14.4808 142.589 14.451C142.88 14.4179 143.093 14.3632 143.225 14.2869C143.361 14.2107 143.429 14.0781 143.429 13.8892V13.8494C143.429 13.3589 143.295 12.9777 143.026 12.706C142.761 12.4342 142.358 12.2983 141.818 12.2983C141.258 12.2983 140.819 12.4209 140.501 12.6662C140.183 12.9115 139.959 13.1733 139.83 13.4517L138.716 13.054C138.915 12.59 139.18 12.2287 139.511 11.9702C139.846 11.7083 140.211 11.526 140.605 11.4233C141.003 11.3172 141.394 11.2642 141.778 11.2642C142.024 11.2642 142.305 11.294 142.624 11.3537C142.945 11.41 143.255 11.5277 143.553 11.7067C143.855 11.8857 144.105 12.1558 144.304 12.517C144.503 12.8783 144.602 13.3622 144.602 13.9688V19H143.429V17.9659H143.369C143.29 18.1316 143.157 18.3089 142.972 18.4979C142.786 18.6868 142.539 18.8475 142.231 18.9801C141.923 19.1127 141.546 19.179 141.102 19.179ZM141.281 18.125C141.745 18.125 142.136 18.0339 142.455 17.8516C142.776 17.6693 143.018 17.4339 143.18 17.1456C143.346 16.8572 143.429 16.554 143.429 16.2358V15.1619C143.379 15.2216 143.27 15.2763 143.101 15.326C142.935 15.3724 142.743 15.4138 142.524 15.4503C142.309 15.4834 142.098 15.5133 141.893 15.5398C141.691 15.563 141.527 15.5829 141.401 15.5994C141.096 15.6392 140.811 15.7038 140.545 15.7933C140.284 15.8795 140.071 16.0104 139.909 16.1861C139.75 16.3584 139.67 16.5937 139.67 16.892C139.67 17.2997 139.821 17.608 140.123 17.8168C140.428 18.0223 140.814 18.125 141.281 18.125ZM156.926 11.3636L154.102 19H152.909L150.085 11.3636H151.357L153.465 17.4489H153.545L155.653 11.3636H156.926ZM161.303 19.1591C160.614 19.1591 160.009 18.995 159.488 18.6669C158.971 18.3388 158.567 17.8797 158.275 17.2898C157.987 16.6998 157.843 16.0104 157.843 15.2216C157.843 14.4261 157.987 13.7318 158.275 13.1385C158.567 12.5452 158.971 12.0845 159.488 11.7564C160.009 11.4283 160.614 11.2642 161.303 11.2642C161.992 11.2642 162.596 11.4283 163.113 11.7564C163.633 12.0845 164.037 12.5452 164.326 13.1385C164.617 13.7318 164.763 14.4261 164.763 15.2216C164.763 16.0104 164.617 16.6998 164.326 17.2898C164.037 17.8797 163.633 18.3388 163.113 18.6669C162.596 18.995 161.992 19.1591 161.303 19.1591ZM161.303 18.1051C161.827 18.1051 162.258 17.9709 162.596 17.7024C162.934 17.4339 163.184 17.081 163.346 16.6435C163.509 16.206 163.59 15.732 163.59 15.2216C163.59 14.7112 163.509 14.2356 163.346 13.7947C163.184 13.3539 162.934 12.9976 162.596 12.7259C162.258 12.4541 161.827 12.3182 161.303 12.3182C160.779 12.3182 160.349 12.4541 160.01 12.7259C159.672 12.9976 159.422 13.3539 159.26 13.7947C159.097 14.2356 159.016 14.7112 159.016 15.2216C159.016 15.732 159.097 16.206 159.26 16.6435C159.422 17.081 159.672 17.4339 160.01 17.7024C160.349 17.9709 160.779 18.1051 161.303 18.1051ZM166.554 19V11.3636H167.728V19H166.554ZM167.151 10.0909C166.922 10.0909 166.725 10.013 166.559 9.85724C166.397 9.70147 166.316 9.5142 166.316 9.29545C166.316 9.0767 166.397 8.88944 166.559 8.73366C166.725 8.57789 166.922 8.5 167.151 8.5C167.38 8.5 167.575 8.57789 167.738 8.73366C167.903 8.88944 167.986 9.0767 167.986 9.29545C167.986 9.5142 167.903 9.70147 167.738 9.85724C167.575 10.013 167.38 10.0909 167.151 10.0909ZM172.979 19.1591C172.263 19.1591 171.646 18.9901 171.129 18.652C170.612 18.3139 170.215 17.8482 169.936 17.255C169.658 16.6617 169.519 15.9839 169.519 15.2216C169.519 14.446 169.661 13.7616 169.946 13.1683C170.235 12.5717 170.636 12.1061 171.149 11.7713C171.666 11.4332 172.27 11.2642 172.959 11.2642C173.496 11.2642 173.98 11.3636 174.411 11.5625C174.842 11.7614 175.195 12.0398 175.47 12.3977C175.745 12.7557 175.915 13.1733 175.982 13.6506H174.808C174.719 13.3026 174.52 12.9943 174.212 12.7259C173.907 12.4541 173.496 12.3182 172.979 12.3182C172.521 12.3182 172.12 12.4375 171.776 12.6761C171.434 12.9115 171.168 13.2446 170.975 13.6754C170.786 14.103 170.692 14.6051 170.692 15.1818C170.692 15.7718 170.785 16.2855 170.97 16.723C171.159 17.1605 171.424 17.5002 171.766 17.7422C172.11 17.9841 172.515 18.1051 172.979 18.1051C173.284 18.1051 173.561 18.0521 173.809 17.946C174.058 17.84 174.268 17.6875 174.441 17.4886C174.613 17.2898 174.735 17.0511 174.808 16.7727H175.982C175.915 17.2235 175.751 17.6295 175.49 17.9908C175.231 18.3487 174.888 18.6338 174.46 18.8459C174.036 19.0547 173.542 19.1591 172.979 19.1591ZM180.899 19.1591C180.163 19.1591 179.528 18.9967 178.994 18.6719C178.464 18.3438 178.055 17.8864 177.767 17.2997C177.481 16.7098 177.339 16.0237 177.339 15.2415C177.339 14.4593 177.481 13.7699 177.767 13.1733C178.055 12.5734 178.456 12.1061 178.97 11.7713C179.487 11.4332 180.09 11.2642 180.779 11.2642C181.177 11.2642 181.57 11.3305 181.958 11.4631C182.345 11.5956 182.698 11.8111 183.017 12.1094C183.335 12.4044 183.588 12.7955 183.777 13.2827C183.966 13.7699 184.061 14.3698 184.061 15.0824V15.5795H178.174V14.5653H182.867C182.867 14.1345 182.781 13.75 182.609 13.4119C182.44 13.0739 182.198 12.8071 181.883 12.6115C181.571 12.416 181.204 12.3182 180.779 12.3182C180.312 12.3182 179.908 12.4342 179.566 12.6662C179.228 12.8949 178.968 13.1932 178.786 13.5611C178.603 13.929 178.512 14.3234 178.512 14.7443V15.4205C178.512 15.9972 178.612 16.486 178.811 16.8871C179.013 17.2848 179.293 17.5881 179.651 17.7969C180.009 18.0024 180.425 18.1051 180.899 18.1051C181.207 18.1051 181.485 18.062 181.734 17.9759C181.986 17.8864 182.203 17.7538 182.385 17.5781C182.567 17.3991 182.708 17.1771 182.808 16.9119L183.941 17.2301C183.822 17.6146 183.621 17.9527 183.34 18.2443C183.058 18.5327 182.71 18.758 182.296 18.9205C181.881 19.0795 181.416 19.1591 180.899 19.1591ZM190.956 14.4062V19H189.783V11.3636H190.916V12.5568H191.016C191.195 12.169 191.467 11.8575 191.831 11.6222C192.196 11.3835 192.666 11.2642 193.243 11.2642C193.76 11.2642 194.213 11.3703 194.6 11.5824C194.988 11.7912 195.29 12.1094 195.505 12.5369C195.721 12.9612 195.828 13.4981 195.828 14.1477V19H194.655V14.2273C194.655 13.6274 194.499 13.16 194.188 12.8253C193.876 12.4872 193.449 12.3182 192.905 12.3182C192.53 12.3182 192.196 12.3994 191.901 12.5618C191.609 12.7242 191.379 12.9612 191.21 13.2727C191.041 13.5843 190.956 13.9621 190.956 14.4062ZM201.075 19.1591C200.385 19.1591 199.78 18.995 199.26 18.6669C198.743 18.3388 198.339 17.8797 198.047 17.2898C197.759 16.6998 197.614 16.0104 197.614 15.2216C197.614 14.4261 197.759 13.7318 198.047 13.1385C198.339 12.5452 198.743 12.0845 199.26 11.7564C199.78 11.4283 200.385 11.2642 201.075 11.2642C201.764 11.2642 202.367 11.4283 202.884 11.7564C203.405 12.0845 203.809 12.5452 204.097 13.1385C204.389 13.7318 204.535 14.4261 204.535 15.2216C204.535 16.0104 204.389 16.6998 204.097 17.2898C203.809 17.8797 203.405 18.3388 202.884 18.6669C202.367 18.995 201.764 19.1591 201.075 19.1591ZM201.075 18.1051C201.598 18.1051 202.029 17.9709 202.367 17.7024C202.705 17.4339 202.955 17.081 203.118 16.6435C203.28 16.206 203.362 15.732 203.362 15.2216C203.362 14.7112 203.28 14.2356 203.118 13.7947C202.955 13.3539 202.705 12.9976 202.367 12.7259C202.029 12.4541 201.598 12.3182 201.075 12.3182C200.551 12.3182 200.12 12.4541 199.782 12.7259C199.444 12.9976 199.194 13.3539 199.031 13.7947C198.869 14.2356 198.788 14.7112 198.788 15.2216C198.788 15.732 198.869 16.206 199.031 16.6435C199.194 17.081 199.444 17.4339 199.782 17.7024C200.12 17.9709 200.551 18.1051 201.075 18.1051ZM209.647 11.3636V12.358H205.689V11.3636H209.647ZM206.843 9.53409H208.016V16.8125C208.016 17.1439 208.064 17.3925 208.16 17.5582C208.26 17.7206 208.386 17.83 208.538 17.8864C208.694 17.9394 208.858 17.9659 209.03 17.9659C209.16 17.9659 209.266 17.9593 209.349 17.946C209.431 17.9295 209.498 17.9162 209.547 17.9062L209.786 18.9602C209.706 18.9901 209.595 19.0199 209.453 19.0497C209.31 19.0829 209.13 19.0994 208.911 19.0994C208.58 19.0994 208.255 19.0282 207.937 18.8857C207.622 18.7431 207.36 18.526 207.151 18.2344C206.946 17.9427 206.843 17.5748 206.843 17.1307V9.53409ZM214.531 19.1591C213.796 19.1591 213.161 18.9967 212.627 18.6719C212.097 18.3438 211.688 17.8864 211.399 17.2997C211.114 16.7098 210.972 16.0237 210.972 15.2415C210.972 14.4593 211.114 13.7699 211.399 13.1733C211.688 12.5734 212.089 12.1061 212.602 11.7713C213.119 11.4332 213.723 11.2642 214.412 11.2642C214.81 11.2642 215.203 11.3305 215.59 11.4631C215.978 11.5956 216.331 11.8111 216.649 12.1094C216.968 12.4044 217.221 12.7955 217.41 13.2827C217.599 13.7699 217.693 14.3698 217.693 15.0824V15.5795H211.807V14.5653H216.5C216.5 14.1345 216.414 13.75 216.242 13.4119C216.073 13.0739 215.831 12.8071 215.516 12.6115C215.204 12.416 214.836 12.3182 214.412 12.3182C213.945 12.3182 213.54 12.4342 213.199 12.6662C212.861 12.8949 212.601 13.1932 212.419 13.5611C212.236 13.929 212.145 14.3234 212.145 14.7443V15.4205C212.145 15.9972 212.244 16.486 212.443 16.8871C212.646 17.2848 212.926 17.5881 213.284 17.7969C213.642 18.0024 214.057 18.1051 214.531 18.1051C214.84 18.1051 215.118 18.062 215.367 17.9759C215.619 17.8864 215.836 17.7538 216.018 17.5781C216.2 17.3991 216.341 17.1771 216.441 16.9119L217.574 17.2301C217.455 17.6146 217.254 17.9527 216.972 18.2443C216.691 18.5327 216.343 18.758 215.928 18.9205C215.514 19.0795 215.048 19.1591 214.531 19.1591Z" fill="black"/>
<path d="M18.4778 5.93119L18.4021 6.01905C18.0197 6.45835 18.05 7.11623 18.4669 7.52768C20.4568 9.49917 21.6883 12.225 21.6883 15.2336C21.6883 18.193 20.4913 20.8803 18.5534 22.8475C18.1515 23.2589 18.1191 23.9018 18.495 24.3411C18.9207 24.8447 19.6963 24.8747 20.1608 24.4075C22.5352 22.0267 24 18.7566 24 15.1522C24 11.535 22.5265 8.26056 20.137 5.87119C19.6747 5.40403 18.9055 5.43618 18.4778 5.93119Z" fill="#A1A1AA"/>
<path d="M16.4793 9.78903C16.0883 9.26187 15.3148 9.19758 14.8374 9.65831L14.8114 9.67545C14.4139 10.0548 14.3642 10.6569 14.6926 11.0941C15.5741 12.2727 16.0905 13.7234 16.0905 15.2985C16.0905 16.7578 15.6432 18.11 14.8827 19.2372C14.5738 19.6894 14.6645 20.3022 15.0837 20.6558C15.5827 21.0694 16.3346 20.9708 16.6997 20.4394C17.7065 18.9629 18.2898 17.1821 18.2898 15.2706C18.2963 13.2199 17.6223 11.3298 16.4793 9.78903ZM10 15.1806C10 16.5221 10.7821 17.6129 11.7414 17.6129C12.7049 17.6129 13.4827 16.5264 13.4827 15.1806C13.4827 13.8392 12.7006 12.7484 11.7414 12.7484C10.7821 12.7484 10 13.8349 10 15.1806Z" fill="#A1A1AA"/>
</svg>
