<svg width="64" height="31" viewBox="0 0 64 31" fill="none" xmlns="http://www.w3.org/2000/svg">
<path d="M35.9318 21.1591C35.1515 21.1591 34.4621 21.0208 33.8636 20.7443C33.2689 20.464 32.8049 20.0795 32.4716 19.5909C32.1383 19.0985 31.9735 18.5379 31.9773 17.9091C31.9735 17.4167 32.0701 16.9621 32.267 16.5455C32.464 16.125 32.733 15.7746 33.0739 15.4943C33.4186 15.2102 33.803 15.0303 34.2273 14.9545V14.8864C33.6705 14.7424 33.2273 14.4299 32.8977 13.9489C32.5682 13.464 32.4053 12.9129 32.4091 12.2955C32.4053 11.7045 32.5549 11.1761 32.858 10.7102C33.161 10.2443 33.5777 9.87689 34.108 9.60795C34.642 9.33901 35.25 9.20455 35.9318 9.20455C36.6061 9.20455 37.2083 9.33901 37.7386 9.60795C38.2689 9.87689 38.6856 10.2443 38.9886 10.7102C39.2955 11.1761 39.4508 11.7045 39.4545 12.2955C39.4508 12.9129 39.2822 13.464 38.9489 13.9489C38.6193 14.4299 38.1818 14.7424 37.6364 14.8864V14.9545C38.0568 15.0303 38.4356 15.2102 38.7727 15.4943C39.1098 15.7746 39.3788 16.125 39.5795 16.5455C39.7803 16.9621 39.8826 17.4167 39.8864 17.9091C39.8826 18.5379 39.7121 19.0985 39.375 19.5909C39.0417 20.0795 38.5777 20.464 37.983 20.7443C37.392 21.0208 36.7083 21.1591 35.9318 21.1591ZM35.9318 19.9091C36.4583 19.9091 36.9129 19.8239 37.2955 19.6534C37.678 19.483 37.9735 19.2424 38.1818 18.9318C38.3902 18.6212 38.4962 18.2576 38.5 17.8409C38.4962 17.4015 38.3826 17.0133 38.1591 16.6761C37.9356 16.339 37.6307 16.0739 37.2443 15.8807C36.8617 15.6875 36.4242 15.5909 35.9318 15.5909C35.4356 15.5909 34.9924 15.6875 34.6023 15.8807C34.2159 16.0739 33.911 16.339 33.6875 16.6761C33.4678 17.0133 33.3598 17.4015 33.3636 17.8409C33.3598 18.2576 33.4602 18.6212 33.6648 18.9318C33.8731 19.2424 34.1705 19.483 34.5568 19.6534C34.9432 19.8239 35.4015 19.9091 35.9318 19.9091ZM35.9318 14.3864C36.3485 14.3864 36.7178 14.303 37.0398 14.1364C37.3655 13.9697 37.6212 13.7367 37.8068 13.4375C37.9924 13.1383 38.0871 12.7879 38.0909 12.3864C38.0871 11.9924 37.9943 11.6496 37.8125 11.358C37.6307 11.0625 37.3788 10.8352 37.0568 10.6761C36.7348 10.5133 36.3598 10.4318 35.9318 10.4318C35.4962 10.4318 35.1155 10.5133 34.7898 10.6761C34.464 10.8352 34.2121 11.0625 34.0341 11.358C33.8561 11.6496 33.7689 11.9924 33.7727 12.3864C33.7689 12.7879 33.858 13.1383 34.0398 13.4375C34.2254 13.7367 34.4811 13.9697 34.8068 14.1364C35.1326 14.303 35.5076 14.3864 35.9318 14.3864ZM42.0639 21V19.9773L45.9048 15.7727C46.3556 15.2803 46.7268 14.8523 47.0185 14.4886C47.3101 14.1212 47.526 13.7765 47.6662 13.4545C47.8101 13.1288 47.8821 12.7879 47.8821 12.4318C47.8821 12.0227 47.7836 11.6686 47.5866 11.3693C47.3935 11.0701 47.1283 10.839 46.7912 10.6761C46.4541 10.5133 46.0753 10.4318 45.6548 10.4318C45.2079 10.4318 44.8177 10.5246 44.4844 10.7102C44.1548 10.892 43.8991 11.1477 43.7173 11.4773C43.5393 11.8068 43.4503 12.1932 43.4503 12.6364H42.1094C42.1094 11.9545 42.2666 11.3561 42.581 10.8409C42.8954 10.3258 43.3234 9.92424 43.8651 9.63636C44.4105 9.34848 45.0223 9.20455 45.7003 9.20455C46.3821 9.20455 46.9863 9.34848 47.5128 9.63636C48.0393 9.92424 48.4522 10.3125 48.7514 10.8011C49.0507 11.2898 49.2003 11.8333 49.2003 12.4318C49.2003 12.8598 49.1226 13.2784 48.9673 13.6875C48.8158 14.0928 48.5507 14.5455 48.1719 15.0455C47.7969 15.5417 47.276 16.1477 46.6094 16.8636L43.9957 19.6591V19.75H49.4048V21H42.0639ZM57.6832 18.8182V18.2045C57.6832 17.7803 57.7704 17.392 57.9446 17.0398C58.1226 16.6837 58.3802 16.3996 58.7173 16.1875C59.0582 15.9716 59.4711 15.8636 59.956 15.8636C60.4484 15.8636 60.8613 15.9716 61.1946 16.1875C61.5279 16.3996 61.7798 16.6837 61.9503 17.0398C62.1207 17.392 62.206 17.7803 62.206 18.2045V18.8182C62.206 19.2424 62.1188 19.6326 61.9446 19.9886C61.7741 20.3409 61.5204 20.625 61.1832 20.8409C60.8499 21.053 60.4408 21.1591 59.956 21.1591C59.4635 21.1591 59.0488 21.053 58.7116 20.8409C58.3745 20.625 58.1188 20.3409 57.9446 19.9886C57.7704 19.6326 57.6832 19.2424 57.6832 18.8182ZM58.8423 18.2045V18.8182C58.8423 19.1705 58.9257 19.4867 59.0923 19.767C59.259 20.0436 59.5469 20.1818 59.956 20.1818C60.3537 20.1818 60.634 20.0436 60.7969 19.767C60.9635 19.4867 61.0469 19.1705 61.0469 18.8182V18.2045C61.0469 17.8523 60.9673 17.5379 60.8082 17.2614C60.6491 16.9811 60.3651 16.8409 59.956 16.8409C59.5582 16.8409 59.2723 16.9811 59.098 17.2614C58.9276 17.5379 58.8423 17.8523 58.8423 18.2045ZM51.8878 12.1591V11.5455C51.8878 11.1212 51.9749 10.733 52.1491 10.3807C52.3272 10.0246 52.5848 9.74053 52.9219 9.52841C53.2628 9.3125 53.6757 9.20455 54.1605 9.20455C54.6529 9.20455 55.0658 9.3125 55.3991 9.52841C55.7325 9.74053 55.9844 10.0246 56.1548 10.3807C56.3253 10.733 56.4105 11.1212 56.4105 11.5455V12.1591C56.4105 12.5833 56.3234 12.9735 56.1491 13.3295C55.9787 13.6818 55.7249 13.9659 55.3878 14.1818C55.0545 14.3939 54.6454 14.5 54.1605 14.5C53.6681 14.5 53.2533 14.3939 52.9162 14.1818C52.5791 13.9659 52.3234 13.6818 52.1491 13.3295C51.9749 12.9735 51.8878 12.5833 51.8878 12.1591ZM53.0469 11.5455V12.1591C53.0469 12.5114 53.1302 12.8277 53.2969 13.108C53.4635 13.3845 53.7514 13.5227 54.1605 13.5227C54.5582 13.5227 54.8385 13.3845 55.0014 13.108C55.1681 12.8277 55.2514 12.5114 55.2514 12.1591V11.5455C55.2514 11.1932 55.1719 10.8788 55.0128 10.6023C54.8537 10.322 54.5696 10.1818 54.1605 10.1818C53.7628 10.1818 53.4768 10.322 53.3026 10.6023C53.1321 10.8788 53.0469 11.1932 53.0469 11.5455ZM52.3196 21L60.3196 9.36364H61.6151L53.6151 21H52.3196Z" fill="black"/>
<path d="M7.70689 9.87207L7.70303 20.9421C7.70261 22.1406 8.67383 23.1124 9.87228 23.1128L20.9423 23.1167C22.1407 23.1171 23.1126 22.146 23.113 20.9475L23.1169 9.87745C23.1173 8.67899 22.1461 7.70719 20.9477 7.70677L9.87766 7.70291C8.67921 7.70249 7.70731 8.67361 7.70689 9.87207Z" fill="#4FBF65"/>
<mask id="mask0_835_4068" style="mask-type:luminance" maskUnits="userSpaceOnUse" x="7" y="7" width="17" height="17">
<path d="M7.70695 9.87207L7.70309 20.9421C7.70267 22.1406 8.67389 23.1124 9.87234 23.1128L20.9423 23.1167C22.1408 23.1171 23.1127 22.146 23.1131 20.9475L23.117 9.87745C23.1174 8.67899 22.1462 7.70719 20.9477 7.70677L9.87772 7.70291C8.67927 7.70249 7.70737 8.67361 7.70695 9.87207Z" fill="white"/>
</mask>
<g mask="url(#mask0_835_4068)">
<path d="M8.49092 9.84325C8.49092 9.19271 9.01429 8.66934 9.66483 8.66934L9.66476 6.67536C7.91114 6.67536 6.48986 8.09663 6.48986 9.85026L8.48384 9.85032L8.49092 9.84325ZM8.49104 20.9164L8.49092 9.84325L6.49694 9.84318L6.49689 20.9165L8.49104 20.9164ZM9.66484 22.0902C9.0143 22.0902 8.49104 21.567 8.49104 20.9164L6.49689 20.9165C6.49689 22.6702 7.91817 24.0914 9.6718 24.0914L9.67191 22.0973L9.66484 22.0902ZM20.738 22.0903L9.66484 22.0902L9.66473 24.0844L20.7381 24.0843L20.738 22.0903ZM21.9119 20.9164C21.9119 21.567 21.3886 22.0903 20.738 22.0903L20.7381 24.0843C22.4917 24.0843 23.913 22.663 23.913 20.9094L21.919 20.9094L21.9119 20.9164ZM21.9118 9.84326L21.9119 20.9164L23.9059 20.9165L23.906 9.84315L21.9118 9.84326ZM20.738 8.66946C21.3885 8.66946 21.9118 9.19272 21.9118 9.84326L23.906 9.84315C23.906 8.08952 22.4847 6.66824 20.731 6.66824L20.7309 8.66239L20.738 8.66946ZM9.66483 8.66934L20.738 8.66946L20.7381 6.6753L9.66476 6.67536L9.66483 8.66934Z" fill="#C8CCD0"/>
</g>
</svg>
