<svg width="453" height="187" viewBox="0 0 453 187" fill="none" xmlns="http://www.w3.org/2000/svg">
<rect x="0.0193481" width="452.308" height="31" transform="rotate(0.0357445 0.0193481 0)" fill="#D9D9D9"/>
<path d="M157.171 21.136V9.49962H161.626C162.467 9.49962 163.165 9.6322 163.722 9.89735C164.283 10.1587 164.701 10.5167 164.978 10.9712C165.258 11.4258 165.398 11.9409 165.398 12.5167C165.398 12.9902 165.307 13.3955 165.126 13.7326C164.944 14.0659 164.699 14.3367 164.393 14.5451C164.086 14.7534 163.743 14.903 163.364 14.9939V15.1076C163.777 15.1303 164.173 15.2572 164.552 15.4883C164.934 15.7155 165.247 16.0375 165.489 16.4542C165.732 16.8708 165.853 17.3746 165.853 17.9655C165.853 18.5678 165.707 19.1095 165.415 19.5905C165.124 20.0678 164.684 20.4447 164.097 20.7212C163.51 20.9977 162.771 21.136 161.881 21.136H157.171ZM159.279 19.3746H161.546C162.311 19.3746 162.862 19.2288 163.199 18.9371C163.54 18.6417 163.711 18.2629 163.711 17.8008C163.711 17.4561 163.626 17.1455 163.455 16.8689C163.285 16.5886 163.042 16.3689 162.728 16.2098C162.413 16.047 162.038 15.9655 161.603 15.9655H159.279V19.3746ZM159.279 14.4485H161.364C161.728 14.4485 162.056 14.3822 162.347 14.2496C162.639 14.1133 162.868 13.922 163.035 13.6758C163.205 13.4258 163.29 13.1303 163.29 12.7894C163.29 12.3386 163.131 11.9674 162.813 11.6758C162.499 11.3841 162.031 11.2383 161.41 11.2383H159.279V14.4485ZM169.181 21.136H166.931L171.028 9.49962H173.63L177.732 21.136H175.482L172.374 11.886H172.283L169.181 21.136ZM169.255 16.5735H175.391V18.2667H169.255V16.5735ZM177.347 11.2667V9.49962H186.631V11.2667H183.035V21.136H180.944V11.2667H177.347ZM187.91 11.2667V9.49962H197.194V11.2667H193.597V21.136H191.506V11.2667H187.91ZM198.984 21.136V9.49962H206.552V11.2667H201.092V14.4258H206.16V16.1928H201.092V19.3689H206.597V21.136H198.984ZM208.702 21.136V9.49962H213.066C213.96 9.49962 214.71 9.65493 215.316 9.96553C215.926 10.2761 216.386 10.7117 216.697 11.2723C217.011 11.8292 217.168 12.4788 217.168 13.2212C217.168 13.9674 217.009 14.6152 216.691 15.1644C216.377 15.7098 215.913 16.1322 215.299 16.4314C214.685 16.7269 213.931 16.8746 213.038 16.8746H209.93V15.1246H212.753C213.276 15.1246 213.704 15.0527 214.038 14.9087C214.371 14.761 214.617 14.547 214.776 14.2667C214.939 13.9826 215.02 13.6341 215.02 13.2212C215.02 12.8083 214.939 12.4561 214.776 12.1644C214.613 11.8689 214.365 11.6455 214.032 11.4939C213.699 11.3386 213.269 11.261 212.742 11.261H210.81V21.136H208.702ZM214.714 15.8633L217.594 21.136H215.242L212.413 15.8633H214.714ZM217.86 9.49962H220.241L223.087 14.6473H223.201L226.047 9.49962H228.428L224.195 16.7951V21.136H222.093V16.7951L217.86 9.49962ZM239.381 15.056C239.381 13.9147 239.525 12.8693 239.813 11.92C240.101 10.9707 240.485 10.1173 240.965 9.35999C241.445 8.60265 241.968 7.94132 242.533 7.37599L244.053 8.04799C243.52 8.61332 243.035 9.24799 242.597 9.95199C242.171 10.6453 241.829 11.4133 241.573 12.256C241.317 13.0987 241.189 14.032 241.189 15.056C241.189 16.0693 241.317 17.0027 241.573 17.856C241.829 18.6987 242.171 19.4667 242.597 20.16C243.035 20.8533 243.52 21.488 244.053 22.064L242.533 22.736C241.968 22.1707 241.445 21.5093 240.965 20.752C240.485 19.9947 240.101 19.1413 239.813 18.192C239.525 17.2427 239.381 16.1973 239.381 15.056ZM245.921 21.136V9.49962H253.489V11.2667H248.029V14.4258H253.097V16.1928H248.029V19.3689H253.535V21.136H245.921ZM261.964 12.6985C261.911 12.2023 261.687 11.8159 261.293 11.5394C260.903 11.2629 260.395 11.1246 259.77 11.1246C259.331 11.1246 258.954 11.1909 258.64 11.3235C258.325 11.4561 258.085 11.636 257.918 11.8633C257.752 12.0905 257.666 12.35 257.663 12.6417C257.663 12.8841 257.717 13.0943 257.827 13.2723C257.941 13.4504 258.094 13.6019 258.288 13.7269C258.481 13.8481 258.695 13.9504 258.93 14.0337C259.164 14.117 259.401 14.1871 259.64 14.2439L260.731 14.5167C261.17 14.6189 261.592 14.7572 261.998 14.9314C262.407 15.1057 262.772 15.3254 263.094 15.5905C263.42 15.8557 263.678 16.1758 263.867 16.5508C264.056 16.9258 264.151 17.3652 264.151 17.8689C264.151 18.5508 263.977 19.1511 263.628 19.6701C263.28 20.1852 262.776 20.5886 262.117 20.8803C261.462 21.1682 260.668 21.3121 259.736 21.3121C258.831 21.3121 258.045 21.172 257.378 20.8917C256.716 20.6114 256.197 20.2023 255.822 19.6644C255.45 19.1265 255.25 18.4712 255.219 17.6985H257.293C257.324 18.1038 257.449 18.4409 257.668 18.7098C257.888 18.9788 258.174 19.1795 258.526 19.3121C258.882 19.4447 259.28 19.511 259.719 19.511C260.178 19.511 260.579 19.4428 260.924 19.3064C261.272 19.1663 261.545 18.9731 261.742 18.7269C261.939 18.4769 262.039 18.1852 262.043 17.8519C262.039 17.5489 261.95 17.2989 261.776 17.1019C261.602 16.9011 261.358 16.7345 261.043 16.6019C260.733 16.4655 260.369 16.3443 259.952 16.2383L258.628 15.8973C257.67 15.6511 256.913 15.278 256.356 14.778C255.803 14.2742 255.526 13.6057 255.526 12.7723C255.526 12.0867 255.712 11.4864 256.083 10.9712C256.458 10.4561 256.967 10.0564 257.611 9.77235C258.255 9.48447 258.985 9.34053 259.799 9.34053C260.625 9.34053 261.348 9.48447 261.969 9.77235C262.594 10.0564 263.085 10.4523 263.441 10.9598C263.797 11.4636 263.981 12.0432 263.992 12.6985H261.964ZM272.354 12.6985C272.301 12.2023 272.078 11.8159 271.684 11.5394C271.294 11.2629 270.786 11.1246 270.161 11.1246C269.722 11.1246 269.345 11.1909 269.03 11.3235C268.716 11.4561 268.476 11.636 268.309 11.8633C268.142 12.0905 268.057 12.35 268.053 12.6417C268.053 12.8841 268.108 13.0943 268.218 13.2723C268.332 13.4504 268.485 13.6019 268.678 13.7269C268.871 13.8481 269.085 13.9504 269.32 14.0337C269.555 14.117 269.792 14.1871 270.03 14.2439L271.121 14.5167C271.561 14.6189 271.983 14.7572 272.388 14.9314C272.797 15.1057 273.163 15.3254 273.485 15.5905C273.811 15.8557 274.068 16.1758 274.258 16.5508C274.447 16.9258 274.542 17.3652 274.542 17.8689C274.542 18.5508 274.368 19.1511 274.019 19.6701C273.671 20.1852 273.167 20.5886 272.508 20.8803C271.852 21.1682 271.059 21.3121 270.127 21.3121C269.222 21.3121 268.436 21.172 267.769 20.8917C267.106 20.6114 266.587 20.2023 266.212 19.6644C265.841 19.1265 265.64 18.4712 265.61 17.6985H267.684C267.714 18.1038 267.839 18.4409 268.059 18.7098C268.279 18.9788 268.565 19.1795 268.917 19.3121C269.273 19.4447 269.671 19.511 270.11 19.511C270.568 19.511 270.97 19.4428 271.315 19.3064C271.663 19.1663 271.936 18.9731 272.133 18.7269C272.33 18.4769 272.43 18.1852 272.434 17.8519C272.43 17.5489 272.341 17.2989 272.167 17.1019C271.993 16.9011 271.748 16.7345 271.434 16.6019C271.123 16.4655 270.76 16.3443 270.343 16.2383L269.019 15.8973C268.061 15.6511 267.303 15.278 266.746 14.778C266.193 14.2742 265.917 13.6057 265.917 12.7723C265.917 12.0867 266.102 11.4864 266.474 10.9712C266.849 10.4561 267.358 10.0564 268.002 9.77235C268.646 9.48447 269.375 9.34053 270.19 9.34053C271.015 9.34053 271.739 9.48447 272.36 9.77235C272.985 10.0564 273.476 10.4523 273.832 10.9598C274.188 11.4636 274.371 12.0432 274.383 12.6985H272.354ZM280.665 15.056C280.665 16.1973 280.521 17.2427 280.233 18.192C279.945 19.1413 279.561 19.9947 279.081 20.752C278.612 21.5093 278.089 22.1707 277.513 22.736L275.993 22.064C276.527 21.488 277.007 20.8533 277.433 20.16C277.871 19.4667 278.217 18.6987 278.473 17.856C278.729 17.0027 278.857 16.0693 278.857 15.056C278.857 14.032 278.729 13.0987 278.473 12.256C278.217 11.4133 277.871 10.6453 277.433 9.95199C277.007 9.24799 276.527 8.61332 275.993 8.04799L277.513 7.37599C278.089 7.94132 278.612 8.60265 279.081 9.35999C279.561 10.1173 279.945 10.9707 280.233 11.92C280.521 12.8693 280.665 13.9147 280.665 15.056Z" fill="black"/>
<rect x="0.0233765" y="31.136" width="452" height="155" fill="#F7F7F7"/>
<rect x="73.7734" y="44.886" width="94.5" height="56.5" rx="4.25" fill="#EFEFEF" stroke="black" stroke-width="1.5"/>
<path d="M92.3166 85.136L101.964 66.0451V65.886H90.7257V61.8633H107.055V65.9428L97.3962 85.136H92.3166ZM118.859 85.4542C117.662 85.4466 116.507 85.2458 115.393 84.8519C114.287 84.458 113.295 83.8178 112.416 82.9314C111.537 82.0451 110.84 80.8708 110.325 79.4087C109.818 77.9466 109.564 76.1511 109.564 74.0223C109.571 72.0678 109.795 70.3216 110.234 68.7837C110.681 67.2383 111.318 65.9277 112.143 64.8519C112.977 63.7761 113.973 62.958 115.132 62.3973C116.291 61.8292 117.59 61.5451 119.03 61.5451C120.583 61.5451 121.954 61.8481 123.143 62.4542C124.333 63.0527 125.287 63.867 126.007 64.8974C126.734 65.9277 127.174 67.083 127.325 68.3633H122.473C122.283 67.5527 121.886 66.9163 121.28 66.4542C120.674 65.992 119.924 65.761 119.03 65.761C117.515 65.761 116.363 66.4201 115.575 67.7383C114.795 69.0564 114.397 70.8481 114.382 73.1133H114.541C114.89 72.4239 115.359 71.8367 115.95 71.3519C116.549 70.8595 117.227 70.4845 117.984 70.2269C118.749 69.9617 119.556 69.8292 120.405 69.8292C121.783 69.8292 123.011 70.1549 124.087 70.8064C125.162 71.4504 126.011 72.3367 126.632 73.4655C127.253 74.5943 127.564 75.886 127.564 77.3405C127.564 78.9163 127.196 80.3178 126.462 81.5451C125.734 82.7723 124.715 83.7345 123.405 84.4314C122.102 85.1208 120.587 85.4617 118.859 85.4542ZM118.837 81.5905C119.594 81.5905 120.272 81.4087 120.871 81.0451C121.469 80.6814 121.939 80.189 122.28 79.5678C122.621 78.9466 122.791 78.2496 122.791 77.4769C122.791 76.7042 122.621 76.011 122.28 75.3973C121.946 74.7837 121.484 74.2951 120.893 73.9314C120.302 73.5678 119.628 73.386 118.871 73.386C118.302 73.386 117.776 73.492 117.291 73.7042C116.814 73.9163 116.393 74.2117 116.03 74.5905C115.674 74.9693 115.393 75.4087 115.189 75.9087C114.984 76.4011 114.882 76.9277 114.882 77.4883C114.882 78.2383 115.052 78.9239 115.393 79.5451C115.742 80.1663 116.212 80.6625 116.802 81.0337C117.401 81.4049 118.079 81.5905 118.837 81.5905ZM143.791 80.7723V79.5451C143.791 78.6133 143.988 77.7572 144.382 76.9769C144.783 76.189 145.363 75.5602 146.121 75.0905C146.886 74.6133 147.818 74.3746 148.916 74.3746C150.03 74.3746 150.965 74.6095 151.723 75.0792C152.488 75.5489 153.064 76.1777 153.45 76.9655C153.844 77.7458 154.041 78.6057 154.041 79.5451V80.7723C154.041 81.7042 153.844 82.564 153.45 83.3519C153.056 84.1322 152.477 84.7572 151.712 85.2269C150.946 85.7042 150.015 85.9428 148.916 85.9428C147.802 85.9428 146.867 85.7042 146.109 85.2269C145.352 84.7572 144.776 84.1322 144.382 83.3519C143.988 82.564 143.791 81.7042 143.791 80.7723ZM147.098 79.5451V80.7723C147.098 81.3102 147.227 81.8178 147.484 82.2951C147.749 82.7723 148.227 83.011 148.916 83.011C149.605 83.011 150.075 82.7761 150.325 82.3064C150.583 81.8367 150.712 81.3254 150.712 80.7723V79.5451C150.712 78.992 150.59 78.4769 150.348 77.9996C150.105 77.5223 149.628 77.2837 148.916 77.2837C148.234 77.2837 147.761 77.5223 147.496 77.9996C147.23 78.4769 147.098 78.992 147.098 79.5451ZM131.848 67.4542V66.2269C131.848 65.2875 132.049 64.4277 132.45 63.6473C132.852 62.8595 133.431 62.2307 134.189 61.761C134.954 61.2913 135.878 61.0564 136.962 61.0564C138.083 61.0564 139.022 61.2913 139.78 61.761C140.537 62.2307 141.113 62.8595 141.507 63.6473C141.901 64.4277 142.098 65.2875 142.098 66.2269V67.4542C142.098 68.3936 141.897 69.2534 141.496 70.0337C141.102 70.814 140.522 71.439 139.757 71.9087C138.999 72.3708 138.068 72.6019 136.962 72.6019C135.855 72.6019 134.92 72.367 134.155 71.8973C133.397 71.4201 132.821 70.7951 132.427 70.0223C132.041 69.242 131.848 68.386 131.848 67.4542ZM135.177 66.2269V67.4542C135.177 68.0072 135.306 68.5186 135.564 68.9883C135.829 69.458 136.295 69.6928 136.962 69.6928C137.658 69.6928 138.132 69.458 138.382 68.9883C138.64 68.5186 138.768 68.0072 138.768 67.4542V66.2269C138.768 65.6739 138.647 65.1587 138.405 64.6814C138.162 64.2042 137.681 63.9655 136.962 63.9655C136.287 63.9655 135.821 64.208 135.564 64.6928C135.306 65.1777 135.177 65.689 135.177 66.2269ZM133.348 85.136L149.348 61.8633H152.325L136.325 85.136H133.348Z" fill="black"/>
<rect x="73.5234" y="115.636" width="95" height="56" rx="4.5" fill="#EFEFEF" stroke="black"/>
<path d="M94.8492 160.643V159.052L99.7711 153.952C100.297 153.399 100.73 152.913 101.071 152.497C101.416 152.075 101.674 151.675 101.845 151.296C102.015 150.917 102.101 150.515 102.101 150.089C102.101 149.606 101.987 149.189 101.76 148.839C101.532 148.484 101.222 148.211 100.829 148.022C100.436 147.828 99.9936 147.731 99.5012 147.731C98.9804 147.731 98.5258 147.837 98.1376 148.05C97.7493 148.264 97.451 148.564 97.2427 148.952C97.0343 149.341 96.9302 149.795 96.9302 150.316H94.835C94.835 149.431 95.0386 148.657 95.4458 147.994C95.853 147.331 96.4117 146.817 97.1219 146.452C97.8322 146.083 98.6395 145.899 99.5438 145.899C100.458 145.899 101.263 146.081 101.959 146.445C102.659 146.805 103.206 147.298 103.599 147.923C103.992 148.543 104.189 149.244 104.189 150.025C104.189 150.565 104.087 151.093 103.883 151.609C103.684 152.125 103.336 152.7 102.839 153.335C102.342 153.964 101.651 154.729 100.765 155.629L97.8748 158.654V158.761H104.423V160.643H94.8492ZM112.179 160.884C111.057 160.88 110.098 160.584 109.302 159.997C108.507 159.409 107.898 158.555 107.477 157.433C107.056 156.31 106.845 154.959 106.845 153.377C106.845 151.8 107.056 150.453 107.477 149.336C107.903 148.219 108.514 147.366 109.309 146.779C110.11 146.192 111.066 145.899 112.179 145.899C113.291 145.899 114.246 146.194 115.041 146.786C115.836 147.373 116.445 148.226 116.866 149.343C117.292 150.456 117.505 151.8 117.505 153.377C117.505 154.963 117.295 156.318 116.873 157.44C116.452 158.557 115.844 159.412 115.048 160.004C114.253 160.591 113.296 160.884 112.179 160.884ZM112.179 158.988C113.164 158.988 113.933 158.507 114.487 157.546C115.046 156.585 115.325 155.195 115.325 153.377C115.325 152.17 115.197 151.149 114.942 150.316C114.691 149.478 114.328 148.844 113.855 148.413C113.386 147.977 112.827 147.759 112.179 147.759C111.199 147.759 110.429 148.242 109.871 149.208C109.312 150.174 109.03 151.564 109.025 153.377C109.025 154.589 109.151 155.614 109.402 156.452C109.657 157.286 110.02 157.918 110.488 158.349C110.957 158.775 111.521 158.988 112.179 158.988ZM120.925 160.778C120.537 160.778 120.203 160.64 119.924 160.366C119.644 160.086 119.505 159.75 119.505 159.357C119.505 158.969 119.644 158.638 119.924 158.363C120.203 158.084 120.537 157.944 120.925 157.944C121.313 157.944 121.647 158.084 121.927 158.363C122.206 158.638 122.346 158.969 122.346 159.357C122.346 159.618 122.279 159.857 122.147 160.075C122.019 160.288 121.849 160.458 121.635 160.586C121.422 160.714 121.186 160.778 120.925 160.778ZM129.712 160.842C129.064 160.832 128.425 160.714 127.795 160.487C127.17 160.259 126.602 159.881 126.09 159.35C125.579 158.82 125.169 158.107 124.862 157.212C124.559 156.318 124.407 155.2 124.407 153.86C124.407 152.591 124.533 151.464 124.784 150.479C125.039 149.495 125.406 148.664 125.884 147.987C126.363 147.305 126.94 146.786 127.617 146.431C128.294 146.076 129.054 145.899 129.897 145.899C130.764 145.899 131.533 146.069 132.205 146.41C132.878 146.751 133.422 147.222 133.839 147.823C134.26 148.425 134.528 149.109 134.641 149.876H132.475C132.328 149.27 132.037 148.775 131.602 148.391C131.166 148.008 130.598 147.816 129.897 147.816C128.832 147.816 128.001 148.28 127.404 149.208C126.812 150.136 126.514 151.426 126.509 153.079H126.616C126.867 152.667 127.175 152.317 127.539 152.028C127.909 151.734 128.32 151.509 128.775 151.353C129.234 151.192 129.717 151.112 130.224 151.112C131.067 151.112 131.829 151.318 132.511 151.729C133.197 152.137 133.744 152.7 134.151 153.42C134.559 154.14 134.762 154.963 134.762 155.891C134.762 156.819 134.552 157.66 134.13 158.413C133.713 159.166 133.126 159.762 132.369 160.202C131.611 160.638 130.726 160.851 129.712 160.842ZM129.705 158.995C130.264 158.995 130.764 158.858 131.204 158.583C131.644 158.309 131.992 157.939 132.248 157.475C132.504 157.011 132.632 156.493 132.632 155.92C132.632 155.361 132.506 154.852 132.255 154.393C132.009 153.934 131.668 153.569 131.232 153.299C130.802 153.029 130.309 152.894 129.755 152.894C129.334 152.894 128.943 152.975 128.583 153.136C128.228 153.297 127.916 153.519 127.646 153.803C127.376 154.087 127.163 154.414 127.007 154.783C126.855 155.148 126.779 155.534 126.779 155.941C126.779 156.486 126.905 156.99 127.156 157.454C127.411 157.918 127.759 158.292 128.2 158.576C128.645 158.855 129.147 158.995 129.705 158.995ZM139.501 154.166V160.643H137.378V146.097H139.473V151.509H139.608C139.863 150.922 140.254 150.456 140.78 150.11C141.305 149.765 141.992 149.592 142.839 149.592C143.587 149.592 144.241 149.746 144.799 150.053C145.363 150.361 145.799 150.82 146.106 151.431C146.419 152.037 146.575 152.795 146.575 153.704V160.643H144.451V153.96C144.451 153.159 144.246 152.539 143.834 152.099C143.422 151.654 142.849 151.431 142.115 151.431C141.613 151.431 141.163 151.538 140.765 151.751C140.372 151.964 140.062 152.276 139.835 152.688C139.612 153.095 139.501 153.588 139.501 154.166Z" fill="black"/>
<path d="M88.6301 135.136V124.954H91.9164C92.6389 124.954 93.2421 125.085 93.726 125.347C94.2132 125.605 94.5795 125.965 94.8247 126.426C95.0733 126.883 95.1976 127.408 95.1976 128.002C95.1976 128.595 95.0733 129.119 94.8247 129.573C94.5795 130.027 94.2149 130.381 93.731 130.637C93.2471 130.892 92.6472 131.02 91.9313 131.02H89.1323V130.169H91.9064C92.4367 130.169 92.8775 130.082 93.2289 129.906C93.5835 129.73 93.847 129.48 94.0193 129.155C94.195 128.83 94.2828 128.446 94.2828 128.002C94.2828 127.558 94.195 127.17 94.0193 126.838C93.8437 126.504 93.5785 126.245 93.2239 126.063C92.8726 125.881 92.4284 125.789 91.8915 125.789H89.5598V135.136H88.6301ZM93.1195 130.542L95.6252 135.136H94.5513L92.0705 130.542H93.1195ZM100.284 135.295C99.571 135.295 98.9545 135.129 98.4341 134.798C97.9138 134.463 97.5111 134.001 97.226 133.411C96.9443 132.818 96.8034 132.135 96.8034 131.363C96.8034 130.594 96.9443 129.911 97.226 129.314C97.5111 128.714 97.9038 128.245 98.4043 127.907C98.9081 127.566 99.4898 127.395 100.149 127.395C100.564 127.395 100.963 127.471 101.347 127.624C101.732 127.773 102.077 128.003 102.382 128.315C102.69 128.623 102.933 129.013 103.112 129.483C103.291 129.951 103.381 130.504 103.381 131.144V131.581H97.4149V130.801H102.476C102.476 130.31 102.377 129.869 102.178 129.478C101.982 129.084 101.709 128.772 101.357 128.544C101.009 128.315 100.607 128.201 100.149 128.201C99.6654 128.201 99.2395 128.33 98.8716 128.588C98.5037 128.847 98.2154 129.188 98.0066 129.613C97.8011 130.037 97.6967 130.501 97.6934 131.005V131.472C97.6934 132.078 97.7978 132.609 98.0066 133.063C98.2187 133.514 98.5186 133.863 98.9064 134.112C99.2942 134.36 99.7532 134.485 100.284 134.485C100.645 134.485 100.961 134.428 101.233 134.316C101.508 134.203 101.739 134.052 101.924 133.863C102.113 133.671 102.256 133.461 102.352 133.232L103.192 133.505C103.076 133.827 102.885 134.123 102.62 134.395C102.358 134.667 102.03 134.886 101.636 135.051C101.245 135.214 100.794 135.295 100.284 135.295ZM105.331 135.136V127.5H106.191V128.673H106.271C106.423 128.279 106.677 127.969 107.031 127.743C107.389 127.515 107.818 127.4 108.319 127.4C108.846 127.4 109.278 127.524 109.616 127.773C109.958 128.018 110.213 128.356 110.382 128.787H110.447C110.619 128.363 110.899 128.027 111.287 127.778C111.678 127.526 112.152 127.4 112.709 127.4C113.418 127.4 113.978 127.624 114.389 128.071C114.8 128.515 115.006 129.165 115.006 130.02V135.136H114.121V130.02C114.121 129.417 113.967 128.965 113.658 128.663C113.35 128.361 112.944 128.211 112.44 128.211C111.857 128.211 111.408 128.39 111.093 128.747C110.778 129.105 110.621 129.56 110.621 130.11V135.136H109.716V129.941C109.716 129.424 109.572 129.006 109.283 128.688C108.995 128.37 108.589 128.211 108.065 128.211C107.714 128.211 107.397 128.297 107.116 128.469C106.837 128.641 106.617 128.882 106.455 129.19C106.295 129.495 106.216 129.846 106.216 130.244V135.136H105.331ZM119.481 135.31C119.021 135.31 118.6 135.221 118.219 135.042C117.837 134.859 117.534 134.597 117.309 134.256C117.083 133.911 116.971 133.494 116.971 133.003C116.971 132.625 117.042 132.307 117.184 132.049C117.327 131.79 117.529 131.578 117.791 131.412C118.053 131.247 118.363 131.116 118.721 131.02C119.079 130.923 119.473 130.849 119.904 130.796C120.331 130.743 120.693 130.696 120.988 130.657C121.286 130.617 121.513 130.554 121.669 130.468C121.825 130.381 121.903 130.242 121.903 130.05V129.871C121.903 129.351 121.747 128.941 121.435 128.643C121.127 128.341 120.683 128.191 120.103 128.191C119.553 128.191 119.104 128.312 118.755 128.554C118.411 128.796 118.169 129.081 118.03 129.409L117.189 129.105C117.362 128.688 117.6 128.355 117.905 128.106C118.21 127.854 118.552 127.674 118.93 127.564C119.307 127.452 119.69 127.395 120.078 127.395C120.37 127.395 120.673 127.433 120.988 127.51C121.306 127.586 121.601 127.718 121.873 127.907C122.144 128.093 122.365 128.353 122.534 128.688C122.703 129.019 122.787 129.44 122.787 129.951V135.136H121.903V133.928H121.848C121.742 134.153 121.584 134.372 121.376 134.584C121.167 134.796 120.905 134.97 120.59 135.106C120.275 135.242 119.906 135.31 119.481 135.31ZM119.601 134.5C120.071 134.5 120.479 134.395 120.824 134.186C121.168 133.978 121.434 133.701 121.619 133.356C121.808 133.008 121.903 132.625 121.903 132.208V131.104C121.836 131.167 121.725 131.223 121.569 131.273C121.417 131.323 121.24 131.368 121.037 131.407C120.839 131.444 120.64 131.475 120.441 131.502C120.242 131.528 120.063 131.551 119.904 131.571C119.473 131.624 119.105 131.707 118.8 131.82C118.495 131.933 118.262 132.088 118.099 132.287C117.937 132.483 117.856 132.735 117.856 133.043C117.856 133.507 118.021 133.867 118.353 134.122C118.684 134.374 119.1 134.5 119.601 134.5ZM125.151 135.136V127.5H126.041V135.136H125.151ZM125.604 126.187C125.422 126.187 125.266 126.126 125.137 126.003C125.007 125.877 124.943 125.726 124.943 125.551C124.943 125.375 125.007 125.226 125.137 125.103C125.266 124.977 125.422 124.914 125.604 124.914C125.786 124.914 125.942 124.977 126.071 125.103C126.2 125.226 126.265 125.375 126.265 125.551C126.265 125.726 126.2 125.877 126.071 126.003C125.942 126.126 125.786 126.187 125.604 126.187ZM129.267 130.363V135.136H128.382V127.5H129.242V128.698H129.321C129.5 128.307 129.779 127.993 130.157 127.758C130.538 127.52 131.008 127.4 131.569 127.4C132.082 127.4 132.533 127.508 132.921 127.723C133.312 127.935 133.615 128.249 133.831 128.663C134.049 129.077 134.159 129.586 134.159 130.189V135.136H133.274V130.244C133.274 129.618 133.098 129.122 132.747 128.757C132.399 128.393 131.931 128.211 131.345 128.211C130.944 128.211 130.587 128.297 130.276 128.469C129.964 128.641 129.717 128.89 129.535 129.215C129.356 129.536 129.267 129.919 129.267 130.363ZM136.499 135.136V127.5H137.389V135.136H136.499ZM136.952 126.187C136.769 126.187 136.613 126.126 136.484 126.003C136.355 125.877 136.29 125.726 136.29 125.551C136.29 125.375 136.355 125.226 136.484 125.103C136.613 124.977 136.769 124.914 136.952 124.914C137.134 124.914 137.29 124.977 137.419 125.103C137.548 125.226 137.613 125.375 137.613 125.551C137.613 125.726 137.548 125.877 137.419 126.003C137.29 126.126 137.134 126.187 136.952 126.187ZM140.614 130.363V135.136H139.729V127.5H140.589V128.698H140.669C140.848 128.307 141.126 127.993 141.504 127.758C141.885 127.52 142.356 127.4 142.916 127.4C143.43 127.4 143.881 127.508 144.268 127.723C144.66 127.935 144.963 128.249 145.178 128.663C145.397 129.077 145.506 129.586 145.506 130.189V135.136H144.621V130.244C144.621 129.618 144.446 129.122 144.094 128.757C143.746 128.393 143.279 128.211 142.692 128.211C142.291 128.211 141.935 128.297 141.624 128.469C141.312 128.641 141.065 128.89 140.883 129.215C140.704 129.536 140.614 129.919 140.614 130.363ZM150.75 138.159C150.23 138.159 149.774 138.091 149.383 137.955C148.992 137.822 148.662 137.64 148.394 137.408C148.125 137.176 147.916 136.916 147.767 136.627L148.493 136.15C148.602 136.342 148.748 136.531 148.931 136.717C149.116 136.903 149.356 137.057 149.651 137.179C149.95 137.302 150.316 137.363 150.75 137.363C151.426 137.363 151.972 137.194 152.386 136.856C152.803 136.518 153.012 135.993 153.012 135.28V133.56H152.933C152.83 133.792 152.682 134.024 152.49 134.256C152.298 134.485 152.046 134.675 151.735 134.828C151.426 134.98 151.043 135.056 150.586 135.056C149.976 135.056 149.434 134.906 148.96 134.604C148.49 134.302 148.119 133.872 147.847 133.311C147.578 132.748 147.444 132.077 147.444 131.298C147.444 130.526 147.575 129.846 147.837 129.26C148.102 128.673 148.472 128.216 148.945 127.887C149.419 127.559 149.971 127.395 150.601 127.395C151.068 127.395 151.456 127.478 151.764 127.644C152.073 127.806 152.32 128.008 152.505 128.25C152.694 128.492 152.842 128.728 152.948 128.956H153.037V127.5H153.902V135.335C153.902 135.981 153.765 136.513 153.49 136.931C153.214 137.348 152.84 137.657 152.366 137.855C151.892 138.058 151.353 138.159 150.75 138.159ZM150.691 134.246C151.181 134.246 151.6 134.128 151.948 133.893C152.296 133.654 152.563 133.313 152.749 132.869C152.934 132.425 153.027 131.896 153.027 131.283C153.027 130.686 152.936 130.158 152.754 129.697C152.571 129.233 152.306 128.868 151.958 128.603C151.614 128.335 151.191 128.201 150.691 128.201C150.18 128.201 149.749 128.338 149.398 128.613C149.047 128.888 148.781 129.26 148.602 129.727C148.423 130.191 148.334 130.71 148.334 131.283C148.334 131.866 148.425 132.382 148.607 132.829C148.79 133.273 149.057 133.621 149.408 133.873C149.759 134.122 150.187 134.246 150.691 134.246Z" fill="black"/>
<path d="M51.7461 78.636L21.3008 78.636L36.5234 47.2815L51.7461 78.636Z" fill="#D9D9D9" stroke="black"/>
<path d="M51.7461 101.636L21.3008 101.636L36.5234 70.2815L51.7461 101.636Z" fill="#B9EEC7" stroke="black"/>
<path d="M51.7373 122.886L21.3096 122.886L36.5234 92.26L51.7373 122.886Z" fill="#7CDA8E" stroke="black"/>
<path d="M51.7305 146.136L21.3164 146.136L36.5234 116.238L51.7305 146.136Z" fill="#7CDA8E" stroke="black"/>
<path d="M51.7305 167.136L21.3164 167.136L36.5234 137.238L51.7305 167.136Z" fill="#7CDA8E" stroke="black"/>
<path d="M432.635 82.842L432.635 136.361C432.635 137.858 431.409 139.084 429.912 139.084L416.773 139.084L416.773 151.228C416.773 160.946 408.902 168.817 399.183 168.817L212.863 168.817C203.145 168.817 195.273 160.946 195.273 151.228L195.273 67.9758C195.273 58.2575 203.145 50.386 212.863 50.386L399.183 50.386C408.902 50.386 416.773 58.2575 416.773 67.9758L416.773 80.1184L429.912 80.1184C431.409 80.1184 432.635 81.3448 432.635 82.842ZM401.426 79.8684C401.425 71.5243 394.653 64.7523 386.309 64.7522L225.753 64.7522C217.408 64.7522 210.636 71.5242 210.635 79.8684L210.635 139.334C210.635 147.679 217.408 154.45 225.753 154.45L386.309 154.45C394.654 154.45 401.426 147.678 401.426 139.334L401.426 79.8684Z" fill="#D9D9D9" stroke="black" stroke-width="0.5"/>
<path d="M431.885 82.842L431.885 136.361C431.885 137.444 430.995 138.334 429.912 138.334L416.023 138.334L416.023 154.067C416.023 161.799 409.755 168.067 402.023 168.067L210.023 168.067C202.291 168.067 196.023 161.799 196.023 154.067L196.023 65.136C196.023 57.4041 202.291 51.1361 210.023 51.136L402.023 51.136C409.755 51.136 416.023 57.404 416.023 65.136L416.023 80.8684L429.912 80.8684C430.995 80.8684 431.885 81.759 431.885 82.842Z" stroke="black" stroke-width="2"/>
<path d="M347.431 145.383L347.431 72.3833L309.431 72.3833L309.431 145.383L347.431 145.383Z" fill="#7CDA8E"/>
<path d="M225.296 72.136L258.023 72.136L258.023 145.136L227.114 145.136C221.66 145.136 218.023 142.529 218.023 138.184L218.023 79.0884C218.023 75.6122 221.66 72.136 225.296 72.136Z" fill="#7CDA8E"/>
<path d="M387.114 72.3833L356.023 72.3833L356.023 145.383L385.387 145.383C390.569 145.383 394.023 142.776 394.023 138.431L394.023 79.3357C394.023 75.8595 390.569 72.3833 387.114 72.3833Z" fill="#B9EEC7"/>
<path d="M301.431 145.383L301.431 72.3833L265.431 72.3833L265.431 145.383L301.431 145.383Z" fill="#7CDA8E"/>
</svg>
