<svg width="293" height="187" viewBox="0 0 293 187" fill="none" xmlns="http://www.w3.org/2000/svg">
<rect width="293" height="32" fill="#D9D9D9"/>
<rect y="32" width="293" height="155" fill="#F7F7F7"/>
<rect x="20" y="46" width="253" height="126" rx="9" fill="#F7F7F7" stroke="black" stroke-width="2"/>
<path d="M87.7452 91.9906L175.516 91.5161C177.167 91.5072 178.5 90.1667 178.5 88.5162V72.5C178.5 72.5 178.903 68.3838 180.5 66.5C182.049 64.6733 185.714 63.7747 186.733 63.5546C186.912 63.516 187.092 63.5 187.275 63.5H194.901C195.611 63.5 196.297 63.7515 196.839 64.2098L201.424 68.0897C202.106 68.6664 203.008 68.9084 203.893 68.7945C206.119 68.508 210.529 68.1168 213.5 69C216.152 69.7884 216.443 70.0891 219.5 72C223.5 74.5 223.5 79 223.5 79V112C223.5 113.657 222.157 115 220.5 115H216.559C216.216 115 215.903 114.806 215.75 114.5C215.597 114.194 215.284 114 214.941 114H209C207.343 114 206 115.343 206 117V120C206 121.657 204.657 123 203 123H200C198.343 123 197 124.343 197 126V149C197 150.657 195.657 152 194 152H188C186.343 152 185 153.343 185 155C185 156.657 183.657 158 182 158H89C87.6193 158 86.5 156.881 86.5 155.5V155.25C86.5 154.007 85.4926 153 84.25 153C83.0074 153 82 151.993 82 150.75V121C82 119.343 80.6569 118 79 118H78C76.3431 118 75 116.657 75 115V98.5C75 96.8431 76.3431 95.5 78 95.5H84.2453C85.2144 95.5 86 94.7144 86 93.7453C86 92.7799 86.7798 91.9958 87.7452 91.9906Z" fill="#EFEFEF" stroke="black" stroke-width="2"/>
<path fill-rule="evenodd" clip-rule="evenodd" d="M187.5 113.5H184.5V97.5H187.5V113.5ZM185 113H187V98H185V113Z" fill="black"/>
<path fill-rule="evenodd" clip-rule="evenodd" d="M209.5 72C215.842 72 221 76.9335 221 83C221 89.0665 215.842 94 209.5 94C203.158 94 198 89.0665 198 83C198 76.9335 203.158 72 209.5 72ZM209.5 72.5C203.413 72.5 198.5 77.2304 198.5 83C198.5 88.7696 203.413 93.5 209.5 93.5C215.587 93.5 220.5 88.7696 220.5 83C220.5 77.2304 215.587 72.5 209.5 72.5Z" fill="black"/>
<path fill-rule="evenodd" clip-rule="evenodd" d="M195.943 63C196.219 63 196.482 63.114 196.671 63.3145L202.5 69H212.5C217.876 69.0001 224 74.6661 224 80V111.959C224 113.608 222.669 114.948 221.02 114.959L217.638 114.98C216.749 114.986 215.952 114.606 215.399 114H206V123H185V158H86V117.825C85.6869 117.936 85.3511 118 85 118H78C76.3431 118 75 116.657 75 115V98C75 96.3431 76.3431 95 78 95H85C85.351 95 85.6869 95.0631 86 95.1738V92H100V153H173V92C173 92 176.657 92 179 92C178.448 92 178 91.5523 178 91V73.29C178 67.6114 182.263 63 187.52 63H195.943ZM187.52 63.5C182.575 63.5 178.5 67.85 178.5 73.29V91C178.5 91.2761 178.724 91.5 179 91.5C179 91.5 179 91.8047 179 92C179 92.1953 179 92.5 179 92.5H173.5V153.5H99.5V92.5H86.5V95.8809L85.833 95.6455C85.57 95.5525 85.2905 95.5 85 95.5H78C76.6193 95.5 75.5 96.6193 75.5 98V115C75.5 116.381 76.6193 117.5 78 117.5H85C85.2898 117.5 85.569 117.447 85.833 117.354L86.5 117.118V157.5H184.5V122.5H205.5V113.5H215.62L215.769 113.663C216.23 114.169 216.895 114.485 217.635 114.48L221.017 114.459C222.391 114.45 223.5 113.333 223.5 111.959V80C223.5 77.5159 222.064 74.8885 219.923 72.8633C217.85 70.9026 215.196 69.5844 212.737 69.5039L212.5 69.5H202.297L202.151 69.3584L196.322 63.6729L196.307 63.6572C196.212 63.5568 196.081 63.5 195.943 63.5H187.52Z" fill="black"/>
<path fill-rule="evenodd" clip-rule="evenodd" d="M83.5 119C84.3284 119 85 119.672 85 120.5V151.5C85 152.328 84.3284 153 83.5 153C82.6716 153 82 152.328 82 151.5V120.5C82 119.672 82.6716 119 83.5 119ZM83.5 119.5C82.9477 119.5 82.5 119.948 82.5 120.5V151.5C82.5 152.052 82.9477 152.5 83.5 152.5C84.0523 152.5 84.5 152.052 84.5 151.5V120.5C84.5 119.948 84.0523 119.5 83.5 119.5Z" fill="black"/>
<path fill-rule="evenodd" clip-rule="evenodd" d="M112.143 135C112.616 135 113 135.423 113 135.944V151.056C113 151.577 112.616 152 112.143 152H101.857C101.384 152 101 151.577 101 151.056V135.944C101 135.423 101.384 135 101.857 135H112.143ZM101.857 135.5C101.705 135.5 101.5 135.652 101.5 135.944V151.056C101.5 151.348 101.704 151.5 101.857 151.5H112.143C112.296 151.5 112.5 151.348 112.5 151.056V135.944C112.5 135.652 112.295 135.5 112.143 135.5H101.857Z" fill="black"/>
<path fill-rule="evenodd" clip-rule="evenodd" d="M127.071 135C127.584 135 128 135.423 128 135.944V151.056C128 151.577 127.584 152 127.071 152H115.929C115.416 152 115 151.577 115 151.056V135.944C115 135.423 115.416 135 115.929 135H127.071ZM115.929 135.5C115.7 135.5 115.5 135.691 115.5 135.944V151.056C115.5 151.309 115.7 151.5 115.929 151.5H127.071C127.3 151.5 127.5 151.309 127.5 151.056V135.944C127.5 135.691 127.3 135.5 127.071 135.5H115.929Z" fill="black"/>
<path fill-rule="evenodd" clip-rule="evenodd" d="M142.071 135C142.584 135 143 135.423 143 135.944V151.056C143 151.577 142.584 152 142.071 152H130.929C130.416 152 130 151.577 130 151.056V135.944C130 135.423 130.416 135 130.929 135H142.071ZM130.929 135.5C130.7 135.5 130.5 135.691 130.5 135.944V151.056C130.5 151.309 130.7 151.5 130.929 151.5H142.071C142.3 151.5 142.5 151.309 142.5 151.056V135.944C142.5 135.691 142.3 135.5 142.071 135.5H130.929Z" fill="black"/>
<path fill-rule="evenodd" clip-rule="evenodd" d="M157.071 135C157.584 135 158 135.423 158 135.944V151.056C158 151.577 157.584 152 157.071 152H145.929C145.416 152 145 151.577 145 151.056V135.944C145 135.423 145.416 135 145.929 135H157.071ZM145.929 135.5C145.7 135.5 145.5 135.691 145.5 135.944V151.056C145.5 151.309 145.7 151.5 145.929 151.5H157.071C157.3 151.5 157.5 151.309 157.5 151.056V135.944C157.5 135.691 157.3 135.5 157.071 135.5H145.929Z" fill="black"/>
<path fill-rule="evenodd" clip-rule="evenodd" d="M171.143 135C171.616 135 172 135.423 172 135.944V151.056C172 151.577 171.616 152 171.143 152H160.857C160.384 152 160 151.577 160 151.056V135.944C160 135.423 160.384 135 160.857 135H171.143ZM160.857 135.5C160.705 135.5 160.5 135.652 160.5 135.944V151.056C160.5 151.348 160.704 151.5 160.857 151.5H171.143C171.296 151.5 171.5 151.348 171.5 151.056V135.944C171.5 135.652 171.295 135.5 171.143 135.5H160.857Z" fill="black"/>
<path fill-rule="evenodd" clip-rule="evenodd" d="M195 125C196.105 125 197 125.895 197 127V150C197 151.105 196.105 152 195 152H189C187.895 152 187 151.105 187 150V127C187 125.895 187.895 125 189 125H195ZM189 125.5C188.172 125.5 187.5 126.172 187.5 127V150C187.5 150.828 188.172 151.5 189 151.5H195C195.828 151.5 196.5 150.828 196.5 150V127C196.5 126.172 195.828 125.5 195 125.5H189Z" fill="black"/>
<path fill-rule="evenodd" clip-rule="evenodd" d="M172 134H101V120H172V134ZM101.5 133.5H171.5V120.5H101.5V133.5Z" fill="black"/>
<path fill-rule="evenodd" clip-rule="evenodd" d="M172 119H101V102H172V119ZM101.5 118.5H171.5V102.5H101.5V118.5Z" fill="black"/>
<path fill-rule="evenodd" clip-rule="evenodd" d="M172 101H101V92H172V101ZM101.5 100.5H171.5V92.5H101.5V100.5Z" fill="black"/>
<path d="M35.4297 97.75L62.5703 97.75L49 112.268L35.4297 97.75Z" fill="#EAB71D" stroke="black"/>
<path d="M35.4297 118.75L62.5703 118.75L49 133.268L35.4297 118.75Z" fill="#F7DC48" stroke="black"/>
<path d="M35.4297 139.75L62.5703 139.75L49 154.268L35.4297 139.75Z" fill="#D9D9D9" stroke="black"/>
<rect x="251" y="55" width="12" height="104" fill="#EFEFEF"/>
<rect x="251" y="110" width="12" height="49" fill="#53575A"/>
<rect x="251.25" y="55.25" width="11.5" height="103.5" stroke="#53575A" stroke-width="0.5"/>
<rect x="32.5" y="53.5" width="32" height="18" rx="3.5" stroke="black"/>
<rect x="76" y="53" width="40" height="19" rx="4" fill="#4FBF65"/>
<path d="M39.8608 58.2727H41.7955L44.3864 64.5966H44.4886L47.0795 58.2727H49.0142V67H47.4972V61.0043H47.4162L45.0043 66.9744H43.8707L41.4588 60.9915H41.3778V67H39.8608V58.2727ZM50.7358 67V58.2727H56.4119V59.598H52.3168V61.9673H56.1179V63.2926H52.3168V65.6747H56.446V67H50.7358Z" fill="black"/>
<path d="M209.824 142.841V141.165L214.761 133.364H216.159V135.75H215.307L211.983 141.017V141.108H218.875V142.841H209.824ZM215.375 145V142.33L215.398 141.58V133.364H217.386V145H215.375ZM224.736 145.159C223.978 145.159 223.3 145.017 222.702 144.733C222.103 144.445 221.628 144.051 221.276 143.551C220.927 143.051 220.741 142.479 220.719 141.835H222.764C222.802 142.312 223.009 142.703 223.384 143.006C223.759 143.305 224.209 143.455 224.736 143.455C225.149 143.455 225.516 143.36 225.838 143.17C226.16 142.981 226.414 142.718 226.599 142.381C226.785 142.044 226.876 141.659 226.872 141.227C226.876 140.788 226.783 140.398 226.594 140.057C226.404 139.716 226.145 139.449 225.815 139.256C225.486 139.059 225.107 138.96 224.679 138.96C224.33 138.956 223.988 139.021 223.651 139.153C223.313 139.286 223.046 139.46 222.849 139.676L220.946 139.364L221.554 133.364H228.304V135.125H223.298L222.963 138.21H223.031C223.247 137.956 223.552 137.746 223.946 137.58C224.34 137.409 224.772 137.324 225.241 137.324C225.946 137.324 226.575 137.491 227.128 137.824C227.681 138.153 228.116 138.608 228.435 139.188C228.753 139.767 228.912 140.43 228.912 141.176C228.912 141.945 228.734 142.631 228.378 143.233C228.026 143.831 227.535 144.303 226.906 144.648C226.281 144.989 225.558 145.159 224.736 145.159ZM237.037 142.818V142.205C237.037 141.754 237.132 141.339 237.321 140.96C237.514 140.581 237.795 140.277 238.162 140.045C238.529 139.814 238.974 139.699 239.497 139.699C240.035 139.699 240.486 139.814 240.849 140.045C241.213 140.273 241.488 140.576 241.673 140.955C241.863 141.333 241.957 141.75 241.957 142.205V142.818C241.957 143.269 241.863 143.684 241.673 144.062C241.484 144.441 241.205 144.746 240.838 144.977C240.474 145.208 240.027 145.324 239.497 145.324C238.967 145.324 238.518 145.208 238.151 144.977C237.783 144.746 237.505 144.441 237.315 144.062C237.13 143.684 237.037 143.269 237.037 142.818ZM238.52 142.205V142.818C238.52 143.117 238.592 143.392 238.736 143.642C238.88 143.892 239.134 144.017 239.497 144.017C239.865 144.017 240.116 143.894 240.253 143.648C240.393 143.398 240.463 143.121 240.463 142.818V142.205C240.463 141.902 240.397 141.625 240.264 141.375C240.132 141.121 239.876 140.994 239.497 140.994C239.141 140.994 238.889 141.121 238.741 141.375C238.594 141.625 238.52 141.902 238.52 142.205ZM231.122 136.159V135.545C231.122 135.091 231.219 134.674 231.412 134.295C231.605 133.917 231.885 133.614 232.253 133.386C232.62 133.155 233.065 133.04 233.588 133.04C234.122 133.04 234.571 133.155 234.935 133.386C235.302 133.614 235.579 133.917 235.764 134.295C235.95 134.674 236.043 135.091 236.043 135.545V136.159C236.043 136.614 235.948 137.03 235.759 137.409C235.573 137.784 235.296 138.085 234.929 138.312C234.562 138.54 234.115 138.653 233.588 138.653C233.054 138.653 232.603 138.54 232.236 138.312C231.872 138.085 231.596 137.782 231.406 137.403C231.217 137.025 231.122 136.61 231.122 136.159ZM232.616 135.545V136.159C232.616 136.462 232.687 136.739 232.827 136.989C232.971 137.235 233.224 137.358 233.588 137.358C233.952 137.358 234.202 137.235 234.338 136.989C234.478 136.739 234.548 136.462 234.548 136.159V135.545C234.548 135.242 234.482 134.966 234.349 134.716C234.217 134.462 233.963 134.335 233.588 134.335C233.228 134.335 232.976 134.462 232.832 134.716C232.688 134.97 232.616 135.246 232.616 135.545ZM231.77 145L239.77 133.364H241.19L233.19 145H231.77Z" fill="#53575A"/>
<path d="M208.004 159V148.818H209.849V157.454H214.333V159H208.004ZM224.635 153.909C224.635 155.006 224.43 155.946 224.019 156.728C223.611 157.507 223.055 158.103 222.349 158.518C221.646 158.932 220.849 159.139 219.957 159.139C219.066 159.139 218.267 158.932 217.561 158.518C216.858 158.1 216.301 157.502 215.89 156.723C215.483 155.941 215.279 155.003 215.279 153.909C215.279 152.812 215.483 151.874 215.89 151.095C216.301 150.313 216.858 149.715 217.561 149.3C218.267 148.886 219.066 148.679 219.957 148.679C220.849 148.679 221.646 148.886 222.349 149.3C223.055 149.715 223.611 150.313 224.019 151.095C224.43 151.874 224.635 152.812 224.635 153.909ZM222.781 153.909C222.781 153.137 222.66 152.486 222.418 151.955C222.18 151.422 221.848 151.019 221.424 150.747C221 150.472 220.511 150.335 219.957 150.335C219.404 150.335 218.915 150.472 218.491 150.747C218.066 151.019 217.733 151.422 217.491 151.955C217.253 152.486 217.133 153.137 217.133 153.909C217.133 154.681 217.253 155.334 217.491 155.868C217.733 156.398 218.066 156.801 218.491 157.076C218.915 157.348 219.404 157.484 219.957 157.484C220.511 157.484 221 157.348 221.424 157.076C221.848 156.801 222.18 156.398 222.418 155.868C222.66 155.334 222.781 154.681 222.781 153.909ZM227.14 159H225.171L228.756 148.818H231.033L234.622 159H232.653L229.934 150.906H229.854L227.14 159ZM227.205 155.008H232.574V156.489H227.205V155.008ZM239.414 159H235.963V148.818H239.483C240.494 148.818 241.362 149.022 242.088 149.43C242.817 149.834 243.378 150.416 243.769 151.175C244.16 151.934 244.355 152.842 244.355 153.899C244.355 154.96 244.158 155.871 243.764 156.634C243.373 157.396 242.807 157.981 242.068 158.388C241.333 158.796 240.448 159 239.414 159ZM237.808 157.404H239.324C240.033 157.404 240.625 157.275 241.099 157.016C241.573 156.754 241.929 156.365 242.168 155.848C242.406 155.328 242.526 154.678 242.526 153.899C242.526 153.12 242.406 152.474 242.168 151.96C241.929 151.443 241.576 151.057 241.109 150.802C240.645 150.543 240.068 150.414 239.379 150.414H237.808V157.404Z" fill="#53575A"/>
<path d="M83.8608 67V58.2727H87.1335C87.804 58.2727 88.3665 58.3892 88.821 58.6222C89.2784 58.8551 89.6236 59.1818 89.8565 59.6023C90.0923 60.0199 90.2102 60.5071 90.2102 61.0639C90.2102 61.6236 90.0909 62.1094 89.8523 62.5213C89.6165 62.9304 89.2685 63.2472 88.8082 63.4716C88.348 63.6932 87.7827 63.804 87.1122 63.804H84.7812V62.4915H86.8991C87.2912 62.4915 87.6122 62.4375 87.8622 62.3295C88.1122 62.2187 88.2969 62.0582 88.4162 61.848C88.5384 61.6349 88.5994 61.3736 88.5994 61.0639C88.5994 60.7543 88.5384 60.4901 88.4162 60.2713C88.294 60.0497 88.108 59.8821 87.858 59.7685C87.608 59.652 87.2855 59.5938 86.8906 59.5938H85.4418V67H83.8608ZM88.3693 63.0455L90.5298 67H88.7656L86.6435 63.0455H88.3693ZM97.1669 58.2727H98.7479V63.9744C98.7479 64.5994 98.6001 65.1491 98.3047 65.6236C98.0121 66.098 97.6001 66.4687 97.0689 66.7358C96.5376 67 95.9169 67.1321 95.2067 67.1321C94.4936 67.1321 93.8714 67 93.3402 66.7358C92.8089 66.4687 92.397 66.098 92.1044 65.6236C91.8118 65.1491 91.6655 64.5994 91.6655 63.9744V58.2727H93.2464V63.8423C93.2464 64.206 93.326 64.5298 93.4851 64.8139C93.647 65.098 93.8743 65.321 94.1669 65.483C94.4595 65.642 94.8061 65.7216 95.2067 65.7216C95.6072 65.7216 95.9538 65.642 96.2464 65.483C96.5419 65.321 96.7692 65.098 96.9283 64.8139C97.0874 64.5298 97.1669 64.206 97.1669 63.8423V58.2727ZM107.638 58.2727V67H106.232L102.12 61.0554H102.047V67H100.466V58.2727H101.881L105.989 64.2216H106.066V58.2727H107.638Z" fill="white"/>
<path d="M263 110L269 106.536L269 113.464L263 110Z" fill="#53575A"/>
<path d="M124.642 67L122.256 58.2727H123.33L125.153 65.3807H125.239L127.097 58.2727H128.29L130.148 65.3807H130.233L132.057 58.2727H133.131L130.744 67H129.653L127.727 60.0455H127.659L125.733 67H124.642ZM137.089 67.1193C136.504 67.1193 135.987 67.0156 135.538 66.8082C135.092 66.598 134.744 66.3097 134.494 65.9432C134.244 65.5739 134.121 65.1534 134.124 64.6818C134.121 64.3125 134.193 63.9716 134.341 63.6591C134.489 63.3437 134.69 63.081 134.946 62.8707C135.205 62.6577 135.493 62.5227 135.811 62.4659V62.4148C135.393 62.3068 135.061 62.0724 134.814 61.7116C134.567 61.348 134.445 60.9347 134.447 60.4716C134.445 60.0284 134.557 59.6321 134.784 59.2827C135.011 58.9332 135.324 58.6577 135.722 58.456C136.122 58.2543 136.578 58.1534 137.089 58.1534C137.595 58.1534 138.047 58.2543 138.445 58.456C138.842 58.6577 139.155 58.9332 139.382 59.2827C139.612 59.6321 139.729 60.0284 139.732 60.4716C139.729 60.9347 139.602 61.348 139.352 61.7116C139.105 62.0724 138.777 62.3068 138.368 62.4148V62.4659C138.683 62.5227 138.967 62.6577 139.22 62.8707C139.473 63.081 139.675 63.3437 139.825 63.6591C139.976 63.9716 140.053 64.3125 140.055 64.6818C140.053 65.1534 139.925 65.5739 139.672 65.9432C139.422 66.3097 139.074 66.598 138.628 66.8082C138.185 67.0156 137.672 67.1193 137.089 67.1193ZM137.089 66.1818C137.484 66.1818 137.825 66.1179 138.112 65.9901C138.399 65.8622 138.621 65.6818 138.777 65.4489C138.933 65.2159 139.013 64.9432 139.016 64.6307C139.013 64.3011 138.928 64.0099 138.76 63.7571C138.592 63.5043 138.364 63.3054 138.074 63.1605C137.787 63.0156 137.459 62.9432 137.089 62.9432C136.717 62.9432 136.385 63.0156 136.092 63.1605C135.803 63.3054 135.574 63.5043 135.406 63.7571C135.241 64.0099 135.161 64.3011 135.163 64.6307C135.161 64.9432 135.236 65.2159 135.389 65.4489C135.545 65.6818 135.768 65.8622 136.058 65.9901C136.348 66.1179 136.692 66.1818 137.089 66.1818ZM137.089 62.0398C137.402 62.0398 137.679 61.9773 137.92 61.8523C138.165 61.7273 138.357 61.5526 138.496 61.3281C138.635 61.1037 138.706 60.8409 138.709 60.5398C138.706 60.2443 138.636 59.9872 138.5 59.7685C138.364 59.5469 138.175 59.3764 137.933 59.2571C137.692 59.1349 137.411 59.0739 137.089 59.0739C136.763 59.0739 136.477 59.1349 136.233 59.2571C135.989 59.3764 135.8 59.5469 135.666 59.7685C135.533 59.9872 135.467 60.2443 135.47 60.5398C135.467 60.8409 135.534 61.1037 135.67 61.3281C135.81 61.5526 136.001 61.7273 136.246 61.8523C136.49 61.9773 136.771 62.0398 137.089 62.0398ZM142.2 58.2727L144.791 65.6193H144.893L147.484 58.2727H148.592L145.387 67H144.297L141.092 58.2727H142.2ZM152.747 67.1193C152.184 67.1193 151.683 67.0227 151.243 66.8295C150.805 66.6364 150.457 66.3679 150.199 66.0241C149.943 65.6776 149.804 65.2756 149.781 64.8182H150.855C150.877 65.0994 150.974 65.3423 151.145 65.5469C151.315 65.7486 151.538 65.9048 151.814 66.0156C152.089 66.1264 152.395 66.1818 152.73 66.1818C153.105 66.1818 153.437 66.1165 153.727 65.9858C154.017 65.8551 154.244 65.6733 154.409 65.4403C154.574 65.2074 154.656 64.9375 154.656 64.6307C154.656 64.3097 154.576 64.027 154.417 63.7827C154.258 63.5355 154.025 63.3423 153.718 63.2031C153.412 63.0639 153.037 62.9943 152.593 62.9943H151.895V62.0568H152.593C152.94 62.0568 153.244 61.9943 153.505 61.8693C153.77 61.7443 153.975 61.5682 154.123 61.3409C154.274 61.1136 154.349 60.8466 154.349 60.5398C154.349 60.2443 154.284 59.9872 154.153 59.7685C154.022 59.5497 153.838 59.3793 153.599 59.2571C153.363 59.1349 153.085 59.0739 152.764 59.0739C152.463 59.0739 152.179 59.1293 151.912 59.2401C151.647 59.348 151.431 59.5057 151.264 59.7131C151.096 59.9176 151.005 60.1648 150.991 60.4545H149.968C149.985 59.9972 150.123 59.5966 150.382 59.2528C150.64 58.9062 150.978 58.6364 151.396 58.4432C151.816 58.25 152.278 58.1534 152.781 58.1534C153.321 58.1534 153.784 58.2628 154.17 58.4815C154.556 58.6974 154.853 58.983 155.061 59.3381C155.268 59.6932 155.372 60.0767 155.372 60.4886C155.372 60.9801 155.243 61.3991 154.984 61.7457C154.728 62.0923 154.38 62.3324 153.94 62.4659V62.5341C154.491 62.625 154.922 62.8594 155.231 63.2372C155.541 63.6122 155.696 64.0767 155.696 64.6307C155.696 65.1051 155.566 65.5312 155.308 65.9091C155.052 66.2841 154.703 66.5795 154.26 66.7955C153.816 67.0114 153.312 67.1193 152.747 67.1193ZM160.507 58.2727V67H159.45V59.3807H159.399L157.268 60.7955V59.7216L159.45 58.2727H160.507Z" fill="black"/>
<path d="M91.1477 10.3636H93.7273L97.1818 18.7955H97.3182L100.773 10.3636H103.352V22H101.33V14.0057H101.222L98.0057 21.9659H96.4943L93.2784 13.9886H93.1705V22H91.1477V10.3636ZM107.142 22H104.892L108.989 10.3636H111.591L115.693 22H113.443L110.335 12.75H110.244L107.142 22ZM107.216 17.4375H113.352V19.1307H107.216V17.4375ZM119.334 10.3636V22H117.226V10.3636H119.334ZM131.179 10.3636V22H129.304L123.821 14.0739H123.724V22H121.616V10.3636H123.503L128.98 18.2955H129.082V10.3636H131.179ZM137.445 22V10.3636H145.013V12.1307H139.553V15.2898H144.621V17.0568H139.553V20.233H145.058V22H137.445ZM156.726 10.3636V22H154.851L149.368 14.0739H149.271V22H147.163V10.3636H149.05L154.527 18.2955H154.629V10.3636H156.726ZM166.818 14.0795C166.723 13.7727 166.593 13.4981 166.426 13.2557C166.263 13.0095 166.066 12.7992 165.835 12.625C165.608 12.4508 165.347 12.3201 165.051 12.233C164.756 12.142 164.434 12.0966 164.085 12.0966C163.46 12.0966 162.903 12.2538 162.415 12.5682C161.926 12.8826 161.542 13.3447 161.261 13.9545C160.985 14.5606 160.847 15.2992 160.847 16.1705C160.847 17.0492 160.985 17.7936 161.261 18.4034C161.538 19.0133 161.922 19.4773 162.415 19.7955C162.907 20.1098 163.479 20.267 164.131 20.267C164.722 20.267 165.233 20.1534 165.665 19.9261C166.1 19.6989 166.436 19.3769 166.67 18.9602C166.905 18.5398 167.023 18.0473 167.023 17.483L167.5 17.5568H164.341V15.9091H169.062V17.3068C169.062 18.303 168.85 19.1648 168.426 19.892C168.002 20.6193 167.419 21.1799 166.676 21.5739C165.934 21.964 165.081 22.1591 164.119 22.1591C163.047 22.1591 162.106 21.9186 161.295 21.4375C160.489 20.9527 159.858 20.2652 159.403 19.375C158.953 18.4811 158.727 17.4205 158.727 16.1932C158.727 15.2538 158.86 14.4148 159.125 13.6761C159.394 12.9375 159.769 12.3106 160.25 11.7955C160.731 11.2765 161.295 10.8826 161.943 10.6136C162.591 10.3409 163.295 10.2045 164.057 10.2045C164.701 10.2045 165.301 10.2992 165.858 10.4886C166.415 10.6742 166.909 10.9394 167.341 11.2841C167.777 11.6288 168.134 12.0379 168.415 12.5114C168.695 12.9848 168.879 13.5076 168.966 14.0795H166.818ZM173.209 10.3636V22H171.101V10.3636H173.209ZM185.054 10.3636V22H183.179L177.696 14.0739H177.599V22H175.491V10.3636H177.378L182.855 18.2955H182.957V10.3636H185.054ZM187.351 22V10.3636H194.919V12.1307H189.459V15.2898H194.527V17.0568H189.459V20.233H194.964V22H187.351Z" fill="black"/>
</svg>
