<svg width="35" height="30" viewBox="0 0 35 30" fill="none" xmlns="http://www.w3.org/2000/svg">
<path d="M25.59 7.55998C24.765 1.88998 16.98 0.614976 15.585 0.614976L15.15 0.599976C12.75 0.599976 4.84502 1.21498 4.21502 9.01498C4.09502 10.08 3.52502 13.095 2.32502 14.295C2.04002 14.58 1.44002 15.18 1.71002 15.84C1.96502 16.47 2.67002 16.485 3.24002 16.485C3.33002 16.485 3.52502 16.485 3.67502 16.5C3.64502 16.785 3.58502 17.07 3.51002 17.355C3.46502 17.52 3.40502 17.7 3.40502 17.955C3.40502 18.255 3.51002 18.615 4.00502 18.825C3.72002 19.29 3.76502 19.755 4.14002 20.13C4.27502 20.25 4.33502 20.325 4.33502 21.345C4.33502 22.05 4.62002 22.65 5.16002 23.085C5.79002 23.55 6.58502 23.745 7.35002 23.625L7.50002 23.61C7.84502 23.55 8.20502 23.49 8.52002 23.49C8.98502 23.49 9.25502 23.595 9.45002 23.865C9.63002 24.105 9.81002 24.3 9.94502 24.45C10.455 25.005 10.83 25.41 10.83 27C10.83 28.2 10.995 28.68 11.04 28.755L11.175 29.115C11.205 29.19 11.28 29.235 11.355 29.235L22.53 29.22C22.59 29.22 22.65 29.19 22.695 29.145C22.74 29.1 22.74 29.025 22.725 28.965L22.515 28.245C22.5 28.185 20.73 22.125 23.205 17.685C23.595 16.98 23.94 16.395 24.24 15.87L24.27 15.84C26.01 12.825 26.28 12.36 25.59 7.55998ZM22.92 15.09C22.605 15.615 22.26 16.23 21.84 16.965C19.68 20.835 20.325 25.605 20.79 27.72L12.375 27.735C12.36 27.495 12.345 27.255 12.345 27.015C12.345 24.84 11.7 24.135 11.07 23.445C10.935 23.295 10.8 23.145 10.665 22.98C10.17 22.32 9.46502 21.99 8.50502 21.99C8.07002 21.99 7.63502 22.065 7.24502 22.125L7.11002 22.14C7.03502 22.155 6.96002 22.155 6.88502 22.155C6.78002 22.155 5.86502 22.125 5.86502 21.36C5.86502 20.37 5.80502 19.845 5.49002 19.38C5.62502 19.155 5.70002 18.885 5.70002 18.63C5.71502 18.18 5.46002 17.775 5.04002 17.595C5.10002 17.355 5.17502 16.995 5.25002 16.38C5.29502 16.05 5.19002 15.72 4.96502 15.465C4.65002 15.12 4.18502 15.015 3.78002 14.985C5.34002 13.02 5.74502 9.32998 5.77502 9.16498C6.28502 2.81998 12.525 2.12998 15.18 2.12998H15.6C15.675 2.12998 23.385 2.78998 24.105 7.78498C24.69 12.06 24.57 12.285 22.92 15.09Z" fill="#1561AB"/>
<path d="M22.7851 8.62495C22.7701 8.30995 22.4401 7.69495 22.2151 7.48495C21.9901 7.25995 21.7201 7.00495 21.7201 6.79495C21.7201 6.58495 21.6001 6.13495 21.0751 6.16495C20.5501 6.17995 20.5801 5.66995 20.3701 5.47495C20.1751 5.27995 19.9351 4.73995 19.5301 4.94995C19.1251 5.14495 19.0201 4.45495 18.6601 4.33495C18.3001 4.21495 17.9851 3.98995 17.4751 4.24495C16.9801 4.49995 16.9801 3.76495 16.8151 3.59995C16.6351 3.43495 16.1401 3.37495 15.8851 3.65995C15.6451 3.92995 15.1201 3.68995 14.8801 3.44995C14.6401 3.22495 13.9801 3.28495 13.8001 3.47995C13.6201 3.68995 12.8851 3.83995 12.5251 3.83995C12.1651 3.85495 11.4751 4.03495 11.4901 4.22995C11.4901 4.40995 10.4401 5.09995 9.84006 5.30995C9.22506 5.51995 9.19506 6.02995 9.21006 6.37495C9.22506 6.71995 8.83506 7.22995 8.43006 7.69495C8.02506 8.14495 8.29506 8.26495 8.20506 8.71495C8.11506 9.17995 8.22006 9.19495 8.05506 9.76495C7.89006 10.3349 8.44506 11.2499 8.44506 11.2499C8.44506 11.2499 9.25506 11.5199 9.27006 12.0449C9.28506 12.5849 10.0051 12.2849 10.2751 12.2699C10.5601 12.2549 11.1001 12.4349 11.6851 13.0049C12.2701 13.5749 12.3451 13.2749 12.8701 12.9599C13.3951 12.6449 13.5601 12.9299 13.9051 13.2749C14.0401 13.4249 14.2501 13.4999 14.4451 13.4999C14.6551 13.4849 14.8501 13.3949 14.9701 13.2449C15.2401 12.9449 16.1401 13.0199 16.6051 13.0049C17.0701 12.9899 16.8901 13.2899 16.6801 13.8599C16.4701 14.4299 17.1751 14.0699 17.4001 14.0549C17.6251 14.0549 17.6401 14.2949 17.9851 14.8199C18.3151 15.3599 18.7951 15.4049 19.1401 15.7499C19.5001 16.0949 19.8601 15.2549 20.2651 14.8049C20.6701 14.3549 21.2401 14.1749 21.8701 14.1449C22.5001 14.1149 22.2451 13.7099 22.2301 13.3649C22.2151 13.0199 22.2001 12.6449 22.4701 12.3299C22.7401 12.0299 23.0101 11.7299 22.7401 11.4599C22.4701 11.1899 22.7251 10.8899 22.9501 10.6199C23.1901 10.3499 23.0701 9.83995 22.7851 9.55495C22.5151 9.26995 22.8001 8.93995 22.7851 8.62495Z" fill="#1561AB"/>
<path d="M28.0063 23.945C28.2992 24.2379 28.7741 24.2379 29.067 23.945L33.8399 19.172C34.1328 18.8791 34.1328 18.4042 33.8399 18.1113C33.547 17.8184 33.0722 17.8184 32.7793 18.1113L28.5366 22.354L24.294 18.1113C24.0011 17.8184 23.5262 17.8184 23.2333 18.1113C22.9404 18.4042 22.9404 18.8791 23.2333 19.172L28.0063 23.945ZM28.5366 10.2439H27.7866V23.4146H28.5366H29.2866V10.2439H28.5366Z" fill="#1561AB"/>
</svg>
