<svg width="52" height="30" viewBox="0 0 52 30" fill="none" xmlns="http://www.w3.org/2000/svg">
<g clip-path="url(#clip0_189_233)">
<path d="M15.7105 29.4211H6.86855C6.28375 29.4211 5.72291 29.1888 5.3094 28.7753C4.89588 28.3618 4.66357 27.8009 4.66357 27.2161V9.04714C4.66357 8.46234 4.89588 7.9015 5.3094 7.48799C5.72291 7.07447 6.28375 6.84216 6.86855 6.84216H15.7105C16.2953 6.84216 16.8561 7.07447 17.2697 7.48799C17.6832 7.9015 17.9155 8.46234 17.9155 9.04714V27.2161C17.9155 27.8009 17.6832 28.3618 17.2697 28.7753C16.8561 29.1888 16.2953 29.4211 15.7105 29.4211ZM6.86855 8.60614C6.75159 8.60614 6.63942 8.65261 6.55672 8.73531C6.47402 8.81801 6.42756 8.93018 6.42756 9.04714V27.2161C6.42756 27.3331 6.47402 27.4453 6.55672 27.528C6.63942 27.6107 6.75159 27.6571 6.86855 27.6571H15.7105C15.8275 27.6571 15.9396 27.6107 16.0223 27.528C16.105 27.4453 16.1515 27.3331 16.1515 27.2161V9.04714C16.1515 8.93018 16.105 8.81801 16.0223 8.73531C15.9396 8.65261 15.8275 8.60614 15.7105 8.60614H6.86855Z" fill="#1561AB"/>
<path d="M12.7999 10.5906H9.75699C9.52307 10.5906 9.29873 10.4977 9.13333 10.3323C8.96792 10.1669 8.875 9.94257 8.875 9.70865C8.875 9.47473 8.96792 9.25039 9.13333 9.08499C9.29873 8.91958 9.52307 8.82666 9.75699 8.82666H12.7999C13.0338 8.82666 13.2581 8.91958 13.4235 9.08499C13.5889 9.25039 13.6818 9.47473 13.6818 9.70865C13.6818 9.94257 13.5889 10.1669 13.4235 10.3323C13.2581 10.4977 13.0338 10.5906 12.7999 10.5906ZM11.2784 26.9957C10.9513 26.9957 10.6316 26.8987 10.3597 26.717C10.0877 26.5352 9.87574 26.277 9.75057 25.9748C9.62541 25.6726 9.59266 25.3401 9.65647 25.0193C9.72028 24.6985 9.87778 24.4038 10.1091 24.1726C10.3403 23.9413 10.635 23.7838 10.9558 23.72C11.2766 23.6562 11.6091 23.6889 11.9113 23.8141C12.2135 23.9392 12.4717 24.1512 12.6535 24.4232C12.8352 24.6951 12.9322 25.0149 12.9322 25.3419C12.9322 25.7805 12.7579 26.2012 12.4478 26.5113C12.1377 26.8214 11.717 26.9957 11.2784 26.9957Z" fill="#1561AB"/>
<rect x="8.02637" y="12.1316" width="6.52632" height="9.94737" rx="0.5" stroke="#1561AB"/>
</g>
<g clip-path="url(#clip1_189_233)">
<path d="M47.4032 4.59338L27.1762 4.59706C26.6678 4.59706 26.2568 5.00436 26.2568 5.51279V18.3845C26.2568 18.6283 26.3537 18.8622 26.5261 19.0346C26.6985 19.207 26.9324 19.3039 27.1762 19.3039H47.4032C47.6471 19.3039 47.8809 19.207 48.0533 19.0346C48.2258 18.8622 48.3226 18.6283 48.3226 18.3845V5.51279C48.3226 5.26895 48.2258 5.03509 48.0533 4.86267C47.8809 4.69025 47.6471 4.59338 47.4032 4.59338ZM47.4032 18.3882H27.1762V5.51279H47.4032V18.3882Z" fill="#1561AB"/>
<path d="M49.2419 0.919434H25.3373C24.6058 0.919434 23.9042 1.21003 23.387 1.7273C22.8697 2.24457 22.5791 2.94613 22.5791 3.67766V22.0658C22.5789 22.7957 22.8682 23.4958 23.3836 24.0126C23.8989 24.5293 24.5983 24.8205 25.3281 24.8222H34.5314V25.9411L28.7925 26.6868C28.5734 26.7397 28.3815 26.8714 28.2532 27.0566C28.1249 27.2419 28.0692 27.4679 28.0967 27.6915C28.1241 27.9152 28.2329 28.121 28.4022 28.2697C28.5715 28.4184 28.7896 28.4996 29.015 28.498H45.5643C45.7892 28.4987 46.0066 28.4169 46.1752 28.2681C46.3439 28.1193 46.4522 27.9139 46.4796 27.6906C46.507 27.4674 46.4516 27.2419 46.3239 27.0567C46.1963 26.8716 46.0052 26.7396 45.7868 26.6859L40.0479 25.9411V24.8222H49.2511C49.981 24.8205 50.6803 24.5293 51.1957 24.0126C51.7111 23.4958 52.0004 22.7957 52.0002 22.0658V3.67766C52.0002 2.94613 51.7096 2.24457 51.1923 1.7273C50.675 1.21003 49.9735 0.919434 49.2419 0.919434ZM50.1613 22.0658C50.1613 22.5724 49.7485 22.9852 49.2419 22.9852H25.3373C24.8298 22.9852 24.4179 22.5724 24.4179 22.0658V3.67766C24.4179 3.43382 24.5148 3.19996 24.6872 3.02754C24.8596 2.85512 25.0935 2.75825 25.3373 2.75825H49.2419C49.7485 2.75825 50.1613 3.17015 50.1613 3.67766V22.0658Z" fill="#1561AB"/>
</g>
<defs>
<clipPath id="clip0_189_233">
<rect width="22.579" height="22.579" fill="white" transform="translate(0 6.84216)"/>
</clipPath>
<clipPath id="clip1_189_233">
<rect width="29.4211" height="29.4211" fill="white" transform="translate(22.5791)"/>
</clipPath>
</defs>
</svg>
