<svg width="1180" height="423" viewBox="0 0 1180 423" fill="none" xmlns="http://www.w3.org/2000/svg" xmlns:xlink="http://www.w3.org/1999/xlink">
<rect width="1180" height="423" fill="#F7F7F7"/>
<rect opacity="0.5" width="1180" height="328" fill="url(#pattern0_801_4374)"/>
<path d="M369.59 177.951H388.705C388.705 178.26 392.696 171.117 394.691 167.506L423.654 165.959V161.317H427.322V165.185L433.694 164.605V160.737H437.363V164.605H448.755L449.72 154.741L462.657 153L478.104 179.305L525.603 184.527L577.156 196.132H670.223V194.004H773.331V195.745H868.714L943.245 197.486V192.07L945.562 189.556L950.582 188.782L952.899 175.823L965.064 174.082L966.995 179.111H962.554L963.326 180.852H967.96L968.926 183.753H971.436V180.852L972.787 180.465L973.946 183.753L974.525 184.914L973.366 186.205H969.505L971.436 189.556H966.029V192.07H972.166L972.787 194.391H976.07V190.909H978V196.905H973.946L980.897 213.926H988.234H1000.98V165.572H1002.72V210.831H1008.12V217.021L1010.82 221.082L1011.4 222.243L1008.31 228.819H1014.3L1012.18 234.041L1041.14 277.173L1066.05 279.881L1117.6 288.004C1117.6 288.004 1122.53 290.568 1124.74 293.226C1126.99 295.926 1129.19 298.835 1128.61 301.35C1128.03 303.864 1116.6 310.978 1109.3 317.597C1101.39 324.764 1089.8 336.745 1089.8 336.745C1089.8 336.745 1087.76 339.053 1087.87 340.807C1087.96 342.359 1088.68 343.205 1089.8 344.288C1091.35 345.803 1095.01 346.222 1095.01 346.222L1114.9 348.35C1114.9 348.35 1125.34 350.293 1127.83 355.506C1129.69 359.389 1129.05 362.402 1127.83 366.531C1125.18 375.516 1116.72 376.314 1108.33 380.457C1094.82 387.132 1070.49 388 1070.49 388H145.805L137.888 375.428L119.159 376.782L116.649 386.453L116.07 377.556L114.718 376.202H106.802L105.836 383.938L104.678 385.486H91.1617L88.8446 354.346L53.317 351.638V345.062H51V339.453H53.317V336.938C53.317 336.938 76.2434 299.102 96.3749 279.687C116.432 260.345 128.286 247.131 154.88 238.877C163.482 236.206 177.471 234.235 177.471 234.235H194.977L201.22 223.403H258.049L263.2 214.466H348.544L369.59 177.951Z" fill="#EFEFEF" fill-opacity="0.5" stroke="black" stroke-opacity="0.3" stroke-width="2"/>
<rect opacity="0.5" y="313" width="1180" height="110" fill="#C8CCD0"/>
<path d="M0 313L1180 313" stroke="black" stroke-dasharray="3 3"/>
<defs>
<pattern id="pattern0_801_4374" patternUnits="userSpaceOnUse" patternTransform="matrix(36.4308 0 0 37 0 0)" preserveAspectRatio="none" viewBox="0 0 36.4308 37" width="1" height="1">
<use xlink:href="#pattern0_801_4374_inner" transform="translate(-36.4308 0)"/>
<g id="pattern0_801_4374_inner">
<path d="M0 6.83075H36.4308M0 18.7846H36.4308M0 30.7384H36.4308" stroke="#EFEFEF" stroke-width="0.5" stroke-linejoin="round"/>
<path d="M30.1693 0L30.1692 37M18.2154 -5.22519e-07L18.2154 37M6.26156 -1.04504e-06L6.26156 37" stroke="#EFEFEF" stroke-width="0.5" stroke-linejoin="round"/>
</g>
</pattern></defs>
</svg>
