<svg width="75" height="81" viewBox="0 0 75 81" fill="none" xmlns="http://www.w3.org/2000/svg">
<path d="M0.500057 79.5623L0.5 19.5984L37.9744 0.562256L74.4999 19.5984L74.5 79.5623H0.500057Z" fill="white" stroke="black"/>
<path d="M3.5 23.8981L37.5 6.56226L71.5 23.8981L68.6527 29.5623L37.5 14.1145L6.34729 29.5623L3.5 23.8981Z" stroke="black" stroke-width="0.5"/>
<circle cx="18.5" cy="42.5623" r="4.75" stroke="black" stroke-width="0.5"/>
<path d="M15.5866 49.8016H25.8386V41.7674C25.8386 41.7674 26.3303 40.9042 26.8307 40.5708C27.5447 40.0952 28.9803 40.2289 28.9803 40.2289L65.3583 43.9896C65.3583 43.9896 66.6999 44.2859 67.3425 44.8443C67.987 45.4044 68.5 46.7247 68.5 46.7247V54.246H25.8386H15.5866C15.5866 54.246 13.437 54.0751 13.437 52.0238C13.437 49.9725 15.5866 49.8016 15.5866 49.8016Z" stroke="black" stroke-width="0.5"/>
<path d="M5.5 73.5623V35.7845C5.5 35.7845 5.66535 33.5622 7.98031 33.5623C10.2953 33.5623 10.4606 35.7845 10.4606 35.7845V58.3486H68.5V73.5623H63.5394V63.3058H10.4606V73.5623H5.5Z" stroke="black" stroke-width="0.5"/>
</svg>
