<svg width="128" height="65" viewBox="0 0 128 65" fill="none" xmlns="http://www.w3.org/2000/svg">
<rect x="0.5" y="9.5" width="127" height="51" rx="25.5" fill="white" stroke="black"/>
<path d="M30 9.5V60.5" stroke="black" stroke-width="0.5"/>
<path d="M100 9.5V60.5" stroke="black" stroke-width="0.5"/>
<path d="M54.2667 44V29.4545H56.9016V35.6122H63.6417V29.4545H66.2837V44H63.6417V37.821H56.9016V44H54.2667ZM68.4904 44V42.858L71.5202 39.8878C71.81 39.5952 72.0515 39.3352 72.2447 39.108C72.4379 38.8807 72.5827 38.6605 72.6793 38.4474C72.7759 38.2344 72.8242 38.0071 72.8242 37.7656C72.8242 37.4901 72.7617 37.2543 72.6367 37.0582C72.5117 36.8594 72.3398 36.706 72.1211 36.598C71.9023 36.4901 71.6538 36.4361 71.3754 36.4361C71.0884 36.4361 70.837 36.4957 70.6211 36.6151C70.4052 36.7315 70.2376 36.8977 70.1183 37.1136C70.0018 37.3295 69.9435 37.5866 69.9435 37.8849H68.4393C68.4393 37.331 68.5657 36.8494 68.8185 36.4403C69.0714 36.0312 69.4194 35.7145 69.8626 35.4901C70.3086 35.2656 70.82 35.1534 71.3967 35.1534C71.9819 35.1534 72.4961 35.2628 72.9393 35.4815C73.3825 35.7003 73.7262 36 73.9705 36.3807C74.2177 36.7614 74.3413 37.196 74.3413 37.6847C74.3413 38.0114 74.2788 38.3324 74.1538 38.6477C74.0288 38.9631 73.8086 39.3125 73.4933 39.696C73.1808 40.0795 72.7418 40.544 72.1765 41.0895L70.6722 42.6193V42.679H74.4734V44H68.4904Z" fill="black"/>
<rect x="26.25" y="5.25" width="7.5" height="4.5" stroke="black" stroke-width="0.5"/>
<rect x="27.25" y="60.25" width="5.5" height="4.5" stroke="black" stroke-width="0.5"/>
<rect x="96.25" y="5.25" width="7.5" height="4.5" stroke="black" stroke-width="0.5"/>
<rect x="97.25" y="60.25" width="5.5" height="4.5" stroke="black" stroke-width="0.5"/>
<rect x="24.25" y="0.25" width="11.5" height="4.5" stroke="black" stroke-width="0.5"/>
<rect x="94.25" y="0.25" width="11.5" height="4.5" stroke="black" stroke-width="0.5"/>
</svg>
