<svg width="134" height="101" viewBox="0 0 134 101" fill="none" xmlns="http://www.w3.org/2000/svg">
<path opacity="0.5" d="M-4.07696e-05 97.6667C-4.07696e-05 99.1395 1.19387 100.333 2.66663 100.333C4.13939 100.333 5.33329 99.1395 5.33329 97.6667C5.33329 96.194 4.13939 95.0001 2.66663 95.0001C1.19387 95.0001 -4.07696e-05 96.194 -4.07696e-05 97.6667ZM128 2.66675C128 4.13951 129.194 5.33341 130.667 5.33341C132.139 5.33341 133.333 4.13951 133.333 2.66675C133.333 1.19399 132.139 8.13007e-05 130.667 8.13007e-05C129.194 8.13007e-05 128 1.19399 128 2.66675ZM2.66663 97.6667V98.1667H120.667V97.6667V97.1667H2.66663V97.6667ZM130.667 87.6667H131.167V2.66675H130.667H130.167V87.6667H130.667ZM120.667 97.6667V98.1667C126.466 98.1667 131.167 93.4657 131.167 87.6667H130.667H130.167C130.167 92.9135 125.913 97.1667 120.667 97.1667V97.6667Z" fill="black"/>
</svg>
