<svg width="238" height="119" viewBox="0 0 238 119" fill="none" xmlns="http://www.w3.org/2000/svg">
<path d="M237.612 32.7061L237.612 86.2246C237.612 87.7218 236.386 88.9482 234.888 88.9482L221.75 88.9482L221.75 101.092C221.75 110.81 213.878 118.681 204.16 118.681L17.8396 118.681C8.12141 118.681 0.249973 110.81 0.249751 101.092L0.249755 17.8398C0.249756 8.12151 8.12128 0.250015 17.8396 0.24999L204.16 0.249999C213.878 0.249999 221.75 8.1215 221.75 17.8398L221.75 29.9824L234.888 29.9824C236.386 29.9824 237.612 31.2088 237.612 32.7061ZM206.402 29.7324C206.402 21.3883 199.63 14.6163 191.286 14.6162L30.7292 14.6162C22.385 14.6162 15.6122 21.3883 15.6121 29.7324L15.6121 89.1982C15.6121 97.5425 22.3849 104.314 30.7292 104.314L191.286 104.314C199.63 104.314 206.402 97.5425 206.402 89.1982L206.402 29.7324Z" fill="#D9D9D9" stroke="black" stroke-width="0.5"/>
<path d="M236.862 32.7061L236.862 86.2246C236.862 87.3076 235.971 88.1982 234.888 88.1982L221 88.1982L221 103.931C221 111.663 214.732 117.931 207 117.931L14.9998 117.931C7.26787 117.931 0.999751 111.663 0.999751 103.931L0.999755 15C0.999757 7.26808 7.26787 1.00011 14.9998 0.99999L207 0.999999C214.732 1.00005 221 7.26804 221 15L221 30.7324L234.888 30.7324C235.971 30.7324 236.862 31.623 236.862 32.7061Z" stroke="black" stroke-width="2"/>
<path d="M156.989 98.713L156.989 20.2185L115.363 20.2185L115.363 98.713L156.989 98.713Z" fill="#B9EEC7"/>
<path d="M28.9759 20.2185L63.0334 20.2185L63.0334 98.713L30.868 98.713C25.1918 98.713 21.4076 95.9096 21.4076 91.2373L21.4076 27.6942C21.4076 23.9563 25.1918 20.2185 28.9759 20.2185Z" fill="#7CDA8E"/>
<path d="M108.227 98.713L108.227 20.2185L70.1694 20.2185L70.1694 98.713L108.227 98.713Z" fill="#7CDA8E"/>
</svg>
