<svg width="72" height="72" viewBox="0 0 72 72" fill="none" xmlns="http://www.w3.org/2000/svg">
<path d="M63 0H9C4.02944 0 0 4.02944 0 9V63C0 67.9706 4.02944 72 9 72H63C67.9706 72 72 67.9706 72 63V9C72 4.02944 67.9706 0 63 0Z" fill="#53575A"/>
<mask id="mask0_893_4925" style="mask-type:luminance" maskUnits="userSpaceOnUse" x="3" y="3" width="66" height="66">
<path d="M62 3H10C6.13401 3 3 6.13401 3 10V62C3 65.866 6.13401 69 10 69H62C65.866 69 69 65.866 69 62V10C69 6.13401 65.866 3 62 3Z" fill="white"/>
</mask>
<g mask="url(#mask0_893_4925)">
<path d="M10 1C5.03 1 1 5.03 1 10H5C5 7.24 7.24 5 10 5V1ZM62 5C64.76 5 67 7.24 67 10H71C71 5.03 66.97 1 62 1V5ZM67 62C67 64.76 64.76 67 62 67V71C66.97 71 71 66.97 71 62H67ZM10 67C7.24 67 5 64.76 5 62H1C1 66.97 5.03 71 10 71V67ZM5 62V10H1V62H5ZM62 67H10V71H62V67ZM67 10V62H71V10H67ZM10 5H62V1H10V5Z" fill="#E6E9EC"/>
</g>
<path d="M46.9399 54.2499C46.9399 53.8299 46.8599 53.4899 46.6599 53.2499C46.4599 53.0099 46.17 52.8899 45.79 52.8899C45.59 52.8899 45.42 52.9299 45.27 52.9999C45.12 53.0699 44.9899 53.1699 44.8899 53.2999C44.7899 53.4199 44.7099 53.5699 44.6599 53.7299C44.5999 53.8899 44.5701 54.0599 44.5701 54.2399H46.95L46.9399 54.2499ZM47.75 54.4899C47.75 54.6199 47.7199 54.7099 47.6499 54.7599C47.5899 54.8099 47.5199 54.8399 47.4399 54.8399H44.5601C44.5601 55.0799 44.5799 55.2999 44.6299 55.4999C44.6799 55.6999 44.7601 55.8599 44.8701 55.9999C44.9801 56.1399 45.1301 56.2499 45.3101 56.3199C45.4901 56.3899 45.72 56.4299 45.98 56.4299C46.19 56.4299 46.37 56.4099 46.54 56.3799C46.7 56.3399 46.84 56.3099 46.96 56.2599C47.08 56.2199 47.18 56.1799 47.25 56.1499C47.33 56.1099 47.3899 56.0999 47.4299 56.0999C47.4499 56.0999 47.47 56.0999 47.49 56.1199C47.51 56.1199 47.52 56.1499 47.53 56.1699C47.53 56.1899 47.55 56.2299 47.55 56.2699C47.55 56.3099 47.55 56.3599 47.55 56.4199C47.55 56.4599 47.55 56.4999 47.55 56.5299C47.55 56.5599 47.55 56.5899 47.54 56.6099C47.54 56.6299 47.53 56.6499 47.52 56.6699C47.52 56.6899 47.5 56.7099 47.48 56.7299C47.46 56.7499 47.4101 56.7799 47.3201 56.8199C47.2301 56.8599 47.12 56.8999 46.98 56.9399C46.84 56.9799 46.68 57.0099 46.49 57.0399C46.31 57.0699 46.1099 57.0899 45.8999 57.0899C45.5399 57.0899 45.22 57.0399 44.95 56.9399C44.68 56.8399 44.45 56.6899 44.27 56.4899C44.08 56.2899 43.9401 56.0399 43.8501 55.7399C43.7601 55.4399 43.71 55.0899 43.71 54.6999C43.71 54.3099 43.7601 53.9799 43.8601 53.6799C43.9601 53.3799 44.1 53.1199 44.28 52.9099C44.47 52.6999 44.69 52.5399 44.95 52.4299C45.21 52.3199 45.5001 52.2599 45.8201 52.2599C46.1601 52.2599 46.46 52.3199 46.7 52.4299C46.94 52.5399 47.14 52.6899 47.3 52.8799C47.46 53.0699 47.5699 53.2899 47.6399 53.5399C47.7099 53.7899 47.75 54.0599 47.75 54.3499V54.4999V54.4899ZM42.53 56.8799C42.53 56.8799 42.53 56.9299 42.51 56.9499C42.5 56.9699 42.48 56.9799 42.45 56.9899C42.42 56.9999 42.3801 57.0099 42.3301 57.0199C42.2801 57.0199 42.2099 57.0199 42.1299 57.0199C42.0499 57.0199 41.9799 57.0199 41.9299 57.0199C41.8799 57.0199 41.84 56.9999 41.8 56.9899C41.77 56.9799 41.75 56.9599 41.74 56.9499C41.73 56.9299 41.72 56.9099 41.72 56.8799V54.2099C41.72 54.0199 41.6999 53.8599 41.6699 53.6999C41.6399 53.5499 41.59 53.4199 41.51 53.2999C41.44 53.1899 41.35 53.0999 41.24 53.0499C41.13 52.9899 41.0001 52.9599 40.8501 52.9599C40.6601 52.9599 40.48 53.0299 40.29 53.1699C40.1 53.3099 39.8999 53.5199 39.6699 53.7999V56.8699C39.6699 56.8699 39.6699 56.9199 39.6499 56.9399C39.6399 56.9599 39.6101 56.9699 39.5801 56.9799C39.5501 56.9899 39.51 56.9999 39.46 57.0099C39.41 57.0099 39.34 57.0099 39.26 57.0099C39.18 57.0099 39.1201 57.0099 39.0601 57.0099C39.0101 57.0099 38.9699 56.9899 38.9299 56.9799C38.8999 56.9699 38.8801 56.9499 38.8701 56.9399C38.8701 56.9199 38.8601 56.8999 38.8601 56.8699V54.1999C38.8601 54.0099 38.8401 53.8499 38.8101 53.6899C38.7701 53.5399 38.7199 53.4099 38.6499 53.2899C38.5799 53.1799 38.4899 53.0899 38.3799 53.0399C38.2699 52.9799 38.14 52.9499 37.99 52.9499C37.8 52.9499 37.6199 53.0199 37.4299 53.1599C37.2399 53.2999 37.0401 53.5099 36.8101 53.7899V56.8599C36.8101 56.8599 36.81 56.9099 36.79 56.9299C36.78 56.9499 36.76 56.9599 36.73 56.9699C36.7 56.9799 36.6601 56.9899 36.6101 56.9999C36.5601 56.9999 36.4899 56.9999 36.4099 56.9999C36.3299 56.9999 36.27 56.9999 36.21 56.9999C36.16 56.9999 36.1201 56.9799 36.0801 56.9699C36.0501 56.9599 36.03 56.9399 36.02 56.9299C36.02 56.9099 36.01 56.8899 36.01 56.8599V52.4699C36.01 52.4699 36.01 52.4199 36.02 52.4099C36.02 52.3899 36.0501 52.3699 36.0801 52.3599C36.1101 52.3399 36.1499 52.3299 36.1899 52.3299C36.2399 52.3299 36.3001 52.3299 36.3701 52.3299C36.4401 52.3299 36.5 52.3299 36.55 52.3299C36.6 52.3299 36.6399 52.3399 36.6599 52.3599C36.6899 52.3699 36.7 52.3899 36.71 52.4099C36.72 52.4299 36.73 52.4499 36.73 52.4699V53.0499C36.98 52.7699 37.22 52.5699 37.45 52.4399C37.68 52.3099 37.9199 52.2399 38.1599 52.2399C38.3399 52.2399 38.4999 52.2599 38.6499 52.2999C38.7999 52.3399 38.92 52.3999 39.04 52.4799C39.15 52.5499 39.2501 52.6499 39.3201 52.7499C39.4001 52.8499 39.46 52.9699 39.52 53.0999C39.67 52.9399 39.7999 52.8099 39.9399 52.6899C40.0699 52.5799 40.2001 52.4899 40.3201 52.4199C40.4401 52.3499 40.5599 52.2999 40.6799 52.2699C40.7999 52.2399 40.91 52.2199 41.03 52.2199C41.31 52.2199 41.55 52.2699 41.74 52.3699C41.93 52.4699 42.09 52.5999 42.2 52.7699C42.32 52.9399 42.41 53.1299 42.45 53.3599C42.5 53.5799 42.53 53.8199 42.53 54.0599V56.8399V56.8799ZM33.98 54.6899C33.98 54.4499 33.9599 54.2299 33.9099 54.0199C33.8699 53.8099 33.8 53.6199 33.7 53.4599C33.6 53.2999 33.46 53.1799 33.29 53.0799C33.12 52.9899 32.8999 52.9399 32.6499 52.9399C32.4099 52.9399 32.21 52.9799 32.03 53.0699C31.86 53.1499 31.7201 53.2799 31.6101 53.4299C31.5001 53.5799 31.4201 53.7699 31.3601 53.9799C31.3101 54.1899 31.28 54.4199 31.28 54.6699C31.28 54.9199 31.3001 55.1399 31.3401 55.3499C31.3901 55.5599 31.4601 55.7499 31.5601 55.9099C31.6601 56.0699 31.8 56.1899 31.98 56.2899C32.15 56.3799 32.3701 56.4299 32.6201 56.4299C32.8501 56.4299 33.06 56.3899 33.23 56.2999C33.4 56.2199 33.5399 56.0999 33.6499 55.9399C33.7599 55.7899 33.8399 55.5999 33.8899 55.3899C33.9399 55.1799 33.97 54.9499 33.97 54.6899H33.98ZM34.8301 54.6299C34.8301 54.9899 34.7799 55.3199 34.6899 55.6199C34.5999 55.9199 34.45 56.1799 34.27 56.3999C34.08 56.6199 33.8501 56.7899 33.5701 56.9099C33.2901 57.0299 32.9601 57.0899 32.5901 57.0899C32.2201 57.0899 31.9099 57.0399 31.6399 56.9299C31.3699 56.8199 31.15 56.6699 30.97 56.4599C30.79 56.2599 30.6601 56.0099 30.5701 55.7099C30.4801 55.4199 30.4399 55.0899 30.4399 54.7099C30.4399 54.3299 30.4901 54.0199 30.5801 53.7199C30.6701 53.4199 30.81 53.1599 31 52.9399C31.19 52.7199 31.42 52.5499 31.7 52.4299C31.98 52.3099 32.3099 52.2499 32.6799 52.2499C33.0499 52.2499 33.3601 52.2999 33.6201 52.4099C33.8901 52.5199 34.11 52.6699 34.29 52.8799C34.47 53.0899 34.5999 53.3299 34.6899 53.6299C34.7799 53.9199 34.8301 54.2499 34.8301 54.6199V54.6299ZM29.1499 56.8699C29.1499 56.8699 29.1499 56.9199 29.1299 56.9399C29.1199 56.9599 29.0901 56.9799 29.0601 56.9899C29.0301 56.9899 28.9799 57.0099 28.9299 57.0099C28.8799 57.0099 28.81 57.0199 28.73 57.0199C28.65 57.0199 28.58 57.0199 28.52 57.0099C28.47 57.0099 28.4299 56.9999 28.3899 56.9899C28.3599 56.9799 28.3301 56.9599 28.3201 56.9399C28.3101 56.9199 28.3 56.8999 28.3 56.8699V54.0699H25.4199V56.8699C25.4199 56.8699 25.4199 56.9199 25.3999 56.9399C25.3899 56.9599 25.3601 56.9799 25.3301 56.9899C25.3001 56.9899 25.25 57.0099 25.2 57.0099C25.15 57.0099 25.08 57.0199 25 57.0199C24.92 57.0199 24.85 57.0199 24.8 57.0099C24.74 57.0099 24.6999 56.9999 24.6699 56.9899C24.6399 56.9799 24.6101 56.9599 24.6001 56.9399C24.5901 56.9199 24.5801 56.8999 24.5801 56.8699V50.8099C24.5801 50.8099 24.5801 50.7599 24.6001 50.7399C24.6101 50.7199 24.6399 50.7099 24.6699 50.6999C24.6999 50.6899 24.75 50.6799 24.8 50.6699C24.86 50.6699 24.92 50.6599 25 50.6599C25.08 50.6599 25.15 50.6599 25.2 50.6699C25.26 50.6699 25.3001 50.6899 25.3301 50.6999C25.3601 50.6999 25.3899 50.7199 25.3999 50.7399C25.4099 50.7599 25.4199 50.7799 25.4199 50.8099V53.3399H28.3V50.8099C28.3 50.8099 28.3001 50.7599 28.3201 50.7399C28.3301 50.7199 28.3599 50.7099 28.3899 50.6999C28.4199 50.6899 28.46 50.6799 28.52 50.6699C28.57 50.6699 28.64 50.6599 28.73 50.6599C28.81 50.6599 28.8699 50.6599 28.9299 50.6699C28.9899 50.6699 29.0301 50.6899 29.0601 50.6999C29.0901 50.6999 29.1199 50.7199 29.1299 50.7399C29.1399 50.7599 29.1499 50.7799 29.1499 50.8099V56.8699Z" fill="#E6E9EC"/>
<path d="M20 13V11C20 10.45 20.45 10 21 10H29C29.55 10 30 10.45 30 11V13H20Z" fill="#E6E9EC"/>
<mask id="mask1_893_4925" style="mask-type:luminance" maskUnits="userSpaceOnUse" x="16" y="13" width="18" height="33">
<path d="M31 13H19C17.3431 13 16 14.3431 16 16V43C16 44.6569 17.3431 46 19 46H31C32.6569 46 34 44.6569 34 43V16C34 14.3431 32.6569 13 31 13Z" fill="white"/>
</mask>
<g mask="url(#mask1_893_4925)">
<path d="M19 9C15.13 9 12 12.13 12 16H20C20 16.55 19.55 17 19 17V9ZM31 17C30.45 17 30 16.55 30 16H38C38 12.13 34.87 9 31 9V17ZM30 43C30 42.45 30.45 42 31 42V50C34.87 50 38 46.87 38 43H30ZM19 42C19.55 42 20 42.45 20 43H12C12 46.87 15.13 50 19 50V42ZM20 43V16H12V43H20ZM31 42H19V50H31V42ZM30 16V43H38V16H30ZM19 17H31V9H19V17Z" fill="#E6E9EC"/>
</g>
<path d="M37.481 31.2115L47.491 9.64729C47.9898 8.57294 49.6119 9.10414 49.3785 10.2654L46.4669 24.7515C46.3325 25.4203 46.8924 26.0244 47.5694 25.9411L57.9678 24.6613C58.7386 24.5664 59.3187 25.348 59.0045 26.0583L50.2848 45.7725C49.8047 46.858 48.1696 46.3514 48.3872 45.1846L50.785 32.33C50.9097 31.6617 50.3454 31.0665 49.6714 31.1552L38.5186 32.624C37.7368 32.727 37.149 31.9268 37.481 31.2115Z" fill="#E6E9EC"/>
</svg>
