<svg width="97" height="58" viewBox="0 0 97 58" fill="none" xmlns="http://www.w3.org/2000/svg">
<rect x="0.75" y="0.75" width="94.5" height="56.5" rx="4.25" fill="#EFEFEF" stroke="black" stroke-width="1.5"/>
<path d="M19.2932 41L28.9409 21.9091V21.75H17.7023V17.7273H34.0318V21.8068L24.3727 41H19.2932ZM45.8358 41.3182C44.6388 41.3106 43.4835 41.1098 42.3699 40.7159C41.2638 40.322 40.2714 39.6818 39.3926 38.7955C38.5138 37.9091 37.8169 36.7348 37.3017 35.2727C36.7941 33.8106 36.5403 32.0152 36.5403 29.8864C36.5479 27.9318 36.7714 26.1856 37.2108 24.6477C37.6578 23.1023 38.2941 21.7917 39.1199 20.7159C39.9532 19.6402 40.9494 18.822 42.1085 18.2614C43.2676 17.6932 44.5669 17.4091 46.0063 17.4091C47.5593 17.4091 48.9305 17.7121 50.1199 18.3182C51.3093 18.9167 52.2638 19.7311 52.9835 20.7614C53.7108 21.7917 54.1502 22.947 54.3017 24.2273H49.4494C49.26 23.4167 48.8623 22.7803 48.2563 22.3182C47.6502 21.8561 46.9002 21.625 46.0063 21.625C44.4911 21.625 43.3396 22.2841 42.5517 23.6023C41.7714 24.9205 41.3737 26.7121 41.3585 28.9773H41.5176C41.8661 28.2879 42.3358 27.7008 42.9267 27.2159C43.5252 26.7235 44.2032 26.3485 44.9608 26.0909C45.726 25.8258 46.5328 25.6932 47.3813 25.6932C48.76 25.6932 49.9873 26.0189 51.0631 26.6705C52.1388 27.3144 52.9873 28.2008 53.6085 29.3295C54.2297 30.4583 54.5403 31.75 54.5403 33.2045C54.5403 34.7803 54.1729 36.1818 53.4381 37.4091C52.7108 38.6364 51.6919 39.5985 50.3813 40.2955C49.0782 40.9848 47.5631 41.3258 45.8358 41.3182ZM45.8131 37.4545C46.5707 37.4545 47.2487 37.2727 47.8472 36.9091C48.4457 36.5455 48.9153 36.053 49.2563 35.4318C49.5972 34.8106 49.7676 34.1136 49.7676 33.3409C49.7676 32.5682 49.5972 31.875 49.2563 31.2614C48.9229 30.6477 48.4608 30.1591 47.8699 29.7955C47.279 29.4318 46.6047 29.25 45.8472 29.25C45.279 29.25 44.7525 29.3561 44.2676 29.5682C43.7903 29.7803 43.3699 30.0758 43.0063 30.4545C42.6502 30.8333 42.3699 31.2727 42.1653 31.7727C41.9608 32.2652 41.8585 32.7917 41.8585 33.3523C41.8585 34.1023 42.029 34.7879 42.3699 35.4091C42.7184 36.0303 43.1881 36.5265 43.779 36.8977C44.3775 37.2689 45.0555 37.4545 45.8131 37.4545ZM70.7676 36.6364V35.4091C70.7676 34.4773 70.9646 33.6212 71.3585 32.8409C71.76 32.053 72.3396 31.4242 73.0972 30.9545C73.8623 30.4773 74.7941 30.2386 75.8926 30.2386C77.0063 30.2386 77.9419 30.4735 78.6994 30.9432C79.4646 31.4129 80.0403 32.0417 80.4267 32.8295C80.8207 33.6098 81.0176 34.4697 81.0176 35.4091V36.6364C81.0176 37.5682 80.8207 38.428 80.4267 39.2159C80.0328 39.9962 79.4532 40.6212 78.6881 41.0909C77.9229 41.5682 76.9911 41.8068 75.8926 41.8068C74.779 41.8068 73.8434 41.5682 73.0858 41.0909C72.3282 40.6212 71.7525 39.9962 71.3585 39.2159C70.9646 38.428 70.7676 37.5682 70.7676 36.6364ZM74.0744 35.4091V36.6364C74.0744 37.1742 74.2032 37.6818 74.4608 38.1591C74.726 38.6364 75.2032 38.875 75.8926 38.875C76.582 38.875 77.0517 38.6402 77.3017 38.1705C77.5593 37.7008 77.6881 37.1894 77.6881 36.6364V35.4091C77.6881 34.8561 77.5669 34.3409 77.3244 33.8636C77.082 33.3864 76.6047 33.1477 75.8926 33.1477C75.2108 33.1477 74.7373 33.3864 74.4722 33.8636C74.207 34.3409 74.0744 34.8561 74.0744 35.4091ZM58.8244 23.3182V22.0909C58.8244 21.1515 59.0252 20.2917 59.4267 19.5114C59.8282 18.7235 60.4078 18.0947 61.1653 17.625C61.9305 17.1553 62.8547 16.9205 63.9381 16.9205C65.0593 16.9205 65.9987 17.1553 66.7563 17.625C67.5138 18.0947 68.0896 18.7235 68.4835 19.5114C68.8775 20.2917 69.0744 21.1515 69.0744 22.0909V23.3182C69.0744 24.2576 68.8737 25.1174 68.4722 25.8977C68.0782 26.678 67.4987 27.303 66.7335 27.7727C65.976 28.2348 65.0441 28.4659 63.9381 28.4659C62.832 28.4659 61.8964 28.2311 61.1313 27.7614C60.3737 27.2841 59.7979 26.6591 59.404 25.8864C59.0176 25.1061 58.8244 24.25 58.8244 23.3182ZM62.154 22.0909V23.3182C62.154 23.8712 62.2828 24.3826 62.5403 24.8523C62.8055 25.322 63.2714 25.5568 63.9381 25.5568C64.635 25.5568 65.1085 25.322 65.3585 24.8523C65.6161 24.3826 65.7449 23.8712 65.7449 23.3182V22.0909C65.7449 21.5379 65.6237 21.0227 65.3813 20.5455C65.1388 20.0682 64.6578 19.8295 63.9381 19.8295C63.2638 19.8295 62.7979 20.072 62.5403 20.5568C62.2828 21.0417 62.154 21.553 62.154 22.0909ZM60.3244 41L76.3244 17.7273H79.3017L63.3017 41H60.3244Z" fill="black"/>
</svg>
