<svg width="96" height="57" viewBox="0 0 96 57" fill="none" xmlns="http://www.w3.org/2000/svg">
<rect x="0.5" y="0.5" width="95" height="56" rx="4.5" fill="#EFEFEF" stroke="black"/>
<path d="M21.8258 45.5068V43.9159L26.7476 38.8165C27.2732 38.2625 27.7065 37.7772 28.0474 37.3605C28.393 36.9391 28.6511 36.539 28.8215 36.1602C28.992 35.7815 29.0772 35.379 29.0772 34.9529C29.0772 34.4699 28.9636 34.0532 28.7363 33.7029C28.509 33.3477 28.1989 33.0755 27.8059 32.8861C27.4129 32.692 26.9702 32.5949 26.4778 32.5949C25.9569 32.5949 25.5024 32.7014 25.1141 32.9145C24.7259 33.1276 24.4276 33.4282 24.2192 33.8165C24.0109 34.2048 23.9067 34.6593 23.9067 35.1801H21.8116C21.8116 34.2947 22.0152 33.5206 22.4224 32.8577C22.8296 32.1948 23.3883 31.6811 24.0985 31.3165C24.8087 30.9472 25.616 30.7625 26.5204 30.7625C27.4342 30.7625 28.2391 30.9448 28.9351 31.3094C29.6359 31.6692 30.1828 32.1617 30.5758 32.7867C30.9688 33.4069 31.1653 34.1077 31.1653 34.8889C31.1653 35.4287 31.0635 35.9566 30.8599 36.4727C30.661 36.9888 30.313 37.5641 29.8158 38.1986C29.3187 38.8283 28.6274 39.593 27.742 40.4926L24.8513 43.5182V43.6247H31.3996V45.5068H21.8258ZM39.1553 45.7483C38.0332 45.7436 37.0744 45.4477 36.2789 44.8605C35.4834 44.2734 34.875 43.4188 34.4536 42.2966C34.0322 41.1744 33.8215 39.8227 33.8215 38.2412C33.8215 36.6645 34.0322 35.3174 34.4536 34.2C34.8798 33.0826 35.4905 32.2303 36.286 31.6432C37.0862 31.0561 38.0426 30.7625 39.1553 30.7625C40.268 30.7625 41.2221 31.0584 42.0175 31.6503C42.813 32.2374 43.4214 33.0897 43.8428 34.2071C44.269 35.3198 44.482 36.6645 44.482 38.2412C44.482 39.8274 44.2713 41.1816 43.8499 42.3037C43.4285 43.4211 42.8201 44.2758 42.0246 44.8676C41.2292 45.4548 40.2727 45.7483 39.1553 45.7483ZM39.1553 43.852C40.1402 43.852 40.9096 43.3714 41.4636 42.4102C42.0223 41.4491 42.3016 40.0594 42.3016 38.2412C42.3016 37.0338 42.1738 36.0135 41.9181 35.1801C41.6672 34.3421 41.3049 33.7076 40.8315 33.2767C40.3627 32.8411 39.804 32.6233 39.1553 32.6233C38.1752 32.6233 37.4058 33.1063 36.8471 34.0722C36.2884 35.0381 36.0066 36.4278 36.0019 38.2412C36.0019 39.4533 36.1274 40.4784 36.3783 41.3165C36.634 42.1498 36.9962 42.7819 37.465 43.2128C37.9337 43.6389 38.4972 43.852 39.1553 43.852ZM47.9018 45.6418C47.5135 45.6418 47.1797 45.5045 46.9003 45.2298C46.621 44.9505 46.4813 44.6143 46.4813 44.2213C46.4813 43.8331 46.621 43.5016 46.9003 43.227C47.1797 42.9477 47.5135 42.808 47.9018 42.808C48.29 42.808 48.6238 42.9477 48.9032 43.227C49.1825 43.5016 49.3222 43.8331 49.3222 44.2213C49.3222 44.4817 49.2559 44.7209 49.1234 44.9387C48.9955 45.1517 48.8251 45.3222 48.612 45.45C48.3989 45.5779 48.1622 45.6418 47.9018 45.6418ZM56.6891 45.7057C56.0404 45.6962 55.4012 45.5779 54.7714 45.3506C54.1464 45.1233 53.5783 44.7445 53.0669 44.2142C52.5555 43.6839 52.146 42.9713 51.8382 42.0764C51.5352 41.1816 51.3837 40.0641 51.3837 38.7242C51.3837 37.4552 51.5091 36.3283 51.7601 35.3435C52.0158 34.3586 52.3827 33.5277 52.8609 32.8506C53.3392 32.1688 53.9168 31.6503 54.5939 31.2952C55.271 30.9401 56.0309 30.7625 56.8737 30.7625C57.7402 30.7625 58.5096 30.933 59.182 31.2739C59.8543 31.6148 60.3988 32.0859 60.8155 32.6872C61.2369 33.2886 61.5044 33.9727 61.618 34.7398H59.4518C59.3051 34.1337 59.0139 33.6389 58.5783 33.2554C58.1427 32.8719 57.5745 32.6801 56.8737 32.6801C55.8084 32.6801 54.9774 33.1441 54.3808 34.0722C53.789 35.0002 53.4907 36.2905 53.4859 37.9429H53.5925C53.8434 37.531 54.1512 37.1806 54.5158 36.8918C54.8851 36.5982 55.297 36.3733 55.7516 36.2171C56.2108 36.0561 56.6938 35.9756 57.2004 35.9756C58.0432 35.9756 58.8055 36.1816 59.4874 36.5935C60.1739 37.0007 60.7208 37.5641 61.128 38.2838C61.5352 39.0035 61.7388 39.8274 61.7388 40.7554C61.7388 41.6834 61.5281 42.5239 61.1067 43.2767C60.69 44.0296 60.1029 44.6262 59.3453 45.0665C58.5877 45.5021 57.7023 45.7152 56.6891 45.7057ZM56.682 43.8591C57.2407 43.8591 57.7402 43.7218 58.1805 43.4472C58.6209 43.1726 58.9689 42.8032 59.2246 42.3392C59.4803 41.8752 59.6081 41.3567 59.6081 40.7838C59.6081 40.2251 59.4826 39.7161 59.2317 39.2568C58.9855 38.7976 58.6445 38.433 58.2089 38.1631C57.7781 37.8932 57.2856 37.7583 56.7317 37.7583C56.3103 37.7583 55.9196 37.8387 55.5598 37.9997C55.2047 38.1607 54.8922 38.3833 54.6223 38.6673C54.3524 38.9514 54.1393 39.2781 53.9831 39.6475C53.8316 40.012 53.7558 40.3979 53.7558 40.8051C53.7558 41.3496 53.8813 41.8539 54.1322 42.3179C54.3879 42.7819 54.7359 43.156 55.1763 43.4401C55.6213 43.7194 56.1232 43.8591 56.682 43.8591ZM66.4778 39.0296V45.5068H64.3542V30.9614H66.4494V36.3733H66.5843C66.84 35.7862 67.2306 35.3198 67.7562 34.9742C68.2817 34.6285 68.9683 34.4557 69.8158 34.4557C70.5639 34.4557 71.2173 34.6096 71.7761 34.9173C72.3395 35.2251 72.7751 35.6844 73.0829 36.2952C73.3954 36.9012 73.5516 37.6588 73.5516 38.5679V45.5068H71.428V38.8236C71.428 38.0234 71.2221 37.4031 70.8102 36.9628C70.3982 36.5177 69.8253 36.2952 69.0914 36.2952C68.5895 36.2952 68.1397 36.4017 67.742 36.6148C67.349 36.8279 67.0388 37.1404 66.8116 37.5523C66.589 37.9595 66.4778 38.4519 66.4778 39.0296Z" fill="black"/>
<path d="M15.6067 20V9.81818H18.8929C19.6155 9.81818 20.2187 9.9491 20.7026 10.2109C21.1898 10.4695 21.556 10.8291 21.8013 11.2898C22.0499 11.7472 22.1742 12.2725 22.1742 12.8658C22.1742 13.459 22.0499 13.9827 21.8013 14.4368C21.556 14.8909 21.1915 15.2455 20.7076 15.5007C20.2237 15.7559 19.6238 15.8835 18.9078 15.8835H16.1088V15.0334H18.883C19.4133 15.0334 19.8541 14.9455 20.2054 14.7699C20.5601 14.5942 20.8236 14.344 20.9959 14.0192C21.1716 13.6944 21.2594 13.3099 21.2594 12.8658C21.2594 12.4216 21.1716 12.0339 20.9959 11.7024C20.8202 11.3677 20.5551 11.1091 20.2005 10.9268C19.8491 10.7446 19.405 10.6534 18.8681 10.6534H16.5364V20H15.6067ZM20.0961 15.4062L22.6017 20H21.5279L19.047 15.4062H20.0961ZM27.2601 20.1591C26.5475 20.1591 25.931 19.9934 25.4107 19.6619C24.8903 19.3272 24.4876 18.8648 24.2026 18.2749C23.9209 17.6816 23.78 16.9988 23.78 16.2266C23.78 15.4576 23.9209 14.7749 24.2026 14.1783C24.4876 13.5784 24.8804 13.1094 25.3809 12.7713C25.8846 12.4299 26.4663 12.2592 27.1259 12.2592C27.5402 12.2592 27.9396 12.3355 28.324 12.4879C28.7085 12.6371 29.0532 12.8674 29.3581 13.179C29.6664 13.4872 29.91 13.8767 30.0889 14.3473C30.2679 14.8146 30.3574 15.3681 30.3574 16.0078V16.4453H24.3915V15.6648H29.4526C29.4526 15.1742 29.3532 14.7334 29.1543 14.3423C28.9587 13.9479 28.6853 13.6364 28.334 13.4077C27.986 13.179 27.5833 13.0646 27.1259 13.0646C26.642 13.0646 26.2161 13.1939 25.8482 13.4524C25.4803 13.7109 25.1919 14.0523 24.9831 14.4766C24.7776 14.9008 24.6732 15.3648 24.6699 15.8686V16.3359C24.6699 16.9425 24.7743 17.4728 24.9831 17.9268C25.1952 18.3776 25.4952 18.7273 25.883 18.9759C26.2708 19.2244 26.7298 19.3487 27.2601 19.3487C27.6214 19.3487 27.9379 19.2924 28.2097 19.1797C28.4848 19.067 28.7151 18.9162 28.9007 18.7273C29.0897 18.535 29.2322 18.3246 29.3283 18.0959L30.1685 18.3693C30.0525 18.6908 29.8619 18.9875 29.5968 19.2592C29.3349 19.531 29.0068 19.7498 28.6124 19.9155C28.2213 20.0779 27.7705 20.1591 27.2601 20.1591ZM32.3075 20V12.3636H33.1676V13.5369H33.2472C33.3996 13.1425 33.6532 12.8326 34.0078 12.6072C34.3658 12.3786 34.795 12.2642 35.2954 12.2642C35.8224 12.2642 36.255 12.3885 36.593 12.6371C36.9344 12.8823 37.1896 13.2204 37.3587 13.6513H37.4233C37.5956 13.227 37.8757 12.8906 38.2635 12.642C38.6546 12.3902 39.1285 12.2642 39.6854 12.2642C40.3946 12.2642 40.9548 12.4879 41.3658 12.9354C41.7767 13.3795 41.9822 14.0291 41.9822 14.8842V20H41.0973V14.8842C41.0973 14.281 40.9432 13.8286 40.6349 13.527C40.3267 13.2254 39.9207 13.0746 39.4169 13.0746C38.8336 13.0746 38.3845 13.2536 38.0696 13.6115C37.7547 13.9695 37.5973 14.4235 37.5973 14.9737V20H36.6925V14.8047C36.6925 14.2876 36.5483 13.87 36.2599 13.5518C35.9716 13.2337 35.5656 13.0746 35.0419 13.0746C34.6906 13.0746 34.374 13.1607 34.0923 13.3331C33.8139 13.5054 33.5935 13.7457 33.4311 14.054C33.272 14.3589 33.1925 14.7102 33.1925 15.108V20H32.3075ZM46.4579 20.174C45.9972 20.174 45.5763 20.0845 45.1951 19.9055C44.814 19.7232 44.5107 19.4614 44.2853 19.12C44.0599 18.7753 43.9473 18.3577 43.9473 17.8672C43.9473 17.4893 44.0185 17.1712 44.161 16.9126C44.3036 16.6541 44.5057 16.442 44.7676 16.2763C45.0294 16.1106 45.3393 15.9796 45.6973 15.8835C46.0552 15.7874 46.4496 15.7128 46.8805 15.6598C47.3081 15.6068 47.6693 15.5604 47.9643 15.5206C48.2626 15.4808 48.4896 15.4179 48.6454 15.3317C48.8012 15.2455 48.8791 15.1063 48.8791 14.9141V14.7351C48.8791 14.2147 48.7233 13.8054 48.4117 13.5071C48.1035 13.2055 47.6594 13.0547 47.0794 13.0547C46.5292 13.0547 46.0801 13.1757 45.7321 13.4176C45.3874 13.6596 45.1454 13.9446 45.0062 14.2727L44.166 13.9695C44.3384 13.5518 44.577 13.2187 44.8819 12.9702C45.1868 12.7183 45.5282 12.5376 45.9061 12.4283C46.2839 12.3156 46.6667 12.2592 47.0545 12.2592C47.3462 12.2592 47.6494 12.2973 47.9643 12.3736C48.2825 12.4498 48.5775 12.5824 48.8492 12.7713C49.121 12.9569 49.3414 13.2171 49.5105 13.5518C49.6795 13.8833 49.764 14.3042 49.764 14.8146V20H48.8791V18.7919H48.8244C48.7183 19.0173 48.5609 19.236 48.3521 19.4482C48.1433 19.6603 47.8814 19.8343 47.5666 19.9702C47.2517 20.1061 46.8822 20.174 46.4579 20.174ZM46.5772 19.3636C47.0479 19.3636 47.4555 19.2592 47.8002 19.0504C48.1449 18.8416 48.4101 18.5649 48.5957 18.2202C48.7846 17.8722 48.8791 17.4893 48.8791 17.0717V15.968C48.8128 16.031 48.7018 16.0874 48.546 16.1371C48.3935 16.1868 48.2162 16.2315 48.014 16.2713C47.8152 16.3078 47.6163 16.3393 47.4174 16.3658C47.2186 16.3923 47.0396 16.4155 46.8805 16.4354C46.4496 16.4884 46.0817 16.5713 45.7768 16.6839C45.4719 16.7966 45.2382 16.9524 45.0758 17.1513C44.9134 17.3468 44.8322 17.5987 44.8322 17.907C44.8322 18.371 44.9979 18.7306 45.3294 18.9858C45.6608 19.2377 46.0768 19.3636 46.5772 19.3636ZM52.128 20V12.3636H53.0179V20H52.128ZM52.5804 11.0511C52.3981 11.0511 52.2424 10.9898 52.1131 10.8672C51.9838 10.7412 51.9192 10.5904 51.9192 10.4148C51.9192 10.2391 51.9838 10.09 52.1131 9.96733C52.2424 9.84138 52.3981 9.77841 52.5804 9.77841C52.7627 9.77841 52.9185 9.84138 53.0478 9.96733C53.177 10.09 53.2416 10.2391 53.2416 10.4148C53.2416 10.5904 53.177 10.7412 53.0478 10.8672C52.9185 10.9898 52.7627 11.0511 52.5804 11.0511ZM56.2432 15.2273V20H55.3583V12.3636H56.2184V13.5618H56.2979C56.4769 13.1707 56.7553 12.8575 57.1332 12.6222C57.5143 12.3835 57.985 12.2642 58.5451 12.2642C59.0588 12.2642 59.5096 12.3719 59.8974 12.5874C60.2885 12.7995 60.5917 13.1127 60.8072 13.527C61.0259 13.9413 61.1353 14.45 61.1353 15.0533V20H60.2503V15.108C60.2503 14.4815 60.0747 13.986 59.7234 13.6214C59.3753 13.2569 58.908 13.0746 58.3214 13.0746C57.9203 13.0746 57.564 13.1607 57.2525 13.3331C56.9409 13.5054 56.694 13.754 56.5117 14.0788C56.3327 14.4003 56.2432 14.7831 56.2432 15.2273ZM63.4757 20V12.3636H64.3656V20H63.4757ZM63.9281 11.0511C63.7458 11.0511 63.59 10.9898 63.4608 10.8672C63.3315 10.7412 63.2669 10.5904 63.2669 10.4148C63.2669 10.2391 63.3315 10.09 63.4608 9.96733C63.59 9.84138 63.7458 9.77841 63.9281 9.77841C64.1104 9.77841 64.2662 9.84138 64.3954 9.96733C64.5247 10.09 64.5893 10.2391 64.5893 10.4148C64.5893 10.5904 64.5247 10.7412 64.3954 10.8672C64.2662 10.9898 64.1104 11.0511 63.9281 11.0511ZM67.5909 15.2273V20H66.706V12.3636H67.566V13.5618H67.6456C67.8246 13.1707 68.103 12.8575 68.4808 12.6222C68.862 12.3835 69.3326 12.2642 69.8927 12.2642C70.4065 12.2642 70.8572 12.3719 71.245 12.5874C71.6361 12.7995 71.9394 13.1127 72.1548 13.527C72.3736 13.9413 72.4829 14.45 72.4829 15.0533V20H71.598V15.108C71.598 14.4815 71.4223 13.986 71.071 13.6214C70.723 13.2569 70.2557 13.0746 69.669 13.0746C69.268 13.0746 68.9117 13.1607 68.6001 13.3331C68.2886 13.5054 68.0417 13.754 67.8594 14.0788C67.6804 14.4003 67.5909 14.7831 67.5909 15.2273ZM77.7267 23.0227C77.2064 23.0227 76.7506 22.9548 76.3595 22.8189C75.9684 22.6863 75.6387 22.504 75.3702 22.272C75.1017 22.04 74.8929 21.7798 74.7438 21.4915L75.4696 21.0142C75.579 21.2064 75.7248 21.3954 75.9071 21.581C76.0927 21.7666 76.333 21.9207 76.628 22.0433C76.9263 22.166 77.2925 22.2273 77.7267 22.2273C78.4029 22.2273 78.9481 22.0582 79.3624 21.7202C79.78 21.3821 79.9888 20.8568 79.9888 20.1442V18.424H79.9093C79.8065 18.656 79.659 18.888 79.4668 19.12C79.2746 19.3487 79.0227 19.5393 78.7111 19.6918C78.4029 19.8442 78.0201 19.9205 77.5627 19.9205C76.9528 19.9205 76.4109 19.7696 75.937 19.468C75.4663 19.1664 75.0951 18.7356 74.8233 18.1754C74.5549 17.612 74.4206 16.9408 74.4206 16.1619C74.4206 15.3897 74.5515 14.7102 74.8134 14.1236C75.0785 13.5369 75.4481 13.0795 75.922 12.7514C76.396 12.4233 76.9479 12.2592 77.5776 12.2592C78.0449 12.2592 78.4327 12.3421 78.7409 12.5078C79.0492 12.6702 79.2961 12.8724 79.4817 13.1143C79.6706 13.3563 79.8181 13.5916 79.9242 13.8203H80.0137V12.3636H80.8787V20.1989C80.8787 20.8452 80.7412 21.3771 80.4661 21.7947C80.191 22.2124 79.8165 22.5206 79.3425 22.7195C78.8685 22.9216 78.33 23.0227 77.7267 23.0227ZM77.6671 19.1101C78.1576 19.1101 78.5769 18.9924 78.9249 18.7571C79.2729 18.5185 79.5397 18.1771 79.7253 17.733C79.9109 17.2888 80.0037 16.7602 80.0037 16.147C80.0037 15.5504 79.9126 15.0218 79.7303 14.5611C79.548 14.0971 79.2828 13.7325 78.9348 13.4673C78.5901 13.1989 78.1675 13.0646 77.6671 13.0646C77.1567 13.0646 76.7258 13.2022 76.3745 13.4773C76.0231 13.7524 75.758 14.1236 75.579 14.5909C75.4 15.0549 75.3105 15.5736 75.3105 16.147C75.3105 16.7304 75.4017 17.2457 75.584 17.6932C75.7663 18.1373 76.0331 18.4853 76.3844 18.7372C76.7357 18.9858 77.1633 19.1101 77.6671 19.1101Z" fill="black"/>
</svg>
