<svg width="18" height="18" viewBox="0 0 18 18" fill="none" xmlns="http://www.w3.org/2000/svg">
<g clip-path="url(#clip0_133_207)">
<path d="M16.5 9C16.3011 9 16.1103 9.07902 15.9697 9.21967C15.829 9.36032 15.75 9.55109 15.75 9.75V15C15.75 15.4144 15.4144 15.75 15 15.75H3C2.58562 15.75 2.25 15.4144 2.25 15V3C2.25 2.58562 2.58562 2.25 3 2.25H8.25C8.44889 2.24997 8.63963 2.17094 8.78026 2.03029C8.92088 1.88964 8.99989 1.69889 8.99989 1.5C8.99989 1.30111 8.92088 1.11036 8.78026 0.96971C8.63963 0.829061 8.44889 0.75003 8.25 0.75H3C1.75744 0.75 0.75 1.75744 0.75 3V15C0.75 16.2426 1.75744 17.25 3 17.25H15C16.2426 17.25 17.25 16.2426 17.25 15V9.75C17.25 9.55109 17.171 9.36032 17.0303 9.21967C16.8897 9.07902 16.6989 9 16.5 9ZM17.25 1.5V6C17.25 6.19889 17.1709 6.38963 17.0303 6.53026C16.8896 6.67088 16.6989 6.74989 16.5 6.74989C16.3011 6.74989 16.1104 6.67088 15.9697 6.53026C15.8291 6.38963 15.75 6.19889 15.75 6V3.3105L9.60544 9.45487C9.46378 9.59044 9.27467 9.66514 9.07861 9.66298C8.88256 9.66081 8.69514 9.58196 8.55651 9.44331C8.41788 9.30465 8.33906 9.11722 8.33693 8.92116C8.3348 8.7251 8.40954 8.53601 8.54513 8.39437L14.6893 2.25H12C11.8011 2.24997 11.6104 2.17094 11.4697 2.03029C11.3291 1.88964 11.2501 1.69889 11.2501 1.5C11.2501 1.30111 11.3291 1.11036 11.4697 0.96971C11.6104 0.829061 11.8011 0.75003 12 0.75H16.5C16.6989 0.75 16.8897 0.829018 17.0303 0.96967C17.171 1.11032 17.25 1.30109 17.25 1.5Z" fill="#1561AB"/>
</g>
<defs>
<clipPath id="clip0_133_207">
<rect width="18" height="18" fill="white"/>
</clipPath>
</defs>
</svg>
